<?xml version="1.0" encoding="UTF-8"?>
<svg xmlns="http://www.w3.org/2000/svg" xmlns:xlink="http://www.w3.org/1999/xlink" width="1808.12pt" height="2257.79pt" viewBox="0 0 1808.12 2257.79" version="1.1">
<defs>
<clipPath id="clip1">
  <path d="M 0 0 L 1808.121094 0 L 1808.121094 1760 L 0 1760 Z M 0 0 "/>
</clipPath>
<clipPath id="clip2">
  <path d="M 205 1826 L 1022 1826 L 1022 2257.789063 L 205 2257.789063 Z M 205 1826 "/>
</clipPath>
</defs>
<g id="surface1">
<g clip-path="url(#clip1)" clip-rule="nonzero">
<path style=" stroke:none;fill-rule:nonzero;fill:rgb(100%,100%,100%);fill-opacity:1;" d="M 1808.121094 303.46875 C 1808.121094 300.738281 1807.941406 298.058594 1807.589844 295.429688 C 1807.441406 293.941406 1807.308594 292.308594 1807.171875 290.601563 C 1805.859375 274.691406 1803.421875 245.070313 1778.21875 220.949219 C 1767.800781 210.960938 1758.800781 203.230469 1749.890625 196.601563 C 1705.230469 163.351563 1655.46875 136.820313 1597.78125 115.488281 C 1540.761719 94.410156 1491.589844 84.589844 1443.03125 84.589844 C 1441.238281 84.589844 1439.460938 84.601563 1437.671875 84.628906 C 1409.820313 85.058594 1382.28125 81.359375 1355.828125 73.621094 C 1323.910156 64.269531 1291.289063 53.628906 1259.75 43.339844 L 1251.910156 40.78125 C 1222.851563 31.300781 1188.058594 21.078125 1150.320313 17.128906 C 1137.46875 15.78125 1123.96875 15.101563 1110.191406 15.101563 C 1084.761719 15.101563 1058.199219 17.261719 1024.070313 22.109375 C 988.222656 27.210938 954.140625 36.871094 922.304688 46.328125 C 868.378906 62.351563 813.933594 70.480469 760.472656 70.480469 C 734.503906 70.480469 708.160156 68.558594 682.171875 64.789063 C 635.4375 58.011719 589.070313 48.191406 544.347656 35.609375 C 518.738281 28.410156 492.542969 20.429688 467.210938 12.71875 C 458.214844 9.980469 449.21875 7.25 440.214844 4.53125 C 432.789063 2.289063 423.769531 0 413.167969 0 C 392.589844 0 373.363281 9.078125 360.429688 24.921875 C 352.539063 34.570313 348.484375 44.640625 345.558594 53.210938 C 337.183594 77.761719 333.664063 102.050781 335.101563 125.398438 C 338.6875 183.691406 359.222656 233.929688 395.230469 273.621094 C 336.765625 301.671875 283.808594 335.980469 237.308594 375.96875 C 176.820313 427.980469 125.777344 490.871094 85.601563 562.859375 C 33.183594 656.808594 4.511719 754.941406 0.386719 854.53125 C -1.074219 889.75 1.578125 918.738281 8.730469 945.761719 C 10.074219 950.828125 11.601563 954.949219 12.71875 957.960938 C 12.953125 958.578125 13.191406 959.210938 13.410156 959.839844 C 18.011719 973.050781 26.917969 983.878906 38.234375 990.96875 C 37.976563 993.039063 37.722656 995.121094 37.480469 997.199219 C 31.042969 1052.53125 31.542969 1108.230469 38.976563 1162.75 C 48.46875 1232.390625 68.414063 1297.058594 98.261719 1354.980469 C 123.507813 1403.96875 153.285156 1443.871094 189.285156 1476.96875 C 192.25 1479.699219 194.902344 1481.769531 197.242188 1483.601563 C 198.105469 1484.269531 199.117188 1485.058594 200.34375 1486.050781 C 203.597656 1488.660156 207.0625 1490.878906 210.675781 1492.71875 C 218.210938 1496.570313 226.664063 1498.871094 235.621094 1499.199219 C 236.574219 1499.238281 237.519531 1499.25 238.472656 1499.238281 C 243.316406 1499.199219 248.019531 1498.578125 252.523438 1497.460938 C 305.285156 1587.921875 379.308594 1656.460938 473.085938 1701.570313 C 527.234375 1727.609375 586.488281 1745.21875 654.226563 1755.398438 C 661.589844 1756.5 668.480469 1757.238281 675.140625 1757.949219 C 677.582031 1758.210938 680.023438 1758.480469 682.464844 1758.75 C 683.746094 1758.921875 685.042969 1759.039063 686.347656 1759.121094 C 687.597656 1759.199219 688.839844 1759.230469 690.078125 1759.230469 C 691.957031 1759.230469 693.820313 1759.148438 695.667969 1758.96875 C 716.664063 1757.03125 734.523438 1744.261719 743.621094 1726.308594 C 806.65625 1744.011719 872.933594 1752.941406 941.589844 1752.941406 C 949.476563 1752.941406 957.511719 1752.820313 965.480469 1752.589844 C 1013.609375 1751.191406 1056.601563 1744.308594 1096.890625 1731.550781 C 1103.378906 1729.5 1109.648438 1727.308594 1115.71875 1725 L 1115.710938 1725.011719 C 1257.441406 1673.808594 1274.648438 1551.53125 1274.648438 1551.53125 C 1181.488281 1577.921875 1110.800781 1552.929688 1087.050781 1542.339844 C 1032.828125 1516.949219 992.75 1475.558594 965.367188 1416.921875 C 935.863281 1353.738281 930.820313 1292.269531 949.953125 1229.011719 C 963.429688 1184.460938 988.375 1144.878906 1026.210938 1108.011719 C 1028.210938 1106.058594 1030.050781 1104.210938 1032 1102.238281 C 1032.898438 1101.328125 1033.851563 1100.371094 1034.910156 1099.308594 C 1041.148438 1093.058594 1045.78125 1085.671875 1048.710938 1077.730469 C 1069.320313 1073.410156 1089.269531 1067.460938 1108.339844 1059.941406 C 1137.46875 1048.460938 1168.121094 1042.628906 1199.460938 1042.628906 C 1209.640625 1042.628906 1220.089844 1043.25 1230.519531 1044.460938 C 1281.25 1050.328125 1325.558594 1069.019531 1365.96875 1101.578125 C 1405.730469 1133.621094 1450.941406 1149.859375 1500.351563 1149.859375 C 1509.121094 1149.859375 1518.109375 1149.328125 1527.078125 1148.289063 C 1599.730469 1139.859375 1662.019531 1094.800781 1693.710938 1027.730469 C 1725.351563 960.769531 1720.628906 884.148438 1681.078125 822.78125 C 1680.988281 822.640625 1680.921875 822.53125 1680.871094 822.449219 C 1671.53125 775.640625 1656.140625 737.039063 1633.789063 704.429688 C 1633.609375 704.171875 1633.441406 703.898438 1633.261719 703.640625 C 1630.921875 700.140625 1626.570313 693.640625 1619.621094 687.210938 C 1618.449219 686.128906 1617.238281 685.089844 1616 684.109375 C 1616.988281 684.148438 1617.980469 684.179688 1618.96875 684.179688 C 1627.171875 684.179688 1635.46875 682.648438 1643.648438 679.621094 C 1648.730469 677.738281 1652.621094 675.699219 1654.941406 674.488281 L 1655.558594 674.160156 C 1681.609375 660.828125 1703.070313 640.398438 1719.351563 613.441406 C 1728.941406 597.558594 1736.371094 580.148438 1742.539063 559.050781 C 1745.289063 556.078125 1747.808594 552.789063 1750.101563 549.191406 C 1760.410156 534.75 1773.058594 515.449219 1781.980469 492.210938 C 1793.921875 461.121094 1802.191406 429 1806.539063 396.71875 C 1809.601563 374.011719 1807.390625 352.589844 1800.238281 333.210938 C 1805.25 324.449219 1808.121094 314.289063 1808.121094 303.46875 "/>
</g>
<path style=" stroke:none;fill-rule:evenodd;fill:rgb(13.699341%,12.199402%,12.5%);fill-opacity:1;" d="M 1206.621094 226.140625 C 1214.308594 217.261719 1222.050781 208.339844 1229.5 199.738281 C 1244.769531 201.78125 1260.300781 203.859375 1275.410156 205.890625 C 1257.921875 223.289063 1220.179688 234.289063 1206.621094 226.140625 Z M 1191.710938 222.800781 C 1163.558594 213.570313 1135.070313 204.070313 1103.871094 207.539063 C 1097.550781 193.621094 1096.578125 180 1103.238281 166.179688 C 1104.101563 164.390625 1105.371094 162.800781 1106.308594 161.039063 C 1109.460938 155.109375 1108.039063 150.53125 1101.378906 148.941406 C 1096.039063 147.671875 1090.25 148.261719 1084.648438 148.078125 C 1083.378906 148.039063 1082.089844 148.238281 1080.289063 146.570313 C 1084.738281 145.171875 1089.101563 143.21875 1093.648438 142.460938 C 1117.050781 138.539063 1138.839844 143.980469 1158.75 155.980469 C 1174.390625 165.398438 1189.109375 176.378906 1204.378906 186.78125 C 1203.089844 201.769531 1199.199219 212.769531 1191.710938 222.800781 Z M 1717.46875 321.398438 C 1710.398438 316.421875 1703.019531 311.828125 1696.140625 306.589844 C 1679.109375 293.609375 1663.539063 279.070313 1651.21875 261.410156 C 1649.96875 259.628906 1649.289063 256.230469 1650.160156 254.480469 C 1651.789063 251.210938 1654.710938 253.191406 1657.019531 254.488281 C 1658.769531 255.460938 1660.398438 256.628906 1662.140625 257.601563 C 1686.011719 270.839844 1709.859375 284.121094 1733.789063 297.238281 C 1737.699219 299.378906 1741.980469 300.828125 1748.101563 303.46875 C 1746.390625 288.070313 1747.359375 274.460938 1736.730469 264.28125 C 1729.53125 257.390625 1722.050781 250.671875 1714.058594 244.730469 C 1672.078125 213.46875 1625.941406 189.871094 1576.96875 171.761719 C 1532.351563 155.269531 1486.570313 143.878906 1438.601563 144.621094 C 1404.648438 145.148438 1371.390625 140.691406 1338.980469 131.199219 C 1303.539063 120.828125 1268.429688 109.269531 1233.308594 97.820313 C 1204.128906 88.308594 1174.648438 80.011719 1144.058594 76.800781 C 1106.710938 72.890625 1069.53125 76.261719 1032.519531 81.519531 C 1000.789063 86.03125 970.039063 94.738281 939.390625 103.851563 C 852.246094 129.738281 763.707031 137.25 673.554688 124.171875 C 624.394531 117.03125 575.886719 106.808594 528.105469 93.371094 C 492.875 83.460938 457.929688 72.539063 422.886719 61.96875 C 409.691406 57.988281 406.867188 59.328125 402.347656 72.578125 C 396.910156 88.511719 393.960938 105 394.988281 121.710938 C 398.855469 184.558594 426.980469 233.710938 480.617188 267.070313 C 519.238281 291.089844 561.6875 295.449219 605.855469 287.710938 C 607.902344 287.351563 610.027344 287.449219 614.277344 287.21875 C 611.246094 290.28125 609.992188 292.25 608.195313 293.238281 C 602.089844 296.601563 596.035156 300.269531 589.53125 302.648438 C 558.378906 314.050781 526.578125 316.109375 494.28125 308.011719 C 484.460938 305.539063 474.976563 304.378906 464.992188 308.410156 C 323.445313 365.5 212.695313 458.230469 138 592.101563 C 92.09375 674.371094 64.257813 762.289063 60.335938 857.011719 C 59.3125 881.710938 60.355469 906.320313 66.730469 930.410156 C 67.605469 933.710938 68.949219 936.878906 70.074219 940.109375 C 80.851563 909.730469 91.910156 880.550781 107.277344 853.160156 C 124.167969 823.070313 151.675781 787.828125 163.910156 780.519531 C 163.910156 780.820313 164.019531 781.191406 163.894531 781.449219 C 161.648438 786.269531 159.363281 791.070313 157.101563 795.878906 C 125.976563 862.101563 105.542969 931.441406 97.082031 1004.128906 C 91.238281 1054.308594 91.589844 1104.5 98.425781 1154.648438 C 106.683594 1215.21875 123.554688 1273.078125 151.597656 1327.488281 C 171.890625 1366.871094 197.125 1402.671875 229.902344 1432.808594 C 231.773438 1434.53125 233.863281 1436.011719 237.890625 1439.25 C 219.867188 1378.019531 216.667969 1318.5 230.28125 1258.351563 C 231.71875 1260 232.355469 1261.738281 232.675781 1263.539063 C 243.085938 1321.46875 259.417969 1377.558594 284.992188 1430.730469 C 331.539063 1527.46875 401.90625 1600.75 499.089844 1647.5 C 551.144531 1672.53125 606.203125 1687.511719 663.140625 1696.058594 C 672.066406 1697.398438 681.074219 1698.191406 690.042969 1699.230469 C 665.75 1684.980469 644.910156 1667.660156 626.5 1647.269531 C 606.5625 1625.171875 586.09375 1591.46875 584.386719 1577.28125 C 613.90625 1606.25 648.378906 1626.808594 685.757813 1642.609375 C 774.625 1680.191406 867.589844 1695.421875 963.730469 1692.621094 C 1002.839844 1691.480469 1041.359375 1686.199219 1078.78125 1674.351563 C 1104.378906 1666.25 1128.480469 1655.160156 1149.308594 1637.859375 C 1153.511719 1634.371094 1157.25 1630.328125 1161.800781 1625.96875 C 1148.558594 1623.53125 1136.730469 1622.039063 1125.261719 1619.148438 C 1025.910156 1594.109375 954.117188 1534.640625 911.003906 1442.308594 C 876.429688 1368.269531 868.574219 1290.828125 892.523438 1211.640625 C 909.789063 1154.550781 941.835938 1106.449219 984.34375 1065.039063 C 986.792969 1062.648438 989.183594 1060.191406 992.425781 1056.941406 C 881.074219 1069.699219 786.136719 1036.109375 704 964.710938 C 611.0625 883.929688 581.816406 771.199219 587.925781 686.539063 C 589.378906 697.011719 590.472656 705.890625 591.863281 714.71875 C 593.316406 723.929688 594.710938 733.160156 596.714844 742.261719 C 625.296875 871.96875 700.941406 960.789063 826.777344 1005.21875 C 884.902344 1025.738281 945.027344 1030.941406 1006.109375 1023.910156 C 1033.601563 1020.738281 1060.378906 1014.359375 1086.328125 1004.121094 C 1134.949219 984.949219 1185.570313 978.851563 1237.429688 984.851563 C 1299.53125 992.039063 1354.898438 1015.601563 1403.621094 1054.859375 C 1437.71875 1082.339844 1476.511719 1093.761719 1520.171875 1088.691406 C 1630.578125 1075.878906 1690.871094 948.730469 1630.648438 855.289063 C 1626.421875 848.730469 1623.589844 842 1622.058594 834.328125 C 1615.238281 800.101563 1604.238281 767.449219 1584.300781 738.351563 C 1582.621094 735.890625 1581.03125 733.25 1578.871094 731.261719 C 1576.78125 729.320313 1574.308594 730.070313 1573.300781 732.761719 C 1572.621094 734.558594 1572.820313 736.679688 1572.601563 738.648438 C 1571.378906 749.898438 1570.71875 761.238281 1568.789063 772.359375 C 1565.71875 790.050781 1561.738281 807.589844 1558.25 825.210938 C 1555.601563 838.550781 1560.128906 845.378906 1573.441406 848.289063 C 1577.46875 849.171875 1581.550781 849.828125 1585.609375 850.578125 C 1573.679688 857.171875 1562.140625 856.679688 1552.429688 852.511719 C 1548.160156 830.898438 1545.230469 811.109375 1540.179688 791.871094 C 1534.078125 768.601563 1522.121094 748.25 1503.988281 731.96875 C 1497.351563 726.011719 1493.460938 727.179688 1491.828125 735.878906 C 1490.371094 743.71875 1489.71875 751.71875 1488.558594 759.621094 C 1484.320313 788.648438 1478.460938 817.320313 1468.5 845.011719 C 1466.738281 849.898438 1464.398438 854.589844 1462.238281 859.578125 C 1457.75 858.710938 1454.140625 858.179688 1450.628906 857.289063 C 1435.480469 853.429688 1420.28125 849.71875 1405.230469 845.488281 C 1367.371094 834.859375 1329.25 825.941406 1289.988281 821.78125 C 1266.539063 819.300781 1243.261719 814.769531 1220.070313 810.289063 C 1205.351563 807.441406 1191.261719 802.179688 1178.289063 794.308594 C 1161.179688 783.921875 1151.808594 768.53125 1148.75 749.039063 C 1148.429688 747.039063 1148.941406 744.898438 1149.070313 742.648438 C 1150.570313 743.109375 1151.46875 743.109375 1151.71875 743.519531 C 1153.46875 746.339844 1155.160156 749.199219 1156.71875 752.140625 C 1166.769531 771.089844 1181.671875 784.761719 1201.21875 793.53125 C 1220.230469 802.050781 1240.328125 806.53125 1260.691406 810.089844 C 1262.558594 810.410156 1264.660156 809.398438 1266.660156 809 C 1266.828125 808.339844 1267 807.679688 1267.171875 807.011719 C 1264.558594 805.191406 1261.929688 803.421875 1259.359375 801.550781 C 1249.949219 794.699219 1240.101563 788.371094 1231.261719 780.828125 C 1217 768.671875 1208.101563 752.96875 1207.488281 734.058594 C 1206.988281 718.820313 1207.128906 703.28125 1209.550781 688.289063 C 1214.578125 657.171875 1228.308594 629.488281 1247.21875 604.351563 C 1268.308594 576.300781 1294.398438 553.78125 1323.789063 534.859375 C 1326.640625 533.019531 1330.648438 532.101563 1331.289063 527.738281 C 1324.140625 525.480469 1318.449219 525.941406 1298.140625 530.820313 C 1244.898438 543.621094 1201.960938 572.070313 1169.769531 616.78125 C 1169.339844 616.269531 1168.898438 615.761719 1168.460938 615.238281 C 1168.578125 614.300781 1168.46875 613.25 1168.851563 612.421875 C 1170.769531 608.171875 1172.621094 603.878906 1174.851563 599.800781 C 1208.519531 538.121094 1262.308594 507.871094 1330.570313 500.429688 C 1385.910156 494.410156 1440.160156 503.460938 1494.398438 512.609375 C 1498.199219 513.261719 1500.289063 515 1500.578125 519.070313 C 1501.078125 526.039063 1502.199219 532.96875 1502.53125 539.941406 C 1503.859375 567.980469 1502.078125 595.859375 1498.359375 623.671875 C 1496.980469 634.03125 1501.148438 637.199219 1510.351563 632.421875 C 1521.519531 626.621094 1532.769531 620.511719 1542.699219 612.859375 C 1567.128906 594.070313 1582.640625 568.550781 1594.160156 540.390625 C 1595.898438 536.128906 1597.601563 531.859375 1599.390625 527.421875 C 1613.199219 528.808594 1626.46875 530.128906 1639.730469 531.460938 C 1639.738281 531.660156 1639.761719 531.851563 1639.769531 532.050781 C 1631.589844 532.929688 1623.421875 533.808594 1614.671875 534.75 C 1619.660156 558.328125 1619.148438 581.53125 1616.53125 604.761719 C 1616.050781 609.050781 1615.171875 613.320313 1614.851563 617.628906 C 1614.421875 623.550781 1617.148438 625.449219 1622.828125 623.351563 C 1624.699219 622.660156 1626.449219 621.660156 1628.230469 620.75 C 1645.351563 611.988281 1658.148438 598.71875 1667.988281 582.421875 C 1676.5 568.339844 1682.058594 553.03125 1686.351563 537.238281 C 1688.351563 529.898438 1689.351563 522.109375 1697.839844 518.761719 C 1698.898438 518.339844 1699.519531 516.75 1700.300781 515.671875 C 1710.429688 501.578125 1719.699219 487.019531 1725.96875 470.691406 C 1736.160156 444.160156 1743.269531 416.890625 1747.078125 388.710938 C 1750.929688 360.128906 1740.859375 337.878906 1717.46875 321.398438 "/>
<g clip-path="url(#clip2)" clip-rule="nonzero">
<path style=" stroke:none;fill-rule:evenodd;fill:rgb(13.699341%,12.199402%,12.5%);fill-opacity:1;" d="M 922.417969 1917.210938 C 921.632813 1926.808594 919.996094 1936.328125 918.652344 1945.878906 C 916.105469 1963.988281 913.683594 1982.121094 910.859375 2000.191406 C 908.988281 2012.171875 904.859375 2015.699219 893.070313 2016.039063 C 884.753906 2016.269531 876.425781 2016.089844 868.105469 2016.03125 C 867.160156 2016.019531 866.21875 2015.578125 864.007813 2015.011719 C 868.230469 1978.53125 874.03125 1942.25 879.109375 1904.550781 C 890.664063 1904.550781 901.273438 1904.148438 911.832031 1904.679688 C 919.898438 1905.078125 923.097656 1908.921875 922.417969 1917.210938 Z M 1020.710938 1880.019531 C 1019.050781 1853.769531 1007.449219 1839.199219 981.9375 1832.019531 C 965.773438 1827.46875 949.171875 1826.25 932.480469 1826.230469 C 852.832031 1826.121094 773.183594 1826.109375 693.53125 1826.109375 C 691.003906 1826.109375 688.476563 1826.671875 685.585938 1827.011719 C 678.769531 1873.148438 667.367188 1917.558594 651.964844 1960.910156 C 636.484375 2004.480469 617.832031 2046.601563 594.328125 2086.441406 C 593.59375 2086.25 592.859375 2086.050781 592.125 2085.859375 C 604.171875 1999.601563 616.222656 1913.339844 628.347656 1826.519531 C 624.082031 1826.328125 621.125 1826.078125 618.167969 1826.089844 C 484.875 1826.199219 351.582031 1826.328125 218.289063 1826.480469 C 218.070313 1826.480469 217.816406 1826.851563 217.652344 1827.089844 C 217.46875 1827.371094 217.363281 1827.691406 217.023438 1828.421875 C 219.183594 1830.691406 221.417969 1833.121094 223.746094 1835.449219 C 233.390625 1845.128906 242.894531 1854.960938 252.808594 1864.359375 C 256.621094 1867.96875 258.265625 1871.558594 256.957031 1876.660156 C 256.382813 1878.890625 256.480469 1881.289063 256.152344 1883.601563 C 250.441406 1923.808594 244.664063 1964 239.003906 2004.21875 C 228.984375 2075.421875 219.015625 2146.621094 209.074219 2217.828125 C 207.753906 2227.28125 206.710938 2236.761719 205.457031 2246.871094 C 237.644531 2246.871094 268.808594 2246.871094 301.003906 2246.871094 C 308.652344 2192.289063 316.253906 2138.058594 323.996094 2082.839844 C 354.429688 2082.839844 383.925781 2082.839844 414.121094 2082.839844 C 417.949219 2055.25 421.632813 2028.699219 425.515625 2000.738281 C 394.945313 2000.738281 365.796875 2000.738281 335.441406 2000.738281 C 339.914063 1969.171875 344.1875 1939 348.429688 1909.058594 C 363.648438 1907.03125 465.824219 1907.71875 472.945313 1909.878906 C 472.742188 1913.101563 472.542969 1916.410156 472.328125 1919.730469 C 470.882813 1942.320313 468.921875 1964.898438 468.078125 1987.511719 C 466.050781 2042.019531 470.308594 2096.019531 482.90625 2149.191406 C 490.765625 2182.359375 501.757813 2214.417969 518.996094 2244.050781 C 521.632813 2248.570313 524.777344 2252.800781 528.109375 2257.789063 C 532.796875 2255.121094 536.871094 2252.980469 540.761719 2250.558594 C 567.164063 2234.070313 591.214844 2214.601563 613.351563 2192.769531 C 694.121094 2113.148438 742.707031 2016.289063 766.382813 1906.191406 C 769.714844 1890.691406 772.257813 1875.019531 775.28125 1858.800781 C 783.78125 1863.96875 788.960938 1869.730469 786.105469 1880.078125 C 784.613281 1885.5 784.25 1891.230469 783.46875 1896.839844 C 777.839844 1937.050781 772.242188 1977.28125 766.613281 2017.5 C 761.585938 2053.429688 756.519531 2089.359375 751.472656 2125.289063 C 745.964844 2164.519531 740.445313 2203.738281 734.996094 2242.980469 C 734.835938 2244.140625 735.417969 2245.398438 735.726563 2246.980469 C 767.34375 2246.980469 798.5625 2246.980469 830.929688 2246.980469 C 838.378906 2194.828125 845.789063 2142.941406 853.3125 2090.28125 C 862.429688 2090.28125 870.703125 2090.160156 878.972656 2090.308594 C 888.347656 2090.488281 893.296875 2094.601563 894.433594 2103.769531 C 895.039063 2108.679688 894.988281 2113.808594 894.328125 2118.710938 C 890.183594 2149.390625 885.765625 2180.03125 881.480469 2210.691406 C 879.828125 2222.480469 878.285156 2234.289063 876.597656 2246.808594 C 909.039063 2246.808594 940.507813 2246.808594 972.605469 2246.808594 C 973.261719 2243.191406 973.941406 2239.980469 974.410156 2236.75 C 978.871094 2205.78125 983.613281 2174.839844 987.605469 2143.808594 C 989.808594 2126.671875 991.890625 2109.378906 991.949219 2092.140625 C 992.03125 2068.96875 982.203125 2057.488281 960.046875 2050.980469 C 958.472656 2050.511719 956.847656 2050.199219 955.25 2049.820313 C 955.09375 2049.398438 954.9375 2048.96875 954.78125 2048.550781 C 957.332031 2047.890625 959.847656 2047.039063 962.4375 2046.609375 C 983.253906 2043.148438 996.417969 2030.929688 1003.070313 2011.238281 C 1004.351563 2007.46875 1005.851563 2003.691406 1006.519531 1999.789063 C 1009.851563 1980.449219 1013.230469 1961.109375 1016.019531 1941.691406 C 1018.960938 1921.261719 1022.019531 1900.808594 1020.710938 1880.019531 "/>
</g>
<path style=" stroke:none;fill-rule:evenodd;fill:rgb(13.699341%,12.199402%,12.5%);fill-opacity:1;" d="M 1310.429688 2091.191406 C 1294.28125 2091.191406 1278.828125 2091.191406 1262.238281 2091.191406 C 1278.421875 2030.421875 1294.460938 1970.140625 1310.5 1909.859375 C 1311.441406 1909.890625 1312.378906 1909.910156 1313.320313 1909.929688 C 1312.359375 1970.109375 1311.398438 2030.28125 1310.429688 2091.191406 Z M 1200.238281 1828.140625 C 1210.128906 1838.039063 1219.398438 1848.019531 1229.480469 1857.128906 C 1235.480469 1862.550781 1236.488281 1867.539063 1234.261719 1875.320313 C 1200.339844 1994.019531 1166.75 2112.828125 1133.109375 2231.621094 C 1131.78125 2236.320313 1130.71875 2241.109375 1129.320313 2246.71875 C 1161.671875 2246.71875 1193.109375 2246.71875 1225.289063 2246.71875 C 1231.558594 2223.21875 1237.800781 2199.890625 1243.941406 2176.878906 C 1264.878906 2176.878906 1284.730469 2176.878906 1305.039063 2176.878906 C 1305.039063 2200.351563 1305.039063 2223.210938 1305.039063 2246.738281 C 1336.558594 2246.738281 1367.730469 2246.738281 1399.609375 2246.738281 C 1402.179688 2222.21875 1399.808594 1834.710938 1397.140625 1826.621094 C 1372.429688 1824.5 1207.980469 1825.53125 1200.238281 1828.140625 "/>
<path style=" stroke:none;fill-rule:evenodd;fill:rgb(13.699341%,12.199402%,12.5%);fill-opacity:1;" d="M 1018.628906 1826.710938 C 1021.5 1829.949219 1023.300781 1832.179688 1025.308594 1834.199219 C 1034.929688 1843.890625 1044.390625 1853.769531 1054.359375 1863.089844 C 1059.230469 1867.648438 1060.730469 1872.058594 1059.609375 1878.808594 C 1056.171875 1899.480469 1053.589844 1920.289063 1050.710938 1941.050781 C 1044.441406 1986.199219 1038.230469 2031.359375 1031.910156 2076.5 C 1024.890625 2126.578125 1017.769531 2176.648438 1010.730469 2226.730469 C 1009.808594 2233.230469 1009.148438 2239.761719 1008.300781 2246.890625 C 1040.511719 2246.890625 1071.691406 2246.890625 1103.851563 2246.890625 C 1123.539063 2106.21875 1143.070313 1966.710938 1162.671875 1826.710938 C 1114.21875 1826.710938 1067.179688 1826.710938 1018.628906 1826.710938 "/>
</g>
</svg>
