<?xml version="1.0" encoding="UTF-8" standalone="no"?>
<svg
   version="1.1"
   width="841.88977"
   height="595.27557"
   id="svg7"
   viewBox="0 0 841.88977 595.27557"
   sodipodi:docname="40b8fb5eb3d38b764d8b0789b9756526.cdr"
   xmlns:inkscape="http://www.inkscape.org/namespaces/inkscape"
   xmlns:sodipodi="http://sodipodi.sourceforge.net/DTD/sodipodi-0.dtd"
   xmlns="http://www.w3.org/2000/svg"
   xmlns:svg="http://www.w3.org/2000/svg">
  <defs
     id="defs11" />
  <sodipodi:namedview
     id="namedview9"
     pagecolor="#ffffff"
     bordercolor="#666666"
     borderopacity="1.0"
     inkscape:pageshadow="2"
     inkscape:pageopacity="0.0"
     inkscape:pagecheckerboard="0" />
  <g
     id="Layer1000">
    <path
       d="m 400.4952,297.9766 20.5553,-21.0589 30.8971,32.1265 c 24.3147,3.1837 35.6518,5.4511 44.2151,7.598 8.5633,2.1468 14.3526,4.1731 17.2473,5.1862 2.8947,1.0132 2.8947,1.0132 4.0525,-0.6994 1.1578,-1.7126 3.4734,-5.1377 45.4614,-57.6922 l -0.5264,-3.6493 -96.0226,43.1789 22.9117,-16.6168 0.3226,-83.3695 -3.2116,-0.3652 -49.5645,75.7873 5.7917,-20.9007 -19.6606,-125.4178 h -3.0219 l -20.7277,123.4144 7.1053,22.8712 -51.072,-76.0526 -1.554,0.5549 0.317,82.3844 20.9402,16.0884 -95.6355,-41.7532 -0.5108,2.043 q 36.3901,46.2221 47.2431,61.2074 m 0,-0.3013 c 28.6015,-8.0442 53.6278,-12.3858 63.9701,-13.1517"
       style="fill:#00e9e9;fill-rule:evenodd"
       id="path2" />
    <path
       d="m 406.1145,331.5279 13.8537,13.4337 25.2727,-25.4407 c 15.6841,1.4455 26.0112,3.2778 37.171,5.7485 11.1598,2.4707 23.1523,5.5798 48.6918,16.4623 -13.5468,4.1083 -22.8189,7.4952 -29.9164,10.6321 -7.0975,3.137 -12.0204,6.0242 -17.734,9.7635 -5.7136,3.7393 -12.2179,8.3309 -17.624,12.805 -5.406,4.474 -9.7139,8.8307 -13.7279,13.579 -4.0141,4.7484 -7.7344,9.8883 -10.9163,15.0038 -3.1819,5.1154 -5.8255,10.2064 -8.2731,15.64 -2.4477,5.4336 -4.6995,11.2099 -6.5229,17.8063 -1.8234,6.5963 -3.2185,14.0125 -3.8058,24.1454 h -4.6997 c -0.1466,-9.6926 -1.248,-15.3464 -2.6309,-20.7188 -1.3829,-5.3724 -3.0474,-10.4635 -5.495,-16.2399 -2.4476,-5.7763 -5.6783,-12.2379 -9.3007,-18.3813 -3.6224,-6.1435 -7.6365,-11.9688 -12.3115,-17.4759 -4.6749,-5.5071 -10.0107,-10.6959 -15.6402,-15.3953 -5.6295,-4.6994 -11.5527,-8.9093 -17.2399,-12.4531 -5.6871,-3.5438 -11.1382,-6.4215 -17.535,-9.1693 -6.3969,-2.7478 -13.7397,-5.3657 -27.1054,-9.1849 11.8959,-6.0215 21.0747,-9.546 29.7272,-12.3119 8.6526,-2.7658 16.779,-4.773 25.0277,-6.4374 8.2487,-1.6645 16.6198,-2.9863 28.3686,-4.4546"
       style="fill:#00e9e9;fill-rule:evenodd"
       id="path4" />
  </g>
</svg>
