<?xml version="1.0" encoding="utf-8"?>
<!-- Generator: Adobe Illustrator 22.0.1, SVG Export Plug-In . SVG Version: 6.00 Build 0)  -->
<svg version="1.1" id="Layer_1" xmlns="http://www.w3.org/2000/svg" xmlns:xlink="http://www.w3.org/1999/xlink" x="0px" y="0px"
	 viewBox="0 0 800 800" style="enable-background:new 0 0 800 800;" xml:space="preserve">
<style type="text/css">
	.st0{fill:#5D2C84;}
	.st1{fill:#1D1C1B;}
	.st2{fill:#643D91;}
	.st3{fill:#633E91;}
	.st4{fill:#5E2C85;}
	.st5{fill:#B8783A;}
	.st6{fill:#FBE25B;}
	.st7{fill:#F7C414;}
	.st8{fill:#FFFFFF;}
	.st9{fill-rule:evenodd;clip-rule:evenodd;fill:#FFFFFF;}
	.st10{fill-rule:evenodd;clip-rule:evenodd;fill:#F7C414;}
	.st11{fill:#F1A021;}
</style>
<g>
	<g>
		<path class="st0" d="M710.6,305.8c-11.1,3.8-23.2,6.7-36.1,8.8l5.5-10.3l-4.2-59.5L603,275.3c-6.1,2.6-12.5,4.5-19,5.8l-44,8.8
			l-6.1,17l-7.2-2.3l-5.8-161L400.2,34.6v-0.4l-0.2,0.2l-0.2-0.2v0.4L278.9,143.7l-5.8,161l-7.2,2.3l-6.1-17l-44-8.8
			c-6.5-1.3-12.9-3.2-19-5.8l-72.7-30.4l-4.2,59.5l5.5,10.3c-12.9-2.2-25.1-5-36.1-8.8C86,497.4,185.5,674.1,399.8,765.7v0.2
			c0.1,0,0.2-0.1,0.2-0.1c0.1,0,0.2,0.1,0.2,0.1v-0.2C614.5,674.1,714,497.4,710.6,305.8z"/>
		<path class="st1" d="M703.7,315.2c0,0-27.7,6.7-41.6,8.2l11.2-20.3l-3.4-48.3l-74.3,31.2l-50,10l-7.5,19.4l-17.7-5.8l-5.5-162.3v0
			L400.2,43.4V43l-0.2,0.2l-0.2-0.2v0.4L285.2,147.1v0l-5.5,162.3l-17.7,5.8l-7.5-19.4l-50-10l-74.3-31.2l-3.4,48.3l11.2,20.3
			c-13.9-1.5-41.6-8.2-41.6-8.2c-1.5,128.9,45.9,230.6,112.3,306.2h45.3l70.4,60.2l75.7-41.7l75.7,41.7l70.4-60.2h45.3
			C657.7,545.7,705.1,444.1,703.7,315.2z M556.9,303.5l36.5-6c-35,82.3-104.5,134.5-188.7,123.8
			C461.9,410.6,517.9,395.2,556.9,303.5z M153.9,515.3c-6.3-13.9-11.8-27.2-16.6-39.9c-4.2-11-7.8-21.7-11-31.9l-0.2-1.6l166-4.3
			C211.3,453.6,141.9,472.9,153.9,515.3z M269.9,431.8l-146.1-1.1l-1.6-1.5c-10.3-37.4-14.1-69.9-13.4-99l39.6,11.3
			c39.7,55.1,89.3,80.3,143.8,90.5L269.9,431.8z M143.1,299v-25.5l14.7,6.1l31.4,13.1c39.1,100.7,110.4,139.3,206,132.5
			C294.3,448.3,202.6,407.8,143.1,299z M206.6,297.5l36.5,6c39,91.7,95,107.1,152.2,117.8C311.1,432,241.6,379.8,206.6,297.5z
			 M404.7,425.2c95.7,6.8,167-31.8,206-132.5l31.4-13.1l14.7-6.1V299C597.4,407.8,505.7,448.3,404.7,425.2z M673.7,443.4
			c-3.2,10.3-6.8,20.9-11,31.9c-4.8,12.8-10.3,26.1-16.6,39.9c12-42.3-57.5-61.6-138.3-77.8l166,4.3L673.7,443.4z M677.9,429.2
			l-1.6,1.5l-146.1,1.1l-22.3,0.2c54.5-10.2,104.1-35.4,143.8-90.5l39.6-11.3C692,359.3,688.2,391.8,677.9,429.2z"/>
		<g>
			<g>
				<g>
					<path class="st0" d="M507.9,437.5c59.8,7.6,118.4,16,154.9,37.8c4.2-11,7.8-21.7,11-31.9l0.2-1.6L507.9,437.5z"/>
					<path class="st2" d="M646.1,515.3c6.3-13.9,11.8-27.2,16.6-39.9c-36.4-21.8-95.1-30.2-154.9-37.8
						C588.7,453.6,658.1,472.9,646.1,515.3z"/>
				</g>
				<g>
					<path class="st3" d="M530.1,431.8l146.1-1.1l1.6-1.5c10.3-37.4,14.1-69.9,13.4-99C658.6,385.3,610.5,424.8,530.1,431.8z"/>
					<path class="st0" d="M507.9,432l22.3-0.2c80.4-7,128.5-46.5,161.1-101.6l-39.6,11.3C611.9,396.6,562.4,421.8,507.9,432z"/>
				</g>
				<g>
					<path class="st4" d="M404.7,425.2c101,23.2,192.7-17.3,252.2-126.2v-25.5l-14.7,6.1C591.3,402.1,507.9,439.5,404.7,425.2z"/>
					<path class="st2" d="M404.7,425.2c103.2,14.3,186.6-23,237.5-145.6l-31.4,13.1C571.7,393.4,500.4,432,404.7,425.2z"/>
				</g>
				<path class="st4" d="M404.7,421.3c84.2,10.8,153.7-41.5,188.7-123.8l-36.5,6C517.9,395.2,461.9,410.6,404.7,421.3z"/>
			</g>
			<g>
				<g>
					<path class="st0" d="M292.1,437.5c-59.8,7.6-118.4,16-154.9,37.8c-4.2-11-7.8-21.7-11-31.9l-0.2-1.6L292.1,437.5z"/>
					<path class="st2" d="M153.9,515.3c-6.3-13.9-11.8-27.2-16.6-39.9c36.4-21.8,95.1-30.2,154.9-37.8
						C211.3,453.6,141.9,472.9,153.9,515.3z"/>
				</g>
				<g>
					<path class="st3" d="M269.9,431.8l-146.1-1.1l-1.6-1.5c-10.3-37.4-14.1-69.9-13.4-99C141.4,385.3,189.5,424.8,269.9,431.8z"/>
					<path class="st0" d="M292.1,432l-22.3-0.2c-80.4-7-128.5-46.5-161.1-101.6l39.6,11.3C188.1,396.6,237.6,421.8,292.1,432z"/>
				</g>
				<g>
					<path class="st4" d="M395.3,425.2c-101,23.2-192.7-17.3-252.2-126.2v-25.5l14.7,6.1C208.7,402.1,292.1,439.5,395.3,425.2z"/>
					<path class="st2" d="M395.3,425.2c-103.2,14.3-186.6-23-237.5-145.6l31.4,13.1C228.3,393.4,299.6,432,395.3,425.2z"/>
				</g>
				<path class="st4" d="M395.3,421.3c-84.2,10.8-153.7-41.5-188.7-123.8l36.5,6C282.1,395.2,338.1,410.6,395.3,421.3z"/>
			</g>
		</g>
		<g>
			<path class="st1" d="M482.2,685l24.2,13.3c27.4-19.8,53.8-42.8,78-69.2h-36.8L482.2,685z"/>
			<path class="st1" d="M400.2,758.1c32.9-13.8,67.1-32.3,100-55.4l-100-54.8v-0.2l-0.2,0.1l-0.2-0.1v0.2l-100,54.8
				c33,23.1,67.1,41.6,100,55.4v0.2c0.1,0,0.1-0.1,0.2-0.1c0.1,0,0.1,0.1,0.2,0.1V758.1z"/>
			<path class="st1" d="M317.8,685l-24.2,13.3c-27.4-19.8-53.8-42.8-78-69.2h36.8L317.8,685z"/>
		</g>
		<g>
			<path class="st5" d="M357.4,279.6l-12.2-15.3c0-0.1,0-0.1,0-0.1l3.9-2.6l9.1,8.5l4.3,4c-1.7,38.1,2.7,76.5,12.7,115.2
				C360.9,359.3,357,321.1,357.4,279.6z"/>
			<path class="st6" d="M400.2,71.3v226.2l-18.3-13.7l6.3-34.8l-31.2-22.8l0.3-48l-8.7,41.9l-25.1-18.3l9.7,11.3
				c-3.7,8.7-6.3,17.7-7.3,27.1c1.5,11.2,6.2,20.7,14.3,28.4c1.3,10.5,3,24,3.1,24c0-0.3,0.8-12,1.4-20.2c3.7,2.8,7.9,5.2,12.7,7.4
				c-0.4,41.5,3.5,79.7,17.9,109.7c-31-17.3-59.2-44.4-78.1-76.8c5.2-10.1,7.3-27.6,8.6-47.4c7,6.5,14.4,11.4,22.3,15l-23.9-33.1
				c0.6-25,0.5-50.6,0-76.8l11,4.8l-11-14.3L400.2,71.3z"/>
			<path class="st5" d="M341.5,254.5l-2.7,1.8L325.9,240c0,0,0,0,0,0L341.5,254.5z"/>
			<path class="st7" d="M343.7,230.7c8.4,6,17.5,11.1,27.4,15.2l-16.3,2.4C347.9,241.5,344.9,235.8,343.7,230.7z"/>
			<path class="st8" d="M340.3,268.4c-8.2-7.7-12.8-17.2-14.3-28.4l12.9,16.2l-0.1,0C338.8,256.3,339.4,261.7,340.3,268.4z"/>
			<path class="st8" d="M357.4,279.6c-4.8-2.2-9-4.6-12.7-7.4c0.3-4,0.5-7.2,0.5-7.9L357.4,279.6z"/>
			<polygon class="st8" points="308.4,228.5 308.4,177.7 325.1,182.8 311.9,160.8 363.6,112.7 320.1,162.3 332.9,187.2 314.3,186 
							"/>
			<path class="st7" d="M456.3,230.7c-8.4,6-17.5,11.1-27.4,15.2l16.3,2.4C452.1,241.5,455.1,235.8,456.3,230.7z"/>
			<path class="st5" d="M502.8,312.4c-18.9,32.4-47.1,59.5-78.1,76.8c14.4-30,18.3-68.1,17.9-109.7l12.2-15.3l6.4-8.1l12.9-16.2
				c-1-9.4-3.6-18.4-7.3-27.1l9.7-11.3L451.3,220l-8.4,6.1l-31.2,22.8l6.3,34.8l-18.3,13.7V71.3l96,89.4l-11,14.3l11-4.8
				c-0.5,26.2-0.6,51.8,0,76.8L471.9,280c7.9-3.6,15.4-8.5,22.3-15C495.5,284.8,497.6,302.3,502.8,312.4z"/>
			<path class="st6" d="M474.1,240l-12.9,16.2l-6.4,8.1l-12.2,15.3c0.4,41.5-3.5,79.7-17.9,109.7c10-38.7,14.4-77.1,12.7-115.2
				l4.3-4l9.1-8.5l7.7-7.1L474.1,240C474.1,240,474.1,240,474.1,240z"/>
		</g>
	</g>
	<g>
		<g>
			<path class="st9" d="M220.1,551.5c0,0,13.4-26.5,15.1-29.6c1-1.9,3.7-4,7.5-2c4.3,2.3,4.8,2.5,7.2,3.9c2.1,1.2,4.1,4.5,1.8,8.4
				c-2,3.5-17.8,31-20.1,34.8c-1.9,3.2-5.2,9.2-11.6,9.2c-7.9,0-9.8-4.5-11.5-7.2l-20.2-36.5c-2-3.7-1.9-6.1,1.4-8.5l6-4
				c5.5-3.1,7,0.5,8.6,3.2C206.1,526.1,220.1,551.5,220.1,551.5L220.1,551.5z"/>
			<path class="st9" d="M266.6,520.7c4.3,0,6,0,9.1,0c3.4,0,5.2,0.8,5.2,4.6c0,2.6,0,42.6,0,46c0,3.5-1.9,5.2-4.2,5.2
				c-2.3,0-7.6,0-10.5,0c-2.9,0-4.9-1.2-4.9-5.3c0-4,0-41.4,0-44.9C261.4,521.4,263.8,520.7,266.6,520.7L266.6,520.7z"/>
			<path class="st9" d="M282.4,501.4c0,6-4.9,10.9-10.9,10.9c-6,0-10.9-4.9-10.9-10.9s4.9-10.9,10.9-10.9
				C277.5,490.5,282.4,495.4,282.4,501.4L282.4,501.4z"/>
			<path class="st9" d="M322.2,551.2c0,0,13.4-26.5,15.1-29.6c1-1.9,3.7-4,7.5-2c4.3,2.3,4.8,2.5,7.2,3.9c2.1,1.2,4.1,4.5,1.8,8.4
				c-2,3.5-17.8,31-20.1,34.8c-1.9,3.2-5.2,9.2-11.6,9.2c-7.9,0-9.8-4.5-11.5-7.2l-20.2-36.5c-2-3.7-1.9-6.1,1.4-8.5l6-4
				c5.5-3.1,7,0.5,8.6,3.2C308.2,525.8,322.2,551.2,322.2,551.2L322.2,551.2z"/>
			<path class="st9" d="M387.5,520.1c-16.3,0-29.5,12.7-29.5,28.5c0,15.7,13.2,28.5,29.5,28.5c16.3,0,29.5-12.7,29.5-28.5
				C417,532.9,403.8,520.1,387.5,520.1L387.5,520.1L387.5,520.1z M387.3,560.1c-6.5,0-11.8-5.2-11.8-11.5c0-6.4,5.3-11.5,11.8-11.5
				c6.5,0,11.8,5.2,11.8,11.5C399.1,555,393.9,560.1,387.3,560.1L387.3,560.1z"/>
		</g>
		<g>
			<path class="st10" d="M596.7,554.3c-0.5,1.7-1,3.4-1.5,5.1c-0.1,0.2-0.2,0.5-0.3,0.7c-2.1,5.2-5.2,8.7-10.3,8.8h-6.8v0l3-14.6
				h-12.5l-5.1,24.1h20.6c2.2,0,4.4-0.2,6.5-0.7c5.6-1.3,10.2-4,13-9.1c2.8-4,4.8-8.9,6.3-14.3H596.7z"/>
			<path class="st10" d="M612.9,535.6c-0.1,0.9-0.2,1.9-0.3,2.8c-0.8,5.6-1.8,11-3.2,15.9h-12.8c1.7-6.2,2.9-12.5,3.6-19.1
				c0.8-5-0.6-8-3.7-9.4c-1-0.5-2.2-0.7-3.4-0.7h-6.4l-6.1,29.2h-12.5l8.1-38.5h22.8C611.4,516.2,613.4,524.9,612.9,535.6z"/>
			<polygon class="st10" points="466,542.5 469.8,554.3 456.1,554.3 449,562.7 445.7,578.4 433.2,578.4 446.3,515.8 458.8,515.8 
				453.5,541.2 475,515.8 488.6,515.8 			"/>
			<polygon class="st10" points="477.6,578.4 463.9,578.4 456.1,554.3 469.8,554.3 			"/>
			<polygon class="st7" points="503.4,525.8 500,542.1 520.9,542.1 518.8,552.1 497.9,552.1 497.5,554.3 484.8,554.3 485.3,552.1 
				490.8,525.8 492.9,515.8 526.4,515.8 524.3,525.8 			"/>
			<polygon class="st7" points="515.4,568.4 513.3,578.4 479.8,578.4 484.8,554.3 497.5,554.3 494.5,568.4 			"/>
			<polygon class="st10" points="574.2,515.8 550.7,552.8 550.7,552.8 550.4,554.3 537.3,554.3 537.6,552.8 529.4,515.8 
				543.5,515.8 544.2,521.2 546.7,539.8 557.2,521.9 560.7,515.8 			"/>
			<polygon class="st10" points="550.4,554.3 545.3,578.4 532.2,578.4 537.3,554.3 			"/>
			<polygon class="st11" points="477.6,578.4 463.9,578.4 456.1,554.3 469.8,554.3 			"/>
			<polygon class="st11" points="515.4,568.4 513.3,578.4 479.8,578.4 484.8,554.3 497.5,554.3 494.5,568.4 			"/>
			<polygon class="st11" points="550.4,554.3 545.3,578.4 532.2,578.4 537.3,554.3 			"/>
			<path class="st11" d="M609.5,554.3c-1.5,5.4-3.5,10.3-6.3,14.3c-2.8,5.1-7.3,7.8-13,9.1c-2.1,0.5-4.3,0.7-6.5,0.7h-20.6l5.1-24.1
				h12.5l-3,14.6v0h6.8c5.1,0,8.2-3.6,10.3-8.8c0.1-0.2,0.2-0.5,0.3-0.7c0.5-1.7,1-3.4,1.5-5.1H609.5z"/>
		</g>
	</g>
</g>
</svg>
