<svg xmlns="http://www.w3.org/2000/svg" xml:space="preserve" width="1000" height="582" x="0px" y="0px" version="1.0" viewBox="0 0 1000 582"><path d="M326.918 286.003v-3.74l1.702-1.7c1.532 0 3.064.17 4.426.34 2.043.34 1.021.34 2.723.34 1.703 0 2.043-.68 2.043-.68l1.362-1.36h3.064c1.362 0 1.702 0 4.766 1.7 1.532.85 12.597 13.26 23.32 25.332 43.067-26.353 59.408-31.283 59.408-31.283 1.362-.34 2.724-.68 4.085-.68 2.043 0 4.426 1.02 4.426 1.02l1.702-.68c1.192-.85 2.384-1.7 3.745-2.38 2.043-1.02 1.362-.68 3.405-.68 2.042 0 2.383 0 4.085 1.02s2.043 2.38 2.043 2.38-.681 2.38-3.745 2.72c-3.064.34-8.852 5.78-8.852 5.78l-1.361 2.38s-13.278 4.081-59.408 31.284c6.809 7.82 11.916 13.77 11.916 13.77v1.701l-.34 1.7v2.72c0 1.02 6.468 6.121 6.468 6.121s0 .68-1.022 2.04c-1.021 1.36-2.383 1.36-4.085 2.38-1.702 1.02-2.383-1.02-2.383-1.02l-3.064 1.02-1.362 2.04-3.064-.34-11.575-14.62-3.745 1.02-6.128-7.481c-42.385 26.012-65.706 44.714-65.706 44.714l-2.383-1.02h-3.064c-1.362 0-1.362-1.36-1.362-1.36l-.68-3.06v-3.401c0-1.7.68-2.72.68-2.72s14.129-12.241 63.663-44.034zm22.129 58.655 3.064-3.4 1.702-1.36a6.143 6.143 0 0 1 3.404-1.02c2.043 0 3.405 2.72 3.405 2.72l1.702-1.7s3.064-.68 4.426-1.02c1.362-.34 3.064.34 3.064.34s1.362 2.04 1.021 4.08c-.34 2.04-7.49 11.221-27.065 41.994-19.576 30.773-50.897 90.448-51.237 92.148-.34 1.7-1.021 6.801-1.021 6.801l-1.022 4.08-3.745.68s-2.383 0-4.085-.34 0-1.36 0-1.36 1.021-5.44-.34-5.44c-1.362 0-4.426 7.82-5.107 9.18-.68 1.36-1.702.34-1.702.34h-4.086l-1.02-1.7 3.404-9.86s-1.362-3.4-1.362-4.76c0-1.361 13.277-30.434 30.81-63.757 17.363-33.493 37.62-64.436 37.62-64.436l1.701-1.7c1.192-.68 2.724-1.02 4.086-1.02 2.383-.17 2.383.51 2.383.51z" style="fill:#ea3232;stroke-width:1.70118;fill-opacity:1"/><path d="M229.55 408.924c-20.596 9.69-48.683 22.782-69.79 32.813-20.767 42.334-37.96 80.077-37.96 80.077l-2.383 2.55-4.936 1.53-.511-2.38.51-7.48-14.128 30.433-4.255 3.91-4.596-.17-2.213-3.57 1.872-4.59 1.021-4.591.34-2.55 3.065-10.881s-1.532 2.89-2.213 4.25c-.68 1.19-3.915 5.61-3.745 7.14.17 1.7-1.702.17-3.745-.17-2.042-.34-2.553-2.38-2.553-2.38l-.17-3.74c-.17-1.87 12.256-25.162 38.47-70.216-1.192.17-1.532-.17-1.532-.17l-3.745-.68-3.064-2.72 2.724-2.72s4.085-1.361 5.787-2.381c1.702-1.02 2.724-1.7 2.724-1.7l-.34-2.55c-22.81 11.9-22.47 10.37-21.79 8.33.682-2.38 7.49-9.86 7.49-9.86l10.214-5.101s7.15-3.4 18.043-8.33c32.683-55.596 60.77-104.05 60.77-104.05s3.234-1.36 4.936-1.53c1.702-.17 2.894 1.53 2.894 1.53l1.872 3.23 8-10.711 3.916-3.06 6.128-.34c4.085-.17 2.213 3.23 2.213 3.23l2.383-1.7 6.298-4.93s1.192 0 2.554 1.02c1.361 1.19 1.872 2.72.68 4.93-1.02 2.04-41.704 48.794-67.237 95.889 18.724-8.501 38.64-17.512 52.598-23.293 6.81-2.89 12.427-5.1 17.023-6.97 21.618-38.594 31.32-56.445 31.32-56.445s5.107 0 7.15-.34c2.042-.34 9.532-11.902 9.532-11.902h3.745c1.021 0 2.383-1.7 2.383-1.7h2.383s3.064.34 4.426-.34 2.383-4.08 2.383-4.08 3.064-.68 4.426-.68 1.021.34 2.724 1.02c1.702.68 1.02 2.04 1.02 2.04l-7.148 9.861s2.723 2.04 3.064 4.08c.34 2.04-10.554 9.521-37.62 55.255-27.065 45.735-50.896 98.27-51.917 99.63-.511.85-1.362 1.36-2.383 1.36l-2.724.34h-3.404c-1.362 0-2.724 6.12-2.724 6.12l-1.021 2.04-2.724 1.02h-2.383l-2.043-.68-.34-4.76-9.192 21.592-5.447 1.7-2.383-1.36s0-.68.34-2.72c.34-1.87 19.576-49.475 44.939-96.399zm-61.96 17.172c5.787-2.55 11.575-5.27 16.852-7.821a2500.515 2500.515 0 0 1 39.321-18.872c-16.852 7.31-37.108 16.152-54.982 24.312zM376.453 364.21s108.431-36.213 112.857-37.234c4.426-1.02 6.809-1.36 6.809-1.36s-1.022 2.38 2.723 2.04c3.745-.34 23.661-3.4 23.661-3.4l1.702 2.38.34 2.38v2.04l-11.915 2.381s6.469 4.76 7.83 6.8c.852 1.19 1.362 2.55 1.703 4.081l.34 2.72s0 1.7-2.042 2.04c-2.043.34-3.745 1.02-5.448 1.02-1.702 0-59.407 17.852-98.048 36.894-38.64 19.042-45.449 26.692-45.449 26.692s54.982-19.551 87.835-28.052c32.853-8.5 46.13-9.521 46.13-9.521s.34.34 1.021 2.38c.681 2.04.681 1.7.681 3.4v2.72l.681 2.381s2.383 1.02 0 2.04-3.745 1.02-3.745 1.02l-1.702 2.04-2.724 1.02s-67.067 18.022-98.728 29.073c-31.832 10.881-36.258 13.602-36.258 13.602s-12.596 9.52-24.682 12.24c-12.086 2.72-15.66-2.38-14.299-4.08 1.362-1.7 3.405-3.74 3.405-3.74l4.085-2.38-.34-3.06s-1.022 0-.681-1.36c.34-1.36 1.362-3.061 1.362-3.061s9.532-6.46 19.745-10.2c0 0 30.13-30.094 99.41-56.276 0 0-58.727 20.232-75.238 24.652-16.341 4.42-18.044-2.04-18.044-2.04s1.703-3.06 3.405-4.08c1.702-1.02 1.702 0 3.064-1.02.68-.51 1.362-1.02 2.042-1.36 0 0-.68-2.72 1.022-4.081 1.702-1.36.34-.34 2.723-1.7a22.89 22.89 0 0 1 4.086-2.04s.68-.34-.681-1.7c-.851-.68-1.362-1.7-1.702-2.72zM323.343 474.72s47.152-20.402 90.899-34.173c43.747-13.601 56.684-17.172 58.046-16.832 1.361.34 2.383 1.7 2.383 1.7l.68 2.38v2.041l-1.361.68-42.385 12.241 46.13-11.22 1.021 3.4c.34.68.51 1.53.34 2.38-.34 1.36.681 1.7-1.02 2.38-1.703.68 0 0-3.065 1.02-3.064 1.02-72.855 21.082-110.304 34.853 0 0 69.11-21.592 76.94-22.952 7.83-1.36-4.085 6.46-6.127 6.8-2.043.34-8.171 1.7-8.171 1.7s-77.621 27.033-90.218 31.794c-12.596 4.76-15.32-.68-14.298-2.72.51-1.02 1.02-2.04 1.361-3.06l2.043-1.7s.68-1.021-.68-1.361c-1.363-.34-3.065-2.38-2.384-4.76.68-2.38 1.702-3.06 1.702-3.06zM802.178 268.321S702.258 293.483 658 309.805c-44.258 16.321-43.407 22.612-43.407 24.312 0 1.02.34 2.21.852 3.06 0 0 2.212.85 2.212 2.72 0 1.7-2.212 2.21 0 2.72 2.213.511 1.703-.51 3.064.511 1.362.85.852 5.27.852 5.27s-.511 2.21 1.702 3.06c2.213.85 69.961-21.251 98.218-30.942 28.257-9.691 59.748-18.532 62.301-19.042 2.554-.51 2.724-2.72 2.724-2.72s3.575 1.36 2.723-3.06l-.85-4.42s-3.065.51-2.724-1.701c.34-2.21-1.873-2.21 1.702-3.57 3.575-1.36 17.192-3.06 17.192-3.06l1.703-4.931s1.361-.51 1.872-3.06c.51-2.72.51-3.91.51-3.91l-2.723-2.21zM801.668 317.456s-107.07 27.882-203.075 66.646c0 0-4.937 6.63-4.937 8.33 0 1.7-1.702 2.21 0 3.06 1.702.85.851.85 3.575.85 2.723 0 13.277-3.06 13.277-3.06s-23.49 9.691-24.342 11.392c-.85 1.7.511 5.78.511 5.78s2.724.51 4.426.85c1.702.51 6.128 1.36 8 .51 1.873-.85 56.684-20.742 101.282-34.853 0 0-62.3 30.943-104.856 63.076 0 0-3.575 4.42-3.064 5.78.51 1.36.51 2.72 3.064 2.72h3.915l-.511 3.571c-1.192.68-2.383 1.36-3.575 2.21-1.702 1.36 2.724-.85-6.128 4.42-8.851 5.271-10.553 6.291-10.553 7.991 0 1.7 4.936 8.331 9.362 4.93 4.426-3.4 14.98-9.69 17.192-10.2 2.213-.51 2.724.85 1.702 2.72-.68 1.36-1.191 2.89-1.702 4.42 0 0 .851 2.21 2.724 2.72 1.872.51 3.064 3.061 5.277.51 2.213-2.72 26.554-20.741 96.005-41.143 69.45-20.232 70.812-18.532 71.153-20.402.51-1.7-.51-4.93-.51-6.29 0-1.36-2.724-4.42-2.724-4.42s31.831-9.352 33.533-9.692c1.703-.51 0-6.63 0-6.63l-4.425-3.06-18.555 4.42s-8-4.93-72.004 17.171c-64.173 22.102-102.133 37.064-102.133 37.064s59.237-41.144 122.9-68.857c63.664-27.712 69.962-25.502 69.962-29.582 0-4.08-.851-2.21-1.362-4.93-.51-2.721-1.702-1.7-1.362-3.571.511-1.7.34-1.7 2.213-2.72 1.873-.85 2.724-1.7 2.724-1.7s-.51.51 0-2.21c.34-1.7.34-3.571.51-5.271l-2.212-1.36z" style="fill:#ea3232;stroke-width:1.70118;fill-opacity:1"/><path d="M537.142 296.884s-2.723-.34-3.915.85l-2.383 2.38-1.191 5.1s-5.107 1.53-5.448 3.06c-.34 1.53-8.51 70.727-9.362 115.101-.85 44.374 1.192 49.475 1.873 51.005.85 1.53 1.191 4.25 1.191 4.25s-.85 1.87 1.873 2.72c2.723.85 3.574.85 3.574.85l4.256-.34s1.532-1.87 1.532-3.91v-3.57c0-3.06.34-12.751.34-12.751h3.575s-5.447 42.334-5.447 44.374c0 2.04 1.191 7.31 1.191 7.31s-1.191 6.291.852 6.971c1.872.85 1.191 1.53 4.255.85 3.064-.85 4.256-1.53 4.256-1.53l1.532-6.63s4.596-.34 6.638-4.59c1.873-4.251 7.83-23.803 7.83-26.863 0-3.06-.34-3.57-.85-5.1-.341-1.53-.341-5.781-.341-5.781s24.852-79.738 51.748-130.572c26.895-51.005 40.512-66.136 42.044-66.986 1.532-.85 7.32-3.57 7.32-3.57s18.384-24.483 18.384-29.244c0-4.76-3.575-4.59-3.575-4.59s-.85-.85-2.723-.85h-4.596s-.851-.34-2.724.85c-1.872 1.19-27.235 29.583-43.236 55.595 0 0 27.235-45.054 41.364-61.375l.34-3.91s.34-1.19-1.532-1.19c-1.362 0-2.553.17-3.915.34l-2.383 2.72s-33.023 44.713-34.215 46.584c-1.191 1.87-4.596-1.87-6.298-1.53-1.532.34-3.575 1.53-3.575 1.53s-32.342 48.964-58.045 140.773c0 0 0-29.923 3.915-68.857 3.915-38.933 7.83-60.695 7.83-60.695l-3.064-1.53 4.256-24.483-3.575-2.38-1.532-1.19-5.447.85s-.681 2.72-1.532 4.59c-.851 2.04.34 2.04-1.532 5.1-1.873 3.061-4.256 4.591-5.107 8.502-.51 3.91-4.426 21.762-4.426 21.762zM662.085 211.706s-3.234 1.36-4.766 2.38c-1.532 1.02-2.042.68-1.872 2.21.17 1.53.51 2.04 1.532 2.04 1.021 0 .51-.85 2.042.34 1.532 1.02.852 1.36 2.894 1.36 2.043 0 1.873.34 2.383-.85.511-1.02 1.022-1.7.511-3.57-.51-1.87 0-1.87-.851-2.89-.51-1.02-1.873-1.02-1.873-1.02z" style="fill:#ea3232;stroke-width:1.70118;fill-opacity:1"/><path d="M230.402 564.828s123.24-44.714 385.723-87.558c0 0 6.81-1.02 7.83 2.04 1.022 3.06 5.958 1.53 1.022 3.74-4.936 2.211-6.809 2.381-6.809 2.381l-62.812 12.241S715.876 472 725.75 472h11.745l-2.894 4.08s-1.021 0-7.83 1.19c-6.809 1.02-206.48 36.894-309.294 62.396-102.814 25.502-122.56 31.623-122.56 31.623s-6.809 4.93-12.767 6.46c-5.957 1.7-14.639 2.89-14.639 2.89L255.765 582l-5.788-1.02-4.936-2.89-8.852 1.19s-6.808 3.57-10.724-1.87c-3.915-5.61 4.937-12.582 4.937-12.582z" style="fill:#ea3232;stroke-width:1.70118;fill-opacity:1"/><path d="m30.561 533.886 2.894 1.36s.51 1.53.51 2.38v3.57c0 2.38-1.361 1.36-2.553 2.04-1.362.85-2.043.34-3.915 0-1.872-.34-1.021-.85-1.362-1.87-.34-1.02-.34-.34 0-4.93.17-4.59.17-.68 4.426-2.55zM10.305 384.952c0 2.38.68 2.04-.852 3.23-1.702 1.19-.85 1.19-3.234 1.19-2.383 0-2.383.17-3.574.17-1.192 0-1.873.51-2.043-.85-.17-1.36-1.362-2.72.17-3.57 1.702-.68 1.192-.51 3.234-.85 2.043-.34 3.235-.85 4.256-1.19 1.021-.34 4.255-3.06 4.255-3.06l-1.872 3.23zm68.6-26.523-3.576 2.04 65.876-29.412 10.214-5.1c-38.981 15.81-72.515 32.472-72.515 32.472zm-40.003-3.57s65.195-34.173 117.794-55.765c52.598-21.592 74.557-29.413 74.557-29.413l3.575 3.06 3.915.51c-.34 0-1.702-.17-2.043.68-.51.85-.17 1.7-.17 1.7l-.681 1.19-9.532 3.231s5.787-.17 6.808-.17c.852 0 2.554 1.87 2.554 1.87l1.191.51 5.788 1.19s-3.064.51-3.915.68c-.851.17-1.702 1.19-1.702 1.19l-.852 2.55-32.001 12.582s8.34-2.04 9.532-2.04c1.192 0 3.745 1.19 4.256 2.38.51 1.19.68 3.23 0 4.25-.681.85-2.383 1.87-3.235 2.38-.51.17-27.405 11.052-61.62 25.333.17.51.34.85.34 1.19.17.85.511 1.7.511 1.7l5.447-.17-4.596 1.87-2.042 2.04s-41.364 62.736-62.472 97.42c-21.108 34.513-44.939 80.757-46.47 82.117-1.703 1.36-.682.17-2.384 1.36-1.021.68-1.362.85-1.532 1.19-.17.17-.34.51-.51.68-.511.68-1.192 1.36-1.873 2.04l-2.043 2.04-.85 3.911s.51-4.42-.17-5.44c-.512-.68-.852-1.53-1.192-2.38-.34-.51-.34-1.19-.17-1.87.17-.85 7.66-16.662 7.66-16.662s-.852 1.19-2.554 0 .17-3.06-1.702-3.06c-1.873 0-1.873 1.19-1.873-.68s1.703-6.121 1.703-6.121-1.873-2.38-1.873-4.59c0-2.38 15.83-35.704 39.662-73.107 23.831-37.404 41.875-62.056 41.875-62.056s1.872-.17 2.723-1.02c1.021-.68-1.872 0 1.362-1.87s3.915-2.38 3.915-2.38 1.872-.51 2.383-1.36c.34-.51 1.532-3.06 2.553-4.931-30.64 13.091-63.152 27.202-85.792 38.423h-8c-1.192 0-2.724.85-3.745 1.36l-2.553 1.02s-.681.17-2.554.17c-1.872 0-1.702-.17-3.064.51-1.361.68-6.298 3.741-7.32.51-.85-3.23 2.554-6.8 2.554-6.8l13.958-5.61s-.17-2.38.17-4.25c.341-1.87.511-2.721 1.703-3.571 1.191-.68 1.872-.85 2.723-1.36.852-.51 1.703-.68.511-1.7-1.191-.85-1.872-1.36-1.872-1.36-.34-.51-.34-1.19 0-1.87.51-.85 1.702-2.72 1.702-2.72z" style="display:inline;fill:#ea3232;stroke-width:1.70118;fill-opacity:1"/><path d="m936.143 293.483 1.362-1.19 6.128-7.48c3.234-7.141 5.107-18.192 5.107-18.192s-.681 9.35-.851 13.091l11.234-13.601c1.532-1.02 3.234-1.87 4.937-2.72 2.723-1.19 3.064-.68 5.277-.68 1.702 0 3.234.17 4.936.34l2.043-2.72c1.532-.17 3.234-.34 4.936-.34 1.192 0 2.383.17 3.405.34 0 0 1.702-1.19 2.723-4.251 1.021-3.06 2.383-1.87 2.383-1.87s3.405-.34 5.618-.34c2.212 0 1.02 1.53 1.02 4.25 0 2.72-4.425 8.33-14.638 21.252-10.043 12.921-42.726 55.935-43.407 58.485-.68 2.72-1.362 1.19-3.064 1.87-1.702.68-1.021-.34-2.043-.68-1.02-.34-1.02-2.21-3.064-2.21-2.042 0-6.638 0-8.68-.68-2.044-.68-2.044-2.21-2.044-2.21l3.916-9.52s-3.575 4.59-4.256 6.12c-.68 1.53-1.362 1.19-3.064 1.19s-2.043-.34-4.085-.68c-2.043-.34-2.724-.34-2.724-1.53s2.043-3.74 2.043-3.74l-50.726 20.231s58.045.34 85.792 3.74c27.746 3.4 21.277 12.582 21.277 12.582s4.937.68 6.299 1.19c1.361.51 1.02.68 2.042 2.21 1.022 1.53 1.022 1.53 1.702 3.74.681 2.21.34 2.72.681 4.93.34 2.211 2.043 2.381 2.383 4.251.34 1.87-1.361 3.74-1.361 3.74l-28.087 9.861v1.53l1.021 2.21.681 2.721s0 1.19-2.042 3.4c-2.043 2.21-22.98 7.311-22.98 7.311l-.681 4.93s-18.044 5.271-54.982 22.783c-36.768 17.511-75.749 38.763-77.792 40.293-2.042 1.53-3.404 1.19-3.404 1.19h-3.745c-1.702 0-1.702-3.06-1.702-3.06s-4.256 1.53-5.958 1.53-2.383-1.53-2.383-1.53c-1.021-1.02-1.873-2.21-2.724-3.4-1.021-1.53 0-2.72-.34-4.25-.34-1.53-2.383 0-3.915 0-1.362 0-1.702-6.461-1.362-9.861.34-3.4 3.915-5.27 7.32-6.461 3.404-1.19 48.002-47.094 50.045-50.155 2.043-3.06 3.064-3.4 3.064-3.4 1.191-.51 2.553-.68 3.745-.68 2.042 0 3.064 5.61 3.064 5.61 1.191-1.53 2.383-2.89 3.915-4.25 2.383-2.21 1.362-1.19 3.064-2.72 1.702-1.53 2.043-.34 2.043-.34l2.383.68c.51.68 1.021 1.19 1.361 1.87 1.022 1.53.34 1.19.34 3.4s-21.107 25.163-21.107 25.163l115.07-57.466c-50.726-6.12-118.474-.34-118.474-.34l-6.98 1.87-3.063-.68-6.298 1.87s-1.362 1.19-2.724 1.53c-1.362.34-2.724.34-4.085.34-1.362 0-2.724 0-4.256-.34-1.362-.34-3.745-.68-5.617-1.53-1.873-.85-1.362-1.53-1.362-3.06 0-1.02-.17-2.04-.34-3.06s-.34-2.04-.34-3.06c0-1.53.68-2.72 2.042-4.25 1.362-1.53 8-5.611 8-5.611s-4.426-9.691 33.023-25.332c37.62-15.642 103.325-34.174 103.325-34.174zm61.961-46.074c-1.191 0-2.553 1.53-3.575 0-1.02-1.53-1.191-1.36-1.02-2.89.17-1.53 1.02-2.38 1.872-2.55.85-.17.17-.34 2.042-.34 1.873 0 2.383.51 2.383 1.87s.681 1.53-.51 2.38c-1.192.85-2.043 1.53-2.043 1.53z" style="fill:#ea3232;stroke-width:1.70118;fill-opacity:1"/><path d="M504.12 206.265c-9.193 1.87-18.725 3.74-28.428 5.78.681 1.531 1.532 2.891 2.383 4.081 4.426 5.78 14.81.17 26.044-9.86zm-32.003-12.58c10.724-1.871 21.96-3.741 33.534-5.611 17.533-2.72 3.915-.51 4.596 2.21.51 2.89 3.405 1.7.51 3.4-2.893 1.7-3.914 1.7-3.914 1.7l-34.045 6.971c6.299-.85 23.32-3.4 41.364-5.95 11.575-12.242 22.47-27.033 27.406-37.064 11.405-22.782 14.469-30.603 14.469-30.603l3.064 4.25-3.064 9.011-10.724 27.033s26.555-40.634 35.406-75.487c13.278-52.195-7.15-67.666-13.788-69.536-6.638-1.87-9.022 0-9.022 0-12.596-.68-38.47 28.732-50.385 47.944-12.086 19.212-12.086 21.592-12.086 21.592S524.205 55.8 528.972 52.23c4.766-3.57 7.83-2.38 7.83-2.38l1.191 4.25s-13.277 8.331-41.364 58.656c-18.384 32.813-25.022 61.375-24.512 80.927zm134.136 12.58c13.277 17.342 20.256 11.901 28.256 5.95 0 0-9.021 1.701-16.34-1.02-7.49-2.89-11.916-4.93-11.916-4.93zm83.068-88.748c-.17 2.38-14.128 37.744-28.938 55.425-3.915 4.08-6.468 6.29-6.468 6.29 2.042-1.7 4.255-3.74 6.468-6.29 11.235-11.9 34.555-39.783 46.3-79.227 15.661-53.045 2.724-73.447-6.808-75.147-26.555-4.93-59.408 39.954-72.515 72.427 0 0 1.702 5.95.34 8.16-1.361 2.21-2.383 2.72-3.234 5.441-.85 2.72-25.533 62.736-.85 78.887 24.681 16.152 57.705-64.946 59.407-69.196 1.702-4.25 5.106-2.21 5.106-2.21s1.532 2.72 1.192 5.44zM706.684.717c30.98 5.44 42.555 51.344 14.98 118.5-34.215 82.968-69.962 90.279-69.962 90.279s-15.66 19.551-33.534 15.131c-17.873-4.25-21.107-23.802-21.107-23.802-18.895-11.731-19.746-40.464-15.32-67.836-3.916 10.54-6.98 17.511-6.98 17.511s5.788 10.371-16.511 39.954c6.128-.68 10.213-1.19 11.235-1.02 5.787.51 6.808.51 6.808.51l-1.702 3.4s-.51 0-4.596.51c-.85.17-7.15 1.19-17.022 3.06-24.001 29.583-59.578 57.636-86.473 41.654-9.022-5.44-14.639-12.75-18.043-20.402-21.448 4.76-42.216 9.861-58.727 14.452l-9.362 2.72c-.681 1.36-2.554 1.53-4.596 2.38-1.532.85-1.873.51-3.235-.17-44.938 13.091-54.13 16.662-54.13 16.662s-3.915 3.91-7.49 5.1c-3.404 1.19-8.511 1.7-8.511 1.7l-6.809.51-3.404-1.19-2.894-2.89-5.107.51s-3.915 2.89-6.298-2.21 2.894-10.881 2.894-10.881 28.427-13.091 87.664-28.733l-2.894-4.42v-5.44c0-3.061.681-4.251.681-4.251l-1.872-5.44s.68-6.631 17.362-50.325c9.022-23.632 23.661-56.785 35.236-82.628-5.787 4.93-11.575 9.861-13.107 10.711-3.064 1.87-3.574 1.87-6.638 1.87s-1.873-.68-4.767-.68c-2.893 0-3.574 1.87-5.957 3.57-2.383 1.7-5.958-.68-5.958-.68l-2.383-1.19-3.575-1.87a8.972 8.972 0 0 1 0-4.25c.681-2.38 6.639-5.44 20.427-16.832 12.256-10.2 34.555-25.502 39.321-28.732l.34-.68 3.575-3.06 3.064 3.06 4.766-.68 1.873 3.06.68 5.44 1.192 5.44s1.873.68 5.447 4.251c3.575 3.57 0 3.06 0 5.44 0 2.38 3.064 2.38 3.064 2.38s5.958 2.381 6.64 4.761c.68 2.38-10.725 16.152-28.768 51.515-13.448 26.523-36.428 78.547-47.492 104.22 16.511-4.08 34.895-8.161 55.322-12.241-.851-8.331 0-14.452 0-14.452s0-7.82-.681-10.71c-.681-3.061-3.064 0-3.064 0s-1.873 0-3.575-3.061c-1.702-3.06 4.766-37.233 27.066-79.057 22.299-41.824 48.002-66.476 51.066-67.156 3.064-.68 2.383 0 5.447.68s2.383 5.95 2.383 5.95 15.831-15.131 29.96-19.212c22.81-6.63 47.321 15.642 46.81 49.135 0 3.23-.34 6.46-.68 9.69 1.021-1.36 2.213-1.53 2.894-3.06.51-1.36 1.361-2.72 2.212-3.74l11.065-7.14c0 .51 44.768-63.756 91.75-55.596z" style="display:inline;fill:#fff;fill-opacity:1;stroke-width:1.70118"/></svg>