<?xml version="1.0" encoding="UTF-8" standalone="no"?>
<!DOCTYPE svg PUBLIC "-//W3C//DTD SVG 1.1//EN" "http://www.w3.org/Graphics/SVG/1.1/DTD/svg11.dtd">
<svg xmlns="http://www.w3.org/2000/svg" version="1.1" viewBox="0.00 0.00 1448.00 1448.00">
<path fill="#000000" d="
  M 0.00 894.71
  L 0.00 554.94
  Q -0.04 545.97 7.48 545.98
  Q 50.77 546.02 94.00 546.07
  C 103.46 546.08 109.31 551.19 116.59 557.39
  Q 251.28 672.08 386.01 786.69
  A 0.61 0.61 0.0 0 0 387.02 786.22
  Q 386.98 673.26 387.01 560.09
  C 387.01 553.80 385.99 549.08 391.49 546.97
  Q 393.33 546.26 397.59 546.26
  Q 439.26 546.22 480.91 546.27
  Q 485.15 546.28 487.11 547.65
  C 490.18 549.78 490.50 552.24 490.50 556.08
  Q 490.50 724.16 490.50 892.23
  Q 490.50 896.12 489.33 898.03
  C 487.79 900.54 485.44 901.97 482.30 901.97
  Q 407.95 902.10 388.25 901.97
  C 379.62 901.91 374.04 898.42 367.00 892.43
  Q 235.38 780.38 104.23 668.32
  A 0.74 0.74 0.0 0 0 103.01 668.88
  Q 102.99 777.76 102.96 886.50
  C 102.96 889.79 103.59 895.95 101.77 898.63
  Q 100.18 900.97 97.39 900.97
  Q 52.57 901.03 7.75 901.00
  Q 0.92 901.00 0.00 894.71
  Z"
/>
<path fill="#000000" d="
  M 869.31 781.98
  Q 867.66 782.51 868.93 783.69
  Q 917.85 829.53 964.32 872.43
  Q 967.56 875.42 978.82 884.59
  C 982.65 887.72 984.47 890.26 982.55 895.05
  Q 981.35 898.03 978.07 898.92
  Q 973.51 900.16 964.00 900.13
  Q 921.76 899.99 879.52 900.05
  C 868.56 900.07 862.54 900.53 855.50 893.77
  Q 803.09 843.55 750.66 793.35
  Q 748.34 791.13 746.00 791.12
  Q 704.58 791.03 663.16 790.99
  C 655.19 790.99 649.03 791.68 649.00 782.00
  Q 648.88 729.05 649.04 712.99
  C 649.11 706.69 653.62 705.03 659.35 705.03
  Q 725.06 704.97 790.76 705.01
  Q 803.09 705.02 810.73 704.34
  Q 826.01 702.97 841.00 699.63
  C 850.37 697.55 860.62 693.80 864.85 684.28
  C 870.41 671.76 869.44 654.73 858.69 645.43
  Q 853.35 640.81 840.60 637.34
  Q 821.16 632.05 802.00 632.03
  Q 711.75 631.97 621.34 632.01
  A 0.34 0.34 0.0 0 0 621.00 632.35
  Q 621.00 763.75 621.00 895.25
  C 621.00 899.88 617.28 900.99 613.16 900.99
  Q 569.08 901.00 524.99 901.01
  C 518.04 901.01 517.26 896.58 517.26 890.52
  Q 517.24 722.95 517.25 555.36
  C 517.25 553.63 517.74 549.52 519.01 548.24
  Q 521.26 546.01 523.78 546.01
  Q 660.89 545.99 797.99 546.00
  C 801.58 546.00 804.93 546.82 808.47 546.93
  C 846.95 548.12 886.37 555.77 920.02 575.39
  C 953.50 594.91 971.71 628.76 972.24 667.26
  Q 972.95 718.75 935.84 750.57
  C 916.22 767.40 893.41 774.37 869.31 781.98
  Z"
/>
<path fill="#000000" d="
  M 1448.00 708.87
  L 1448.00 893.78
  Q 1447.40 899.96 1442.00 899.96
  Q 1295.33 900.04 1148.68 899.98
  Q 1143.99 899.98 1138.35 899.43
  Q 1133.19 898.92 1128.02 898.60
  Q 1104.09 897.14 1082.16 890.63
  C 1034.67 876.52 999.66 842.70 993.76 791.98
  Q 993.01 785.53 993.00 772.00
  Q 992.98 724.62 993.00 677.25
  Q 993.01 663.35 993.64 657.27
  Q 995.88 635.84 1005.58 616.58
  C 1016.40 595.09 1034.60 579.75 1056.71 569.24
  C 1087.26 554.72 1120.18 548.11 1154.03 547.02
  C 1157.77 546.90 1161.49 546.00 1165.01 546.00
  Q 1297.25 546.00 1429.50 546.00
  Q 1433.69 546.00 1435.37 546.87
  C 1438.33 548.41 1439.01 551.02 1439.01 554.42
  Q 1438.99 589.22 1439.00 624.01
  C 1439.00 630.53 1435.12 631.98 1429.17 631.98
  Q 1297.21 632.02 1165.25 632.00
  Q 1141.18 632.00 1116.49 639.70
  Q 1113.32 640.69 1107.12 645.11
  C 1097.39 652.05 1096.98 665.06 1096.99 676.79
  Q 1097.02 724.80 1096.98 772.81
  C 1096.98 776.68 1097.43 780.35 1097.78 784.25
  C 1099.00 798.06 1108.02 805.83 1120.81 809.37
  Q 1144.63 815.96 1167.75 815.98
  Q 1255.27 816.03 1343.00 815.99
  A 1.00 0.99 0.0 0 0 1344.00 815.00
  L 1344.00 775.25
  Q 1344.00 774.70 1343.45 774.71
  Q 1299.83 774.92 1256.26 774.51
  Q 1251.35 774.46 1249.77 770.96
  Q 1249.05 769.37 1249.03 764.47
  Q 1248.93 740.58 1249.04 716.71
  Q 1249.07 708.21 1249.16 707.79
  Q 1250.34 702.02 1257.75 702.02
  Q 1347.43 701.96 1437.11 702.03
  C 1442.66 702.03 1447.27 702.77 1448.00 708.87
  Z"
/>
</svg>
