<svg xmlns="http://www.w3.org/2000/svg" xml:space="preserve" width="100" height="113.7" viewBox="0 0 26.458333 30.083124"><path d="M13.143-.047.012 4.534l-.005 7.653c.15 3.633.029 7.353 1.611 10.403 1.195 2.303 3.474 4.308 11.616 7.487.592-.301.233-.074.967-.386 3.238-1.37 8.608-3.457 10.388-6.702.575-1.047 1.868-3.022 1.849-10.407l.082-8.045z" style="display:inline;fill:#fff;fill-opacity:1;stroke-width:.962001;stroke-opacity:.493562"/><path d="M13.205.327.314 4.774.33 9.91C.358 18.426.478 22.63 4.942 25.7c2.914 2.004 8.185 3.98 8.238 4l.056.02.055-.02c.052-.019 5.265-1.994 8.179-4 4.463-3.07 4.66-7.299 4.66-15.814V4.774ZM1.673 14.17c1.554.18 3.045.197 4.133.155v-.002c-.169.54-.391 1.74-.391 1.74s-2.245.494-3.619.652a42.946 42.946 0 0 1-.123-2.545Zm1.41 7.516c-.39-.725-.677-1.525-.886-2.42a27.881 27.881 0 0 0 3.056-1.309c-.013.664.03 1.378.115 2.11a28.491 28.491 0 0 1-2.285 1.619zm2.723 2.956a9.81 9.81 0 0 1-1.14-.914c.432-.456.813-.89 1.131-1.269.209.864.484 1.766.836 2.714-.29-.176-.569-.352-.827-.53zm.615-11.905c-.048.028-3.128-.598-4.805-1.29-.002-.365-.003-.746-.002-1.13l.009-2.07c1.703 1.35 5.086 2.917 5.613 3.093-.342.535-.582.97-.815 1.397Zm1.81-2.692C6.758 9.06 4.447 7.28 2.875 5.288l2.843-.982c1.102 1.845 2.614 3.57 3.645 4.626-.385.331-.766.7-1.132 1.113Zm2.43-2.124c-.025.013-1.703-2.735-2.291-4.545l2.531-.874c.307 1.756.848 3.465 1.275 4.617-.458.2-1.515.802-1.515.802zm14.178 2.427c.041 7.632-.171 11.541-4.171 14.277L16.31 19.08c-3.077-1.166-1.955-5.85-1.955-5.85-.07 1.784.94 2.987.94 2.987l2.314.942s1.002 1.83 1.213 2.93c.373.185 1.598.033 1.598.033l-1.071-1.77 2.26 1.276 1.545-1.839-3.087-5.938c-.193-.715.028-1.57.028-1.57-.25-.115-4.145-2.827-4.145-2.827 2.167-1.827.617-3.672.617-3.672a164.533 164.533 0 0 1-2.68 2.86h-.011l.01-.004c-.477-1.637-.351-3.34.072-4.694L24.852 5.71zm-7.358.273 1.01.67.482.574s-.67.208-.925 0c-.254-.206-.567-1.244-.567-1.244zm3.295 6.467.64.543.737.26-.963.1z" style="display:inline;fill:#001539;fill-opacity:1;stroke-width:.157977"/></svg>