<?xml version="1.0" encoding="UTF-8" standalone="no"?>
<!DOCTYPE svg PUBLIC "-//W3C//DTD SVG 1.1//EN" "http://www.w3.org/Graphics/SVG/1.1/DTD/svg11.dtd">
<svg xmlns="http://www.w3.org/2000/svg" version="1.1" viewBox="0.00 0.00 1448.00 1448.00">
<path fill="#000000" d="
  M 367.23 729.08
  A 0.49 0.48 -53.9 0 0 367.16 728.62
  L 102.37 388.16
  Q 101.68 387.27 102.80 387.27
  L 304.97 387.27
  A 1.90 1.88 70.6 0 1 306.45 387.99
  L 571.89 725.32
  A 1.20 1.20 0.0 0 1 571.75 726.95
  L 206.16 1059.41
  A 3.23 3.22 23.9 0 1 204.00 1060.24
  L 2.10 1060.23
  A 0.32 0.32 0.0 0 1 1.89 1059.67
  Q 184.23 894.87 366.66 729.91
  Q 367.05 729.56 367.23 729.08
  Z"
/>
<path fill="#000000" d="
  M 820.40 1040.52
  L 920.24 411.10
  A 0.45 0.45 0.0 0 0 919.50 410.70
  L 612.80 689.60
  A 1.07 1.07 0.0 0 1 611.24 689.47
  L 505.69 555.35
  A 0.92 0.92 0.0 0 1 505.79 554.10
  L 688.71 388.33
  A 2.41 2.40 -66.1 0 1 690.33 387.70
  L 1121.21 387.90
  A 0.69 0.68 -85.6 0 1 1121.88 388.69
  L 1041.67 892.49
  A 0.60 0.60 0.0 0 0 1042.26 893.18
  L 1446.16 893.18
  Q 1446.92 893.18 1446.80 893.92
  L 1420.76 1059.91
  A 0.99 0.99 0.0 0 1 1419.78 1060.75
  C 1139.72 1060.71 859.76 1060.49 579.75 1060.49
  C 577.08 1060.49 576.30 1060.25 574.61 1058.07
  Q 515.16 981.57 455.75 905.31
  A 0.87 0.87 0.0 0 1 455.86 904.13
  L 605.12 768.39
  A 0.46 0.46 0.0 0 1 605.79 768.45
  L 820.00 1040.63
  A 0.23 0.23 0.0 0 0 820.40 1040.52
  Z"
/>
</svg>
