<svg xmlns="http://www.w3.org/2000/svg" xml:space="preserve" width="188" height="210" viewBox="0 0 188 210"><g style="display:inline"><path d="M239.453 567.464c.655-4.368.48-4.938-2.449-7.96l-3.154-3.254 4.473-.671c3.706-.556 4.68-1.171 5.682-3.592 2.153-5.197 3.579-5.485 5.342-1.078 1.444 3.61 1.99 4.019 6.193 4.65l4.61.69-3.154 3.255c-2.929 3.022-3.104 3.592-2.45 7.96l.707 4.705-4.127-2.105L247 567.96l-4.126 2.105-4.126 2.105zm32.194-.214c.49-4.2.253-5.03-2.047-7.174-1.43-1.334-2.6-2.757-2.6-3.162 0-.406 1.812-1.044 4.027-1.419 3.42-.577 4.338-1.29 6.095-4.735l2.07-4.055 2.185 3.897c1.789 3.19 2.952 4.06 6.404 4.79 2.32.49 4.219 1.194 4.219 1.563s-1.292 1.908-2.87 3.42c-2.546 2.44-2.813 3.261-2.36 7.28l.51 4.529-4.108-2.096-4.11-2.097-3.28 2c-1.805 1.101-3.598 2.003-3.985 2.005-.386.002-.454-2.133-.15-4.746zm32.593.314c.466-4.132.216-4.908-2.36-7.339-1.584-1.495-2.88-3.03-2.88-3.41 0-.381 1.956-.986 4.347-1.344 3.863-.58 4.57-1.114 6.357-4.802l2.01-4.15 2.131 4.177c1.912 3.747 2.604 4.249 6.718 4.866l4.587.688-3.2 3.301c-2.954 3.049-3.147 3.651-2.513 7.875.377 2.516.459 4.574.181 4.574-.277 0-2.072-.926-3.99-2.057l-3.485-2.056-4.212 2.148-4.212 2.149zm-127.47-9.96c-29.946-13.78-53.084-29.779-75.285-52.053C33.88 437.721 10.72 339.156 41.087 248.5c5.344-15.953 16.625-40.12 24.506-52.5 20.802-32.676 51.123-62.755 82.907-82.246 8.243-5.055 22.716-12.754 23.975-12.754.289 0 .525 8.911.525 19.802v19.802l-9.25 5.943c-25.725 16.527-49.28 40.13-66.322 66.453-21.742 33.584-33.492 73.778-33.54 114.732-.017 15.183 2.082 36.41 4.13 41.768.42 1.1.797-4.367.837-12.15.2-39.134 12.72-78.522 36.015-113.288 5.242-7.824 18.175-23.94 19.273-24.017 2.33-.163 1.278 5.018-3.723 18.344-3.107 8.276-5.949 17.087-6.316 19.58-.994 6.757.522 15.46 3.942 22.627l3.044 6.379-4.484 11.262c-8.66 21.75-12.022 39.649-11.977 63.763.032 17.303 1.537 30.527 4.668 41 1.331 4.453 1.352 4.365 1.974-8.5 1.283-26.553 9.76-54.065 23.652-76.764 2.772-4.53 5.881-9.306 6.91-10.614l1.868-2.377 10.607 7.877c5.834 4.333 10.626 8.443 10.65 9.133.058 1.722-6.241 24.064-11.063 39.24C148.583 377.714 147 387.585 147 404c0 14.774 1.608 26.444 5.172 37.546l2.232 6.954.705-8.617c1.062-12.983 5.393-32.032 8.38-36.867.323-.52 2.512.525 4.867 2.322 2.355 1.798 8.976 4.944 14.713 6.993 5.737 2.048 10.983 4.069 11.657 4.49 2.007 1.256-.19 7.018-5.215 13.679-9.845 13.05-18.078 33.155-20.475 50-3.764 26.448 3.124 56.43 17.894 77.899 1.741 2.53 2.806 4.601 2.367 4.601-.44 0-6.077-2.429-12.528-5.397zm197.066-2.29c6.463-10.48 11.754-23.16 14.39-34.485 3.195-13.722 3.124-36.588-.155-49.829-3.749-15.141-10.84-30.33-19.17-41.056-3.448-4.44-6.473-11.804-5.286-12.865.487-.434 5.804-2.518 11.816-4.631 6.175-2.17 12.807-5.273 15.242-7.132l4.31-3.29 1.5 3.588c3.988 9.544 7.453 26.87 7.576 37.886.081 7.216.756 5.966 4.59-8.5 1.971-7.443 2.635-12.89 3.063-25.154.624-17.876-.422-27.145-4.698-41.64a7771.156 7771.156 0 0 1-8.297-28.475l-5.434-18.77 11.019-8.094 11.018-8.094 1.858 2.364c3.54 4.502 11.954 18.867 15.287 26.099 8.825 19.148 14.33 41.328 15.433 62.186l.64 12.078 1.705-7.5c5.817-25.566 5.992-47.22.594-73.5-2.003-9.751-8.942-31.006-12.075-36.985-1.44-2.748-1.423-3.184.207-5.5.974-1.383 2.788-5.322 4.03-8.752 3.617-9.984 2.643-18.155-4.373-36.688-5.09-13.448-6.257-19.352-3.632-18.38 1.84.681 13.454 15.576 20.78 26.649 20.53 31.027 31.547 64.208 34.413 103.643l1.237 17.013 1.451-7.5c2.215-11.445 2.109-52.56-.167-65-9.063-49.529-29.382-88.234-63.826-121.584-11.338-10.977-21.315-18.946-33.643-26.872l-9.239-5.94v-19.802c0-10.891.236-19.802.525-19.802 1.298 0 15.617 7.702 25 13.447 31.787 19.46 63.514 51.383 82.9 83.411 46.004 76.007 48.8 170.32 7.354 248.142-24.98 46.905-63.863 84.307-112.279 108.003-22.123 10.827-21.498 10.775-15.664 1.311zm-151.05-12.86c-.279-.28-.185-2.274.21-4.432.637-3.483.397-4.23-2.14-6.66-1.57-1.505-2.856-3.05-2.856-3.436 0-.384 1.998-.999 4.44-1.365 3.944-.591 4.566-1.049 5.573-4.1 1.632-4.946 2.646-5.05 4.964-.506 1.744 3.419 2.655 4.123 6.039 4.663 2.191.35 3.984.946 3.984 1.323s-1.295 1.926-2.878 3.442c-2.65 2.54-2.806 3.078-1.965 6.82.502 2.233.695 4.278.43 4.543-.265.265-2.12-.53-4.121-1.767l-3.64-2.25-3.765 2.117c-2.071 1.164-3.994 1.887-4.274 1.608zm32.572-4.052c.606-4.418.417-5.039-2.426-7.972l-3.082-3.18 4.442-.666c3.962-.595 4.634-1.094 6.227-4.625.981-2.178 2.054-3.954 2.383-3.949.329.006 1.337 1.771 2.24 3.923 1.493 3.554 2.072 3.977 6.326 4.614l4.682.703-3.154 3.254c-2.929 3.022-3.104 3.592-2.45 7.96l.707 4.705-4.127-2.105L263 538.96l-4.15 2.117-4.148 2.117zm31.666 3.848c.013-.412.408-2.406.879-4.43.767-3.302.56-3.96-2.024-6.436-1.584-1.517-2.879-3.066-2.879-3.443 0-.377 1.793-.972 3.984-1.323 3.424-.547 4.289-1.232 6.144-4.868l2.158-4.231 2.038 4.206c1.812 3.743 2.513 4.278 6.356 4.854 2.376.357 4.32.963 4.32 1.347 0 .385-1.292 1.937-2.87 3.45-2.546 2.44-2.813 3.26-2.36 7.279l.51 4.529-4.194-2.14-4.195-2.14-3.313 2.048c-3.548 2.192-4.592 2.49-4.554 1.298zm33.036-3.5c.721-3.867.529-4.525-2.134-7.298-1.61-1.676-2.926-3.312-2.926-3.636 0-.324 1.944-.88 4.32-1.237 3.843-.576 4.544-1.111 6.356-4.854l2.038-4.206 2.116 4.148c1.808 3.543 2.704 4.247 6.143 4.828 2.215.375 4.027 1.013 4.027 1.419 0 .405-1.17 1.828-2.6 3.162-2.3 2.143-2.537 2.974-2.048 7.17l.553 4.746-4.105-2.094-4.106-2.095-3.733 2.099c-2.053 1.154-3.95 2.098-4.213 2.098-.264 0-.123-1.913.312-4.25zm-47.884-53.77c-2.378-.495-6.653-1.976-9.5-3.29C255.44 478.347 224 453.216 224 450.772c0-1.486 4.898-4.276 22.522-12.827 24.382-11.831 29.226-13.526 35.995-12.599 4.915.674 49.41 21.611 50.892 23.948.5.788.651 2.106.336 2.928-1.124 2.929-34.803 28.522-40.303 30.626-6.426 2.46-15.383 3.357-21.266 2.131zm-37.521-55.809c-.91-1.006-1.655-2.786-1.655-3.956 0-3.177 6.018-31.596 6.877-32.475.409-.418 1.77 3.222 3.024 8.089 1.255 4.866 2.609 9.378 3.01 10.026.512.83 4.17-.458 12.389-4.365 18.858-8.964 22.853-8.96 41.575.042 6.311 3.035 11.78 5.17 12.154 4.743.374-.426 1.729-4.6 3.01-9.275 2.093-7.628 3.961-12.086 3.961-9.45 0 .524 1.563 8.257 3.474 17.187 5.17 24.164 5.004 24.284-18.12 12.993L287.5 414.5h-17l-16.871 8.25c-9.28 4.537-16.972 8.25-17.095 8.25-.123 0-.969-.823-1.879-1.829zm-33.102-42.169c-13.876-5.1-17.553-7.8-17.553-12.887 0-2.656 1.078-6.796 11.487-44.102 2.53-9.067 4.468-17.617 4.307-19-.233-1.993-5.671-6.546-26.294-22.013-17.013-12.76-26.48-20.51-27.386-22.42-1.571-3.31-1.662-2.955 6.283-24.58 4.607-12.539 7.614-17 11.459-17 .959 0 4.525 2.024 7.924 4.497 11.363 8.268 15.633 10.342 31.557 15.327l15.83 4.955 9.166 9.615c5.042 5.288 9.668 9.613 10.281 9.61 2.613-.01 3.278-24.596.934-34.533-1.443-6.119-4.437-15.619-5.168-16.398-.22-.235-1.71.828-3.312 2.361l-2.91 2.789-12.784-6.361-12.783-6.362-14.546.46c-8 .252-18.545.477-23.433.5-8.544.038-8.967-.066-10.938-2.7l-2.05-2.74 2.37-5.76c1.303-3.168 5.845-13.635 10.093-23.26l7.724-17.5 4.345-1.699c2.389-.934 9.744-3.249 16.344-5.144 6.6-1.895 19.305-5.593 28.234-8.219 13.585-3.995 16.636-4.59 18.7-3.65 1.81.824 4.853 5.854 11.448 18.918C265.214 188.097 275.955 205 279.664 205c3.372 0 13.552-16.232 28.836-45.982 7.214-14.041 9.517-17.695 11.607-18.41 1.974-.677 5.493-.034 14.5 2.647a4758.642 4758.642 0 0 0 27.893 8.172c26.456 7.658 23.694 5.658 31.178 22.573 14.381 32.504 14.454 32.76 10.281 36.537-1.864 1.687-3.247 1.732-21.923.71-23.832-1.304-26.185-.915-40.826 6.741l-10.241 5.356-2.974-2.849c-1.636-1.567-3.113-2.657-3.282-2.422-1.176 1.631-3.11 7.455-4.761 14.346-2.756 11.494-2.524 36.581.339 36.581.56 0 5.109-4.294 10.108-9.541l9.089-9.541 17.006-5.474c15.124-4.867 17.947-6.137 25.506-11.474 11.653-8.226 12.289-8.507 15.887-7.017 2.54 1.053 3.552 2.722 6.898 11.39 8.962 23.22 9.7 25.868 8.137 29.162-.952 2.006-10.009 9.435-27.422 22.495-21.37 16.028-26.055 19.974-26.308 22.161-.17 1.464 1.262 8.214 3.182 15 9.754 34.494 12.626 45.4 12.626 47.941 0 5.016-3.589 7.605-17.912 12.92-7.377 2.738-14.172 4.978-15.1 4.978-1.434 0-18.093-7.541-46.124-20.88-7.441-3.54-8.32-4.914-9.316-14.578-.338-3.277-.853-6.91-1.145-8.073-.647-2.578 2.044-5.314 23.847-24.243 16.54-14.359 17.753-16.105 14.391-20.702-1.525-2.085-.103-2.055-26.111-.559-16.535.951-50.45.072-57.265-1.485-2.965-.677-6.265 2.676-6.265 6.366 0 2.408 1.96 4.523 12.737 13.75 7.006 5.997 15.83 13.818 19.612 17.38l6.874 6.476-.706 9.014c-.387 4.958-1.272 10.096-1.965 11.419-.934 1.783-7.817 5.471-26.61 14.26-13.944 6.52-26.272 11.801-27.397 11.736-1.125-.066-7.871-2.26-14.992-4.879zM205 109.473V94.947l-17-36.273c-9.35-19.95-17-36.682-17-37.182s1.913.923 4.25 3.16c10.304 9.865 24.017 18.04 37.561 22.39l8.689 2.791.742 8.742c.408 4.808.903 8.903 1.1 9.1.198.199 3.464-.289 7.259-1.081 3.794-.793 10.162-1.76 14.149-2.147 3.987-.388 7.25-1.002 7.25-1.365 0-.362-1.74-5.247-3.866-10.854l-3.866-10.195 4.579-2.683c9.515-5.576 20.623-18.861 27.258-32.6 1.261-2.612 2.6-4.75 2.973-4.75.374 0 1.282 1.462 2.02 3.25 2.505 6.077 12.892 20.556 18.157 25.31 2.885 2.604 7.382 6.058 9.995 7.673 2.612 1.616 4.75 3.553 4.75 4.303s-1.575 5.716-3.5 11.034c-1.925 5.318-3.5 9.84-3.5 10.05 0 .209 1.238.383 2.75.386 3.074.006 21.837 2.73 24.393 3.54 1.403.445 1.768-.812 2.5-8.598l.857-9.12 8.863-2.844c12.88-4.135 27.239-12.723 37.387-22.363 2.337-2.22 4.25-3.57 4.25-3 0 .571-5.21 12.027-11.579 25.459-6.368 13.43-14.018 29.633-17 36.004L354 94.667v14.667c0 8.066-.235 14.666-.523 14.666-.288 0-5.8-1.557-12.25-3.46-23.057-6.802-32.599-8.042-61.727-8.022-29.14.02-38.904 1.29-61.727 8.022-6.45 1.903-11.962 3.46-12.25 3.46-.288 0-.523-6.537-.523-14.527Z" style="display:inline;fill:#c6aa76;fill-opacity:1" transform="matrix(.36474 0 0 .36474 -7.763 .344)"/></g></svg>