<?xml version="1.0" encoding="utf-8"?>
<!-- Generator: Adobe Illustrator 27.0.1, SVG Export Plug-In . SVG Version: 6.00 Build 0)  -->
<svg version="1.1" id="Layer_1" xmlns="http://www.w3.org/2000/svg" xmlns:xlink="http://www.w3.org/1999/xlink" x="0px" y="0px"
	 viewBox="0 0 595.3 595.3" style="enable-background:new 0 0 595.3 595.3;" xml:space="preserve">
<style type="text/css">
	.st0{clip-path:url(#SVGID_00000182495928808853683320000014166867008947485865_);}
	.st1{clip-path:url(#SVGID_00000111886463994296510260000008918528809718967939_);}
</style>
<g id="sk_x5F_logo_00000152983754074936062920000004293942703840471182_">
	<g>
		<defs>
			<rect id="SVGID_1_" x="-35" y="-35" width="666" height="666"/>
		</defs>
		<clipPath id="SVGID_00000034068060786202347560000005441697891428668575_">
			<use xlink:href="#SVGID_1_"  style="overflow:visible;"/>
		</clipPath>
		<g style="clip-path:url(#SVGID_00000034068060786202347560000005441697891428668575_);">
			<defs>
				<rect id="SVGID_00000065071488097954842780000004378504663704536201_" x="-35" y="-35" width="666" height="666"/>
			</defs>
			<clipPath id="SVGID_00000063613661465684171860000009263566735378726025_">
				<use xlink:href="#SVGID_00000065071488097954842780000004378504663704536201_"  style="overflow:visible;"/>
			</clipPath>
			<path style="clip-path:url(#SVGID_00000063613661465684171860000009263566735378726025_);" d="M487.7,73.3l-63,58.4H246.1
				c-71.8,0-111.5,35.6-111.5,102.1v94H73.9V227.4c0-89.3,65.4-154.1,171-154.1H487.7z M315.5,395.5V413h58.9v-17.5
				c0-73-32.1-105.6-102.1-108.6l110.3-103.3h-75.9l-108,103.3v40.9h33.3C299.2,327.8,315.5,349.4,315.5,395.5 M135.8,522.7l63-58.4
				h151.2c71.8,0,111.5-35.6,111.5-102.1v-75.3h60.7v81.7c0,89.3-65.4,154.1-171,154.1H135.8z"/>
		</g>
	</g>
</g>
</svg>
