<?xml version="1.0" encoding="UTF-8" standalone="no"?>
<!DOCTYPE svg PUBLIC "-//W3C//DTD SVG 1.1//EN" "http://www.w3.org/Graphics/SVG/1.1/DTD/svg11.dtd">
<svg xmlns="http://www.w3.org/2000/svg" version="1.1" viewBox="0.00 0.00 1316.00 1593.00">
<path fill="#ff0075" d="
  M 855.28 1593.00
  L 855.01 1593.00
  L 733.54 1369.17
  Q 733.30 1368.73 733.55 1368.30
  L 790.59 1269.81
  A 0.99 0.98 -44.7 0 0 790.60 1268.81
  L 259.43 349.68
  A 1.93 1.93 0.0 0 1 259.43 347.76
  L 460.11 0.51
  A 0.44 0.44 0.0 0 1 460.88 0.52
  L 582.13 223.96
  Q 582.30 224.27 582.12 224.58
  L 525.14 323.15
  A 1.25 1.23 45.4 0 0 525.14 324.38
  L 1056.50 1243.83
  Q 1056.78 1244.31 1056.50 1244.79
  L 855.28 1593.00
  Z"
/>
<path fill="#ff0075" d="
  M 1207.03 984.28
  Q 1195.15 1004.83 1190.42 1013.22
  Q 1188.21 1017.15 1186.31 1019.86
  Q 1186.00 1020.30 1185.73 1019.83
  Q 959.97 629.20 734.22 238.56
  Q 729.06 229.64 726.42 224.53
  Q 726.15 224.00 726.74 224.00
  L 983.74 224.00
  A 2.25 2.24 74.9 0 1 985.68 225.12
  Q 1149.91 509.27 1312.93 791.29
  Q 1314.16 793.41 1315.13 795.67
  A 1.18 1.17 -44.7 0 1 1315.12 796.61
  Q 1313.72 799.79 1311.28 804.01
  Q 1259.12 894.13 1207.03 984.28
  Z"
/>
<path fill="#ff0075" d="
  M 330.51 1368.83
  L -0.01 797.05
  A 0.34 0.34 0.0 0 1 -0.01 796.71
  L 129.23 573.02
  A 0.34 0.34 0.0 0 1 129.81 573.02
  L 589.55 1368.49
  A 0.34 0.34 0.0 0 1 589.25 1369.00
  L 330.81 1369.00
  A 0.34 0.34 0.0 0 1 330.51 1368.83
  Z"
/>
</svg>
