<svg xmlns="http://www.w3.org/2000/svg" xml:space="preserve" width="40px" height="48px" viewBox="0 0 40 48"><path d="m9.051 30.567 4.912-8.747L6.317 0c-4.42 1.194-8.74 10.209-4.721 17.789 1.931 3.64 7.455 12.778 7.455 12.778ZM5.73 28.263 3.593 26.85l-1.318-3.508h-.953L1.8 27.96l5.814 3.458zm30.17-1.412-2.135 1.412-1.884 3.154 5.812-3.458.478-4.616h-.955zm-22.947 9.557L19.745 48l6.72-11.575-6.72 1.06zm10.861-14.304-4.067-6.312-4.067 6.312 4.067 6.23z" style="fill:#ff0;fill-opacity:1"/><path d="m29.29 31.904-4.564-8.074-4.979 7.482-4.979-7.482-4.563 8.074-3.37 2.176-.478 7.336h.956l1.315-6.228 1.803-.743 9.316 1.283 9.316-1.283 1.803.743 1.316 6.228h.955l-.478-7.336Zm8.606-14.115c4.022-7.58-.298-16.595-4.718-17.789l-7.642 21.82 4.905 8.747s5.526-9.139 7.455-12.778z" style="display:inline;fill:#ff0;fill-opacity:1"/></svg>