<svg xmlns="http://www.w3.org/2000/svg" xml:space="preserve" width="1000" height="1250" viewBox="0 0 264.58333 330.72917"><g style="display:inline"><path d="M132.027-.065C101.203 1.071 66.487 4.79 17.801 27.756 3.038 68.94.924 106.433 0 143.14c-.327 66.745 18.13 94.642 31.485 114.3 27.032 37.597 67.048 61.366 100.542 73.29 12.568-2.874 68.328-27.914 98.954-70.91 9.11-12.704 32.634-42.982 33.602-115.622.04-45.882-7.29-83.039-17.832-116.432C205.175 6.02 157.533-.243 132.027-.064Z" style="display:inline;fill:#dca710;fill-opacity:1;stroke-width:.264583"/><path d="M131.376 7.375C88.101 7.088 43.528 22.402 23.814 32.797 9.821 80.097 7.171 118.704 7.231 147.55c-.745 101.478 62.275 150.8 125.053 175.438 33.39-10.757 91.265-47.426 111.434-100.591 6.71-15.843 13.298-43.761 13.437-75.73.873-36.922-4.963-75.55-16.415-113.765-33.713-16.63-73.998-25.939-109.364-25.528Z" style="display:inline;fill:#020406;fill-opacity:1;stroke-width:.264583"/><path d="M38.946 45.728c13.474-6.403 25.843-9.45 37.564-12.208-16.517 28.298-24.203 43.816-32.123 65.475-7.237 19.564-14.151 46.94-18.026 66.621-1.821-20.043-.79-43.529 3.13-70.834 2.168-16.286 4.977-32.851 9.455-49.054ZM95.45 143.82c2.383-1.401 5.804-1.555 8.057-1.538 4.003-.192 11.335 4.798 19.717 11.1-.365.64-8.6.009-12.873-.089-3.166-.126-7.979-.202-9.47-.96-1.205.03-4.162-5.638-5.432-8.512z" style="display:inline;fill:#fff;fill-opacity:1;stroke-width:.264583"/><path d="M132.474 15.007C112.195 17.58 95.296 33.437 81.7 57.536c-20.236 41.163-34.89 83.073-37.251 119.47 5.418 8.778 11.748 17.126 17.65 25.742 7.213 8.827 11.692 14.808 18.773 21.956-12.366-8.161-20.1-14.355-26.65-20.38-7.74-6.608-12.285-11.874-17.455-19.162l-7.703 2.669c4.973 25.048 14.426 47.024 40.898 74.752 11.8-3.417 21.53-8.128 25.948-17.38 2.714-6.735-2.322-16.727-7.44-25.334-9.336-13.703-18.004-24.621-24.26-40.78 4.959-19.484 29.047-96.872 68.775-97.333 29.333-.077 55 50.712 67.283 97.08-7.202 23.297-36.39 48.454-31.994 65.904 3.854 8.588 13.143 14.39 26.723 17.991 17.944-19.97 35.13-41.96 40.498-74.86l-7.843-2.717c-9.118 13.087-23.055 25.406-43.876 39.523 15.05-15.129 27.73-34.052 36.2-47.46-1.597-39.206-19.338-81.666-32.387-110.344-12.192-25.279-28.023-47.48-55.116-51.866Z" style="display:inline;fill:#fff;fill-opacity:1;stroke-width:.264583"/><path d="M169.14 143.82c-2.384-1.401-5.805-1.555-8.058-1.538-4.004-.192-11.537 4.765-19.919 11.066.355.52 8.998.066 13.182-.063 3.512-.01 8.767-.221 9.462-.924 1.372-.39 4.066-5.673 5.332-8.54z" style="display:inline;fill:#fff;fill-opacity:1;stroke-width:.264584"/><path d="M225.827 45.794c-13.498-6.403-26.186-9.781-37.927-12.538 16.546 28.298 24.221 43.652 32.155 65.31 7.25 19.564 14.398 46.741 18.28 67.877 1.826-20.051.986-45.084-3.1-71.832-2.173-16.286-5.401-32.374-9.408-48.817z" style="display:inline;fill:#fff;fill-opacity:1;stroke-width:.264814"/></g></svg>