<svg xmlns="http://www.w3.org/2000/svg" xml:space="preserve" width="498" height="439" viewBox="0 0 131.7625 116.15209"><defs><clipPath id="a" clipPathUnits="userSpaceOnUse"><path d="M0 850.394h850.394V0H0Z"/></clipPath><clipPath id="b" clipPathUnits="userSpaceOnUse"><path d="M0 850.394h850.394V0H0Z"/></clipPath><clipPath id="c" clipPathUnits="userSpaceOnUse"><path d="M0 850.394h850.394V0H0Z"/></clipPath><clipPath id="d" clipPathUnits="userSpaceOnUse"><path d="M0 850.394h850.394V0H0Z"/></clipPath><clipPath id="e" clipPathUnits="userSpaceOnUse"><path d="M0 850.394h850.394V0H0Z"/></clipPath><clipPath id="f" clipPathUnits="userSpaceOnUse"><path d="M0 850.394h850.394V0H0Z"/></clipPath><clipPath id="g" clipPathUnits="userSpaceOnUse"><path d="M0 850.394h850.394V0H0Z"/></clipPath><clipPath id="h" clipPathUnits="userSpaceOnUse"><path d="M0 850.394h850.394V0H0Z"/></clipPath><clipPath id="i" clipPathUnits="userSpaceOnUse"><path d="M0 850.394h850.394V0H0Z"/></clipPath><clipPath id="j" clipPathUnits="userSpaceOnUse"><path d="M0 850.394h850.394V0H0Z"/></clipPath><clipPath id="k" clipPathUnits="userSpaceOnUse"><path d="M0 850.394h850.394V0H0Z"/></clipPath><clipPath id="l" clipPathUnits="userSpaceOnUse"><path d="M0 850.394h850.394V0H0Z"/></clipPath><clipPath id="m" clipPathUnits="userSpaceOnUse"><path d="M0 850.394h850.394V0H0Z"/></clipPath><clipPath id="n" clipPathUnits="userSpaceOnUse"><path d="M0 850.394h850.394V0H0Z"/></clipPath></defs><g style="display:inline"><g fill="#c63547" style="display:inline;fill:#e90d45;fill-opacity:1;stroke:none;stroke-opacity:1"><path d="m93.318 338.396 6.844-45.636 25.656-65.522c5.977-18.016 7.919-33.754 8.771-44.484 1.582-20.808 1.648-43.217-9.687-63.229-5.605-10.805-12.969-17.567-18.28-21.218-.005-1.077-4.181-17.236 5.062-27.192a23.371 23.371 0 0 1 9.905-6.106c14.24 5.436 28.976 10.842 44 13.413 8.934 1.527 18.192 1.965 27.243 2.443l1.53 30.655c-21.649 24.043-32.043 50.385-35.489 75.475-3.202 23.314-.467 45.319 6.356 63.625l-24.889 29.374z" style="display:inline;fill:#e90d45;fill-opacity:1;stroke:none;stroke-opacity:1" transform="translate(-19.77 .502) scale(.28872)"/><path d="m76.589 124.709-8-9.17 5.81-39.853 60.433-39.124c.079 3.317-.559 5.703-1 7.022-2.308 6.91-10.361 12.964-17.648 18.818-10.833 8.701-21.934 14.465-23.595 15.758-.066.051-.232.158-.221.323.054.818 5.328 2.427 7.14 5.067 3.405 4.961 4.122 10.948.162 16.68-3.214 4.652-7.984 7.089-10.567 8.512-4.172 2.298-6.876 3.977-9.324 6.474-3.072 3.133-3.017 6.487-3.19 9.493zm124.134-47.016 2.98 24.581c3.342-2.877 6.985-6.256 9.736-8.147L207.75 74.36Zm14.433-6.942 6.49 17.533c2.517-1.335 8.276-5.408 10.52-5.855l-9.091-16.694zm14.919-9.352 12.069 16.209c5.544-2.432 11.088-4.318 16.632-6.11l-20.701-16.235Zm15-11.243 30.846 17.94c23.482-3.736 45.134-1.502 64.485 5.006 25.932 8.72 43.678 22.922 52.703 32.108 0 0 35.555-23.413 42.48-28.44L253.237 43.017Zm13.66-11.46 200.312 20.522c24.24-19 46.63-39.149 65.688-60.649L265.276 31.588Z" style="display:inline;fill:#e90d45;fill-opacity:1;stroke:none;stroke-opacity:1" transform="translate(-19.77 .502) scale(.28872)"/></g><g style="display:inline;fill:#fcfcfc;fill-opacity:1"><g clip-path="url(#a)" style="fill:#fcfcfc;fill-opacity:1" transform="matrix(.0961 0 0 -.0961 25.086 100.496)"><path d="M-395.695 394.147c-216.192-.24-393.77-174.4-394.84-392.686-1.074-219.103 175.189-399.438 394.294-399.405C-176.922-397.912 2.647-218.981-1.375 1.377c-4.028 220.683-177.99 393.012-394.319 392.77zm-.688-16.526c198.327.625 374.476-154.602 379.626-376.303 5.059-217.753-180.636-387.279-380.7-384.39-218.61 3.158-383.236 182.046-379.908 385.02 3.27 199.483 161.57 374.98 380.982 375.673zm1.116-148.312c-134.126.027-234.527-108.76-233.202-230.282 1.497-137.352 101.72-234.56 234.175-235.149 124.593-.554 232.926 102.55 230.94 236.295-1.89 127.46-107.964 229.111-231.913 229.136zm-.973-14.43c116.767.028 214.892-93.665 217.826-214.878 2.904-120.016-96.21-221.228-215.88-221.346-69.722-.07-115.804 24.556-154.819 64.012-40.358 40.815-65.666 97.001-64.828 156.36 1.676 118.81 97.506 215.824 217.7 215.852z" style="display:inline;fill:#fcfcfc;fill-opacity:1;fill-rule:nonzero;stroke:none" transform="translate(821.924 425.197)"/><path d="m-193.456 318.658.01-.853-27.347-8.474c.538-102.587-51.664-234.606-163.01-315.352l2.975-6.864 32.911-50.781 55.462-37.765 25.72-11.878c-7.31 9.654-16.19 32.955-14.095 56.101 4.909 54.207 54.182 79.432 87.05 79.89l8.73.122c29.5.411 76.821-21.288 87.902-76.97 4.835-24.294-7.422-50.726-15.765-59.92l25.929 8.358c20.669 9.224 39.894 27.678 55.402 42.062 13.776 17.005 37.759 30.542 35.41 49.245l3.846 7.234c-124.809 87.364-165.39 231.958-165.61 315.486l-25.197 9.506.01.853-5.166-.424zm5.08-3.886c6.966 0 11.58-4.497 18.512-5.177.785-86.324 26.89-161.16 55.863-212.9h-149.264c28.973 51.74 52.846 126.089 53.63 212.413 6.863.673 14.22 5.664 21.26 5.664zm-80.017-226.549 157.917-.344C-75.016 31.848-23.2-13.975-6.558-26.589.224-58.694-46.182-77.847-74.816-93.05c12.916 61.434-43.238 126.423-110.1 126.423h-9.666c-66.86 0-122.563-65.701-109.648-127.136-28.157 15.34-53.938 41.404-66.812 67.641 15.73 11.703 62.464 50.087 102.649 114.346z" style="display:inline;fill:#fcfcfc;fill-opacity:1;fill-rule:nonzero;stroke:none" transform="translate(614.946 329.599)"/><path d="M.487-8.992C2.34-8.992 2.3-5.617 2.3-5.617c0 4.771 5.75 13.75 5.75 13.75 5.666 8.5 6.916 14.563 6.916 18.042 0 8.082-10.144 30.146-11.541 33.062C2.029 62.153.487 61.966.487 61.966h-.625s-1.541.187-2.938-2.729c-1.395-2.916-11.541-24.98-11.541-33.062 0-3.479 1.25-9.542 6.916-18.042 0 0 5.75-8.979 5.75-13.75 0 0-.041-3.375 1.813-3.375z" style="display:inline;fill:#fcfcfc;fill-opacity:1;fill-rule:nonzero;stroke:none" transform="translate(425.509 261.394)"/><path d="M-1.234-8.992c0 6.104 6.784 16.229 18.159 16.542 13.437.312 24.5-19.625 24.5-19.625s3.75-6.125 1.875-7.188c-1.875-1.062-5.563 3.625-5.563 3.625S28.55-3.783 22.883-3.783 16.466-9.2 16.466-9.2s-.416-3.584 3.75-4.417c4.167-.833 3.167-3.5 3.167-3.5S21.966-23.2 14.216-23.2s-15.45 8.625-15.45 14.208" style="fill:#fcfcfc;fill-opacity:1;fill-rule:nonzero;stroke:none" transform="translate(375.509 272.102)"/><path d="M1.52-8.992c0 6.104-6.096 16.229-17.471 16.542-13.437.312-24.5-19.625-24.5-19.625s-3.75-6.125-1.875-7.188c1.875-1.062 5.563 3.625 5.563 3.625S-27.576-3.783-21.91-3.783-15.494-9.2-15.494-9.2s.417-3.584-3.75-4.417c-4.166-.833-3.166-3.5-3.166-3.5s1.416-6.083 9.166-6.083S1.519-14.575 1.519-8.992" style="fill:#fcfcfc;fill-opacity:1;fill-rule:nonzero;stroke:none" transform="translate(474.885 272.102)"/><path d="m.487-8.992-.016.031C.339-6.843-3.16-.766-5.147.726c-.242.211-.461.335-.644.335-.016 0-.035-.012-.051-.013-.017.001-.036.013-.052.013-.183 0-.402-.124-.644-.335-1.99-1.492-5.485-7.569-5.62-9.687l-.013-.031.01-.016c-.002-.026-.01-.06-.01-.085 0-2.278 4.757-8.409 6.278-8.409.015 0 .035.014.05.015.017-.001.036-.015.05-.015 1.522 0 6.28 6.131 6.28 8.409 0 .025-.008.059-.01.085l.01.016" style="fill:#fcfcfc;fill-opacity:1;fill-rule:nonzero;stroke:none" transform="translate(431.525 246.903)"/><path d="M.973 4.867v-96.84c6.485.493 12.691.818 19.313.818h.011v29.443H45.3l20.576-33.625c8.364-1.51 17.336-3.438 25.507-5.776l-25.49 40.64c14.615 3.9 26.66 16.776 26.66 32.05 0 18.354-17.365 33.29-35.727 33.29zm19.668-17.223h36.184c8.865 0 16.07-7.21 16.07-16.067 0-8.864-7.205-16.067-16.07-16.067H20.641Zm-127.619-5.714-7.268-110.341a256.174 256.174 0 0 0 20.16 11.127l1.038 25.719a277.816 277.816 0 0 0 41.49 14.485l16.948-19.447c7.5 1.621 14.382 2.904 21.998 3.843l-74.234 82.227c-6.899-2.21-13.384-4.979-20.132-7.613m16.314-14.168 27.402-31.424a290.976 290.976 0 0 1-29.071-10.19zm200.438-74.93a257.222 257.222 0 0 0 18.623-7.758l37.401 89.948a354.484 354.484 0 0 1-18.668 7.684zM-201.23-65.556l-40.548-44.626 70.64-64.375c4.423 4.854 9.077 9.493 13.853 13.993l-22.051 20.1 27.317 30.066c12.36 13.566 12.374 35.373-1.192 47.737-6.187 5.636-14.143 8.35-22.141 8.35-9.547 0-19.152-3.867-25.878-11.245m-14.566-41.677 26.513 29.092c5.974 6.55 16.14 7.029 22.698 1.054 6.553-5.962 7.023-16.153 1.048-22.693l-26.505-29.102zm411.78 41.045c-12.713-11.993-5.5-30.475 5.593-42.14l10.756-11.329c10.98-11.563 20.581-23.069 11.758-30.356-9.413-7.772-35.695 11.703-51.492 45.141l-14.159-10.683c3.384-8.798 11.005-21.538 21.253-32.315 11.61-12.229 24.255-20.18 35.583-22.413 8.9-1.747 17.77-.426 23.613 5.004 14.588 13.54 9.288 33.27-13.639 57.406l-9.514 10.012c-10.55 11.122-6.239 17.451-2.15 18.42 14.574 3.412 41.356-23.182 46.473-41.203 4.267 3.24 13.738 10.2 13.738 10.2-8.876 25.252-38.51 50.534-61.213 50.534-6.25 0-11.977-1.915-16.6-6.278" style="fill:#fcfcfc;fill-opacity:1;fill-rule:nonzero;stroke:none" transform="translate(404.437 770.559)"/></g><g clip-path="url(#b)" style="fill:#fcfcfc;fill-opacity:1" transform="matrix(.0961 0 0 -.0961 25.086 100.496)"><path d="m-1.947-12.168 4.125-3.882 12.185 5.941 12.255-10.676-3.909-13.172 4.616-3.565L38.408 1.422 34.025 5.24zM19.55-7.666l12.43 6.04-3.8-13.546z" style="fill:#fcfcfc;fill-opacity:1;fill-rule:nonzero;stroke:none" transform="translate(204.456 199.451)"/></g><g clip-path="url(#c)" style="fill:#fcfcfc;fill-opacity:1" transform="matrix(.0961 0 0 -.0961 25.086 100.496)"><path d="m-1.947-12.168 4.332-2.918 20.177 31.36-4.338 2.913z" style="fill:#fcfcfc;fill-opacity:1;fill-rule:nonzero;stroke:none" transform="translate(244.786 165.985)"/></g><g clip-path="url(#d)" style="fill:#fcfcfc;fill-opacity:1" transform="matrix(.0961 0 0 -.0961 25.086 100.496)"><path d="m-.973-12.168 4.455-2.652 12.936 25.183.08-.04 6.289-35.42 4.553-2.124L44.067 5.492l-4.588 2.473-12.72-24.83-.086.041-6.24 35.023-4.59 2.474z" style="fill:#fcfcfc;fill-opacity:1;fill-rule:nonzero;stroke:none" transform="translate(263.696 153.752)"/></g><g clip-path="url(#e)" style="fill:#fcfcfc;fill-opacity:1" transform="matrix(.0961 0 0 -.0961 25.086 100.496)"><path d="m-1.46-12.168 11.923-4.26L.228-46.538l4.892-1.756 10.243 30.128 11.926-4.258 1.709 5.017L.242-7.147z" style="fill:#fcfcfc;fill-opacity:1;fill-rule:nonzero;stroke:none" transform="translate(316.91 162.065)"/></g><g clip-path="url(#f)" style="fill:#fcfcfc;fill-opacity:1" transform="matrix(.0961 0 0 -.0961 25.086 100.496)"><path d="M.73-11.194c-.2-12.542 9.716-19.446 19.32-19.614 9.027-.15 16.44 3.192 16.548 9.82l.158 9.8-16.755 1.243-.083-5.312 11.325-.187-.075-4.127c-.039-3.15-4.549-6.03-10.79-5.927-9.12.16-14.589 6.738-14.472 13.972.121 7.72 5.743 14.024 15.298 13.863 6.531-.114 9.257-3.55 11-5.341L36.112-.26c-2.076 2.11-6.764 7.78-15.355 7.918l-.386.003C9.05 7.66.888-.784.731-11.194" style="fill:#fcfcfc;fill-opacity:1;fill-rule:nonzero;stroke:none" transform="translate(407.246 128.018)"/></g><g clip-path="url(#g)" style="fill:#fcfcfc;fill-opacity:1" transform="matrix(.0961 0 0 -.0961 25.086 100.496)"><path d="M.487-11.438 5.6-47.966l30.082 4.422-.726 5.26L10-41.962 8.439-30.803l12.122 1.775-.733 5.277-12.13-1.79-1.344 9.597 24.059 3.531-.742 5.263z" style="fill:#fcfcfc;fill-opacity:1;fill-rule:nonzero;stroke:none" transform="translate(453.44 147.298)"/></g><g clip-path="url(#h)" style="fill:#fcfcfc;fill-opacity:1" transform="matrix(.0961 0 0 -.0961 25.086 100.496)"><path d="m1.703-11.924-20.31-6.263L-8.236-53.52l4.97 1.45-4.342 14.825 12.821 3.959L16.41-45.862l4.704 1.758-10.524 12.67c2.83 1.134 7.135 5.085 4.884 12.76-1.582 5.366-5.383 7.427-9.502 7.427-1.41 0-2.859-.241-4.268-.677m-13.86-9.824 15.35 4.737c2.862.877 6.136.814 7.314-3.194 1-3.443-.525-6.071-4.25-7.218l-15.354-4.741z" style="fill:#fcfcfc;fill-opacity:1;fill-rule:nonzero;stroke:none" transform="translate(515.339 160.888)"/></g><g clip-path="url(#i)" style="fill:#fcfcfc;fill-opacity:1" transform="matrix(.0961 0 0 -.0961 25.086 100.496)"><path d="m2.434-11.681 7.6-39.701 4.619 3.023-2.533 13.362 13.108 9.558 11.145-6.991 4.514 3.69L7.122-8.272zm5.995-3.724 11.88-7.1-9.236-6.735z" style="fill:#fcfcfc;fill-opacity:1;fill-rule:nonzero;stroke:none" transform="translate(588.544 199.207)"/></g><g clip-path="url(#j)" style="fill:#fcfcfc;fill-opacity:1" transform="matrix(.0961 0 0 -.0961 25.086 100.496)"><path d="m2.434-11.681 24.51-27.017 3.874 3.528L6.228-8.065z" style="fill:#fcfcfc;fill-opacity:1;fill-rule:nonzero;stroke:none" transform="translate(611.969 217.362)"/></g><g clip-path="url(#k)" style="fill:#fcfcfc;fill-opacity:1" transform="matrix(.0961 0 0 -.0961 25.086 100.496)"><path d="m3.894-12.898 20.35-18.754-.065-.067-34.671 2.441-3.471-3.952 26.856-24.772 3.64 3.804L-4.07-35.206l.065.08 35.034-2.457 3.1 3.957L7.363-8.94Z" style="fill:#fcfcfc;fill-opacity:1;fill-rule:nonzero;stroke:none" transform="translate(644.43 251.82)"/></g><g clip-path="url(#l)" style="fill:#fcfcfc;fill-opacity:1" transform="matrix(.0961 0 0 -.0961 25.086 100.496)"><path d="m2.19-11.924-.779-26.157-21.12 14.709-4.644-2.415 15.756-33.204 4.705 2.16-10.905 23.597.088.049L6.213-47.72l.8 25.885.096.047L19.36-44.73l4.498 2.59L6.808-9.508z" style="fill:#fcfcfc;fill-opacity:1;fill-rule:nonzero;stroke:none" transform="translate(564.422 183.429)"/></g><g clip-path="url(#m)" style="fill:#fcfcfc;fill-opacity:1" transform="matrix(.0961 0 0 -.0961 25.086 100.496)"><path d="M-2.19-12.168c-1.696-1.288-2.71-3.015-3.004-5.118-.47-3.3.829-7.454 3.487-11.095l3.838-5.256c2.972-4.064 5.837-8.325 5.242-11.679-.233-1.355-.981-2.444-2.213-3.258-.677-.444-1.455-.669-2.321-.669-5.21 0-14.515 8.906-18.85 22.54l-.08.25-3.792-3.646-.072-.074.024-.088c.847-3.411 3.596-8.31 7.408-13.539 4.002-5.482 8.569-9.274 12.85-10.686 1.383-.455 2.735-.69 4.03-.69 1.877 0 3.539.494 4.804 1.446 2.088 1.56 3.32 3.55 3.66 5.902.644 4.354-1.618 10.102-6.704 17.065L2.73-26.115C.023-22.408.14-19.992.717-18.625c.504 1.2 1.586 2.03 2.814 2.183.188.016.384.022.586.022 6.178 0 14.934-10.505 17.209-18.652l.057-.208.176.112c1.286.756 2.777 1.632 3.692 2.163l.113.07-.034.116C22.39-21.556 11.238-10.507 2.82-10.507c-1.883 0-3.57-.56-5.01-1.66" style="fill:#fcfcfc;fill-opacity:1;fill-rule:nonzero;stroke:none" transform="translate(192.607 254.07)"/></g><g clip-path="url(#n)" style="fill:#fcfcfc;fill-opacity:1" transform="matrix(.0961 0 0 -.0961 25.086 100.496)"><path d="m-.49-11.081 12.836-2.893 1.157 5.247L.688-5.77z" style="fill:#fcfcfc;fill-opacity:1;fill-rule:nonzero;stroke:none" transform="translate(365.574 130.607)"/></g></g><g style="display:inline;fill:#fcfcfc;fill-opacity:1"><path d="m34.66 107.366 6.85-.024-.023 1.614h-4.841v2.169h3.57v1.587h-3.57v1.548h5.088l-.002 1.583-7.072-.012zm15.065 1.94.38-1.521s-1.608-.548-3.439-.58c-2.247.08-3.48.87-3.77 2.3-.19 1.443 1.594 2.21 2.92 2.567.74.3 2.95.384 2.95 1.417-.02.728-1.201.797-2.092.836-.891.038-3.72-.72-3.72-.72l-.274 1.688s1.953.705 4.134.66c2.36-.046 3.913-1.118 3.96-2.555.039-1.111-.684-1.547-.95-1.761-.732-.586-2.06-.822-3.198-1.13-.86-.233-1.682-.536-1.647-.903.074-.757 1.273-.71 2.034-.711 1.04-.003 2.718.415 2.712.413zm2.637-1.987.046 8.512h2.096v-1.987l3.352-.047s2.445-.617 2.41-3.462c-.029-2.338-2.526-3.02-2.526-3.02zm2.142 1.66h2.629s1.09.367 1.075 1.66c-.011.942-1.193 1.544-1.193 1.544h-2.51zm11.212-1.894c-2.986.022-4.545 2.4-4.463 4.516.111 2.87 1.894 4.48 4.674 4.459 2.452-.039 4.305-1.46 4.28-4.53-.111-2.925-1.344-4.398-4.372-4.444h-.119zm.069 1.813c1.309-.025 2.281.908 2.444 2.595.122 1.263-.764 2.76-2.466 2.76-1.48 0-2.516-1.202-2.422-2.9.062-1.105.88-2.444 2.444-2.455zm6.291-1.477-.032 8.464 2.04.002v-2.434h2.024l1.908 2.434h2.432l-2.245-2.815s1.564-.91 1.561-2.737c-.004-2.3-2.31-2.914-2.31-2.914zm2.007 1.56h2.696s.924.334.942 1.449c.013.736-.868 1.277-.868 1.277h-2.77zm6.959.027v-1.587h7.737l.018 1.587H85.85l.1 6.829-2.01.023-.054-6.852z" style="display:inline;fill:#fcfcfc;fill-opacity:1;stroke:none;stroke-width:.25;stroke-opacity:1" transform="translate(0 .132)"/><path d="m74.42 121.794.38-1.52s-1.607-.55-3.438-.58c-2.247.08-3.48.869-3.77 2.298-.19 1.444 1.593 2.212 2.92 2.568.74.3 2.95.384 2.95 1.417-.02.728-1.201.798-2.092.836-.891.038-3.72-.719-3.72-.719l-.274 1.687s1.953.705 4.134.66c2.36-.045 3.912-1.118 3.96-2.555.038-1.11-.684-1.547-.95-1.76-.732-.587-2.061-.823-3.198-1.13-.861-.234-1.682-.537-1.647-.904.074-.757 1.273-.71 2.034-.711 1.04-.003 2.718.415 2.712.413z" style="display:inline;fill:#fcfcfc;fill-opacity:1;stroke:none;stroke-width:.25;stroke-opacity:1" transform="translate(22.04 -12.406)"/></g></g></svg>