<?xml version="1.0" encoding="UTF-8" standalone="no"?>
<!-- Created with Inkscape (http://www.inkscape.org/) -->

<svg
   version="1.1"
   id="svg2"
   xml:space="preserve"
   width="2666.6667"
   height="2666.6667"
   viewBox="0 0 2666.6667 2666.6667"
   sodipodi:docname="efbb4d28a75ea18e1b8a0bdaa2ea8db7.ai"
   xmlns:inkscape="http://www.inkscape.org/namespaces/inkscape"
   xmlns:sodipodi="http://sodipodi.sourceforge.net/DTD/sodipodi-0.dtd"
   xmlns="http://www.w3.org/2000/svg"
   xmlns:svg="http://www.w3.org/2000/svg"><defs
     id="defs6"><clipPath
       clipPathUnits="userSpaceOnUse"
       id="clipPath16"><path
         d="M 0,2000 H 2000 V 0 H 0 Z"
         id="path14" /></clipPath></defs><sodipodi:namedview
     id="namedview4"
     pagecolor="#ffffff"
     bordercolor="#666666"
     borderopacity="1.0"
     inkscape:pageshadow="2"
     inkscape:pageopacity="0.0"
     inkscape:pagecheckerboard="0" /><g
     id="g8"
     inkscape:groupmode="layer"
     inkscape:label="efbb4d28a75ea18e1b8a0bdaa2ea8db7"
     transform="matrix(1.3333333,0,0,-1.3333333,0,2666.6667)"><g
       id="g10"><g
         id="g12"
         clip-path="url(#clipPath16)"><g
           id="g18"
           transform="translate(999.983,240.4657)"><path
             d="m 0,0 c -419.467,0 -759.517,340.05 -759.517,759.551 0,419.468 340.05,759.518 759.517,759.518 419.501,0 759.552,-340.05 759.552,-759.518 C 759.552,340.05 419.501,0 0,0 m 0,1591.534 c -459.481,0 -831.983,-372.502 -831.983,-831.983 0,-459.515 372.502,-832.017 831.983,-832.017 459.515,0 832.017,372.502 832.017,832.017 0,459.481 -372.502,831.983 -832.017,831.983"
             style="fill:#000000;fill-opacity:1;fill-rule:nonzero;stroke:none"
             id="path20" /></g><g
           id="g22"
           transform="translate(1526.9792,1386.9307)"><path
             d="m 0,0 c -5.087,-9.054 -16.785,-29.705 -24.009,-41.065 l -7.392,-11.631 13.191,6.273 -10.817,-17.633 26.823,19.261 c -8.952,-19.498 -25.975,-48.186 -25.975,-48.186 -9.088,-19.634 -33.639,-46.626 -33.639,-46.626 L -224.146,-335.269 -398.613,-542.73 c -2.272,-2.679 -2.543,-6.545 -0.644,-9.529 86.776,-138.184 115.158,-193.66 122.144,-204.444 2.747,-4.239 3.798,-9.563 4.001,-14.513 0.34,-6.952 -0.983,-13.87 -3.459,-20.414 l -6.239,-16.514 c -0.78,-2.645 -1.966,-5.019 -3.289,-7.121 -2.713,-4.239 -6.409,-7.766 -10.614,-10.581 l -0.136,-0.067 c -4.239,-2.815 -7.867,-6.443 -10.715,-10.648 l -3.357,-5.019 c -0.882,-1.288 -2.272,-2.204 -3.832,-2.373 -0.509,-0.034 -0.983,-0.068 -1.458,-0.068 -4.103,0 -7.868,2.272 -10.309,5.561 l -61.411,83.148 -1.73,-31.91 -107.799,141.575 c -20.279,-19.193 -42.897,-44.355 -55.003,-58.156 -1.932,-2.204 -5.561,-0.17 -4.645,2.645 l 3.018,9.325 -2.747,2.035 -104.409,-113.328 c -1.594,-1.729 -3.12,-3.56 -4.68,-5.391 -20.278,-23.873 -39.674,-21.499 -39.674,-21.499 -21.771,2.746 -16.955,8.443 -16.955,8.443 35.3,63.446 149.814,234.013 174.602,270.806 2.951,4.374 3.256,9.97 0.882,14.649 l -61.275,119.363 8.715,-0.779 c 1.559,-0.136 2.645,1.559 1.865,2.95 l -2.713,4.781 c -0.543,0.949 -0.814,2.001 -0.814,3.018 0,1.831 0.848,3.628 2.408,4.781 1.017,0.78 1.288,2.204 0.61,3.29 -4.985,8.172 -8.613,14.683 -11.258,19.803 -4.68,8.986 -7.02,18.99 -7.02,29.129 l -96.508,-42.863 c -2.238,-1.017 -4.171,-2.611 -5.493,-4.713 -21.974,-34.554 -92.439,-274.434 -92.439,-274.434 l -61.241,-209.089 c -3.188,-10.852 -14.039,-17.566 -25.162,-15.565 l -4.917,0.881 c -10.173,1.832 -16.989,11.496 -15.327,21.703 l 75.45,456.056 c -44.999,-10.681 -183.657,-32.452 -183.657,-32.452 l 29.095,18.583 -55.952,-1.424 c 113.735,65.412 181.284,97.39 212.006,110.886 12.513,5.459 21.262,16.989 23.127,30.485 l 7.833,55.578 c -86.878,-29.196 -169.551,-53.781 -182.843,-57.715 -1.051,-0.339 -2.204,0.17 -2.713,1.187 l -0.814,1.662 c -0.407,0.847 -0.068,1.865 0.78,2.306 l 19.024,9.664 -16.447,0.543 c 96.542,54.425 141.778,84.639 141.778,84.639 l -103.9,-28.654 24.686,20.143 -70.363,-14.819 c 61.615,46.05 211.87,131.367 240.287,147.407 2.984,1.695 5.222,4.476 6.239,7.765 l 15.022,49.747 c 1.018,3.425 3.086,6.477 5.901,8.748 l 77.281,62.395 c 6.51,5.256 16.243,0.915 16.683,-7.461 l 2.883,-57.409 c 236.793,112.853 263.074,126.01 263.074,126.01 3.187,1.593 7.935,2.678 12.411,3.391 10.308,1.627 20.957,1.187 30.824,-2.238 39.234,-13.531 52.323,-60.767 52.323,-60.767 3.9,-10.105 4.103,-19.363 2.544,-27.264 -1.391,-6.985 -4.341,-13.428 -8.478,-19.058 -4.137,-5.628 -9.427,-10.409 -15.564,-14.038 -19.329,-11.496 -39.031,-22.347 -59.038,-32.554 l -142.829,-72.873 -159.31,-78.569 -17.09,-70.804 133.978,51.102 c 34.419,12.75 62.768,13.836 62.768,13.836 40.93,4.543 38.115,-48.051 38.115,-48.051 2.339,-28.145 -30.451,-45.948 -41.438,-51.102 -5.019,-2.374 -10.072,-4.714 -15.056,-7.088 l -53.985,-25.941 83.724,-117.6 c 2.272,-4.001 4.883,-1.729 4.883,-1.729 14.513,29.23 57.986,87.589 57.986,87.589 76.196,102.172 193.389,255.411 193.389,255.411 72.127,94.372 104.986,118.346 104.986,118.346 l -0.882,-11.428 c -0.068,-0.881 0.577,-1.661 1.458,-1.661 5.697,-0.136 22.584,10.613 22.584,10.613 7.698,3.9 6.714,-0.848 6.714,-0.848 -1.831,-6.951 -29.874,-37.029 -29.874,-37.029 l 15.259,6.816 -6.036,-10.377 42.727,32.554 c 0.78,-9.495 2.814,-10.173 2.814,-10.173 7.359,2.611 12.988,0.678 12.988,0.678 0.915,-0.373 2,-0.644 3.12,-0.847 5.256,-0.984 10.647,-0.679 15.835,0.542 L -2.509,3.255 C -0.61,3.73 0.95,1.696 0,0 m -526.996,372.604 c -419.467,0 -759.517,-340.05 -759.517,-759.518 0,-419.501 340.05,-759.551 759.517,-759.551 419.501,0 759.551,340.05 759.551,759.551 0,419.468 -340.05,759.518 -759.551,759.518"
             style="fill:#ffffff;fill-opacity:1;fill-rule:nonzero;stroke:none"
             id="path24" /></g><g
           id="g26"
           transform="translate(1502.9707,1345.8656)"><path
             d="M 0,0 -7.392,-11.631 5.799,-5.358 -5.019,-22.991 21.804,-3.73 C 12.852,-23.228 -4.171,-51.916 -4.171,-51.916 -13.259,-71.55 -37.809,-98.542 -37.809,-98.542 l -162.328,-195.662 -174.467,-207.461 c -2.272,-2.679 -2.544,-6.545 -0.644,-9.529 86.775,-138.183 115.158,-193.66 122.144,-204.444 2.746,-4.239 3.797,-9.562 4.001,-14.513 0.339,-6.952 -0.984,-13.87 -3.459,-20.414 l -6.239,-16.514 c -0.78,-2.645 -1.967,-5.019 -3.29,-7.121 -2.712,-4.239 -6.409,-7.766 -10.613,-10.58 l -0.136,-0.068 c -4.239,-2.815 -7.867,-6.443 -10.715,-10.648 l -3.357,-5.019 c -0.882,-1.288 -2.273,-2.204 -3.833,-2.373 -0.508,-0.034 -0.983,-0.068 -1.458,-0.068 -4.103,0 -7.867,2.272 -10.308,5.561 l -61.411,83.148 -1.73,-31.91 -107.8,141.575 c -20.278,-19.193 -42.896,-44.355 -55.002,-58.156 -1.933,-2.204 -5.561,-0.17 -4.646,2.645 l 3.018,9.325 -2.746,2.035 -104.409,-113.328 c -1.594,-1.729 -3.12,-3.56 -4.68,-5.391 -20.278,-23.873 -39.675,-21.499 -39.675,-21.499 -21.77,2.746 -16.955,8.443 -16.955,8.443 35.301,63.446 149.815,234.014 174.603,270.806 2.95,4.374 3.255,9.97 0.882,14.649 l -61.276,119.363 8.715,-0.779 c 1.56,-0.136 2.645,1.56 1.865,2.95 l -2.713,4.781 c -0.542,0.95 -0.813,2.001 -0.813,3.018 0,1.831 0.847,3.628 2.407,4.781 1.017,0.78 1.289,2.205 0.611,3.29 -4.985,8.172 -8.614,14.683 -11.259,19.803 -4.679,8.986 -7.019,18.99 -7.019,29.129 l -96.508,-42.863 c -2.238,-1.017 -4.171,-2.61 -5.494,-4.713 -21.973,-34.554 -92.438,-274.434 -92.438,-274.434 l -61.242,-209.089 c -3.187,-10.852 -14.039,-17.566 -25.161,-15.565 l -4.917,0.881 c -10.173,1.832 -16.989,11.496 -15.327,21.703 l 75.45,456.056 c -44.999,-10.681 -183.657,-32.452 -183.657,-32.452 l 29.094,18.583 -55.951,-1.424 c 113.734,65.412 181.283,97.39 212.006,110.886 12.512,5.459 21.261,16.989 23.126,30.485 l 7.833,55.578 c -86.877,-29.196 -169.55,-53.781 -182.843,-57.715 -1.051,-0.339 -2.204,0.17 -2.712,1.187 l -0.814,1.662 c -0.407,0.847 -0.068,1.865 0.78,2.306 l 19.023,9.664 -16.446,0.543 c 96.542,54.425 141.778,84.64 141.778,84.64 l -103.901,-28.655 24.687,20.143 -70.363,-14.819 c 61.614,46.05 211.869,131.368 240.286,147.407 2.984,1.695 5.222,4.476 6.24,7.765 l 15.022,49.747 c 1.017,3.425 3.086,6.477 5.9,8.748 l 77.281,62.395 c 6.511,5.256 16.243,0.916 16.684,-7.461 l 2.882,-57.409 c 236.794,112.853 263.074,126.01 263.074,126.01 3.188,1.594 7.936,2.678 12.412,3.391 10.308,1.627 20.956,1.187 30.824,-2.238 39.234,-13.53 52.323,-60.767 52.323,-60.767 3.9,-10.105 4.103,-19.363 2.543,-27.264 -1.39,-6.985 -4.34,-13.428 -8.477,-19.058 -4.138,-5.628 -9.427,-10.409 -15.565,-14.038 -19.329,-11.495 -39.03,-22.347 -59.037,-32.554 l -142.83,-72.873 -159.309,-78.569 -17.091,-70.804 133.979,51.102 c 34.419,12.75 62.768,13.836 62.768,13.836 40.929,4.544 38.114,-48.051 38.114,-48.051 2.34,-28.145 -30.451,-45.948 -41.438,-51.102 -5.018,-2.374 -10.071,-4.714 -15.056,-7.088 l -53.985,-25.941 83.724,-117.6 c 2.272,-4.001 4.883,-1.729 4.883,-1.729 14.514,29.23 57.986,87.589 57.986,87.589 76.196,102.172 193.389,255.411 193.389,255.411 72.127,94.372 104.986,118.346 104.986,118.346 l -0.882,-11.428 c -0.067,-0.881 0.577,-1.661 1.459,-1.661 5.697,-0.136 22.584,10.613 22.584,10.613 7.697,3.9 6.714,-0.847 6.714,-0.847 -1.832,-6.952 -29.875,-37.03 -29.875,-37.03 l 15.26,6.816 -6.036,-10.377 42.726,32.554 c 0.78,-9.495 2.815,-10.173 2.815,-10.173 7.358,2.611 12.987,0.678 12.987,0.678 0.916,-0.373 2.001,-0.644 3.12,-0.847 5.256,-0.984 10.648,-0.678 15.836,0.542 l 18.82,4.408 c 1.899,0.475 3.459,-1.559 2.51,-3.255 C 18.922,32.011 7.223,11.36 0,0"
             style="fill:#000000;fill-opacity:1;fill-rule:evenodd;stroke:none"
             id="path28" /></g></g></g></g></svg>
