<?xml version="1.0" encoding="UTF-8" standalone="no"?>
<!-- Created with Inkscape (http://www.inkscape.org/) -->

<svg
   version="1.1"
   id="svg2"
   xml:space="preserve"
   width="2666.6667"
   height="2666.6667"
   viewBox="0 0 2666.6667 2666.6667"
   sodipodi:docname="cb3e59891a2dbcf949a6b0235ef2410b.ai"
   xmlns:inkscape="http://www.inkscape.org/namespaces/inkscape"
   xmlns:sodipodi="http://sodipodi.sourceforge.net/DTD/sodipodi-0.dtd"
   xmlns="http://www.w3.org/2000/svg"
   xmlns:svg="http://www.w3.org/2000/svg"><defs
     id="defs6"><clipPath
       clipPathUnits="userSpaceOnUse"
       id="clipPath16"><path
         d="M 0,2000 H 2000 V 0 H 0 Z"
         id="path14" /></clipPath></defs><sodipodi:namedview
     id="namedview4"
     pagecolor="#ffffff"
     bordercolor="#666666"
     borderopacity="1.0"
     inkscape:pageshadow="2"
     inkscape:pageopacity="0.0"
     inkscape:pagecheckerboard="0" /><g
     id="g8"
     inkscape:groupmode="layer"
     inkscape:label="cb3e59891a2dbcf949a6b0235ef2410b"
     transform="matrix(1.3333333,0,0,-1.3333333,0,2666.6667)"><g
       id="g10"><g
         id="g12"
         clip-path="url(#clipPath16)"><g
           id="g18"
           transform="translate(1717.0125,381.0862)"><path
             d="m 0,0 c -655.042,107.835 -1431.861,0 -1431.861,0 l -245.473,181.953 c 71.45,522.07 159.459,919.718 159.459,919.718 865.476,211.083 1605.211,0 1605.211,0 48.98,-181.953 99.256,-499.548 99.256,-499.548 l -74.766,-80.727 89.331,-13.891 42.346,-326.225 z m 229.612,539.251 -44.989,5.287 39.676,49.603 c 0,0 -69.453,396.145 -107.834,539.51 0,0 -814.32,215.281 -1664.35,0 0,0 -79.95,-348.254 -168.218,-969.554 l 274.99,-202.478 c 0,0 702.027,111.152 1449.38,0 l 273.721,202.478 z"
             style="fill:#efefef;fill-opacity:1;fill-rule:nonzero;stroke:none"
             id="path20" /></g><g
           id="g22"
           transform="translate(1206.5275,683.2359)"><path
             d="M 0,0 -6.505,200.276 C 175.138,318.01 407.134,442.249 410.736,444.193 L 225.958,385.546 C 111.282,396.56 -14.228,401.873 -14.228,401.873 l -8.603,199.161 C 253.325,586.262 574.004,530.233 574.004,530.233 L 607.098,336.358 C 504.006,292.354 161.48,98.35 156.115,95.317 l 204.397,72.745 276.571,-38.355 22.935,-196.751 C 386.531,-17.648 0,0 0,0 m 485.995,-235.339 112.266,108.301 C 358.309,-74.093 35.401,-72.227 35.401,-72.227 L -29.103,-189.002 1.011,-37.811 c 413.768,-15.782 659.007,-70.801 659.007,-70.801 z m -714.363,237.542 4.406,635.217 c -313.631,9.251 -754.766,-76.322 -754.766,-76.322 l 33.095,165.86 c 822.69,180.217 1482.137,0 1482.137,0 l 33.535,-166.741 c -279.655,56.47 -639.622,78.524 -639.622,78.524 L -51.935,0 c -74.999,3.524 -176.433,2.203 -176.433,2.203 m 175.448,-187.577 -23.816,118.33 h -122.088 l -17.856,-126.597 -11.247,158.474 H -52.92 Z m -251.121,112.81 -101.563,0.674 55.252,-104.88 -105.192,136.964 175.008,4.639 13.891,-156.168 z m -317.933,-5.623 -152.513,-13.217 69.817,-117.787 -122.089,138.96 214.063,22.158 14.228,219.997 2.643,-240.186 46.467,-134.32 z m -268.952,-160.107 -187.939,128.853 196.517,33.249 120.119,-133.672 -139.633,104.543 -115.117,-19.825 z m 447.614,599.453 12.906,240.212 160.107,5.934 -7.931,-603.107 -176.873,-6.401 c 0,0 -143.806,241.3 -235.573,430.095 l 61.757,-188.147 -16.534,-252.755 -182.964,-18.84 c 0,0 24.153,271.206 65.851,598.261 l 168.944,20.292 c 0,0 120.43,-248.349 215.255,-410.477 z m -541.583,166.43 171.146,29.985 c 0,0 -46.752,-314.512 -67.925,-596.395 l -191.878,-27.342 c 0,0 48.513,420.818 88.657,593.752 m 1696.537,-322.234 -89.331,13.891 74.766,80.727 c 0,0 -50.276,317.595 -99.256,499.548 0,0 -739.735,211.083 -1605.211,0 0,0 -88.009,-397.648 -159.459,-919.717 l 245.473,-181.954 c 0,0 776.819,107.835 1431.861,0 l 243.503,181.28 z"
             style="fill:#231f20;fill-opacity:1;fill-rule:nonzero;stroke:none"
             id="path24" /></g><g
           id="g26"
           transform="translate(1139.1472,699.1222)"><path
             d="m 0,0 h -144.894 v 346.284 l 138.052,-1.322 z m 637.419,544.331 -33.534,166.741 c 0,0 -659.448,180.216 -1482.138,0 l -33.094,-165.86 c 0,0 441.135,85.573 754.765,76.321 l -4.406,-635.217 c 0,0 101.434,1.322 176.433,-2.202 L -2.203,622.855 c 0,0 359.967,-22.054 639.622,-78.524"
             style="fill:#ffffff;fill-opacity:1;fill-rule:nonzero;stroke:none"
             id="path28" /></g><g
           id="g30"
           transform="translate(307.6458,655.895)"><path
             d="m 0,0 -155.701,-20.732 44.109,348.046 149.766,21.613 z m -86.014,554.93 c -40.143,-172.935 -88.657,-593.752 -88.657,-593.752 l 191.879,27.341 c 21.173,281.884 67.925,596.396 67.925,596.396 z"
             style="fill:#ffffff;fill-opacity:1;fill-rule:nonzero;stroke:none"
             id="path32" /></g><g
           id="g34"
           transform="translate(345.8195,1004.8222)"><path
             d="m 0,0 -38.174,-348.927 -155.7,-20.733 44.108,348.047 z"
             style="fill:#efefef;fill-opacity:1;fill-rule:nonzero;stroke:none"
             id="path36" /></g><g
           id="g38"
           transform="translate(912.8524,702.6467)"><path
             d="m 0,0 -151.295,-4.846 c 0,0 -98.816,160.132 -186.359,330.838 l 137.845,8.811 103.04,-188.458 c 3.862,-7.049 12.517,-9.925 19.826,-6.582 5.597,2.539 8.966,8.085 8.966,13.916 0,1.711 -0.285,3.421 -0.881,5.106 l -63.467,179.128 136.756,3.525 z m -385.702,321.742 35.893,-105.373 -16.3,-235.78 -150,-14.538 31.669,345.765 z m 248.971,260.218 -12.906,-240.211 64.945,-184.934 c -94.825,162.128 -215.255,410.477 -215.255,410.477 L -468.891,547 c -41.698,-327.055 -65.851,-598.261 -65.851,-598.261 l 182.964,18.841 16.534,252.754 -61.757,188.147 c 91.767,-188.795 235.573,-430.095 235.573,-430.095 l 176.874,6.402 7.93,603.107 z"
             style="fill:#ffffff;fill-opacity:1;fill-rule:nonzero;stroke:none"
             id="path40" /></g><g
           id="g42"
           transform="translate(563.0438,919.0158)"><path
             d="m 0,0 -16.301,-235.78 -149.999,-14.538 31.669,345.765 98.738,9.926 z"
             style="fill:#efefef;fill-opacity:1;fill-rule:nonzero;stroke:none"
             id="path44" /></g><g
           id="g46"
           transform="translate(917.2838,1044.0844)"><path
             d="m 0,0 -4.431,-341.438 -151.296,-4.846 c 0,0 -98.816,160.132 -186.359,330.838 l 137.845,8.812 103.041,-188.458 c 3.861,-7.049 12.517,-9.926 19.825,-6.583 5.598,2.54 8.967,8.086 8.967,13.917 0,1.71 -0.285,3.421 -0.881,5.105 l -63.467,179.129 z"
             style="fill:#efefef;fill-opacity:1;fill-rule:nonzero;stroke:none"
             id="path48" /></g><g
           id="g50"
           transform="translate(1139.1472,699.1222)"><path
             d="M 0,0 H -144.894 V 346.284 L -6.842,344.962 Z"
             style="fill:#efefef;fill-opacity:1;fill-rule:nonzero;stroke:none"
             id="path52" /></g><g
           id="g54"
           transform="translate(1214.354,874.4669)"><path
             d="M 0,0 250.552,149.922 C 363.699,140.825 507.945,119.315 507.945,119.315 472.104,104.621 198.72,-49.551 138.234,-83.733 c -4.535,-2.566 -7.101,-7.283 -7.101,-12.155 0,-2.228 0.518,-4.457 1.633,-6.556 3.939,-7.412 12.724,-10.833 20.628,-8.034 l 205.019,72.33 256.745,-34.856 18.504,-167.622 C 437.818,-200.042 7.516,-177.781 7.516,-177.781 Z M 629.256,-61.524 352.685,-23.169 148.289,-95.914 c 5.365,3.033 347.891,197.037 450.983,241.041 l -33.094,193.875 c 0,0 -320.68,56.029 -596.836,70.801 l 8.604,-199.161 c 0,0 125.509,-5.313 240.186,-16.327 l 184.777,58.647 C 399.307,251.018 167.311,126.779 -14.331,9.044 l 6.504,-200.275 c 0,0 386.531,-17.649 660.019,-67.044 z"
             style="fill:#ffffff;fill-opacity:1;fill-rule:nonzero;stroke:none"
             id="path56" /></g><g
           id="g58"
           transform="translate(1848.0159,633.8408)"><path
             d="m 0,0 c -195.844,40.584 -626.146,62.845 -626.146,62.845 l -7.516,177.781 250.552,149.922 c 113.148,-9.097 257.393,-30.607 257.393,-30.607 -35.841,-14.694 -309.224,-168.865 -369.711,-203.048 -4.535,-2.566 -7.101,-7.282 -7.101,-12.155 0,-2.228 0.518,-4.457 1.633,-6.556 3.939,-7.412 12.724,-10.833 20.628,-8.034 l 205.019,72.33 256.745,-34.856 z"
             style="fill:#efefef;fill-opacity:1;fill-rule:nonzero;stroke:none"
             id="path60" /></g><g
           id="g62"
           transform="translate(189.5485,558.0897)"><path
             d="M 0,0 126.053,-113.147 -61.886,15.705 134.631,48.954 254.75,-84.718 115.117,19.825 Z"
             style="fill:#363436;fill-opacity:1;fill-rule:nonzero;stroke:none"
             id="path64" /></g><g
           id="g66"
           transform="translate(584.5538,605.0486)"><path
             d="M 0,0 -152.513,-13.217 -82.697,-131.003 -204.785,7.956 9.278,30.114 23.505,250.111 26.149,9.926 72.615,-124.395 Z"
             style="fill:#363436;fill-opacity:1;fill-rule:nonzero;stroke:none"
             id="path68" /></g><g
           id="g70"
           transform="translate(902.4861,610.6723)"><path
             d="M 0,0 -101.563,0.674 -46.311,-104.207 -151.503,32.757 23.505,37.396 37.396,-118.771 Z"
             style="fill:#363436;fill-opacity:1;fill-rule:nonzero;stroke:none"
             id="path72" /></g><g
           id="g74"
           transform="translate(1153.6079,648.0685)"><path
             d="M 0,0 V -150.207 L -23.816,-31.876 H -145.905 L -163.76,-158.474 -175.008,0 Z"
             style="fill:#363436;fill-opacity:1;fill-rule:nonzero;stroke:none"
             id="path76" /></g><g
           id="g78"
           transform="translate(1692.5223,447.8966)"><path
             d="m 0,0 112.266,108.301 c -239.952,52.946 -562.86,54.812 -562.86,54.812 l -64.504,-116.776 30.114,151.191 c 413.768,-15.782 659.007,-70.801 659.007,-70.801 z"
             style="fill:#363436;fill-opacity:1;fill-rule:nonzero;stroke:none"
             id="path80" /></g></g></g></g></svg>
