<svg xmlns="http://www.w3.org/2000/svg" version="1.0" viewBox="0 0 395 139"><path d="M131.5 14.9c-16 1.6-24.8 5.9-31.2 15.4-5.3 7.9-6.8 16.8-6.8 41.4v21.2l-7 2c-18.1 5.2-34.2 8.1-45.7 8.1H34V15H0v114h22.8c34.2 0 49.1-2.3 76.7-11.5 21.1-7 39.1-15.1 79.1-35.6C196.8 72.6 212 65 212.4 65c.3 0 .4 5.3.1 11.7-.6 13.5-2.7 19.5-8.2 22.6-4.3 2.4-18.7 3.8-38.3 3.6l-15.5-.1-9.5 4.4c-5.2 2.5-14.8 6.6-21.2 9.3-6.5 2.6-11.8 5.1-11.8 5.5 0 1.1 8.2 4.8 13.2 6 13.3 3.1 75.8 3.7 93.8.9 13.2-2 22.8-8.6 27.4-18.8 3.9-8.8 4.6-14.3 4.6-37.8V51l2.8-1.1c4.3-1.7 24-6.6 32.2-8.1 5.2-.9 17.4-1.3 40-1.3 36.3 0 37.7.2 39.2 6.2l.9 3.3H395v-7.8c0-13.5-5.4-21.1-17.4-24.7-13.8-4.2-79.6-4.5-102.1-.6-31.6 5.6-55.6 15.1-117 46.3-16.1 8.1-29.6 14.8-30 14.8-.4 0-.5-5.1-.3-11.3.6-13.7 2.5-18.4 9.1-21.9 3.9-2.2 5.6-2.3 27.2-2.6l23-.4 13.5-6.2c7.4-3.5 17.4-7.8 22.2-9.7 4.9-1.9 8.8-3.7 8.8-4 0-1-7.1-3.9-13.4-5.5-4.8-1.3-13.7-1.7-42.6-1.9-20.1-.2-40.1 0-44.5.4z"/><path d="M283.5 47.7c-4.9.7-12.1 2.1-16 3.1-6.6 1.6-7 1.9-7.3 4.7-1.1 8.7 4.3 19.4 12 23.9 7.6 4.4 12 4.9 50.3 5 27.3.2 36.6.5 38.6 1.5 4.4 2.2 6.3 8.7 3.8 13.3-2.3 4.2-7.1 5.1-29.2 5.6-26.7.6-35.2-.2-38.3-3.4-1.6-1.5-2.4-3.5-2.4-5.9V92h-35v4.2c0 7.3 2 17.1 4.3 21.3 2.6 4.7 7.2 8 14.1 10.1 8 2.4 42.8 3.6 70.6 2.4 28.7-1.2 36.2-2.8 43.3-9.4l2.7-2.5V68.2l-3.2-2.8c-7-5.8-7-5.8-49.8-6.4-21.7-.3-40.4-1-41.5-1.4-3.6-1.6-5.4-3.8-6.1-7.2-.3-1.9-.9-3.6-1.3-3.8-.3-.1-4.6.3-9.6 1.1z"/></svg>