<?xml version="1.0" encoding="UTF-8" standalone="no"?>
<svg
   xmlns:dc="http://purl.org/dc/elements/1.1/"
   xmlns:cc="http://creativecommons.org/ns#"
   xmlns:rdf="http://www.w3.org/1999/02/22-rdf-syntax-ns#"
   xmlns:svg="http://www.w3.org/2000/svg"
   xmlns="http://www.w3.org/2000/svg"
   viewBox="0 0 2666.6667 2666.6667"
   height="2666.6667"
   width="2666.6667"
   xml:space="preserve"
   id="svg2"
   version="1.1"><metadata
     id="metadata8"><rdf:RDF><cc:Work
         rdf:about=""><dc:format>image/svg+xml</dc:format><dc:type
           rdf:resource="http://purl.org/dc/dcmitype/StillImage" /></cc:Work></rdf:RDF></metadata><defs
     id="defs6"><clipPath
       id="clipPath18"
       clipPathUnits="userSpaceOnUse"><path
         id="path16"
         d="M 0,2000 H 2000 V 0 H 0 Z" /></clipPath></defs><g
     transform="matrix(1.3333333,0,0,-1.3333333,0,2666.6667)"
     id="g10"><g
       id="g12"><g
         clip-path="url(#clipPath18)"
         id="g14"><g
           transform="translate(1479.2091,905.765)"
           id="g20"><path
             id="path22"
             style="fill:#000000;fill-opacity:1;fill-rule:nonzero;stroke:none"
             d="m 0,0 v 82.035 l -81.096,16.478 -42.492,56.432 v 127.833 l 44.701,36.501 116.353,-12.551 42.532,-50.03 -1.018,-66.165 -77.3,10.659 1.005,44.9 -49.978,6.242 v -86.479 l 82.802,-14.812 0.159,-0.251 40.283,-65.001 V 51.948 C 78.993,43.1 95.471,28.513 95.644,28.368 L 96.186,27.892 75.607,8.001 v -39.834 l -43.682,-43.351 -0.37,0.106 -115.005,32.136 -0.132,0.159 -40.006,47.782 v 46.116 l 74.259,5.144 V 11.85 Z m 133.004,-55.135 -0.185,-0.185 -85.037,-86.399 -0.384,0.132 c -1.203,0.383 -120.625,38.551 -160.3,45.56 l -0.238,0.04 -31.158,35.853 -31.82,-22.099 -0.278,0.053 c -0.714,0.132 -71.693,13.846 -170.801,22.112 -91.464,7.618 -226.24,12.008 -348.956,-10.302 l -0.145,-0.027 -0.146,0.04 -61.298,16.743 2.831,0.529 c 0.753,0.145 76.864,14.243 184.912,20.723 99.664,5.978 247.639,6.52 386.819,-24.823 l 42.122,31.595 40.111,-46.91 c 5.33,-1.282 107.123,-25.868 139.948,-39.318 l 68.386,67.038 2.01,141.667 -37.175,55.77 38.538,-5.515 1.679,121.234 -58.084,68.161 -143.307,15.804 -41.394,-34.49 2.037,230.393 -58.005,52.305 h -410.691 v -28.13 l -32.652,28.13 h -201.007 v -79.39 l 16.2,-14.19 V 331.446 l -12.14,-9.998 -38.366,31.912 -146.679,-15.474 -59.089,-69.167 4.708,-330.652 70.039,-48.589 44.556,12.921 7.141,-23.196 -55.638,-18.198 -0.264,0.185 -91.451,63.348 -0.013,0.331 -5.066,352.777 0.172,0.186 72.421,83.595 167.693,17.96 16.677,-14.125 v 130.306 l -15.87,14.178 v 115.428 h 679.621 l 72.658,-66.218 v -0.291 l -1.005,-184.833 6.732,5.383 0.278,-0.027 162.839,-17.761 0.172,-0.198 72.421,-83.583 z M -794.507,9.906 v 195.677 l 29.994,29.995 0.238,0.026 84.257,6.851 31.515,-25.525 V 30.576 l 12.657,-8.781 V -4.126 l -0.582,-0.066 c -29.69,-3.042 -74.642,-7.988 -76.825,-9.112 0.08,0.039 0.252,0.225 0.252,0.489 l -1.31,-0.093 -0.039,0.278 0.026,0.04 v 27.27 l 11.321,9.284 v 43.18 l -37.348,-3.915 V 19.295 l 11.652,-7.088 v -27.455 l -0.556,-0.08 c -0.595,-0.092 -59.605,-9.337 -76.771,-13.331 l -0.807,-0.185 v 26.596 z m 236.45,237.601 52.583,-131.616 v 98.698 l -13,9.284 v 24.983 h 79.548 v -26.689 l -12.722,-7.935 V 37.797 l 12.484,-10.461 0.013,-0.291 c 0.146,-7.062 0.45,-23.58 -0.079,-24.625 l -0.172,-0.37 -56.854,0.344 -0.185,0.33 -55.823,99.929 V 36.342 l 13.675,-8.278 -0.53,-25.988 -0.621,-0.026 c -30.523,-0.833 -76.48,-5.184 -76.943,-5.224 l -0.728,-0.079 v 26.198 l 13,10.805 v 178.102 l -13,7.776 v 27.879 z m 220.038,0 v -26.332 l -13.846,-9.958 V 33.433 l 13.846,-10.474 V -2.724 l -0.714,0.053 c -0.674,0.052 -68.148,4.906 -80.725,4.549 h -0.278 l -0.212,0.198 c -0.251,0.252 -0.674,0.675 -0.185,24.877 l 0.013,0.33 13.49,9.536 v 176.607 l -13.503,10.13 v 23.951 z m 19.494,-28.487 v 25.775 l 128.151,-9.072 29.848,-31.674 V 1.997 l -30.893,-23.567 -0.291,0.053 c -25.114,5.118 -126.273,16.029 -127.291,16.148 l -0.595,0.066 v 25.921 l 13.225,9.284 v 178.763 z m -38.379,318.737 v 30.02 h 158.383 l 0.185,-0.185 36.792,-34.412 -0.013,-92.72 c -1.68,-7.486 13.886,-19.018 14.045,-19.137 l 0.741,-0.542 -0.754,-0.529 c -9.417,-6.52 -14.363,-17.153 -14.918,-18.396 V 304.44 l -36.567,-31.092 -0.265,0.013 -157.629,9.999 v 30.14 l 14.971,12.378 v 199.725 z m -207.329,-2.341 v 32.361 h 184.675 v -69.748 l -64.129,-13.781 v 37.295 h -40.878 v -67.898 h 81.704 v -47.914 h -81.03 v -72.632 h 40.879 v 25.194 l 63.454,13.793 v -88.898 l -0.781,0.145 c -24.969,4.827 -181.632,0.04 -183.206,-0.013 l -0.688,-0.013 v 31.938 l 15.196,9.787 V 521.9 Z M -602.916,394.37 v -67.315 l 17.55,-11.823 v -31.211 l -81.176,-3.425 v 115.679 h -51.181 v -75.317 l 14.693,-10.289 v -32.877 l -0.621,-0.04 c -35.708,-2.169 -89.825,-5.951 -92.575,-7.511 l -0.992,-0.556 v 33.049 l 15.87,10.977 v 83.556 c -0.013,0 -0.648,3.068 -2.54,6.824 -1.877,3.743 -4.998,8.146 -9.945,10.831 l -0.806,0.437 0.674,0.621 c 0.119,0.119 12.418,11.704 11.612,19.719 v 84.376 l -15.368,15.367 v 32.335 h 157.074 l 37.731,-32.785 v -87.047 l -31.886,-26.04 z m 509.137,-536.208 c -0.119,-0.41 -0.291,-1.019 -0.529,-1.825 -0.092,-0.358 -0.211,-0.754 -0.344,-1.191 -0.171,-0.529 -0.357,-1.124 -0.555,-1.785 -0.185,-0.582 -0.397,-1.217 -0.608,-1.891 -0.014,-0.027 -0.014,-0.053 -0.014,-0.066 -0.079,-0.252 -0.172,-0.503 -0.251,-0.767 -0.251,-0.781 -0.529,-1.627 -0.833,-2.513 -0.04,-0.093 -0.066,-0.199 -0.093,-0.291 -0.304,-0.913 -0.635,-1.865 -0.992,-2.883 -0.343,-0.992 -0.714,-2.05 -1.11,-3.148 v -0.013 c -0.45,-1.243 -0.926,-2.539 -1.429,-3.901 -0.502,-1.349 -1.044,-2.764 -1.613,-4.232 -0.291,-0.741 -0.582,-1.482 -0.873,-2.249 -0.608,-1.521 -1.23,-3.094 -1.891,-4.721 -0.331,-0.807 -0.675,-1.64 -1.019,-2.473 v -0.013 c -0.608,-1.482 -1.256,-3.016 -1.93,-4.576 -0.344,-0.78 -0.688,-1.561 -1.032,-2.367 -3.134,-7.208 -6.824,-15.143 -11.135,-23.62 -3.822,-7.578 -8.147,-15.593 -13.014,-23.924 -0.569,-0.979 -1.15,-1.958 -1.732,-2.95 -0.543,-0.939 -1.098,-1.878 -1.68,-2.817 -0.569,-0.952 -1.151,-1.891 -1.719,-2.843 -0.582,-0.952 -1.177,-1.918 -1.772,-2.87 -0.582,-0.939 -1.164,-1.865 -1.746,-2.803 -0.635,-0.992 -1.27,-1.984 -1.904,-2.989 -1.244,-1.931 -2.513,-3.888 -3.809,-5.846 -3.902,-5.885 -8.054,-11.849 -12.458,-17.867 -1.442,-1.957 -2.91,-3.941 -4.431,-5.925 -0.753,-1.005 -1.52,-2.01 -2.288,-3.002 -0.78,-1.005 -1.56,-2.023 -2.354,-3.028 -0.846,-1.085 -1.706,-2.169 -2.579,-3.254 -1.891,-2.354 -3.822,-4.721 -5.805,-7.102 -0.82,-0.978 -1.653,-1.97 -2.487,-2.949 -1.044,-1.23 -2.089,-2.446 -3.147,-3.663 -0.291,-0.344 -0.595,-0.675 -0.886,-1.018 -0.661,-0.754 -1.323,-1.508 -1.997,-2.262 -0.622,-0.701 -1.243,-1.402 -1.878,-2.103 -0.714,-0.793 -1.428,-1.587 -2.143,-2.38 -0.727,-0.794 -1.454,-1.587 -2.182,-2.381 -21.61,-23.593 -45.613,-44.608 -71.6,-62.792 -25.088,-17.536 -52.093,-32.428 -80.832,-44.529 -1.071,-0.449 -2.142,-0.899 -3.213,-1.349 -1.098,-0.463 -2.195,-0.912 -3.293,-1.362 -1.124,-0.463 -2.248,-0.912 -3.373,-1.362 -1.335,-0.529 -2.684,-1.058 -4.033,-1.587 -1.23,-0.476 -2.46,-0.952 -3.69,-1.415 -1.732,-0.661 -3.478,-1.309 -5.224,-1.944 -2.737,-0.992 -5.488,-1.971 -8.266,-2.923 -1.481,-0.516 -2.975,-1.018 -4.47,-1.508 -1.507,-0.502 -3.015,-0.991 -4.523,-1.481 -1.56,-0.502 -3.134,-1.005 -4.721,-1.494 -1.719,-0.529 -3.452,-1.058 -5.184,-1.574 -1.693,-0.516 -3.386,-1.005 -5.092,-1.481 -2.46,-0.714 -4.933,-1.402 -7.432,-2.063 -2.116,-0.582 -4.245,-1.138 -6.388,-1.68 -2.142,-0.555 -4.298,-1.084 -6.467,-1.6 -2.169,-0.529 -4.351,-1.045 -6.546,-1.534 -2.13,-0.49 -4.272,-0.966 -6.428,-1.415 -0.066,-0.027 -0.145,-0.04 -0.211,-0.053 -0.027,0 -0.04,-0.013 -0.067,-0.013 -0.013,-0.014 -0.026,-0.014 -0.039,-0.014 -0.04,0 -0.093,-0.013 -0.185,-0.026 -2.659,-0.45 -29.267,-4.774 -62.079,-4.774 -2.38,0 -4.8,0.013 -7.234,0.066 -14.746,0.291 -31.713,1.587 -48.522,4.959 -1.243,0.238 -2.5,0.503 -3.743,0.78 -1.494,0.331 -3.002,0.675 -4.483,1.032 -1.508,0.357 -3.002,0.741 -4.497,1.137 -2.579,0.688 -5.118,1.429 -7.631,2.235 -1.097,0.357 -2.182,0.715 -3.253,1.085 -1.19,0.41 -2.381,0.833 -3.544,1.269 -0.595,0.212 -1.177,0.437 -1.759,0.675 -1.667,0.635 -3.307,1.309 -4.933,2.01 -1.019,0.437 -2.024,0.886 -3.015,1.362 -1.984,0.926 -3.942,1.905 -5.846,2.936 -0.952,0.516 -1.904,1.045 -2.843,1.587 -0.754,0.423 -1.495,0.873 -2.222,1.323 -0.846,0.502 -1.68,1.031 -2.5,1.574 -0.502,0.33 -1.005,0.674 -1.507,1.005 -0.503,0.343 -0.992,0.687 -1.482,1.031 -0.119,0.08 -0.238,0.159 -0.343,0.251 -1.825,1.296 -3.637,2.645 -5.33,4.113 -0.013,0.014 -0.013,0.014 -0.027,0.027 -0.912,0.767 -1.811,1.547 -2.684,2.367 h -0.013 c -0.146,0 -0.357,0.013 -0.648,0.027 -0.252,0 -0.569,0.013 -0.939,0.039 -0.463,0.014 -1.019,0.04 -1.667,0.08 -0.291,0.013 -0.595,0.039 -0.912,0.053 -0.238,0.013 -0.476,0.039 -0.714,0.052 -2.169,0.146 -4.999,0.371 -8.398,0.728 -1.217,0.132 -2.513,0.278 -3.875,0.436 -0.225,0.027 -0.45,0.053 -0.688,0.08 -1.058,0.132 -2.169,0.277 -3.306,0.436 -0.41,0.053 -0.82,0.106 -1.243,0.172 -0.384,0.04 -0.767,0.093 -1.151,0.159 -0.463,0.066 -0.952,0.132 -1.441,0.211 -4.047,0.595 -8.504,1.336 -13.305,2.262 -0.833,0.172 -1.679,0.33 -2.539,0.516 -2.42,0.476 -4.907,1.005 -7.472,1.587 -0.781,0.171 -1.574,0.357 -2.368,0.542 -1.56,0.357 -3.134,0.74 -4.734,1.137 -0.688,0.172 -1.389,0.357 -2.09,0.542 -1.031,0.265 -2.076,0.529 -3.134,0.82 -1.005,0.265 -2.023,0.543 -3.042,0.82 -3.359,0.939 -6.811,1.958 -10.328,3.068 -1.746,0.543 -3.518,1.111 -5.29,1.706 -1.892,0.635 -3.823,1.296 -5.78,1.997 -0.092,0.027 -0.185,0.067 -0.291,0.106 -1.19,0.424 -2.394,0.86 -3.61,1.323 -2.09,0.767 -4.219,1.587 -6.375,2.446 -1.296,0.503 -2.605,1.045 -3.928,1.587 -0.185,0.067 -0.357,0.146 -0.528,0.225 -2.037,0.847 -4.113,1.733 -6.203,2.658 -2.896,1.27 -5.832,2.632 -8.808,4.061 -1.296,0.621 -2.619,1.269 -3.928,1.917 -0.185,0.093 -0.357,0.185 -0.542,0.278 -1.494,0.754 -3.002,1.534 -4.51,2.314 -0.767,0.397 -1.521,0.807 -2.274,1.204 -0.767,0.41 -1.521,0.82 -2.288,1.243 -1.521,0.82 -3.055,1.679 -4.576,2.552 -0.767,0.437 -1.534,0.873 -2.301,1.323 -1.27,0.727 -2.553,1.481 -3.822,2.261 -1.812,1.085 -3.611,2.209 -5.423,3.359 -0.74,0.463 -1.481,0.94 -2.235,1.429 -2.036,1.322 -4.073,2.671 -6.096,4.06 -0.767,0.529 -1.535,1.058 -2.302,1.6 -0.767,0.529 -1.534,1.071 -2.301,1.627 -0.754,0.542 -1.521,1.097 -2.288,1.653 -0.767,0.555 -1.534,1.124 -2.288,1.693 -0.767,0.582 -1.534,1.15 -2.288,1.732 -1.904,1.455 -3.808,2.949 -5.7,4.484 -1.891,1.52 -3.795,3.094 -5.673,4.708 -0.754,0.648 -1.508,1.296 -2.248,1.944 -1.495,1.296 -2.989,2.631 -4.484,4.02 -0.648,0.582 -1.309,1.177 -1.957,1.799 -0.833,0.78 -1.666,1.56 -2.486,2.354 -0.741,0.714 -1.468,1.428 -2.209,2.142 -0.727,0.728 -1.468,1.442 -2.195,2.182 -0.728,0.728 -1.455,1.468 -2.182,2.222 -0.741,0.741 -1.455,1.495 -2.169,2.248 -0.714,0.767 -1.429,1.534 -2.143,2.302 -0.727,0.78 -1.428,1.56 -2.142,2.34 -0.754,0.834 -1.508,1.68 -2.262,2.526 -0.648,0.754 -1.309,1.508 -1.97,2.275 -0.714,0.807 -1.402,1.627 -2.09,2.46 -0.701,0.833 -1.388,1.666 -2.076,2.513 -2.076,2.526 -4.113,5.118 -6.11,7.776 -1.336,1.772 -2.658,3.571 -3.968,5.396 l -1.401,1.97 -1.336,1.892 -0.106,0.145 2.262,-1.058 0.052,-0.026 0.106,-0.053 0.41,-0.186 c 0.146,-0.052 0.318,-0.132 0.516,-0.224 l 1.098,-0.476 c 1.19,-0.516 3.002,-1.283 5.316,-2.209 0.648,-0.251 1.323,-0.529 2.05,-0.807 0.476,-0.185 0.966,-0.37 1.481,-0.568 0.516,-0.186 1.045,-0.384 1.587,-0.596 1.098,-0.409 2.249,-0.833 3.452,-1.256 0.503,-0.172 1.018,-0.357 1.534,-0.542 1.045,-0.357 2.129,-0.728 3.24,-1.098 0.013,0 0.013,-0.013 0.013,-0.013 0.503,-0.172 1.019,-0.344 1.548,-0.516 0.502,-0.159 1.018,-0.331 1.534,-0.502 1.005,-0.318 2.037,-0.635 3.081,-0.966 0.49,-0.145 0.992,-0.304 1.495,-0.449 0.978,-0.291 1.97,-0.582 2.975,-0.873 17.166,-4.973 39.305,-9.417 60.875,-8.107 0.847,0.053 1.68,0.106 2.513,0.172 0.833,0.066 1.666,0.145 2.5,0.224 2.486,0.252 4.959,0.596 7.419,1.019 -1.349,0.383 -3.135,0.926 -5.317,1.653 -1.097,0.37 -2.301,0.78 -3.584,1.243 -1.044,0.37 -2.155,0.78 -3.332,1.23 -0.662,0.251 -1.336,0.503 -2.024,0.78 -1.045,0.41 -2.116,0.834 -3.227,1.296 -0.013,0 -0.013,0.014 -0.013,0.014 -0.886,0.357 -1.799,0.74 -2.724,1.137 -0.82,0.344 -1.653,0.714 -2.5,1.084 -3.174,1.415 -6.586,3.029 -10.196,4.827 -1.204,0.609 -2.421,1.231 -3.664,1.879 -0.502,0.251 -0.992,0.515 -1.494,0.793 -1.005,0.529 -2.024,1.084 -3.055,1.653 -0.516,0.278 -1.032,0.569 -1.561,0.86 -2.023,1.124 -4.073,2.314 -6.163,3.571 -2.089,1.243 -4.218,2.552 -6.374,3.927 -1.283,0.82 -2.579,1.653 -3.875,2.513 -0.013,0 -0.013,0 -0.013,0.013 -1.19,0.807 -2.407,1.614 -3.624,2.447 -1.216,0.833 -2.446,1.693 -3.676,2.566 -7.962,5.66 -16.227,12.206 -24.559,19.745 -0.172,0.145 -0.331,0.304 -0.503,0.462 -0.688,0.622 -1.375,1.244 -2.05,1.878 -0.542,0.503 -1.097,1.019 -1.64,1.535 -0.674,0.634 -1.349,1.269 -2.023,1.93 -0.701,0.662 -1.402,1.349 -2.103,2.037 -1.812,1.772 -3.623,3.624 -5.462,5.515 -0.807,0.833 -1.613,1.679 -2.42,2.552 -0.767,0.82 -1.534,1.64 -2.301,2.487 -1.032,1.124 -2.05,2.261 -3.081,3.425 -0.49,0.555 -0.979,1.111 -1.468,1.666 -0.781,0.886 -1.548,1.772 -2.302,2.672 -0.185,0.211 -0.37,0.436 -0.555,0.648 -0.503,0.568 -0.979,1.124 -1.428,1.693 -0.45,0.529 -0.887,1.071 -1.336,1.613 -15.566,18.766 -29.056,39.821 -40.376,62.991 -11.532,23.593 -20.816,49.395 -27.72,77.181 -0.251,1.005 -0.502,2.01 -0.754,3.015 -0.304,1.27 -0.608,2.54 -0.912,3.822 -0.265,1.085 -0.516,2.183 -0.767,3.293 -0.318,1.402 -0.635,2.817 -0.952,4.246 -0.265,1.203 -0.529,2.407 -0.781,3.61 -0.264,1.257 -0.516,2.526 -0.78,3.796 -0.278,1.375 -0.555,2.764 -0.82,4.152 -0.331,1.64 -0.635,3.28 -0.939,4.947 -0.278,1.481 -0.529,2.962 -0.793,4.443 -0.278,1.64 -0.556,3.293 -0.834,4.946 -0.264,1.667 -0.542,3.333 -0.793,5.026 -0.265,1.679 -0.516,3.372 -0.754,5.078 v 0.053 c -0.291,1.971 -0.555,3.954 -0.82,5.965 -0.251,1.798 -0.476,3.61 -0.688,5.435 -0.079,0.608 -0.158,1.23 -0.224,1.852 -0.146,1.203 -0.278,2.42 -0.41,3.636 -0.133,1.045 -0.238,2.103 -0.344,3.161 -0.093,0.767 -0.172,1.534 -0.251,2.315 -0.12,1.177 -0.239,2.354 -0.344,3.544 -0.159,1.613 -0.305,3.253 -0.45,4.893 l -0.145,1.693 -0.133,1.627 -0.013,0.106 1.256,-1.204 0.027,-0.026 0.45,-0.424 0.767,-0.674 c 0.171,-0.159 0.37,-0.331 0.568,-0.516 0.013,0 0.027,-0.013 0.04,-0.026 0.661,-0.595 1.468,-1.296 2.42,-2.103 1.256,-1.071 2.777,-2.341 4.563,-3.782 0.37,-0.305 0.74,-0.609 1.137,-0.913 0.542,-0.423 1.111,-0.873 1.693,-1.336 0,0 0.013,-0.026 0.026,-0.026 0.278,-0.212 0.556,-0.437 0.847,-0.661 0.555,-0.437 1.137,-0.886 1.745,-1.349 0.305,-0.238 0.622,-0.476 0.939,-0.714 1.402,-1.072 2.897,-2.196 4.497,-3.36 0.397,-0.291 0.793,-0.595 1.203,-0.886 1.23,-0.899 2.526,-1.812 3.849,-2.75 1.19,-0.847 2.42,-1.693 3.69,-2.566 1.692,-1.177 3.465,-2.381 5.316,-3.597 0.609,-0.41 1.23,-0.82 1.865,-1.23 1.521,-0.992 3.081,-1.997 4.682,-3.016 2.142,-1.375 4.364,-2.764 6.678,-4.152 0.582,-0.357 1.164,-0.714 1.746,-1.058 3.822,-2.315 7.869,-4.655 12.127,-7.023 1.124,-0.635 2.262,-1.256 3.426,-1.891 1.163,-0.635 2.327,-1.27 3.517,-1.904 1.958,-1.045 3.981,-2.103 6.057,-3.174 1.23,-0.635 2.5,-1.283 3.783,-1.918 2.751,-1.375 5.594,-2.777 8.543,-4.179 1.481,-0.701 2.976,-1.402 4.497,-2.103 1.666,-0.767 3.359,-1.547 5.091,-2.327 1.415,-0.635 2.857,-1.27 4.325,-1.892 1.613,-0.701 3.253,-1.415 4.92,-2.116 1.666,-0.701 3.359,-1.401 5.078,-2.102 1.706,-0.701 3.439,-1.389 5.211,-2.09 0.873,-0.344 1.759,-0.688 2.645,-1.032 0.899,-0.343 1.798,-0.701 2.698,-1.031 0.899,-0.344 1.811,-0.688 2.724,-1.032 3.663,-1.375 7.419,-2.724 11.254,-4.047 1.931,-0.661 3.875,-1.322 5.846,-1.983 1.957,-0.648 3.954,-1.296 5.964,-1.931 3.003,-0.966 6.044,-1.905 9.139,-2.817 0.04,0 0.079,-0.013 0.119,-0.026 1.032,-0.305 2.05,-0.596 3.081,-0.9 1.058,-0.304 2.116,-0.608 3.174,-0.899 1.058,-0.304 2.13,-0.595 3.201,-0.899 1.071,-0.291 2.156,-0.582 3.24,-0.873 1.085,-0.291 2.169,-0.582 3.267,-0.86 1.097,-0.291 2.195,-0.569 3.306,-0.846 1.098,-0.278 2.208,-0.556 3.333,-0.833 1.11,-0.265 2.235,-0.543 3.359,-0.807 2.87,-0.688 5.779,-1.349 8.715,-1.997 1.852,-0.397 3.703,-0.794 5.581,-1.19 1.005,-0.199 2.01,-0.41 3.029,-0.609 1.177,-0.238 2.367,-0.476 3.557,-0.701 1.111,-0.225 2.235,-0.436 3.359,-0.648 2.685,-0.489 5.396,-0.978 8.134,-1.441 1.018,-0.172 2.036,-0.344 3.055,-0.503 1.23,-0.211 2.473,-0.397 3.716,-0.595 1.243,-0.198 2.499,-0.384 3.742,-0.569 1.257,-0.185 2.526,-0.37 3.783,-0.542 2.539,-0.357 5.078,-0.688 7.657,-1.005 1.257,-0.159 2.526,-0.317 3.796,-0.463 2.618,-0.304 5.25,-0.595 7.895,-0.859 1.323,-0.133 2.645,-0.265 3.968,-0.384 1.322,-0.132 2.658,-0.251 3.994,-0.357 1.335,-0.119 2.671,-0.225 4.02,-0.331 l 0.913,-0.066 2.049,-0.159 3.016,-0.211 -2.831,-1.058 -2.777,-1.058 c -0.886,-0.344 -1.772,-0.675 -2.658,-1.032 -1.124,-0.436 -2.248,-0.873 -3.372,-1.322 -0.966,-0.37 -1.931,-0.754 -2.91,-1.151 -0.674,-0.278 -1.375,-0.555 -2.103,-0.846 -0.383,-0.159 -0.767,-0.304 -1.15,-0.463 -0.886,-0.37 -1.786,-0.727 -2.685,-1.098 -0.529,-0.211 -1.071,-0.436 -1.6,-0.661 -1.085,-0.45 -2.169,-0.913 -3.293,-1.375 -0.569,-0.225 -1.137,-0.476 -1.693,-0.715 -2.394,-1.018 -4.84,-2.076 -7.287,-3.147 -0.82,-0.357 -1.627,-0.728 -2.433,-1.085 -1.005,-0.449 -1.997,-0.899 -2.963,-1.349 -1.64,-0.767 -3.28,-1.534 -4.853,-2.287 -3.994,-1.918 -7.552,-3.77 -10.501,-5.476 -0.436,-0.251 -0.86,-0.502 -1.283,-0.753 -0.397,-0.238 -0.78,-0.476 -1.164,-0.715 -1.15,-0.727 -2.169,-1.428 -3.041,-2.076 -0.437,-0.317 -0.82,-0.635 -1.177,-0.952 1.481,0.357 3.663,0.886 6.52,1.547 3.451,0.794 7.855,1.772 13.145,2.883 1.323,0.278 2.698,0.569 4.126,0.86 1.429,0.291 2.91,0.595 4.444,0.899 2.817,0.569 5.806,1.151 8.967,1.746 1.256,0.238 2.552,0.476 3.861,0.727 h 0.014 c 1.97,0.371 3.993,0.741 6.07,1.111 0,0 0.013,-0.013 0.026,0 1.958,0.357 3.955,0.701 6.018,1.058 0.674,0.119 1.362,0.238 2.063,0.357 0.926,0.159 1.865,0.318 2.803,0.476 0.768,0.119 1.535,0.252 2.315,0.384 1.084,0.185 2.169,0.357 3.28,0.542 1.653,0.278 3.332,0.542 5.038,0.807 1.706,0.278 3.452,0.542 5.198,0.807 2.341,0.357 4.734,0.714 7.155,1.071 2.433,0.344 4.893,0.701 7.406,1.058 4.933,0.687 10.037,1.362 15.275,2.01 2.182,0.265 4.39,0.542 6.625,0.807 2.222,0.264 4.484,0.529 6.758,0.78 2.989,0.344 6.018,0.661 9.099,0.979 3.068,0.317 6.176,0.634 9.324,0.925 2.089,0.199 4.205,0.397 6.334,0.582 1.217,0.093 2.434,0.212 3.664,0.318 2.446,0.211 4.92,0.41 7.406,0.608 2.486,0.185 4.999,0.37 7.525,0.555 6.07,0.424 12.246,0.807 18.502,1.138 4.774,0.251 9.601,0.463 14.481,0.648 1.164,0.04 2.314,0.079 3.478,0.119 2.328,0.079 4.656,0.145 6.996,0.212 8.16,0.211 16.426,0.317 24.797,0.317 5.105,0 10.25,-0.04 15.407,-0.145 2.659,-0.04 5.33,-0.093 8.015,-0.186 2.645,-0.066 5.303,-0.145 7.961,-0.251 0.807,-0.026 1.614,-0.066 2.434,-0.093 1.864,-0.079 3.742,-0.158 5.62,-0.251 0.106,0 0.199,0 0.291,-0.013 4.96,-0.238 9.946,-0.516 14.945,-0.846 2.38,-0.159 4.761,-0.331 7.154,-0.516 0.754,-0.053 1.508,-0.106 2.262,-0.172 l 0.582,-0.053 c 1.454,-0.119 2.909,-0.238 4.364,-0.37 0.132,0 0.291,-0.014 0.463,-0.014 h 0.106 c 0.317,-0.013 0.701,-0.026 1.137,-0.039 0.331,-0.013 0.727,-0.027 1.164,-0.04 2.327,-0.066 5.7,-0.159 9.945,-0.211 0.317,0 0.635,-0.014 0.966,-0.014 0.634,-0.013 1.296,-0.026 1.983,-0.026 0.675,-0.013 1.362,-0.013 2.063,-0.013 4.431,-0.04 9.522,-0.04 15.13,0.013 2.235,0.013 4.562,0.053 6.956,0.092 0.913,0.014 1.838,0.027 2.777,0.053 2.103,0.04 4.272,0.093 6.481,0.159 2.393,0.066 4.84,0.146 7.326,0.238 0.781,0.026 1.561,0.053 2.354,0.093 2.764,0.119 5.568,0.238 8.425,0.383 2.856,0.146 5.766,0.318 8.702,0.489 1.335,0.08 2.684,0.172 4.047,0.265 3.332,0.225 6.718,0.476 10.13,0.767 2.592,0.212 5.198,0.45 7.816,0.701 1.045,0.093 2.09,0.198 3.134,0.304 0.053,0 0.106,0 0.159,0.013 3.081,0.318 6.163,0.648 9.244,1.019 1.045,0.119 2.09,0.251 3.135,0.383 h 0.039 c 2.619,0.331 5.251,0.675 7.856,1.045 3.465,0.489 6.917,1.032 10.342,1.6 1.124,0.185 2.235,0.371 3.333,0.569 2.83,0.502 5.634,1.031 8.398,1.587 l 0.238,0.053 0.251,-0.04 39.781,-6.652 78.993,-13.199 13.437,11.374 4.139,-5.039 0.886,-1.084 9.099,-11.096 41.646,-7.843 v -0.013 l -0.172,-0.674 z M -828.416,97.627 V 7.261 l -21.451,-25.591 -0.476,0.265 -9.509,5.382 -1.177,0.662 -33.116,18.726 -1.322,0.754 -11.717,6.626 V 65.57 Z m -131.06,-40.072 -11.4,10.726 -0.344,0.331 c -0.093,-1.759 -0.172,-3.505 -0.238,-5.238 -2.01,-51.881 5.938,-97.838 10.183,-118.099 0.093,-0.45 0.185,-0.886 0.265,-1.309 1.309,-6.097 2.195,-9.536 2.235,-9.681 l 0.158,-0.622 -31.753,-9.509 -0.264,0.186 -43.947,30.814 -0.013,0.331 -1.68,135.86 c 0.476,15.156 -18.211,19.745 -18.409,19.785 l -1.521,0.357 1.322,0.846 c 18.925,12.075 17.286,23.7 17.259,23.819 l -2.037,121.564 0.159,0.199 42.386,49.157 0.252,0.026 121.842,13.53 46.605,-37.506 v -70.331 l -80.223,-30.563 v 70.436 l -52.028,-7.578 z m 1047.423,345.213 -0.172,0.199 -147.565,16.835 1.349,158.066 -101.516,91.848 -0.185,0.172 h -740.06 v -178.38 l 16.545,-14.177 V 420.82 l -162.761,-17.179 -94.043,-110.283 -0.159,-0.185 6.084,-390.589 v -0.33 l 127.238,-89.335 0.265,-0.185 77.062,23.884 c 22.403,-52.688 53.231,-92.046 55.254,-94.585 7.644,-38.366 25.101,-71.826 51.895,-99.466 21.464,-22.139 48.919,-40.601 81.612,-54.884 53.654,-23.435 104.16,-27.799 108.128,-28.116 21.345,-21.028 50.017,-34.121 85.209,-38.908 10.236,-1.389 21.014,-2.077 32.321,-2.077 19.838,0 41.263,2.143 64.036,6.414 60.835,11.4 110.918,34.386 111.408,34.61 50.89,21.742 97.019,50.414 137.091,85.222 32.07,27.852 60.359,59.672 84.071,94.56 37.837,55.664 51.922,101.674 53.654,107.678 l 124.289,-38.3 0.383,-0.119 115.984,119.158 0.185,0.185 6.652,364.931 v 0.252 z" /></g><g
           transform="translate(1053.7201,789.4376)"
           id="g24"><path
             id="path26"
             style="fill:#d0d2d3;fill-opacity:1;fill-rule:nonzero;stroke:none"
             d="M 0,0 -0.185,-0.013 C -0.251,-0.026 -0.331,-0.04 -0.423,-0.053 L -2.182,-0.37 c -0.767,-0.133 -1.733,-0.318 -2.87,-0.529 h -0.026 c -1.177,-0.225 -2.54,-0.476 -4.087,-0.767 -0.106,-0.014 -0.212,-0.027 -0.331,-0.053 -0.211,-0.04 -0.423,-0.093 -0.634,-0.133 -0.648,-0.119 -1.336,-0.251 -2.037,-0.383 -1.23,-0.238 -2.539,-0.503 -3.928,-0.767 -0.793,-0.146 -1.6,-0.304 -2.447,-0.476 -0.145,-0.04 -0.291,-0.066 -0.436,-0.093 -1.402,-0.278 -2.87,-0.582 -4.391,-0.886 -0.952,-0.185 -1.917,-0.383 -2.909,-0.595 -0.185,-0.04 -0.384,-0.079 -0.582,-0.119 -0.807,-0.172 -1.627,-0.344 -2.46,-0.516 -1.759,-0.37 -3.571,-0.754 -5.449,-1.15 -0.582,-0.133 -1.19,-0.252 -1.798,-0.384 -0.595,-0.132 -1.217,-0.264 -1.825,-0.397 -0.86,-0.185 -1.733,-0.383 -2.619,-0.568 -0.397,-0.093 -0.807,-0.172 -1.217,-0.265 -2.446,-0.542 -4.972,-1.098 -7.577,-1.693 -2.434,-0.555 -4.933,-1.124 -7.486,-1.719 -0.238,-0.066 -0.489,-0.119 -0.74,-0.172 -0.265,-0.066 -0.543,-0.132 -0.807,-0.185 -0.542,-0.132 -1.098,-0.251 -1.653,-0.384 l -0.635,-0.158 c -1.005,-0.238 -2.01,-0.476 -3.015,-0.728 -1.389,-0.33 -2.778,-0.661 -4.193,-1.005 -0.701,-0.172 -1.415,-0.344 -2.116,-0.515 -0.714,-0.172 -1.428,-0.344 -2.142,-0.529 -3.584,-0.873 -7.248,-1.799 -10.964,-2.751 -1.283,-0.331 -2.565,-0.661 -3.861,-0.992 -1.878,-0.476 -3.783,-0.979 -5.674,-1.495 -1.785,-0.476 -3.584,-0.965 -5.396,-1.454 l -1.428,-0.384 c -0.648,-0.172 -1.296,-0.357 -1.944,-0.542 -2.328,-0.648 -4.682,-1.296 -7.036,-1.971 -1.587,-0.436 -3.174,-0.886 -4.735,-1.349 -2.486,-0.714 -4.985,-1.441 -7.485,-2.182 -0.979,-0.291 -1.957,-0.582 -2.923,-0.872 l -1.706,-0.516 c -0.621,-0.199 -1.256,-0.384 -1.891,-0.582 -0.635,-0.199 -1.269,-0.397 -1.904,-0.582 -2.143,-0.648 -4.351,-1.349 -6.679,-2.09 -1.269,-0.396 -2.513,-0.806 -3.769,-1.216 -1.614,-0.516 -3.214,-1.045 -4.814,-1.574 -8.001,-2.645 -15.976,-5.436 -23.805,-8.345 -3.174,-1.177 -6.282,-2.367 -9.324,-3.571 -0.767,-0.304 -1.547,-0.608 -2.301,-0.912 -1.547,-0.609 -3.068,-1.217 -4.576,-1.852 -0.066,-0.026 -0.145,-0.053 -0.211,-0.079 -1.442,-0.595 -2.883,-1.191 -4.312,-1.799 -5.237,-2.208 -10.355,-4.496 -15.314,-6.837 -2.87,-1.336 -5.661,-2.698 -8.358,-4.074 -1.363,-0.687 -2.712,-1.388 -4.047,-2.089 -1.323,-0.701 -2.645,-1.402 -3.955,-2.116 -0.978,-0.529 -1.93,-1.071 -2.896,-1.6 -0.225,-0.119 -0.436,-0.238 -0.648,-0.357 -0.754,-0.424 -1.468,-0.847 -2.195,-1.27 -6.679,-3.888 -12.868,-7.909 -18.41,-12.074 -0.608,-0.45 -1.203,-0.913 -1.798,-1.376 -2.103,-1.627 -4.1,-3.28 -6.004,-4.959 l -0.794,-0.701 -0.013,-0.013 -1.005,-0.886 h -0.013 l -0.08,-0.067 0.014,-0.013 0.396,-0.159 0.014,-0.013 1.732,-1.269 c 0.132,-0.093 0.251,-0.199 0.397,-0.305 0.159,-0.119 0.33,-0.251 0.502,-0.383 1.336,-1.018 3.254,-2.46 5.714,-4.232 0.185,-0.146 0.383,-0.278 0.568,-0.41 0.86,-0.622 1.772,-1.27 2.751,-1.957 0.727,-0.516 1.494,-1.058 2.288,-1.601 0.674,-0.476 1.362,-0.965 2.09,-1.454 1.626,-1.124 3.385,-2.315 5.263,-3.558 0.886,-0.595 1.812,-1.203 2.751,-1.812 0.873,-0.568 1.759,-1.15 2.671,-1.745 1.706,-1.111 3.479,-2.249 5.343,-3.412 1.561,-0.992 3.174,-1.997 4.841,-3.016 0.013,-0.013 0.026,-0.026 0.039,-0.026 0.741,-0.45 1.482,-0.913 2.235,-1.376 0.728,-0.449 1.468,-0.899 2.222,-1.349 21.769,-13.145 51.432,-28.989 87.034,-42.928 1.151,-0.45 2.301,-0.899 3.465,-1.349 1.243,-0.476 2.486,-0.952 3.743,-1.428 l 0.013,-0.013 c 2.962,-1.111 5.951,-2.209 8.98,-3.294 1.574,-0.555 3.147,-1.11 4.734,-1.666 1.812,-0.648 3.637,-1.256 5.475,-1.865 1.839,-0.621 3.69,-1.243 5.555,-1.838 0.635,-0.211 1.283,-0.423 1.931,-0.621 1.679,-0.543 3.385,-1.072 5.091,-1.601 2.315,-0.727 4.669,-1.428 7.023,-2.116 2.46,-0.74 4.946,-1.441 7.446,-2.129 5.792,-1.6 11.691,-3.121 17.682,-4.549 1.467,-0.357 2.949,-0.701 4.43,-1.032 1.19,-0.278 2.394,-0.542 3.597,-0.807 1.362,-0.304 2.711,-0.595 4.087,-0.886 4.073,-0.873 8.199,-1.693 12.352,-2.46 2.076,-0.396 4.166,-0.767 6.255,-1.124 -0.185,-0.172 -0.396,-0.37 -0.635,-0.582 -0.238,-0.211 -0.502,-0.449 -0.793,-0.714 -0.384,-0.344 -0.82,-0.727 -1.296,-1.15 -0.979,-0.833 -2.143,-1.825 -3.491,-2.936 -1.098,-0.913 -2.328,-1.891 -3.69,-2.963 -0.952,-0.74 -1.958,-1.521 -3.029,-2.327 -0.463,-0.357 -0.952,-0.714 -1.441,-1.085 -14.244,-10.606 -38.207,-26.027 -70.926,-38.59 h -0.013 c -2.249,-0.86 -4.55,-1.72 -6.891,-2.553 -1.203,-0.423 -2.433,-0.859 -3.663,-1.283 -1.362,-0.463 -2.724,-0.925 -4.113,-1.375 -2.38,-0.767 -4.787,-1.534 -7.247,-2.275 -1.243,-0.37 -2.5,-0.74 -3.756,-1.111 -2.539,-0.727 -5.105,-1.428 -7.71,-2.116 -3.77,-0.978 -7.618,-1.917 -11.546,-2.79 -1.217,-0.278 -2.433,-0.542 -3.663,-0.794 -1.098,-0.238 -2.209,-0.463 -3.333,-0.674 -0.833,-0.185 -1.666,-0.344 -2.499,-0.503 -0.781,-0.145 -1.561,-0.304 -2.355,-0.436 -0.727,-0.132 -1.467,-0.265 -2.208,-0.397 -0.992,-0.185 -1.984,-0.357 -2.976,-0.516 -1.203,-0.198 -2.393,-0.396 -3.61,-0.582 -0.899,-0.145 -1.812,-0.277 -2.724,-0.41 -2.355,-0.357 -4.722,-0.674 -7.129,-0.978 l -0.978,-0.119 -0.067,-0.013 0.556,-0.847 c 0,0 0,-0.013 0.013,-0.026 0.013,-0.013 0.013,-0.027 0.027,-0.053 l 0.105,-0.172 c 0.053,-0.079 0.119,-0.172 0.186,-0.291 0.066,-0.106 0.145,-0.238 0.238,-0.37 0.026,-0.053 0.066,-0.119 0.105,-0.172 0.027,-0.053 0.066,-0.119 0.119,-0.185 0.08,-0.133 0.186,-0.278 0.291,-0.437 0.186,-0.291 0.397,-0.608 0.635,-0.952 0.172,-0.238 0.344,-0.489 0.529,-0.754 0.437,-0.608 0.926,-1.296 1.495,-2.037 0.158,-0.224 0.343,-0.462 0.529,-0.7 0.238,-0.318 0.489,-0.648 0.753,-0.979 0.741,-0.939 1.561,-1.971 2.487,-3.042 0.489,-0.582 1.005,-1.19 1.56,-1.812 v -0.013 c 0.45,-0.503 0.913,-1.031 1.389,-1.561 0.78,-0.859 1.613,-1.745 2.486,-2.658 1.746,-1.812 3.677,-3.716 5.819,-5.687 1.058,-0.991 2.182,-1.996 3.346,-3.002 0.37,-0.317 0.728,-0.621 1.098,-0.939 0.463,-0.383 0.926,-0.78 1.388,-1.163 0.596,-0.503 1.204,-1.005 1.826,-1.495 2.962,-2.38 6.189,-4.8 9.693,-7.194 0.873,-0.609 1.773,-1.204 2.685,-1.799 0.701,-0.463 1.428,-0.926 2.169,-1.388 0.741,-0.477 1.494,-0.939 2.262,-1.402 0.767,-0.476 1.547,-0.939 2.354,-1.402 0.793,-0.476 1.613,-0.939 2.433,-1.415 1.68,-0.939 3.412,-1.878 5.211,-2.817 0.886,-0.45 1.785,-0.913 2.698,-1.362 1.838,-0.926 3.756,-1.839 5.739,-2.725 0.979,-0.449 1.984,-0.899 3.016,-1.335 0.912,-0.41 1.838,-0.794 2.777,-1.177 0.489,-0.212 0.978,-0.41 1.481,-0.609 0.714,-0.291 1.428,-0.582 2.156,-0.859 0.833,-0.318 1.666,-0.648 2.526,-0.953 0.489,-0.198 0.978,-0.383 1.468,-0.542 0.793,-0.291 1.587,-0.582 2.407,-0.873 0.145,-0.053 0.304,-0.106 0.462,-0.158 2.222,-0.781 4.523,-1.534 6.878,-2.249 3.663,-1.124 7.472,-2.195 11.439,-3.16 0.661,-0.172 1.323,-0.331 1.997,-0.49 0.794,-0.198 1.6,-0.383 2.407,-0.555 0.556,-0.119 1.111,-0.251 1.666,-0.37 0.701,-0.159 1.416,-0.305 2.13,-0.45 0.674,-0.146 1.362,-0.278 2.05,-0.41 0.489,-0.106 0.978,-0.199 1.467,-0.291 0.834,-0.159 1.667,-0.318 2.513,-0.463 0.384,-0.079 0.767,-0.145 1.151,-0.198 0.846,-0.159 1.693,-0.305 2.552,-0.437 7.539,-1.23 15.54,-2.169 24.03,-2.724 0.847,-0.066 1.706,-0.119 2.566,-0.159 0.145,-0.013 0.291,-0.013 0.436,-0.026 1.574,-0.093 3.174,-0.159 4.788,-0.225 0.886,-0.027 1.759,-0.066 2.658,-0.079 0.661,-0.027 1.322,-0.04 1.997,-0.053 2.023,-0.04 4.073,-0.066 6.15,-0.066 h 0.092 c 1.429,0 2.87,0.013 4.325,0.039 0.621,0 1.243,0.013 1.878,0.027 h 0.066 c 4.629,0.092 9.39,0.291 14.256,0.621 h 0.08 c -2.659,-0.449 -29.267,-4.774 -62.079,-4.774 -2.38,0 -4.8,0.013 -7.234,0.066 -14.746,0.291 -31.713,1.587 -48.522,4.96 -1.243,0.251 -2.5,0.515 -3.743,0.78 -1.494,0.33 -3.002,0.674 -4.483,1.031 -1.508,0.357 -3.002,0.741 -4.497,1.138 -2.579,0.687 -5.118,1.428 -7.631,2.235 -1.097,0.357 -2.182,0.714 -3.253,1.084 -1.19,0.41 -2.38,0.833 -3.544,1.27 -0.595,0.211 -1.177,0.436 -1.759,0.674 -1.667,0.635 -3.306,1.31 -4.933,2.01 -1.019,0.437 -2.024,0.887 -3.015,1.363 -1.984,0.925 -3.942,1.904 -5.846,2.936 -0.952,0.515 -1.904,1.044 -2.843,1.587 -0.754,0.423 -1.495,0.872 -2.222,1.322 -0.846,0.503 -1.68,1.032 -2.5,1.574 -0.502,0.331 -1.005,0.674 -1.507,1.005 -0.503,0.344 -0.992,0.688 -1.482,1.032 -0.115,0.081 -0.231,0.163 -0.347,0.246 -1.828,1.305 -3.627,2.656 -5.328,4.123 -0.008,0.007 -0.016,0.014 -0.025,0.021 -0.912,0.767 -1.811,1.548 -2.684,2.368 h -0.013 c -0.146,0 -0.357,0.013 -0.648,0.026 -0.252,0 -0.569,0.013 -0.939,0.04 -0.463,0.013 -1.019,0.039 -1.667,0.079 -0.291,0.013 -0.595,0.04 -0.912,0.053 -0.238,0.013 -0.476,0.04 -0.714,0.053 -2.169,0.145 -4.999,0.37 -8.398,0.727 -1.217,0.132 -2.513,0.278 -3.875,0.437 -0.225,0.026 -0.45,0.053 -0.688,0.079 -1.058,0.132 -2.169,0.278 -3.306,0.436 -0.41,0.053 -0.82,0.106 -1.243,0.172 -0.384,0.04 -0.767,0.093 -1.151,0.159 -0.463,0.066 -0.952,0.132 -1.441,0.212 -4.047,0.595 -8.504,1.335 -13.305,2.261 -0.833,0.172 -1.679,0.331 -2.539,0.516 -2.42,0.476 -4.907,1.005 -7.472,1.587 -0.781,0.172 -1.574,0.357 -2.367,0.542 -1.561,0.357 -3.135,0.741 -4.735,1.137 -0.688,0.172 -1.389,0.358 -2.09,0.543 -1.031,0.264 -2.076,0.529 -3.134,0.82 -1.005,0.264 -2.023,0.542 -3.042,0.82 -3.359,0.939 -6.811,1.957 -10.328,3.068 -1.746,0.542 -3.518,1.111 -5.29,1.706 -1.892,0.635 -3.823,1.296 -5.78,1.997 -0.092,0.026 -0.185,0.066 -0.291,0.106 -1.19,0.423 -2.394,0.859 -3.61,1.322 -2.09,0.767 -4.219,1.587 -6.375,2.447 -1.296,0.502 -2.605,1.044 -3.927,1.587 -0.186,0.066 -0.358,0.145 -0.529,0.225 -2.037,0.846 -4.113,1.732 -6.203,2.658 -2.896,1.269 -5.832,2.632 -8.808,4.06 -1.296,0.621 -2.619,1.269 -3.928,1.918 -0.185,0.092 -0.357,0.185 -0.542,0.277 -1.494,0.754 -3.002,1.534 -4.51,2.315 -0.767,0.396 -1.521,0.806 -2.274,1.203 -0.767,0.41 -1.521,0.82 -2.288,1.243 -1.521,0.82 -3.055,1.68 -4.576,2.553 -0.767,0.436 -1.534,0.872 -2.301,1.322 -1.27,0.728 -2.553,1.481 -3.822,2.262 -1.812,1.084 -3.611,2.208 -5.423,3.359 -0.74,0.463 -1.481,0.939 -2.235,1.428 -2.036,1.323 -4.073,2.672 -6.096,4.06 -0.767,0.529 -1.535,1.058 -2.302,1.6 -0.767,0.529 -1.534,1.072 -2.301,1.627 -0.754,0.542 -1.521,1.098 -2.288,1.653 -0.767,0.556 -1.534,1.124 -2.288,1.693 -0.767,0.582 -1.534,1.151 -2.288,1.733 -1.904,1.454 -3.808,2.949 -5.7,4.483 -1.891,1.534 -3.795,3.094 -5.673,4.708 -0.754,0.648 -1.508,1.296 -2.248,1.944 -1.508,1.322 -3.002,2.658 -4.484,4.02 -0.648,0.595 -1.309,1.191 -1.957,1.799 -0.833,0.78 -1.666,1.561 -2.486,2.354 -0.741,0.714 -1.468,1.428 -2.209,2.142 -0.727,0.728 -1.468,1.442 -2.195,2.183 -0.728,0.727 -1.455,1.468 -2.182,2.221 -0.714,0.741 -1.442,1.495 -2.169,2.249 -0.714,0.767 -1.429,1.534 -2.143,2.301 -0.727,0.78 -1.428,1.56 -2.142,2.341 -0.754,0.833 -1.508,1.679 -2.262,2.526 -0.648,0.754 -1.309,1.507 -1.97,2.274 -0.701,0.82 -1.402,1.64 -2.09,2.46 -0.701,0.833 -1.388,1.667 -2.076,2.513 -2.063,2.526 -4.1,5.118 -6.11,7.776 -1.336,1.772 -2.658,3.571 -3.967,5.396 l -1.402,1.971 -1.336,1.891 2.156,-0.913 0.052,-0.026 0.106,-0.053 0.41,-0.185 0.516,-0.225 1.098,-0.476 c 1.19,-0.516 3.002,-1.283 5.316,-2.209 0.648,-0.251 1.323,-0.529 2.05,-0.806 0.476,-0.186 0.966,-0.371 1.481,-0.569 0.516,-0.185 1.045,-0.384 1.587,-0.595 1.098,-0.41 2.249,-0.833 3.452,-1.257 0.503,-0.172 1.018,-0.357 1.534,-0.542 1.045,-0.357 2.129,-0.727 3.24,-1.097 0.013,0 0.013,-0.014 0.013,-0.014 0.503,-0.172 1.019,-0.344 1.548,-0.516 0.502,-0.158 1.018,-0.33 1.534,-0.502 1.005,-0.317 2.037,-0.635 3.081,-0.965 0.49,-0.146 0.992,-0.305 1.495,-0.45 0.978,-0.291 1.97,-0.582 2.975,-0.873 17.166,-4.973 39.305,-9.416 60.875,-8.107 0.847,0.053 1.68,0.106 2.513,0.172 0.833,0.066 1.666,0.145 2.5,0.225 2.486,0.251 4.959,0.595 7.419,1.018 -1.349,0.384 -3.135,0.926 -5.317,1.653 -1.097,0.371 -2.301,0.781 -3.584,1.243 -1.044,0.371 -2.155,0.781 -3.332,1.23 -0.662,0.252 -1.336,0.503 -2.024,0.781 -1.031,0.41 -2.116,0.846 -3.227,1.296 -0.013,0 -0.013,0.013 -0.013,0.013 -0.886,0.357 -1.799,0.741 -2.724,1.137 -0.82,0.344 -1.653,0.714 -2.5,1.085 -3.174,1.415 -6.586,3.028 -10.196,4.827 -1.204,0.608 -2.421,1.23 -3.664,1.878 -0.502,0.251 -0.991,0.516 -1.494,0.793 -1.005,0.529 -2.024,1.085 -3.055,1.653 -0.516,0.278 -1.032,0.569 -1.561,0.86 -2.023,1.124 -4.073,2.314 -6.163,3.571 -2.089,1.243 -4.218,2.552 -6.374,3.928 -1.283,0.82 -2.579,1.653 -3.875,2.512 -0.013,0 -0.013,0 -0.013,0.014 -1.19,0.806 -2.407,1.613 -3.624,2.446 -1.216,0.833 -2.446,1.693 -3.676,2.566 -7.962,5.66 -16.227,12.207 -24.559,19.745 -0.172,0.145 -0.331,0.304 -0.503,0.463 -0.688,0.621 -1.375,1.243 -2.05,1.878 -0.542,0.502 -1.097,1.018 -1.64,1.534 -0.674,0.635 -1.349,1.269 -2.023,1.931 -0.701,0.661 -1.402,1.349 -2.103,2.036 -1.812,1.773 -3.623,3.624 -5.462,5.515 -0.806,0.833 -1.613,1.68 -2.42,2.553 -0.767,0.82 -1.534,1.64 -2.301,2.486 -1.032,1.124 -2.05,2.261 -3.081,3.425 -0.49,0.556 -0.979,1.111 -1.468,1.667 -0.781,0.886 -1.548,1.772 -2.302,2.671 -0.185,0.212 -0.37,0.436 -0.555,0.648 -0.476,0.556 -0.952,1.124 -1.428,1.693 -0.45,0.529 -0.886,1.071 -1.336,1.613 -26.146,31.846 -52.146,77.063 -68.096,140.172 -0.251,1.006 -0.502,2.011 -0.754,3.016 -0.304,1.269 -0.608,2.539 -0.912,3.822 -0.265,1.084 -0.516,2.182 -0.767,3.293 -0.318,1.402 -0.635,2.817 -0.952,4.245 -0.265,1.203 -0.529,2.407 -0.781,3.61 -0.264,1.257 -0.515,2.527 -0.78,3.796 -0.278,1.375 -0.555,2.764 -0.82,4.153 -0.331,1.64 -0.635,3.28 -0.939,4.946 -0.278,1.481 -0.529,2.962 -0.793,4.443 -0.278,1.64 -0.556,3.294 -0.834,4.947 -0.264,1.666 -0.542,3.332 -0.793,5.025 -0.265,1.68 -0.516,3.373 -0.754,5.079 v 0.053 c -0.291,1.97 -0.555,3.954 -0.82,5.964 -0.238,1.799 -0.463,3.61 -0.688,5.435 -0.079,0.609 -0.158,1.23 -0.224,1.852 -0.146,1.203 -0.278,2.42 -0.41,3.637 -0.133,1.045 -0.238,2.103 -0.344,3.161 -0.093,0.767 -0.172,1.534 -0.251,2.314 -0.12,1.177 -0.239,2.354 -0.344,3.544 -0.159,1.614 -0.304,3.254 -0.45,4.894 l -0.145,1.692 -0.133,1.627 1.243,-1.098 0.027,-0.026 0.45,-0.423 0.767,-0.675 c 0.171,-0.158 0.37,-0.33 0.568,-0.515 0.013,0 0.027,-0.014 0.04,-0.027 0.661,-0.595 1.468,-1.296 2.42,-2.103 1.256,-1.071 2.777,-2.341 4.563,-3.782 0.37,-0.304 0.74,-0.608 1.137,-0.913 0.542,-0.436 1.098,-0.886 1.693,-1.335 0,0 0.013,-0.027 0.026,-0.027 0.278,-0.211 0.556,-0.436 0.847,-0.661 0.555,-0.436 1.137,-0.886 1.745,-1.349 0.305,-0.238 0.622,-0.476 0.939,-0.714 1.402,-1.071 2.897,-2.195 4.497,-3.359 0.397,-0.291 0.793,-0.595 1.203,-0.886 1.23,-0.9 2.526,-1.812 3.849,-2.751 1.19,-0.847 2.42,-1.693 3.69,-2.566 1.692,-1.177 3.465,-2.38 5.316,-3.597 0.609,-0.41 1.23,-0.82 1.865,-1.23 1.508,-1.005 3.068,-2.01 4.682,-3.015 2.142,-1.376 4.364,-2.764 6.678,-4.153 0.582,-0.357 1.164,-0.714 1.746,-1.058 3.822,-2.314 7.869,-4.655 12.127,-7.022 1.124,-0.635 2.262,-1.257 3.426,-1.892 1.163,-0.634 2.327,-1.269 3.517,-1.904 1.958,-1.045 3.981,-2.103 6.057,-3.174 1.23,-0.635 2.5,-1.283 3.783,-1.918 2.751,-1.375 5.594,-2.777 8.543,-4.179 1.481,-0.701 2.976,-1.402 4.497,-2.103 1.666,-0.767 3.359,-1.547 5.091,-2.327 1.415,-0.635 2.857,-1.27 4.325,-1.891 1.613,-0.701 3.253,-1.415 4.92,-2.116 1.666,-0.701 3.359,-1.402 5.078,-2.103 1.706,-0.701 3.439,-1.389 5.211,-2.09 0.873,-0.344 1.759,-0.687 2.645,-1.031 0.899,-0.344 1.798,-0.701 2.698,-1.032 0.899,-0.344 1.811,-0.687 2.724,-1.031 3.663,-1.376 7.419,-2.725 11.254,-4.047 1.931,-0.661 3.875,-1.323 5.846,-1.984 1.957,-0.648 3.954,-1.296 5.964,-1.931 3.003,-0.965 6.044,-1.904 9.139,-2.817 0.04,0 0.079,-0.013 0.119,-0.026 1.032,-0.304 2.05,-0.595 3.081,-0.899 1.058,-0.305 2.116,-0.609 3.174,-0.9 1.058,-0.304 2.13,-0.595 3.201,-0.899 1.071,-0.291 2.156,-0.582 3.24,-0.873 1.085,-0.291 2.169,-0.582 3.267,-0.86 1.097,-0.291 2.195,-0.568 3.306,-0.846 1.098,-0.278 2.208,-0.555 3.333,-0.833 1.11,-0.265 2.235,-0.542 3.359,-0.807 2.87,-0.688 5.779,-1.349 8.715,-1.997 1.852,-0.397 3.703,-0.793 5.581,-1.19 1.005,-0.199 2.01,-0.41 3.029,-0.609 1.177,-0.238 2.367,-0.476 3.557,-0.7 1.111,-0.225 2.235,-0.437 3.359,-0.648 2.685,-0.49 5.396,-0.979 8.134,-1.442 1.018,-0.172 2.036,-0.344 3.055,-0.503 1.23,-0.211 2.473,-0.396 3.716,-0.595 1.243,-0.198 2.499,-0.383 3.742,-0.568 1.257,-0.185 2.526,-0.371 3.783,-0.543 2.539,-0.357 5.078,-0.687 7.657,-1.005 1.257,-0.158 2.526,-0.317 3.796,-0.463 2.618,-0.304 5.25,-0.595 7.895,-0.859 1.323,-0.132 2.645,-0.265 3.968,-0.384 1.322,-0.132 2.658,-0.251 3.994,-0.357 1.335,-0.119 2.671,-0.225 4.02,-0.33 l 0.913,-0.066 2.049,-0.159 2.883,-0.238 -2.698,-1.032 -2.777,-1.058 c -0.886,-0.344 -1.772,-0.674 -2.658,-1.031 -1.124,-0.437 -2.248,-0.873 -3.372,-1.323 -0.966,-0.37 -1.931,-0.754 -2.91,-1.15 -0.701,-0.265 -1.402,-0.556 -2.103,-0.847 -0.386,-0.152 -0.763,-0.305 -1.147,-0.466 -0.895,-0.364 -1.793,-0.73 -2.687,-1.094 -0.53,-0.212 -1.072,-0.437 -1.601,-0.662 -1.111,-0.449 -2.209,-0.899 -3.293,-1.375 -0.569,-0.225 -1.137,-0.476 -1.693,-0.714 -2.486,-1.032 -4.92,-2.09 -7.287,-3.148 -0.82,-0.357 -1.627,-0.727 -2.433,-1.084 -1.005,-0.45 -1.997,-0.899 -2.963,-1.349 -1.679,-0.767 -3.293,-1.534 -4.853,-2.288 -3.994,-1.918 -7.552,-3.769 -10.501,-5.475 -0.436,-0.252 -0.86,-0.503 -1.283,-0.754 -0.397,-0.238 -0.78,-0.476 -1.164,-0.714 -1.15,-0.728 -2.169,-1.429 -3.041,-2.077 -0.437,-0.317 -0.82,-0.634 -1.177,-0.952 1.481,0.357 3.663,0.886 6.52,1.548 3.451,0.793 7.855,1.772 13.145,2.883 1.323,0.277 2.698,0.568 4.126,0.859 1.429,0.291 2.91,0.595 4.444,0.9 2.817,0.568 5.806,1.15 8.967,1.745 1.256,0.238 2.552,0.476 3.861,0.728 h 0.014 c 1.957,0.357 3.98,0.727 6.07,1.111 0,0 0.013,-0.014 0.026,0 1.958,0.343 3.955,0.687 6.018,1.057 0.674,0.12 1.362,0.239 2.063,0.358 0.926,0.158 1.865,0.317 2.803,0.476 0.768,0.119 1.535,0.251 2.315,0.383 1.084,0.185 2.169,0.357 3.28,0.542 1.653,0.265 3.332,0.53 5.038,0.807 1.706,0.265 3.452,0.529 5.198,0.807 2.341,0.357 4.734,0.714 7.155,1.071 2.433,0.344 4.893,0.701 7.406,1.058 4.933,0.688 10.037,1.362 15.275,2.01 2.182,0.265 4.39,0.543 6.625,0.807 2.222,0.265 4.484,0.516 6.758,0.78 2.989,0.331 6.031,0.662 9.099,0.979 3.068,0.317 6.176,0.622 9.324,0.926 2.089,0.198 4.205,0.397 6.334,0.582 1.217,0.092 2.434,0.211 3.664,0.317 2.446,0.212 4.92,0.41 7.406,0.608 2.486,0.186 4.999,0.371 7.525,0.556 6.07,0.423 12.246,0.807 18.502,1.137 4.774,0.251 9.601,0.463 14.481,0.648 1.164,0.04 2.314,0.08 3.478,0.119 2.328,0.08 4.656,0.146 6.996,0.212 8.16,0.211 16.426,0.317 24.797,0.317 5.105,0 10.236,-0.053 15.407,-0.145 2.659,-0.04 5.33,-0.106 8.015,-0.185 2.645,-0.066 5.303,-0.159 7.961,-0.252 0.807,-0.026 1.614,-0.066 2.434,-0.092 1.864,-0.08 3.742,-0.159 5.62,-0.251 0.106,0 0.199,0 0.291,-0.014 4.96,-0.238 9.946,-0.516 14.945,-0.846 2.38,-0.159 4.761,-0.331 7.154,-0.516 C -6.454,0.542 -5.7,0.489 -4.946,0.423 L -4.364,0.37 C -2.91,0.251 -1.455,0.132 0,0" /></g><g
           transform="translate(637.5414,985.4326)"
           id="g28"><path
             id="path30"
             style="fill:#ffffff;fill-opacity:1;fill-rule:nonzero;stroke:none"
             d="m 0,0 v -68.109 l -18.515,-22.549 -0.846,-1.031 -33.116,18.726 v 50.996 z" /></g><g
           transform="translate(637.2505,1182.684)"
           id="g32"><path
             id="path34"
             style="fill:#ffffff;fill-opacity:1;fill-rule:nonzero;stroke:none"
             d="m 0,0 v -56.788 l -54.725,-19.626 v 65.331 l -76.798,-10.487 1.032,-185.045 v -0.33 l 0.991,-6.6 c -2.01,-51.881 5.938,-97.838 10.184,-118.099 l -1.283,-0.357 -26.847,-7.499 -33.234,23.766 -2.751,134.763 c -0.609,10.752 -6.639,16.055 -8.94,17.695 7.207,5.197 8.86,16.187 8.94,16.769 l -1.574,123.112 35.747,41.989 112.4,12.604 z" /></g><g
           transform="translate(1617.2916,1183.4113)"
           id="g36"><path
             id="path38"
             style="fill:#991c2d;fill-opacity:1;fill-rule:nonzero;stroke:none"
             d="m 0,0 -5.078,-332.781 -0.186,-0.186 -85.036,-86.399 -0.384,0.133 c -1.204,0.383 -120.626,38.551 -160.301,45.56 l -0.238,0.039 -31.158,35.854 -31.819,-22.1 -0.278,0.053 c -0.714,0.133 -71.693,13.847 -170.801,22.113 -91.465,7.617 -226.241,12.008 -348.956,-10.303 l -0.146,-0.026 -0.145,0.04 -61.298,16.742 2.83,0.529 c 0.754,0.146 76.864,14.244 184.913,20.724 99.663,5.978 247.638,6.52 386.819,-24.823 l 42.121,31.594 40.112,-46.909 c 5.329,-1.283 107.123,-25.868 139.947,-39.318 l 68.387,67.038 2.01,141.666 -37.176,55.77 38.538,-5.515 1.68,121.234 -58.085,68.162 -143.306,15.804 -41.394,-34.491 2.036,230.394 -58.005,52.305 h -410.69 v -28.13 l -32.653,28.13 h -201.007 v -79.39 l 16.201,-14.191 V 53.8 l -12.141,-9.998 -38.366,31.911 -146.678,-15.473 -59.09,-69.167 4.708,-330.652 70.04,-48.589 44.555,12.921 7.142,-23.197 -55.638,-18.197 -0.265,0.185 -91.451,63.348 -0.013,0.33 -5.065,352.778 0.172,0.185 72.42,83.596 167.693,17.959 16.677,-14.124 v 130.306 l -15.87,14.177 v 115.428 h 679.622 l 72.658,-66.217 v -0.291 l -1.005,-184.833 6.731,5.382 0.278,-0.026 162.84,-17.761 0.172,-0.199 z" /></g><g
           transform="translate(1335.0563,784.2666)"
           id="g40"><path
             id="path42"
             style="fill:#ee334d;fill-opacity:1;fill-rule:nonzero;stroke:none"
             d="M 0,0 -0.41,-0.78 C -0.476,-0.913 -0.569,-1.071 -0.661,-1.27 L -0.675,-1.283 C -0.78,-1.468 -0.899,-1.68 -1.018,-1.931 l -0.014,-0.013 c -0.132,-0.238 -0.291,-0.516 -0.449,-0.82 -0.331,-0.622 -0.754,-1.362 -1.23,-2.209 -0.251,-0.423 -0.503,-0.872 -0.78,-1.362 -0.067,-0.119 -0.133,-0.238 -0.212,-0.357 -0.106,-0.185 -0.212,-0.37 -0.331,-0.569 -0.344,-0.595 -0.714,-1.229 -1.124,-1.917 -0.238,-0.41 -0.489,-0.82 -0.74,-1.257 -0.371,-0.621 -0.754,-1.269 -1.164,-1.93 -0.357,-0.569 -0.728,-1.177 -1.098,-1.786 -0.449,-0.714 -0.926,-1.468 -1.402,-2.248 -0.026,-0.066 -0.066,-0.132 -0.119,-0.198 -0.238,-0.384 -0.476,-0.768 -0.727,-1.151 -0.37,-0.582 -0.754,-1.177 -1.138,-1.799 -0.78,-1.216 -1.6,-2.486 -2.459,-3.795 -0.437,-0.648 -0.873,-1.323 -1.323,-1.997 -0.304,-0.45 -0.608,-0.913 -0.912,-1.376 -0.318,-0.489 -0.648,-0.978 -0.992,-1.468 -1.085,-1.6 -2.222,-3.253 -3.399,-4.959 -0.595,-0.846 -1.204,-1.706 -1.812,-2.592 -0.608,-0.873 -1.243,-1.759 -1.891,-2.658 -0.701,-0.966 -1.415,-1.971 -2.143,-2.976 -0.952,-1.296 -1.917,-2.618 -2.922,-3.967 -0.675,-0.9 -1.349,-1.799 -2.037,-2.712 -0.846,-1.11 -1.706,-2.248 -2.579,-3.385 -0.476,-0.608 -0.939,-1.217 -1.415,-1.825 -0.489,-0.622 -0.965,-1.243 -1.455,-1.865 -1.454,-1.865 -2.962,-3.756 -4.509,-5.673 -2.183,-2.712 -4.471,-5.476 -6.838,-8.293 -0.992,-1.163 -1.997,-2.34 -3.015,-3.517 -0.569,-0.675 -1.151,-1.349 -1.746,-2.024 -4.086,-4.708 -8.437,-9.548 -13.04,-14.442 -0.648,-0.687 -1.296,-1.375 -1.957,-2.063 -0.317,-0.344 -0.648,-0.701 -0.992,-1.044 -1.243,-1.297 -2.513,-2.619 -3.809,-3.942 -0.423,-0.436 -0.859,-0.886 -1.309,-1.335 -0.701,-0.714 -1.402,-1.429 -2.116,-2.143 -2.857,-2.87 -5.832,-5.779 -8.914,-8.728 -1.547,-1.468 -3.121,-2.949 -4.721,-4.444 -2.896,-2.698 -5.898,-5.435 -8.993,-8.16 -0.952,-0.859 -1.918,-1.706 -2.896,-2.565 -2.817,-2.46 -5.713,-4.947 -8.702,-7.42 -1.376,-1.15 -2.764,-2.301 -4.166,-3.438 -1.402,-1.151 -2.83,-2.301 -4.259,-3.452 -4.827,-3.848 -9.839,-7.71 -15.036,-11.545 -0.992,-0.728 -1.998,-1.468 -3.003,-2.196 -2.142,-1.56 -4.324,-3.121 -6.533,-4.668 -2.089,-1.468 -4.219,-2.936 -6.374,-4.404 -4.404,-3.002 -8.94,-5.978 -13.596,-8.914 -1.745,-1.097 -3.504,-2.195 -5.276,-3.293 -1.773,-1.084 -3.571,-2.169 -5.383,-3.253 -2.407,-1.442 -4.854,-2.87 -7.327,-4.285 -1.058,-0.608 -2.129,-1.217 -3.2,-1.825 -0.291,-0.159 -0.582,-0.317 -0.873,-0.476 -1.137,-0.648 -2.288,-1.283 -3.438,-1.905 -1.23,-0.687 -2.474,-1.362 -3.717,-2.023 -2.169,-1.164 -4.351,-2.328 -6.559,-3.452 -0.966,-0.515 -1.944,-1.018 -2.923,-1.507 -8.266,-4.219 -16.822,-8.266 -25.67,-12.128 -1.164,-0.502 -2.314,-0.992 -3.491,-1.494 -13.569,-5.793 -27.826,-11.109 -42.77,-15.831 -1.455,-0.449 -2.91,-0.899 -4.377,-1.348 l -4.642,-1.416 -1.654,-0.502 5.78,3.134 c 0.079,0.053 1.388,0.754 3.742,2.143 l 1.164,0.714 0.053,0.026 c 0.371,0.238 0.767,0.476 1.19,0.741 0.41,0.251 0.847,0.516 1.31,0.807 0.317,0.198 0.634,0.396 0.965,0.608 0.979,0.608 2.024,1.283 3.148,2.01 0.515,0.331 1.045,0.675 1.587,1.032 0.582,0.37 1.177,0.767 1.772,1.164 0.621,0.409 1.256,0.833 1.904,1.269 1.323,0.886 2.711,1.825 4.153,2.83 0.608,0.41 1.217,0.833 1.851,1.283 1.019,0.701 2.064,1.442 3.148,2.222 0.503,0.357 1.018,0.727 1.534,1.098 1.362,0.978 2.764,1.997 4.219,3.055 1.322,0.978 2.684,1.983 4.06,3.028 9.019,6.785 19.348,15.063 30.537,24.956 0.859,0.74 1.732,1.521 2.605,2.301 h 0.013 c 1.27,1.124 2.539,2.261 3.822,3.452 1.296,1.15 2.592,2.354 3.902,3.57 1.309,1.204 2.618,2.434 3.941,3.69 0.661,0.622 1.335,1.257 1.997,1.891 2.287,2.169 4.602,4.404 6.929,6.705 0.212,0.199 0.424,0.397 0.635,0.622 0.569,0.555 1.151,1.137 1.733,1.719 0.225,0.225 0.463,0.45 0.701,0.701 0.978,0.966 1.957,1.957 2.936,2.963 1.084,1.097 2.182,2.208 3.253,3.332 2.09,2.143 4.179,4.338 6.269,6.573 0.833,0.873 1.653,1.746 2.46,2.632 5.752,6.202 11.571,12.736 17.417,19.639 -0.291,-0.119 -0.622,-0.251 -0.966,-0.397 -0.343,-0.132 -0.714,-0.277 -1.11,-0.436 l -0.014,-0.013 c -0.582,-0.225 -1.23,-0.476 -1.931,-0.754 -0.952,-0.357 -1.983,-0.741 -3.121,-1.164 -0.291,-0.106 -0.582,-0.211 -0.872,-0.317 l -0.014,-0.014 c -0.595,-0.198 -1.203,-0.423 -1.838,-0.648 -0.317,-0.105 -0.648,-0.224 -0.992,-0.357 -0.992,-0.33 -2.037,-0.687 -3.121,-1.058 -0.37,-0.119 -0.741,-0.251 -1.124,-0.37 -0.754,-0.251 -1.534,-0.502 -2.341,-0.767 -1.6,-0.516 -3.293,-1.045 -5.092,-1.587 -0.899,-0.265 -1.811,-0.542 -2.75,-0.807 -0.529,-0.158 -1.058,-0.317 -1.614,-0.476 -0.86,-0.251 -1.746,-0.502 -2.645,-0.74 -2.592,-0.728 -5.356,-1.468 -8.252,-2.196 -0.966,-0.251 -1.944,-0.489 -2.936,-0.727 -2.037,-0.503 -4.14,-1.005 -6.309,-1.495 -1.005,-0.224 -2.023,-0.449 -3.055,-0.674 h -0.013 c -1.084,-0.238 -2.182,-0.476 -3.306,-0.714 -0.82,-0.172 -1.653,-0.344 -2.5,-0.516 -0.317,-0.066 -0.634,-0.132 -0.952,-0.198 -1.137,-0.225 -2.288,-0.45 -3.452,-0.675 -1.243,-0.238 -2.499,-0.476 -3.782,-0.714 -1.137,-0.198 -2.301,-0.41 -3.465,-0.608 -1.243,-0.225 -2.499,-0.437 -3.769,-0.635 -1.27,-0.225 -2.552,-0.423 -3.848,-0.622 -1.296,-0.198 -2.606,-0.396 -3.941,-0.595 -1.323,-0.198 -2.659,-0.397 -4.021,-0.569 -0.979,-0.132 -1.944,-0.264 -2.936,-0.396 -0.979,-0.133 -1.97,-0.265 -2.975,-0.384 h -0.053 c -1.27,-0.159 -2.54,-0.304 -3.836,-0.449 -1.983,-0.238 -4.007,-0.45 -6.044,-0.662 -58.679,-5.938 -152.167,-3.637 -264.275,41.064 l -13.318,5.713 -0.013,0.013 -0.04,0.014 -4.906,2.102 -0.252,0.106 -0.013,0.014 -0.317,0.238 1.005,0.886 0.013,0.013 0.794,0.701 c 1.904,1.679 3.901,3.332 6.004,4.959 0.595,0.463 1.19,0.926 1.798,1.376 5.542,4.165 11.731,8.186 18.41,12.074 0.939,0.542 1.891,1.084 2.843,1.627 0.965,0.529 1.918,1.071 2.896,1.6 1.309,0.714 2.632,1.415 3.955,2.116 1.335,0.701 2.684,1.402 4.046,2.09 2.738,1.375 5.515,2.737 8.359,4.073 4.959,2.341 10.077,4.629 15.314,6.837 1.429,0.608 2.87,1.204 4.312,1.799 0.066,0.026 0.145,0.053 0.211,0.079 1.508,0.622 3.042,1.243 4.576,1.852 0.754,0.304 1.534,0.608 2.301,0.912 3.082,1.204 6.19,2.394 9.324,3.571 7.829,2.909 15.804,5.7 23.805,8.345 1.6,0.529 3.2,1.058 4.814,1.574 3.478,1.124 6.969,2.221 10.448,3.306 0.634,0.185 1.269,0.384 1.904,0.582 2.182,0.661 4.351,1.309 6.52,1.97 2.499,0.741 4.999,1.468 7.485,2.182 1.587,0.45 3.161,0.9 4.735,1.349 2.354,0.675 4.708,1.323 7.036,1.971 1.137,0.304 2.261,0.621 3.372,0.926 1.812,0.489 3.61,0.978 5.396,1.454 1.904,0.503 3.795,0.992 5.673,1.495 1.296,0.331 2.579,0.661 3.862,0.992 3.716,0.952 7.38,1.878 10.964,2.751 0.714,0.185 1.428,0.357 2.142,0.529 0.701,0.172 1.415,0.343 2.116,0.515 1.415,0.344 2.804,0.675 4.192,1.005 1.005,0.252 2.011,0.49 3.016,0.728 0.767,0.172 1.534,0.357 2.288,0.542 0.264,0.053 0.542,0.119 0.806,0.185 0.199,0.04 0.41,0.093 0.609,0.132 l 0.132,0.04 c 2.552,0.595 5.052,1.164 7.485,1.719 2.606,0.595 5.132,1.151 7.578,1.693 0.41,0.093 0.82,0.172 1.217,0.265 0.886,0.185 1.759,0.383 2.619,0.568 0.608,0.133 1.229,0.265 1.825,0.397 0.608,0.132 1.216,0.251 1.798,0.384 1.878,0.396 3.69,0.78 5.449,1.15 0.833,0.172 1.653,0.344 2.46,0.516 0.198,0.04 0.397,0.079 0.582,0.119 0.992,0.212 1.957,0.41 2.909,0.595 1.521,0.304 2.989,0.609 4.391,0.886 0.145,0.027 0.291,0.053 0.436,0.093 0.847,0.159 1.654,0.317 2.447,0.476 1.389,0.264 2.698,0.529 3.928,0.767 0.701,0.132 1.388,0.265 2.036,0.384 0.331,0.066 0.648,0.119 0.966,0.185 1.547,0.291 2.909,0.542 4.086,0.767 h 0.027 c 1.137,0.211 2.103,0.396 2.87,0.529 l 1.759,0.317 c 0.092,0.013 0.171,0.027 0.238,0.04 l 0.185,0.013 c 0.132,0 0.291,-0.013 0.463,-0.013 h 0.105 c 0.318,-0.013 0.701,-0.027 1.138,-0.04 0.33,-0.013 0.727,-0.026 1.164,-0.04 2.327,-0.066 5.7,-0.158 9.945,-0.211 0.317,0 0.635,-0.013 0.965,-0.013 0.635,-0.014 1.296,-0.027 1.984,-0.027 0.674,-0.013 1.362,-0.013 2.063,-0.013 4.431,-0.04 9.522,-0.04 15.13,0.013 2.235,0.013 4.562,0.053 6.956,0.093 0.912,0.013 1.838,0.026 2.777,0.053 2.103,0.039 4.272,0.092 6.48,0.158 2.394,0.067 4.841,0.146 7.327,0.238 0.78,0.027 1.561,0.053 2.354,0.093 2.764,0.106 5.568,0.225 8.424,0.384 2.857,0.132 5.767,0.304 8.703,0.489 1.335,0.079 2.684,0.172 4.046,0.264 3.333,0.225 6.719,0.476 10.131,0.767 2.592,0.212 5.197,0.45 7.816,0.701 1.045,0.093 2.089,0.199 3.134,0.304 0.053,0 0.106,0 0.159,0.014 3.081,0.317 6.163,0.648 9.244,1.018 1.045,0.119 2.09,0.251 3.135,0.384 h 0.039 c 2.619,0.33 5.25,0.674 7.856,1.044 3.465,0.49 6.917,1.032 10.342,1.601 1.124,0.185 2.235,0.37 3.333,0.568 2.83,0.503 5.633,1.032 8.397,1.587 l 0.238,0.053 0.252,-0.04 39.781,-6.652 78.993,-13.212 13.436,11.387 4.14,-5.039 z" /></g><g
           transform="translate(1330.0439,790.3898)"
           id="g44"><path
             id="path46"
             style="fill:#ee334d;fill-opacity:1;fill-rule:nonzero;stroke:none"
             d="m 0,0 h -0.013 l 4.139,-5.039 z m -531.091,-91.954 h -0.013 l -0.079,-0.066 0.013,-0.013 0.397,-0.159 z m 257.69,-136.522 -4.642,-1.415 -0.37,-0.225 9.389,2.989 c -1.454,-0.449 -2.909,-0.899 -4.377,-1.349 m 35.284,25.247 c 9.02,6.784 19.348,15.063 30.537,24.956 -11.202,-9.866 -21.544,-18.158 -30.537,-24.956 m 33.155,27.257 c 1.27,1.124 2.54,2.261 3.822,3.451 -1.282,-1.163 -2.552,-2.314 -3.822,-3.451 m 29.849,28.645 c 2.09,2.143 4.179,4.338 6.269,6.573 -2.103,-2.235 -4.192,-4.43 -6.269,-6.573 m 12.167,23.686 c 1.098,0.357 2.13,0.714 3.121,1.058 -0.991,-0.33 -2.036,-0.687 -3.121,-1.058 m 9.959,3.558 c 0.701,0.264 1.336,0.516 1.931,0.754 -0.582,-0.225 -1.23,-0.477 -1.931,-0.754 M -285.819,-2.671 c -0.212,-0.04 -0.424,-0.093 -0.635,-0.133 0.33,0.066 0.648,0.119 0.965,0.185 -0.106,-0.013 -0.211,-0.026 -0.33,-0.052 m -50.996,-10.885 -0.635,-0.158 c 0.767,0.172 1.534,0.357 2.288,0.542 -0.542,-0.132 -1.098,-0.251 -1.653,-0.384 m -39.424,-10.011 c -0.648,-0.172 -1.296,-0.357 -1.944,-0.542 1.137,0.304 2.261,0.621 3.372,0.926 z m -24.122,-6.917 -1.706,-0.515 c -0.622,-0.199 -1.257,-0.384 -1.892,-0.582 2.182,0.661 4.351,1.309 6.52,1.97 -0.978,-0.291 -1.957,-0.582 -2.922,-0.873 m -12.181,-3.769 c -1.269,-0.396 -2.512,-0.807 -3.769,-1.217 3.478,1.125 6.97,2.222 10.448,3.307 -2.143,-0.648 -4.351,-1.349 -6.679,-2.09 m -41.711,-14.706 c 3.081,1.203 6.189,2.394 9.323,3.571 -3.174,-1.177 -6.282,-2.368 -9.323,-3.571 m -35.073,-15.553 c 2.737,1.376 5.515,2.738 8.358,4.074 -2.87,-1.336 -5.66,-2.698 -8.358,-4.074 m -11.546,-6.163 c -0.754,-0.423 -1.468,-0.846 -2.195,-1.269 0.939,0.542 1.891,1.084 2.843,1.627 -0.224,-0.12 -0.436,-0.238 -0.648,-0.358" /></g><g
           transform="translate(1061.0203,563.2631)"
           id="g48"><path
             id="path50"
             style="fill:#9a192d;fill-opacity:1;fill-rule:nonzero;stroke:none"
             d="m 0,0 -9.39,-2.989 0.371,0.225 4.642,1.415 C -2.91,-0.899 -1.455,-0.45 0,0" /></g><g
           transform="translate(1122.4639,612.1163)"
           id="g52"><path
             id="path54"
             style="fill:#9a192d;fill-opacity:1;fill-rule:nonzero;stroke:none"
             d="M 0,0 C -11.188,-9.892 -21.517,-18.171 -30.537,-24.956 -21.544,-18.158 -11.202,-9.866 0,0" /></g><g
           transform="translate(1128.9044,617.8693)"
           id="g56"><path
             id="path58"
             style="fill:#9a192d;fill-opacity:1;fill-rule:nonzero;stroke:none"
             d="M 0,0 C -1.283,-1.19 -2.552,-2.328 -3.822,-3.452 -2.552,-2.314 -1.283,-1.164 0,0" /></g><g
           transform="translate(1161.2,649.6357)"
           id="g60"><path
             id="path62"
             style="fill:#9a192d;fill-opacity:1;fill-rule:nonzero;stroke:none"
             d="M 0,0 C -2.09,-2.235 -4.179,-4.43 -6.269,-6.573 -4.192,-4.43 -2.103,-2.235 0,0" /></g><g
           transform="translate(1170.2194,667.8069)"
           id="g64"><path
             id="path66"
             style="fill:#9a192d;fill-opacity:1;fill-rule:nonzero;stroke:none"
             d="M 0,0 C -0.992,-0.344 -2.023,-0.701 -3.121,-1.058 -2.037,-0.688 -0.992,-0.331 0,0" /></g><g
           transform="translate(1178.9875,671.0604)"
           id="g68"><path
             id="path70"
             style="fill:#9a192d;fill-opacity:1;fill-rule:nonzero;stroke:none"
             d="M 0,0 C -0.595,-0.238 -1.23,-0.489 -1.931,-0.754 -1.23,-0.476 -0.582,-0.225 0,0" /></g><g
           transform="translate(1023.3289,599.698)"
           id="g72"><path
             id="path74"
             style="fill:#9a192d;fill-opacity:1;fill-rule:nonzero;stroke:none"
             d="m 0,0 c 2.076,-0.397 4.166,-0.767 6.255,-1.124 l 0.014,0.013 C 4.166,-0.754 2.076,-0.383 0,0 m -77.009,-127.754 c 2.221,-0.78 4.523,-1.534 6.877,-2.248 -2.354,0.727 -4.656,1.481 -6.877,2.248 m -78.451,57.37 -0.066,-0.013 0.555,-0.846 z m 178.247,-69.047 c -0.013,-0.014 -0.027,-0.014 -0.04,-0.014 -0.04,0 -0.093,-0.013 -0.185,-0.026 h 0.159 l 0.132,0.053 c -0.027,0 -0.04,-0.013 -0.066,-0.013 m 339.685,305.048 -0.172,-0.674 0.198,0.674 z m -64.75,-4.391 c 0.873,1.31 1.693,2.579 2.46,3.796 -0.78,-1.217 -1.6,-2.486 -2.46,-3.796 m -6.626,-9.799 c 1.191,1.706 2.328,3.359 3.399,4.959 -1.084,-1.6 -2.222,-3.253 -3.399,-4.959 m -20.763,-27.654 c 1.56,1.918 3.055,3.809 4.51,5.674 -1.455,-1.865 -2.963,-3.756 -4.51,-5.674 M 153.728,70.609 c 0.701,0.264 1.336,0.515 1.931,0.753 -0.582,-0.224 -1.23,-0.476 -1.931,-0.753 m -9.959,-3.558 c 1.098,0.357 2.13,0.714 3.121,1.058 -0.991,-0.331 -2.036,-0.688 -3.121,-1.058 M 131.602,43.365 c 2.09,2.142 4.179,4.338 6.269,6.573 -2.103,-2.235 -4.192,-4.431 -6.269,-6.573 M 101.753,14.719 c 1.27,1.125 2.54,2.262 3.823,3.452 -1.283,-1.163 -2.553,-2.314 -3.823,-3.452 M 68.598,-12.537 C 77.618,-5.753 87.946,2.526 99.135,12.418 87.933,2.552 77.591,-5.74 68.598,-12.537 m -35.284,-25.247 -4.642,-1.415 -0.37,-0.225 9.389,2.989 c -1.454,-0.45 -2.909,-0.899 -4.377,-1.349" /></g><g
           transform="translate(1385.8007,765.3152)"
           id="g76"><path
             id="path78"
             style="fill:#9a192d;fill-opacity:1;fill-rule:nonzero;stroke:none"
             d="M 0,0 -0.172,-0.674 -0.37,-1.389 C -0.489,-1.799 -0.661,-2.407 -0.899,-3.214 -1.005,-3.571 -1.124,-3.968 -1.243,-4.404 -1.415,-4.933 -1.6,-5.528 -1.799,-6.189 -1.984,-6.771 -2.195,-7.406 -2.407,-8.081 -2.42,-8.107 -2.42,-8.133 -2.42,-8.147 -2.5,-8.398 -2.592,-8.649 -2.672,-8.914 c -0.264,-0.78 -0.542,-1.626 -0.833,-2.512 -0.039,-0.093 -0.066,-0.199 -0.092,-0.291 -0.304,-0.913 -0.635,-1.865 -0.992,-2.884 -0.344,-1.005 -0.727,-2.049 -1.111,-3.147 v -0.013 c -0.45,-1.243 -0.926,-2.539 -1.428,-3.902 -0.516,-1.349 -1.045,-2.764 -1.614,-4.232 -0.291,-0.74 -0.582,-1.481 -0.873,-2.248 -0.608,-1.521 -1.229,-3.095 -1.891,-4.721 -0.33,-0.807 -0.674,-1.64 -1.018,-2.473 v -0.014 c -0.622,-1.481 -1.27,-3.015 -1.931,-4.575 -0.344,-0.781 -0.688,-1.561 -1.032,-2.368 -3.16,-7.207 -6.85,-15.142 -11.135,-23.62 -3.848,-7.578 -8.173,-15.592 -13.013,-23.924 -0.569,-0.978 -1.151,-1.957 -1.733,-2.949 -0.555,-0.926 -1.111,-1.878 -1.679,-2.817 -0.569,-0.952 -1.151,-1.891 -1.72,-2.843 -0.582,-0.952 -1.177,-1.918 -1.772,-2.87 -0.582,-0.939 -1.164,-1.865 -1.746,-2.804 -0.634,-0.992 -1.269,-1.983 -1.904,-2.989 -1.243,-1.93 -2.513,-3.888 -3.809,-5.845 -3.901,-5.885 -8.054,-11.85 -12.458,-17.867 -1.441,-1.957 -2.909,-3.941 -4.43,-5.925 -0.754,-1.005 -1.521,-2.01 -2.288,-3.002 -0.78,-1.005 -1.561,-2.023 -2.354,-3.029 -0.847,-1.084 -1.706,-2.168 -2.579,-3.253 -1.891,-2.354 -3.822,-4.721 -5.806,-7.102 -0.82,-0.978 -1.653,-1.97 -2.486,-2.949 -1.045,-1.23 -2.09,-2.447 -3.148,-3.663 -0.291,-0.344 -0.595,-0.675 -0.886,-1.018 -0.661,-0.754 -1.322,-1.508 -1.997,-2.262 -0.621,-0.701 -1.243,-1.402 -1.878,-2.103 -0.714,-0.793 -1.428,-1.587 -2.142,-2.38 -0.728,-0.794 -1.455,-1.587 -2.182,-2.381 -35.655,-38.564 -85.275,-78.702 -152.432,-107.321 -1.071,-0.45 -2.143,-0.899 -3.214,-1.349 -1.097,-0.463 -2.195,-0.912 -3.293,-1.362 -1.124,-0.463 -2.248,-0.913 -3.372,-1.362 -1.336,-0.529 -2.685,-1.058 -4.034,-1.587 -1.23,-0.476 -2.46,-0.953 -3.69,-1.415 -1.732,-0.662 -3.478,-1.31 -5.224,-1.944 -2.737,-0.992 -5.488,-1.971 -8.265,-2.923 -1.481,-0.516 -2.976,-1.019 -4.47,-1.508 -1.508,-0.502 -3.015,-0.992 -4.523,-1.481 -1.561,-0.503 -3.134,-1.005 -4.721,-1.494 -1.72,-0.529 -3.452,-1.058 -5.185,-1.574 -1.679,-0.503 -3.385,-0.992 -5.091,-1.481 -2.46,-0.715 -4.933,-1.402 -7.433,-2.064 -2.116,-0.581 -4.245,-1.137 -6.387,-1.679 -2.143,-0.542 -4.299,-1.085 -6.467,-1.6 -2.169,-0.529 -4.352,-1.045 -6.547,-1.534 -2.129,-0.49 -4.272,-0.966 -6.427,-1.416 -0.066,-0.026 -0.146,-0.039 -0.212,-0.052 -0.026,0 -0.04,-0.014 -0.066,-0.014 -0.013,-0.013 -0.026,-0.013 -0.04,-0.013 -0.039,0 -0.092,-0.013 -0.185,-0.026 h -0.079 c -4.867,-0.331 -9.628,-0.529 -14.257,-0.622 h -0.066 c -0.635,-0.013 -1.256,-0.026 -1.878,-0.026 -1.455,-0.027 -2.896,-0.04 -4.324,-0.04 h -0.093 c -2.076,0 -4.126,0.026 -6.15,0.066 -0.674,0.013 -1.335,0.027 -1.997,0.053 -0.899,0.013 -1.772,0.053 -2.658,0.079 -1.613,0.066 -3.214,0.133 -4.787,0.225 -0.146,0.013 -0.291,0.013 -0.437,0.027 -0.859,0.039 -1.719,0.092 -2.565,0.158 -8.491,0.556 -16.492,1.495 -24.03,2.725 -0.86,0.132 -1.706,0.277 -2.553,0.436 -0.383,0.053 -0.767,0.119 -1.15,0.198 -0.847,0.146 -1.68,0.305 -2.513,0.463 -0.489,0.093 -0.979,0.185 -1.468,0.291 -0.688,0.133 -1.375,0.265 -2.05,0.41 -0.714,0.146 -1.428,0.291 -2.129,0.45 -0.556,0.119 -1.111,0.251 -1.666,0.37 -0.807,0.172 -1.614,0.357 -2.407,0.556 -0.675,0.158 -1.336,0.317 -1.997,0.489 -3.968,0.965 -7.777,2.037 -11.44,3.161 -2.354,0.727 -4.655,1.481 -6.877,2.248 -0.159,0.053 -0.317,0.106 -0.463,0.159 -0.82,0.291 -1.613,0.582 -2.407,0.873 -0.489,0.158 -0.979,0.343 -1.468,0.542 -0.859,0.304 -1.693,0.635 -2.526,0.952 -0.727,0.278 -1.441,0.569 -2.156,0.86 -0.502,0.198 -0.991,0.396 -1.481,0.608 -0.939,0.384 -1.864,0.767 -2.777,1.177 -1.032,0.436 -2.037,0.886 -3.015,1.336 -1.984,0.886 -3.902,1.798 -5.74,2.724 -0.913,0.45 -1.812,0.913 -2.698,1.362 -1.798,0.939 -3.531,1.878 -5.211,2.817 -0.819,0.476 -1.639,0.939 -2.433,1.415 -0.807,0.463 -1.587,0.926 -2.354,1.402 -0.767,0.463 -1.521,0.926 -2.262,1.402 -0.74,0.463 -1.468,0.926 -2.168,1.389 -0.913,0.595 -1.812,1.19 -2.685,1.798 -3.505,2.394 -6.732,4.814 -9.694,7.195 -0.622,0.489 -1.23,0.992 -1.825,1.494 -0.463,0.384 -0.926,0.78 -1.389,1.164 -0.37,0.317 -0.727,0.621 -1.097,0.939 -1.164,1.005 -2.288,2.01 -3.346,3.002 -2.143,1.97 -4.074,3.875 -5.819,5.687 -0.873,0.912 -1.706,1.798 -2.487,2.658 -0.476,0.529 -0.939,1.058 -1.388,1.56 v 0.014 c -0.556,0.621 -1.072,1.23 -1.561,1.812 -0.926,1.071 -1.746,2.102 -2.486,3.041 -0.265,0.331 -0.516,0.662 -0.754,0.979 -0.185,0.238 -0.37,0.476 -0.529,0.701 -0.569,0.74 -1.058,1.428 -1.494,2.037 -0.186,0.264 -0.358,0.515 -0.529,0.753 -0.238,0.344 -0.45,0.662 -0.635,0.953 -0.106,0.158 -0.212,0.304 -0.291,0.436 -0.053,0.066 -0.093,0.132 -0.119,0.185 -0.04,0.053 -0.08,0.119 -0.106,0.172 -0.093,0.132 -0.172,0.265 -0.238,0.37 -0.066,0.119 -0.132,0.212 -0.185,0.291 l -0.106,0.172 c -0.013,0.027 -0.013,0.04 -0.026,0.053 -0.014,0.013 -0.014,0.027 -0.014,0.027 l -0.489,0.859 0.979,0.119 c 2.407,0.304 4.774,0.622 7.128,0.979 0.913,0.132 1.825,0.264 2.724,0.41 1.217,0.185 2.407,0.383 3.611,0.582 0.992,0.158 1.983,0.33 2.975,0.516 0.741,0.132 1.482,0.264 2.209,0.396 0.793,0.133 1.574,0.291 2.354,0.437 0.833,0.158 1.666,0.317 2.5,0.502 1.124,0.212 2.235,0.437 3.332,0.675 1.23,0.251 2.447,0.516 3.664,0.793 3.927,0.873 7.776,1.812 11.545,2.791 2.619,0.674 5.184,1.375 7.71,2.116 1.27,0.357 2.513,0.727 3.756,1.111 2.46,0.74 4.867,1.507 7.247,2.274 1.389,0.45 2.751,0.913 4.113,1.376 1.23,0.423 2.46,0.859 3.664,1.283 2.341,0.833 4.629,1.679 6.89,2.552 h 0.013 c 32.759,12.511 56.696,27.918 70.926,38.591 0.489,0.37 0.979,0.727 1.442,1.084 1.071,0.807 2.076,1.587 3.028,2.328 1.362,1.071 2.592,2.05 3.69,2.962 1.349,1.111 2.513,2.103 3.491,2.936 0.477,0.41 0.913,0.794 1.296,1.151 0.291,0.264 0.556,0.502 0.794,0.714 0.238,0.211 0.45,0.41 0.635,0.582 l 0.013,0.013 c -2.103,0.357 -4.192,0.727 -6.269,1.111 -4.152,0.767 -8.279,1.587 -12.352,2.46 -1.375,0.291 -2.724,0.582 -4.086,0.886 -1.204,0.264 -2.407,0.529 -3.598,0.807 -1.481,0.33 -2.962,0.674 -4.43,1.031 -5.991,1.428 -11.889,2.949 -17.682,4.55 -2.499,0.7 -4.986,1.415 -7.446,2.129 -2.354,0.687 -4.708,1.388 -7.022,2.116 -1.706,0.529 -3.412,1.058 -5.092,1.6 -0.648,0.198 -1.296,0.41 -1.931,0.621 -1.864,0.609 -3.716,1.217 -5.554,1.839 -1.838,0.608 -3.663,1.216 -5.475,1.865 -1.587,0.555 -3.161,1.11 -4.735,1.666 -3.028,1.084 -6.017,2.182 -8.98,3.293 l -0.013,0.013 c -1.256,0.476 -2.499,0.952 -3.743,1.428 -1.163,0.45 -2.314,0.9 -3.464,1.349 -35.602,13.94 -65.266,29.783 -87.034,42.929 -0.754,0.45 -1.495,0.899 -2.222,1.349 -0.754,0.463 -1.495,0.926 -2.235,1.375 -0.013,0 -0.027,0.013 -0.04,0.027 -1.666,1.018 -3.28,2.023 -4.84,3.015 -1.865,1.164 -3.637,2.301 -5.343,3.412 -0.913,0.595 -1.799,1.177 -2.672,1.746 -0.939,0.608 -1.864,1.216 -2.75,1.812 -1.878,1.243 -3.637,2.433 -5.264,3.557 -0.727,0.489 -1.415,0.979 -2.09,1.455 -0.793,0.542 -1.56,1.084 -2.288,1.6 -0.978,0.688 -1.891,1.336 -2.75,1.957 -0.186,0.133 -0.384,0.265 -0.569,0.41 -2.46,1.773 -4.377,3.214 -5.713,4.232 -0.172,0.133 -0.344,0.265 -0.503,0.384 -0.145,0.106 -0.264,0.212 -0.396,0.304 l -1.733,1.27 0.251,-0.106 4.907,-2.103 0.039,-0.013 0.014,-0.013 13.317,-5.714 c 112.109,-44.7 205.597,-47.001 264.276,-41.063 2.037,0.211 4.06,0.423 6.044,0.661 1.296,0.132 2.566,0.291 3.835,0.45 h 0.053 c 1.005,0.119 1.997,0.251 2.976,0.383 0.992,0.132 1.957,0.265 2.936,0.397 1.362,0.172 2.698,0.37 4.02,0.569 1.336,0.185 2.645,0.383 3.941,0.595 1.296,0.198 2.579,0.396 3.849,0.621 1.283,0.199 2.539,0.41 3.769,0.635 1.164,0.198 2.327,0.41 3.465,0.608 1.283,0.238 2.539,0.477 3.782,0.715 1.164,0.224 2.314,0.449 3.452,0.674 0.317,0.066 0.635,0.132 0.952,0.198 0.847,0.172 1.68,0.344 2.5,0.516 1.124,0.225 2.221,0.463 3.306,0.714 h 0.013 c 1.032,0.225 2.05,0.45 3.055,0.675 2.169,0.489 4.272,0.992 6.308,1.494 0.992,0.238 1.971,0.476 2.936,0.728 2.897,0.727 5.661,1.468 8.253,2.195 0.899,0.238 1.785,0.489 2.645,0.741 0.555,0.158 1.084,0.317 1.613,0.476 0.939,0.264 1.852,0.542 2.751,0.806 1.799,0.543 3.491,1.072 5.092,1.587 0.806,0.265 1.587,0.516 2.34,0.768 0.384,0.118 0.754,0.251 1.125,0.37 1.097,0.357 2.129,0.714 3.121,1.058 0.344,0.132 0.674,0.251 0.992,0.357 0.634,0.225 1.243,0.45 1.838,0.648 l 0.013,0.013 c 0.291,0.106 0.582,0.212 0.873,0.318 1.137,0.423 2.169,0.806 3.121,1.163 0.701,0.265 1.336,0.516 1.931,0.754 l 0.013,0.013 c 0.397,0.159 0.767,0.305 1.111,0.437 0.344,0.145 0.674,0.278 0.965,0.397 -5.845,-6.904 -11.664,-13.437 -17.417,-19.64 -0.807,-0.886 -1.627,-1.759 -2.46,-2.631 -2.103,-2.235 -4.192,-4.431 -6.268,-6.573 -1.072,-1.124 -2.169,-2.235 -3.254,-3.333 -0.978,-1.005 -1.957,-1.997 -2.936,-2.962 -0.238,-0.252 -0.476,-0.476 -0.701,-0.701 -0.582,-0.582 -1.163,-1.164 -1.732,-1.72 -0.212,-0.224 -0.423,-0.423 -0.635,-0.621 -2.328,-2.301 -4.642,-4.536 -6.93,-6.705 -0.661,-0.635 -1.336,-1.27 -1.997,-1.891 -1.322,-1.244 -2.632,-2.473 -3.941,-3.69 -1.309,-1.217 -2.605,-2.42 -3.901,-3.571 -1.283,-1.164 -2.553,-2.314 -3.822,-3.452 h -0.014 c -0.872,-0.78 -1.745,-1.56 -2.605,-2.301 -11.201,-9.866 -21.543,-18.158 -30.537,-24.955 -1.375,-1.045 -2.737,-2.05 -4.06,-3.029 -1.454,-1.058 -2.856,-2.076 -4.218,-3.055 -0.516,-0.37 -1.032,-0.741 -1.534,-1.098 -1.085,-0.78 -2.13,-1.521 -3.148,-2.221 -0.635,-0.437 -1.243,-0.86 -1.852,-1.283 -1.441,-1.005 -2.83,-1.944 -4.152,-2.83 -0.648,-0.437 -1.283,-0.86 -1.905,-1.27 -0.595,-0.397 -1.19,-0.794 -1.772,-1.164 -0.542,-0.357 -1.071,-0.701 -1.587,-1.031 -1.124,-0.728 -2.169,-1.402 -3.147,-2.011 -0.331,-0.211 -0.648,-0.41 -0.966,-0.608 -0.463,-0.291 -0.899,-0.555 -1.309,-0.807 -0.423,-0.264 -0.82,-0.502 -1.19,-0.74 l -0.053,-0.027 -1.164,-0.714 c -2.354,-1.388 -3.663,-2.089 -3.743,-2.142 l -5.779,-3.135 1.653,0.503 -0.37,-0.225 9.39,2.989 c 14.944,4.721 29.201,10.038 42.769,15.83 1.177,0.503 2.328,0.992 3.492,1.495 8.847,3.861 17.404,7.908 25.67,12.127 0.978,0.489 1.957,0.992 2.922,1.508 2.209,1.124 4.391,2.288 6.56,3.451 1.243,0.662 2.486,1.336 3.716,2.024 1.151,0.621 2.301,1.256 3.439,1.904 0.291,0.159 0.582,0.318 0.873,0.476 1.071,0.609 2.142,1.217 3.2,1.825 2.473,1.415 4.92,2.844 7.327,4.285 1.812,1.085 3.61,2.169 5.382,3.254 1.772,1.097 3.531,2.195 5.277,3.293 4.655,2.936 9.191,5.911 13.595,8.913 2.156,1.468 4.285,2.936 6.375,4.404 2.208,1.548 4.391,3.108 6.533,4.669 1.005,0.727 2.01,1.468 3.002,2.195 5.198,3.835 10.21,7.697 15.037,11.546 1.428,1.15 2.856,2.301 4.258,3.451 1.416,1.138 2.804,2.288 4.166,3.439 2.989,2.473 5.885,4.959 8.702,7.419 0.979,0.86 1.944,1.706 2.897,2.566 3.094,2.724 6.096,5.462 8.993,8.16 1.6,1.494 3.174,2.975 4.721,4.443 3.081,2.949 6.057,5.859 8.914,8.729 0.714,0.714 1.415,1.428 2.116,2.142 0.449,0.45 0.886,0.9 1.309,1.336 1.296,1.322 2.566,2.645 3.809,3.941 0.344,0.344 0.674,0.701 0.992,1.045 0.661,0.687 1.309,1.375 1.957,2.063 4.602,4.893 8.953,9.733 13.04,14.442 0.595,0.674 1.177,1.349 1.746,2.023 1.018,1.177 2.023,2.354 3.015,3.518 2.367,2.817 4.655,5.581 6.837,8.292 1.561,1.918 3.055,3.809 4.51,5.673 0.489,0.622 0.965,1.244 1.455,1.865 0.476,0.609 0.939,1.217 1.415,1.825 0.886,1.138 1.745,2.275 2.579,3.386 0.687,0.912 1.362,1.812 2.036,2.711 1.005,1.349 1.971,2.672 2.923,3.968 0.727,1.005 1.442,2.01 2.143,2.975 0.647,0.899 1.282,1.786 1.891,2.658 0.621,0.886 1.23,1.746 1.812,2.592 1.19,1.707 2.327,3.36 3.398,4.96 0.344,0.489 0.675,0.979 0.992,1.468 0.304,0.463 0.609,0.926 0.913,1.375 0.449,0.675 0.886,1.349 1.322,1.997 0.873,1.31 1.693,2.579 2.46,3.796 0.384,0.621 0.767,1.217 1.138,1.798 0.251,0.384 0.489,0.768 0.727,1.151 0.053,0.066 0.092,0.132 0.119,0.198 0.502,0.781 0.965,1.521 1.402,2.249 0.383,0.608 0.753,1.203 1.097,1.785 0.41,0.661 0.794,1.309 1.164,1.931 0.252,0.436 0.503,0.846 0.741,1.256 0.41,0.688 0.78,1.323 1.124,1.918 0.119,0.198 0.225,0.383 0.33,0.569 0.08,0.119 0.146,0.238 0.212,0.357 0.278,0.489 0.542,0.939 0.78,1.362 0.477,0.846 0.9,1.587 1.23,2.208 0.159,0.305 0.318,0.582 0.45,0.82 l 0.013,0.014 c 0.133,0.251 0.252,0.462 0.344,0.648 l 0.013,0.013 c 0.093,0.198 0.185,0.357 0.252,0.489 l 0.41,0.78 9.098,-11.095 z" /></g><g
           transform="translate(1542.8082,914.6125)"
           id="g80"><path
             id="path82"
             style="fill:#d0d2d3;fill-opacity:1;fill-rule:nonzero;stroke:none"
             d="m 0,0 v -35.179 l -35.893,-35.892 -103.882,29.333 -36.409,43.775 v 29.531 l 50.903,3.293 V -5.925 l 73.809,-17.88 V 83.146 l -87.404,18.303 -37.308,49.369 v 117.875 l 36.237,29.783 106.62,-11.202 37.704,-42.598 -0.886,-48.311 -53.389,6.586 v 45.481 l -73.134,8.703 V 146.666 L -35.205,131.311 1.23,73.862 1.243,43.576 C 3.214,30.338 12.458,21.61 14.878,19.533 0.304,4.88 -0.013,0.45 0,0 M 32.044,19.52 C 31.872,19.666 15.394,34.253 12.352,43.1 v 33.843 l -40.283,65.001 -0.159,0.251 -82.802,14.813 v 86.478 l 49.978,-6.242 -1.006,-44.899 77.301,-10.659 1.018,66.164 -42.532,50.031 -116.353,12.55 -44.701,-36.501 V 146.097 l 42.492,-56.431 81.096,-16.479 V -8.848 l -49.33,11.85 v 44.41 l -74.258,-5.145 V -3.848 l 40.006,-47.783 0.132,-0.158 115.005,-32.137 0.37,-0.106 43.682,43.352 v 39.834 l 20.579,19.89 z" /></g><g
           transform="translate(1557.6864,934.1459)"
           id="g84"><path
             id="path86"
             style="fill:#ffffff;fill-opacity:1;fill-rule:nonzero;stroke:none"
             d="m 0,0 c -14.574,-14.653 -14.891,-19.084 -14.878,-19.533 v -35.179 l -35.893,-35.893 -103.883,29.333 -36.408,43.775 v 29.532 l 50.903,3.293 V -25.458 L -66.35,-43.339 V 63.612 l -87.404,18.304 -37.308,49.369 V 249.16 l 36.237,29.782 106.62,-11.201 37.704,-42.598 -0.886,-48.311 -53.389,6.586 v 45.481 l -73.135,8.702 V 127.132 l 87.828,-15.354 36.435,-57.45 0.013,-30.285 C -11.664,10.805 -2.42,2.076 0,0" /></g><g
           transform="translate(1307.4556,912.9197)"
           id="g88"><path
             id="path90"
             style="fill:#d0d2d3;fill-opacity:1;fill-rule:nonzero;stroke:none"
             d="m 0,0 -23.144,-16.756 -112.624,15.42 v 8.768 l 13.053,9.232 v 190.189 l -13.053,10.805 v 6.85 L -23.951,216.481 0,191.869 Z m -18.621,228.568 -128.15,9.073 v -25.776 l 12.153,-10.355 V 22.747 l -13.225,-9.284 v -25.921 l 0.595,-0.066 c 1.019,-0.119 102.177,-11.03 127.291,-16.148 l 0.291,-0.053 30.894,23.567 v 202.052 z" /></g><g
           transform="translate(1276.5884,917.4559)"
           id="g92"><path
             id="path94"
             style="fill:#ffffff;fill-opacity:1;fill-rule:nonzero;stroke:none"
             d="M 0,0 -62.554,8.504 V 199.579 L 0,193.601 Z m 6.917,211.944 -111.818,8.028 v -6.851 l 13.053,-10.804 V 12.127 L -104.901,2.896 V -5.872 L 7.723,-21.292 30.867,-4.536 v 191.869 z" /></g><g
           transform="translate(1265.5851,930.4562)"
           id="g96"><path
             id="path98"
             style="fill:#d0d2d3;fill-opacity:1;fill-rule:nonzero;stroke:none"
             d="M 0,0 -40.098,5.449 V 173.195 L 0,169.492 Z M -51.551,186.579 V -4.497 L 11.003,-13 v 193.601 z" /></g><g
           transform="translate(1265.5851,1099.9482)"
           id="g100"><path
             id="path102"
             style="fill:#000000;fill-opacity:1;fill-rule:nonzero;stroke:none"
             d="m 0,0 v -169.492 l -40.098,5.449 V 3.703 Z" /></g><g
           transform="translate(1129.0631,922.3757)"
           id="g104"><path
             id="path106"
             style="fill:#d0d2d3;fill-opacity:1;fill-rule:nonzero;stroke:none"
             d="m 0,0 v -6.612 l -58.283,3.134 V 4.51 l 12.498,9.112 v 189.911 l -12.498,9.8 v 5.925 L 0,218.266 v -8.768 l -13.344,-7.935 V 12.484 Z m 12.127,204.565 v 26.331 h -82.114 v -23.951 l 13.503,-10.13 V 20.208 l -13.49,-9.535 -0.013,-0.331 c -0.489,-24.202 -0.066,-24.625 0.185,-24.876 l 0.212,-0.199 h 0.277 c 12.578,0.357 80.052,-4.496 80.726,-4.549 l 0.714,-0.053 V 6.348 L -1.719,16.822 v 177.784 z" /></g><g
           transform="translate(1115.719,1123.9384)"
           id="g108"><path
             id="path110"
             style="fill:#ffffff;fill-opacity:1;fill-rule:nonzero;stroke:none"
             d="m 0,0 v -189.078 l 13.344,-12.485 v -6.612 l -58.283,3.134 v 7.988 l 12.498,9.112 V 1.97 l -12.498,9.8 v 5.925 L 13.344,16.703 V 7.935 Z" /></g><g
           transform="translate(1028.4205,927.4012)"
           id="g112"><path
             id="path114"
             style="fill:#d0d2d3;fill-opacity:1;fill-rule:nonzero;stroke:none"
             d="m 0,0 -0.291,-7.287 h -38.987 l -73.148,134.128 V 9.271 l 13.159,-9.787 -0.146,-7.988 -55.254,-3.134 v 7.26 l 13.516,11.149 -1.018,189.594 -13.172,8.438 v 7.922 h 40.085 L -42.902,31.661 v 166.688 l -13.159,9.959 v 7.961 H 0.86 v -8.094 l -14.349,-9.456 V 10.117 Z m 11.863,200.531 v 26.688 h -79.549 v -24.982 l 13.001,-9.284 V 94.255 l -52.583,131.615 h -59.354 v -27.878 l 13,-7.776 V 12.114 l -13,-10.805 V -24.89 l 0.727,0.08 c 0.463,0.039 46.42,4.391 76.944,5.224 l 0.621,0.026 0.529,25.987 -13.675,8.279 v 66.311 l 55.823,-99.929 0.185,-0.33 56.855,-0.344 0.172,0.37 c 0.529,1.045 0.225,17.563 0.079,24.625 L 11.625,5.7 -0.86,16.161 v 176.435 z" /></g><g
           transform="translate(1014.9311,1126.1206)"
           id="g116"><path
             id="path118"
             style="fill:#ffffff;fill-opacity:1;fill-rule:nonzero;stroke:none"
             d="m 0,0 v -188.602 l 13.489,-10.117 -0.29,-7.287 h -38.988 l -73.147,134.128 v -117.571 l 13.158,-9.786 -0.145,-7.988 -55.254,-3.134 v 7.26 l 13.516,11.149 -1.019,189.594 -13.172,8.437 v 7.922 h 40.085 l 72.354,-181.064 V -0.37 l -13.158,9.958 v 7.962 h 56.92 V 9.456 Z" /></g><g
           transform="translate(832.2537,912.113)"
           id="g120"><path
             id="path122"
             style="fill:#d0d2d3;fill-opacity:1;fill-rule:nonzero;stroke:none"
             d="m 0,0 -56.034,-5.938 0.449,8.583 10.316,9.297 V 74.933 L -104.332,68.03 V 5.621 l 10.963,-6.917 v -10.897 l -55.228,-9.403 v 8.755 l 12.075,13 v 193.72 l 24.704,24.704 75.29,5.872 23.356,-19.057 V 17.629 L 0,8.186 Z m -1.547,24.228 v 186.354 l -31.516,25.525 -84.256,-6.851 -0.238,-0.027 -29.995,-29.994 V 3.558 l -12.325,-12.154 v -26.596 l 0.806,0.185 c 17.166,3.994 76.177,13.239 76.772,13.331 l 0.555,0.08 V 5.859 l -11.651,7.088 v 43.934 l 37.347,3.914 V 17.616 l -11.32,-9.284 v -27.27 l -0.027,-0.04 0.04,-0.278 1.309,0.093 c 0,-0.265 -0.172,-0.45 -0.251,-0.489 2.182,1.124 47.134,6.07 76.824,9.112 l 0.582,0.066 v 25.921 z" /></g><g
           transform="translate(787.3149,1002.44)"
           id="g124"><path
             id="path126"
             style="fill:#ffffff;fill-opacity:1;fill-rule:nonzero;stroke:none"
             d="M 0,0 -60.24,-7.591 V 109.067 L 0,114.595 Z m 31.767,-72.698 v 187.769 l -23.356,19.057 -75.29,-5.872 -24.704,-24.704 v -193.72 l -12.075,-13 v -8.755 l 55.228,9.403 v 10.897 l -10.964,6.917 v 62.409 l 59.063,6.903 v -62.991 l -10.315,-9.297 -0.45,-8.583 56.035,5.938 v 8.186 z" /></g><g
           transform="translate(775.6902,1013.2316)"
           id="g128"><path
             id="path130"
             style="fill:#d0d2d3;fill-opacity:1;fill-rule:nonzero;stroke:none"
             d="M 0,0 -36.832,-4.893 V 87.788 L 0,91.372 Z M -48.615,98.275 V -18.383 l 60.24,7.591 v 114.595 z" /></g><g
           transform="translate(775.6902,1104.6035)"
           id="g132"><path
             id="path134"
             style="fill:#000000;fill-opacity:1;fill-rule:nonzero;stroke:none"
             d="m 0,0 v -91.372 l -36.832,-4.893 v 92.681 z" /></g><g
           transform="translate(650.793,1003.3922)"
           id="g136"><path
             id="path138"
             style="fill:#d0d2d3;fill-opacity:1;fill-rule:nonzero;stroke:none"
             d="m 0,0 v -90.367 l -21.451,-25.59 -0.476,0.264 -9.509,5.383 -1.177,0.661 0.846,1.032 18.515,22.549 v 68.108 l -52.476,-21.966 v -50.996 l -1.323,0.754 -11.717,6.625 v 51.486 z" /></g><g
           transform="translate(650.793,1188.8866)"
           id="g140"><path
             id="path142"
             style="fill:#d0d2d3;fill-opacity:1;fill-rule:nonzero;stroke:none"
             d="m 0,0 v -70.331 l -80.223,-30.563 v 70.437 l -52.027,-7.578 1.19,-187.531 -11.4,10.725 -0.344,0.331 c -0.092,-1.759 -0.172,-3.505 -0.238,-5.237 l -0.992,6.599 v 0.331 l -1.031,185.044 76.797,10.488 v -65.332 l 54.726,19.626 V -6.203 L -50.401,24.995 -162.8,12.392 l -35.747,-41.99 1.573,-123.111 c -0.079,-0.582 -1.732,-11.572 -8.94,-16.77 2.301,-1.64 8.332,-6.943 8.94,-17.695 l 2.751,-134.763 33.235,-23.765 26.846,7.498 1.283,0.357 c 0.093,-0.449 0.185,-0.886 0.265,-1.309 1.309,-6.097 2.195,-9.535 2.235,-9.681 l 0.158,-0.621 -31.753,-9.509 -0.264,0.185 -43.947,30.814 -0.013,0.331 -1.68,135.861 c 0.476,15.156 -18.211,19.745 -18.409,19.784 l -1.521,0.357 1.323,0.847 c 18.925,12.074 17.285,23.699 17.258,23.818 l -2.036,121.565 0.158,0.198 42.386,49.157 0.252,0.027 121.842,13.529 z" /></g><g
           transform="translate(881.5566,1200.3658)"
           id="g144"><path
             id="path146"
             style="fill:#d0d2d3;fill-opacity:1;fill-rule:nonzero;stroke:none"
             d="M 0,0 -57.436,-0.992 V 114.33 l -74.431,-2.922 V 20.962 l 14.521,-10.805 V -5.607 l -71.269,-4.312 V 2.354 l 15.698,9.787 -0.014,88.197 c 1.984,9.932 -5.99,19.375 -8.12,21.689 7.287,6.296 7.539,15.355 7.552,15.765 v 93.712 l -15.116,15.116 v 15.275 H -47.2 l 30.14,-26.159 v -77.71 L -55.585,126.828 -15.711,92.906 V 26.027 L 0,13.873 Z M -5.264,32.454 V 99.77 l -31.885,27.534 31.885,26.04 v 87.047 l -37.731,32.785 h -157.073 v -32.335 l 15.367,-15.367 v -84.376 c 0.807,-8.015 -11.492,-19.6 -11.611,-19.719 l -0.675,-0.621 0.807,-0.437 c 4.946,-2.684 8.067,-7.088 9.945,-10.831 1.891,-3.756 2.526,-6.824 2.539,-6.824 V 19.11 l -15.87,-10.977 v -33.049 l 0.992,0.556 c 2.751,1.56 56.868,5.342 92.575,7.511 l 0.622,0.04 v 32.877 l -14.693,10.289 v 75.317 h 51.181 V -14.005 l 81.175,3.425 v 31.211 z" /></g><g
           transform="translate(820.7479,1337.6152)"
           id="g148"><path
             id="path150"
             style="fill:#ffffff;fill-opacity:1;fill-rule:nonzero;stroke:none"
             d="M 0,0 -71.111,-1.151 V 96.067 L 0,97.442 Z m 45.097,-111.223 v 66.879 L 5.224,-10.421 43.748,20.776 v 77.711 l -30.139,26.159 h -141.416 v -15.275 l 15.116,-15.116 V 0.542 c -0.013,-0.41 -0.264,-9.469 -7.551,-15.764 2.129,-2.314 10.104,-11.757 8.12,-21.689 l 0.013,-88.198 -15.698,-9.786 v -12.273 l 71.27,4.311 v 15.764 l -14.521,10.805 v 90.446 l 74.43,2.923 v -115.322 l 57.437,0.992 v 13.873 z" /></g><g
           transform="translate(809.295,1348.6053)"
           id="g152"><path
             id="path154"
             style="fill:#d0d2d3;fill-opacity:1;fill-rule:nonzero;stroke:none"
             d="M 0,0 H -46.631 V 73.2 L 0,74.523 Z m -59.658,85.077 v -97.218 l 71.111,1.151 v 97.442 z" /></g><g
           transform="translate(809.295,1423.1282)"
           id="g156"><path
             id="path158"
             style="fill:#000000;fill-opacity:1;fill-rule:nonzero;stroke:none"
             d="M 0,0 V -74.523 H -46.631 V -1.322 Z" /></g><g
           transform="translate(983.191,1439.0909)"
           id="g160"><path
             id="path162"
             style="fill:#d0d2d3;fill-opacity:1;fill-rule:nonzero;stroke:none"
             d="m 0,0 v -91.808 h 81.03 v -24.334 H 0 v -97.561 h 64.459 v 29.491 l 40.217,8.174 v -60.65 H -57.093 v 11.466 l 15.196,9.786 V -6.123 L -57.093,8.742 V 23.17 h 162.43 c 0.199,0 0.49,-0.053 0.847,-0.463 3.954,-4.602 0.357,-35.165 -1.442,-47.147 L 64.803,-34.583 V 0 Z M 116.46,-35.297 V 34.451 H -68.215 V 2.09 l 15.196,-13.516 v -196.868 l -15.196,-9.787 v -31.938 l 0.688,0.013 c 1.574,0.053 158.238,4.84 183.206,0.013 l 0.781,-0.145 v 88.898 l -63.454,-13.793 v -25.194 H 12.127 v 72.632 h 81.03 v 47.914 H 11.453 v 67.898 h 40.878 v -37.295 z" /></g><g
           transform="translate(1047.9937,1404.5076)"
           id="g164"><path
             id="path166"
             style="fill:#ffffff;fill-opacity:1;fill-rule:nonzero;stroke:none"
             d="m 0,0 v 34.583 h -64.803 v -91.808 h 81.03 v -24.334 h -81.03 v -97.561 h 64.459 v 29.492 l 40.217,8.173 v -60.65 h -161.768 v 11.466 l 15.195,9.787 V 28.46 l -15.195,14.865 v 14.429 h 162.43 c 0.198,0 0.489,-0.053 0.846,-0.463 3.954,-4.603 0.357,-35.166 -1.441,-47.147 z" /></g><g
           transform="translate(1304.9957,1312.0776)"
           id="g168"><path
             id="path170"
             style="fill:#d0d2d3;fill-opacity:1;fill-rule:nonzero;stroke:none"
             d="M 0,0 -0.013,-0.066 V -96.86 l -29.399,-23.646 c -10.911,3.491 -131.285,7.816 -142.394,8.212 v 14.773 l 15.592,10.633 v 211.891 l -15.592,11.479 v 13.86 H -29.492 L 0.661,122.861 V 35.113 C -1.931,25.352 7.34,16.941 10.448,14.442 2.791,11.056 0.119,0.476 0,0 M 26.701,15.011 C 26.543,15.13 10.977,26.662 12.656,34.147 l 0.014,92.721 -36.792,34.411 -0.186,0.186 H -182.691 V 131.444 L -167.72,119.29 V -80.435 l -14.971,-12.378 v -30.14 l 157.63,-9.998 0.264,-0.013 36.567,31.092 v 97.415 c 0.556,1.243 5.502,11.876 14.918,18.396 l 0.754,0.529 z" /></g><g
           transform="translate(1261.7234,1220.6134)"
           id="g172"><path
             id="path174"
             style="fill:#ffffff;fill-opacity:1;fill-rule:nonzero;stroke:none"
             d="M 0,0 -0.688,0.053 C -24.506,1.442 -69.841,4.1 -70.886,4.1 h -0.661 V 213.584 H 0 Z m 43.934,126.577 v 87.748 l -30.153,27.482 h -142.315 v -13.86 l 15.592,-11.48 V 4.576 l -15.592,-10.633 v -14.772 c 11.109,-0.397 131.483,-4.722 142.394,-8.213 l 29.399,23.646 v 96.794 l 0.013,0.066 c 0.119,0.477 2.791,11.057 10.448,14.442 -3.108,2.5 -12.378,10.911 -9.786,20.671" /></g><g
           transform="translate(1250.4424,1233.6664)"
           id="g176"><path
             id="path178"
             style="fill:#d0d2d3;fill-opacity:1;fill-rule:nonzero;stroke:none"
             d="M 0,0 -48.813,2.46 V 190.097 H 0 Z M -60.266,200.531 V -8.953 h 0.661 c 1.045,0 46.38,-2.658 70.198,-4.047 l 0.688,-0.053 v 213.584 z" /></g><g
           transform="translate(1250.4424,1423.7632)"
           id="g180"><path
             id="path182"
             style="fill:#000000;fill-opacity:1;fill-rule:nonzero;stroke:none"
             d="m 0,0 v -190.097 l -48.813,2.46 V 0 Z" /></g><g
           transform="translate(798.9531,698.4362)"
           id="g184"><path
             id="path186"
             style="fill:#d0d2d3;fill-opacity:1;fill-rule:nonzero;stroke:none"
             d="M 0,0 -0.079,-0.079 -0.093,-0.066 -0.013,0 Z" /></g><g
           transform="translate(829.8203,720.0723)"
           id="g188"><path
             id="path190"
             style="fill:#d0d2d3;fill-opacity:1;fill-rule:nonzero;stroke:none"
             d="m 0,0 c -0.952,-0.542 -1.904,-1.084 -2.843,-1.627 0.727,0.424 1.441,0.847 2.195,1.27 C -0.436,-0.238 -0.225,-0.119 0,0" /></g><g
           transform="translate(849.0759,729.9515)"
           id="g192"><path
             id="path194"
             style="fill:#d0d2d3;fill-opacity:1;fill-rule:nonzero;stroke:none"
             d="M 0,0 C -2.843,-1.336 -5.621,-2.698 -8.358,-4.073 -5.66,-2.698 -2.87,-1.336 0,0" /></g><g
           transform="translate(868.358,528.4548)"
           id="g196"><path
             id="path198"
             style="fill:#d0d2d3;fill-opacity:1;fill-rule:nonzero;stroke:none"
             d="M 0,0 -0.555,0.846 -0.489,0.86 Z" /></g><g
           transform="translate(885.1141,745.0015)"
           id="g200"><path
             id="path202"
             style="fill:#d0d2d3;fill-opacity:1;fill-rule:nonzero;stroke:none"
             d="M 0,0 C -3.134,-1.177 -6.242,-2.367 -9.324,-3.571 -6.282,-2.367 -3.174,-1.177 0,0" /></g><g
           transform="translate(924.1809,758.2265)"
           id="g204"><path
             id="path206"
             style="fill:#d0d2d3;fill-opacity:1;fill-rule:nonzero;stroke:none"
             d="m 0,0 c -3.478,-1.084 -6.97,-2.182 -10.448,-3.306 1.257,0.41 2.5,0.82 3.769,1.217 C -4.351,-1.349 -2.143,-0.648 0,0" /></g><g
           transform="translate(932.6052,760.779)"
           id="g208"><path
             id="path210"
             style="fill:#d0d2d3;fill-opacity:1;fill-rule:nonzero;stroke:none"
             d="m 0,0 c -2.169,-0.661 -4.338,-1.309 -6.52,-1.971 0.635,0.199 1.27,0.384 1.891,0.582 l 1.706,0.516 C -1.957,-0.582 -0.979,-0.291 0,0" /></g><g
           transform="translate(953.1967,469.696)"
           id="g212"><path
             id="path214"
             style="fill:#d0d2d3;fill-opacity:1;fill-rule:nonzero;stroke:none"
             d="M 0,0 C -2.354,0.714 -4.655,1.468 -6.877,2.248 -4.655,1.481 -2.354,0.727 0,0" /></g><g
           transform="translate(955.2333,767.2064)"
           id="g216"><path
             id="path218"
             style="fill:#d0d2d3;fill-opacity:1;fill-rule:nonzero;stroke:none"
             d="m 0,0 c -1.111,-0.304 -2.235,-0.622 -3.372,-0.926 0.648,0.185 1.296,0.371 1.944,0.542 z" /></g><g
           transform="translate(994.8819,777.2177)"
           id="g220"><path
             id="path222"
             style="fill:#d0d2d3;fill-opacity:1;fill-rule:nonzero;stroke:none"
             d="m 0,0 c -0.754,-0.185 -1.521,-0.37 -2.288,-0.542 l 0.635,0.158 C -1.098,-0.251 -0.542,-0.132 0,0" /></g><g
           transform="translate(1029.5975,598.5872)"
           id="g224"><path
             id="path226"
             style="fill:#d0d2d3;fill-opacity:1;fill-rule:nonzero;stroke:none"
             d="M 0,0 -0.013,-0.013 C -2.103,0.344 -4.192,0.714 -6.269,1.111 -4.192,0.727 -2.103,0.357 0,0" /></g><g
           transform="translate(1044.5551,787.7712)"
           id="g228"><path
             id="path230"
             style="fill:#d0d2d3;fill-opacity:1;fill-rule:nonzero;stroke:none"
             d="m 0,0 c -0.317,-0.066 -0.635,-0.119 -0.965,-0.185 0.211,0.04 0.423,0.092 0.634,0.132 C -0.212,-0.026 -0.106,-0.013 0,0" /></g><g
           transform="translate(1049.3558,789.8079)"
           id="g232"><path
             id="path234"
             style="fill:#d0d2d3;fill-opacity:1;fill-rule:nonzero;stroke:none"
             d="m 0,0 c 1.455,-0.119 2.909,-0.238 4.364,-0.37 0.132,0 0.291,-0.013 0.463,-0.013 z m -293.384,-23.805 c 0.357,0.304 0.74,0.622 1.177,0.952 -0.437,-0.317 -0.82,-0.635 -1.177,-0.952 M -370.38,-194.13 c 17.166,-4.973 39.304,-9.416 60.875,-8.107 -21.531,-1.257 -43.696,3.2 -60.875,8.107 m 40.389,6.573 c 3.61,-1.812 7.022,-3.426 10.196,-4.828 -3.174,1.416 -6.586,3.029 -10.196,4.828 m -20.816,214.761 c 3.002,-0.965 6.044,-1.905 9.138,-2.817 -3.094,0.926 -6.136,1.865 -9.138,2.817 m -38.446,-215.118 c 1.098,-0.41 2.249,-0.834 3.452,-1.257 -1.203,0.437 -2.354,0.86 -3.452,1.257 m -14.772,6.057 -0.039,0.013 1.375,-1.905 z m -94.479,289.099 -0.014,0.013 0.146,-1.64 z M -5.131,-2.089 c -0.212,-0.04 -0.424,-0.093 -0.635,-0.133 0.33,0.066 0.648,0.119 0.965,0.185 -0.105,-0.013 -0.211,-0.026 -0.33,-0.052 M -26.027,-190.11 c 2.076,-0.397 4.166,-0.767 6.256,-1.124 l 0.013,0.013 c -2.103,0.357 -4.193,0.728 -6.269,1.111 m 3.531,-3.571 c 0.476,0.41 0.913,0.794 1.296,1.151 -0.383,-0.344 -0.82,-0.727 -1.296,-1.151 m -31.171,181.276 c 0.198,0.04 0.41,0.092 0.608,0.132 l 0.132,0.04 c -0.238,-0.066 -0.489,-0.119 -0.74,-0.172 m -2.46,-0.569 -0.635,-0.158 c 0.767,0.171 1.534,0.357 2.288,0.542 -0.542,-0.132 -1.098,-0.251 -1.653,-0.384 m -48.946,-228.608 c 32.758,12.511 56.696,27.918 70.926,38.591 -14.243,-10.606 -38.207,-26.027 -70.926,-38.591 m 9.522,218.597 c -0.648,-0.172 -1.296,-0.357 -1.944,-0.542 1.137,0.304 2.261,0.621 3.372,0.925 z m -7.485,-294.879 c 2.222,-0.78 4.523,-1.534 6.877,-2.248 -2.354,0.727 -4.655,1.481 -6.877,2.248 m -8.94,73.73 c 2.341,0.833 4.628,1.68 6.89,2.552 -2.248,-0.859 -4.549,-1.719 -6.89,-2.552 m -7.697,214.232 -1.706,-0.516 c -0.622,-0.198 -1.257,-0.383 -1.892,-0.581 2.183,0.661 4.352,1.309 6.52,1.97 -0.978,-0.291 -1.957,-0.582 -2.922,-0.873 m -12.181,-3.769 c -1.269,-0.397 -2.512,-0.807 -3.769,-1.217 3.478,1.125 6.97,2.222 10.448,3.307 -2.142,-0.648 -4.351,-1.349 -6.679,-2.09 m -6.612,-218.623 c 2.618,0.675 5.184,1.375 7.71,2.116 -2.539,-0.727 -5.105,-1.428 -7.71,-2.116 m -35.099,203.917 c 3.081,1.203 6.189,2.394 9.323,3.571 -3.174,-1.177 -6.282,-2.368 -9.323,-3.571 m -7.922,-212.116 -0.066,-0.014 0.555,-0.846 z m -27.151,196.563 c 2.737,1.376 5.515,2.738 8.358,4.074 -2.87,-1.336 -5.66,-2.698 -8.358,-4.074 m -11.546,-6.163 c -0.753,-0.423 -1.468,-0.846 -2.195,-1.269 0.939,0.542 1.891,1.084 2.843,1.626 -0.224,-0.119 -0.436,-0.238 -0.648,-0.357 m -30.219,-21.279 h -0.013 l -0.079,-0.066 0.013,-0.013 0.397,-0.159 z" /></g></g></g></g></svg>