<svg xmlns="http://www.w3.org/2000/svg" xml:space="preserve" width="160.60001" height="71.900002" viewBox="0 0 42.492084 19.023542"><path d="m4.045 0 .651 1.852-3.015 8.49h3.724L8.35 1.996c.064-.318.16-.58.164-1.037-.05-.546-.408-.82-.79-.96Z" style="display:inline;fill:#34cff3;fill-opacity:1;stroke:none;stroke-width:.962001;stroke-opacity:1"/><path d="M8.787 0c.348.099.61.169.93.325.317.156.691.408.945.624.227.194.541.495.707.725.146.202.216.304.256.517.046.242-.348.984-.553 1.362-.125.23-.586.922-.79 1.278h2.802l1.12 2.715-.955.006-1.394 3.802L1.3 11.352 0 15.112h14.204l2.74-7.56-1.096-3.03L17.438 0Z" style="display:inline;fill:#34cff3;fill-opacity:1;stroke:none;stroke-width:.962001;stroke-opacity:1"/><path d="m19.342 0 .705 1.836-4.668 13.274 14.196-.008-1.645-4.885-1.289 1.185h-6.288L24.45.011z" style="fill:#34cff3;fill-opacity:1;stroke:none;stroke-width:.962001;stroke-opacity:1"/><path d="m25.468 0 1.343 3.702h11.614L37.143 0Z" style="display:inline;fill:#fa7298;fill-opacity:1;stroke:none;stroke-width:.962001;stroke-opacity:1"/><path d="m27.194 4.827 3.589 10.277h11.692l-2.843-7.95-5.005.023 1.936 1.753.876 2.532-4.128.002-2.397-6.643zM6.224 16.615H5.25l.254.255-.002 2.154h2.086l.24-.249-.001-.894-.121-.126.127-.131v-1.01l-1.379.001.001.356h.63l.006.532h-.864zm-.01 1.294h.88v.703h-.88ZM8.013 16.615l.242.248.006 2.161h.754l-.002-2.41z" style="fill:#34cff3;fill-opacity:1;stroke:none;stroke-width:.962001;stroke-opacity:1"/><path d="m9.175 16.62.246.242.017 2.16 2.182.002.003-.432-1.412-.003-.012-1.97z" style="display:inline;fill:#34cff3;fill-opacity:1;stroke:none;stroke-width:.962001;stroke-opacity:1"/><path d="m22.192 16.618.256.235.001 2.17h2.3l-.002-1.325-1.129.002.418.42v.498h-.924l-.004-1.612.89-.004.003.27h.748v-.654zM25.352 16.615l.25.25-.671 2.159h.66l.177-.648.732.004-.1-.442-.483-.002.264-.935h.265l.442 2.023h.693l-.579-2.409zM27.485 16.615l.247.245v2.164h.676l.01-1.135.388.96.61-.002.438-.969.003 1.145h.695l-.001-2.409-.813.001-.645 1.49-.57-1.496zM32.007 16.616l.232.237-.005 2.17h.66l-.002-1.46.893 1.46h.848l-.003-2.412h-.663l-.005 1.552-.985-1.55zM11.684 16.615l.242.248.006 2.161h.755l-.003-2.41zM13.885 16.615h-.972l.253.255-.002 2.154h2.086l.24-.249v-.894l-.122-.126.127-.131v-1.01l-1.378.001v.356h.631l.005.532h-.864zm-.01 1.294h.88v.703h-.88zM15.674 16.615l.242.248.006 2.161h.755l-.002-2.41z" style="fill:#34cff3;fill-opacity:1;stroke:none;stroke-width:.962001;stroke-opacity:1"/><path d="m16.836 16.62.247.242.016 2.16 2.182.002.003-.432-1.412-.003-.011-1.97z" style="display:inline;fill:#34cff3;fill-opacity:1;stroke:none;stroke-width:.962001;stroke-opacity:1"/><path d="m19.345 16.615.242.248.006 2.161h.755l-.002-2.41zM30.784 16.612l.242.248.007 2.161h.754l-.002-2.41z" style="fill:#34cff3;fill-opacity:1;stroke:none;stroke-width:.962001;stroke-opacity:1"/><path d="m34.845 16.617.002 2.407h2.307l-.002-1.327-1.14.002.423.417.002.496-.926.002.002-1.607.884-.004-.002.483.757-.001.002-.87z" style="display:inline;fill:#34cff3;fill-opacity:1;stroke:none;stroke-width:.962001;stroke-opacity:1"/></svg>