<svg xmlns="http://www.w3.org/2000/svg" xmlns:xlink="http://www.w3.org/1999/xlink" width="48.645092mm" height="34.983597mm" viewBox="0 0 48.645092 34.983597"><defs><linearGradient xlink:href="#a" id="b" x1="-350.13" x2="-157.25" y1="532.72998" y2="532.72998"/><linearGradient id="a"><stop offset="0" stop-color="#00aaec"/><stop offset="1" stop-color="#00AEEE"/></linearGradient></defs><path fill="url(#b)" d="M-151 79.842c3.597-2.765 9.193-2.655 12.602.377 2.319 2.031 3.325 5.297 2.925 8.31-.312 1.814-1.135 3.487-1.972 5.109-1.433 2.621-2.864 5.246-4.307 7.863 2.72 1.51 5.435 3.03 8.152 4.543.67.388 1.388.697 2.135.903 1.287.364 2.78.024 3.714-.954 1.393-1.397 1.412-3.911.037-5.325-1.268-1.372-3.492-1.443-5.065-.593-1.225.716-1.659 2.206-1.728 3.54-1.71-.94-3.433-1.847-5.149-2.775.602-2.653 2.47-4.946 4.92-6.115 3.82-1.847 8.9-.992 11.657 2.32 2.938 3.571 2.882 9.32-.21 12.78-1.719 1.96-4.335 2.995-6.915 3.005-2.141.09-4.127-.864-6.007-1.773-7.076-3.816-14.09-7.747-21.143-11.61-1.065-.52-2.27-.981-3.472-.711-1.24.21-2.302 1.147-2.725 2.324-.484 1.377-.205 3.052.861 4.088 1.26 1.267 3.36 1.341 4.892.559 1.29-.68 1.743-2.214 1.823-3.572 1.716.922 3.442 1.826 5.142 2.775-.866 4.028-4.765 7.06-8.861 7.046-2.49.106-5.044-.71-6.892-2.406-4.178-3.764-3.942-11.325.565-14.74 2.64-2.004 6.377-2.499 9.427-1.174 3.42 1.391 6.502 3.468 9.823 5.067 1.597-2.859 3.2-5.714 4.793-8.574.596-1.174 1.09-2.54.687-3.857-.444-1.737-2.3-2.865-4.05-2.632-1.618.106-3.074 1.404-3.309 3.02-.165 1.229.006 2.618.885 3.56.806.845 2.008 1.116 3.132 1.2-.935 1.71-1.821 3.451-2.793 5.141-3.636-.82-6.517-4.064-6.957-7.755-.47-3.298.702-6.892 3.384-8.964" style="fill:url(#b)" transform="translate(169.567 -77.853)"/></svg>