<svg xmlns="http://www.w3.org/2000/svg" xml:space="preserve" x="0px" y="0px" viewBox="0 0 386 167"><path fill="#FFF" d="M385.736 21.77v82.424c-.061.225-.146.446-.179.675-1.131 7.86-7.888 13.993-15.719 14.307-3.769.151-7.534.376-11.301.57-13.378.689-26.756 1.385-40.134 2.068-12.667.647-25.335 1.285-38.003 1.918-9.285.464-18.568.961-27.856 1.356-8.042.342-16.087.607-24.133.826-7.72.21-15.442.324-23.163.465-1.495.027-2.362-.95-2.168-2.4.537-4.02 1.084-8.039 1.638-12.057.21-1.524.871-2.172 2.398-2.268 10.11-.639 20.182-1.661 30.209-3.123 2.788-.406 5.625-.689 8.325-1.445 6.804-1.907 11.222-7.645 11.228-14.3a21055.4 21055.4 0 0 0-.016-55.634c-.002-1.306-.129-2.672-.517-3.907-1.957-6.232-6.4-9.827-12.582-10.86-7.435-1.242-14.943-2.059-22.436-2.914-4.718-.539-9.467-.802-14.201-1.207-1.596-.136-2.195-.736-2.416-2.346a5371.14 5371.14 0 0 1-1.624-11.968c-.196-1.455.597-2.395 2.047-2.372 8.286.134 16.576.161 24.856.453 15.138.533 30.273 1.18 45.406 1.863 12.7.574 25.396 1.26 38.092 1.911 10.916.56 21.83 1.141 32.745 1.709 7.979.416 15.96.78 23.936 1.252 6.932.41 12.75 5.081 14.809 11.777.323 1.053.509 2.15.759 3.227zM97.647 2.385C114.949 1.65 132.249.836 149.555.211c10.181-.368 20.372-.41 30.558-.664 1.7-.042 2.441 1.164 2.238 2.568-.575 3.985-1.092 7.978-1.645 11.965-.196 1.418-.847 2.047-2.289 2.169-4.143.35-8.301.558-12.429 1.033-8.083.929-16.179 1.807-24.213 3.077-6.049.956-10.456 4.428-12.557 10.433a12.054 12.054 0 0 0-.648 3.885c-.039 18.906-.075 37.813.009 56.719.023 5.085 2.674 8.857 6.741 11.652 2.701 1.857 5.784 2.568 8.974 2.96 6.335.778 12.659 1.667 19.002 2.373 4.574.509 9.172.799 13.759 1.184.533.045 1.069.054 1.599.119 1.149.141 1.858.786 2.021 1.944.578 4.106 1.145 8.213 1.674 12.325.199 1.548-.655 2.461-2.224 2.424-11.76-.273-23.521-.498-35.278-.863-9.262-.288-18.522-.703-27.778-1.153-15.844-.769-31.684-1.612-47.527-2.42-11.392-.581-22.784-1.152-34.176-1.735-6.734-.345-13.474-.595-20.198-1.081-9.93-.718-15.472-9.319-15.431-16.679.114-20.349.039-40.698.039-61.048 0-5.891.141-11.787-.034-17.673-.243-8.162 6.182-16.473 15.68-16.981 7.771-.416 15.543-.808 23.315-1.213 8.81-.459 17.619-.929 26.429-1.381 10.828-.555 21.658-1.095 32.486-1.641a5.138 5.138 0 0 1-.005-.124zm104.324 161.108c0 .215.066.339.188.339a.564.564 0 0 0 .266-.113l34.55-22.879a3.282 3.282 0 0 1 1.995-.611h7.593c1.164 0 1.951.792 1.951 1.979v14.793c0 1.787-.388 2.827-1.94 3.777l-9.211 5.655a.618.618 0 0 1-.31.113c-.111 0-.222-.091-.222-.419V148.87c0-.204-.055-.339-.188-.339a.52.52 0 0 0-.266.113l-25.25 16.738a3.33 3.33 0 0 1-1.94.599H192.45c-1.175 0-1.951-.792-1.951-1.99v-21.319c0-.158-.066-.305-.2-.305a.545.545 0 0 0-.266.113l-16.66 10.201c-.166.113-.21.192-.21.271 0 .068.033.136.144.26l11.905 12.135c.155.158.266.283.266.418 0 .113-.177.204-.388.204h-10.752c-.842 0-1.496-.124-1.951-.588l-7.216-7.351a.31.31 0 0 0-.221-.113.473.473 0 0 0-.222.068l-12.059 7.397c-.732.452-1.23.577-1.951.577h-11.095c-1.186.011-1.962-.792-1.962-1.979v-14.51c0-1.798.388-2.828 1.951-3.778l9.267-5.677a.462.462 0 0 1 .244-.079c.144 0 .222.147.222.475v19.43c0 .204.044.294.188.294a.649.649 0 0 0 .277-.113l31.302-19.215a3.342 3.342 0 0 1 2.062-.588h16.848c1.164 0 1.951.792 1.951 1.979l-.011 21.296h.009v-.001z"/></svg>