<?xml version="1.0" encoding="utf-8"?>
<!-- Generator: Adobe Illustrator 26.0.3, SVG Export Plug-In . SVG Version: 6.00 Build 0)  -->
<svg version="1.0" id="Layer_1" xmlns="http://www.w3.org/2000/svg" xmlns:xlink="http://www.w3.org/1999/xlink" x="0px" y="0px"
	 viewBox="0 0 1129.6 853.2" style="enable-background:new 0 0 1129.6 853.2;" xml:space="preserve">
<style type="text/css">
	.st0{fill:#FF5900;}
</style>
<g id="Logo_00000061468687347456763520000007494300687963542686_">
	<g id="XMLID_00000010280947182915751780000002392431333390922376_">
		<g>
			<path class="st0" d="M1049.4,173.1l-97.2,110.4c-73.5-15.8-144.4-28.9-218-34.2c34.2,134,107.7,252.2,218,333.6v155
				c-183.8-107.7-312.6-286.3-352-496.5c-7.9-42-10.5-84-10.5-128.7c42,0,86.7,2.6,128.7,5.3C831.4,125.8,939.1,144.2,1049.4,173.1z
				"/>
			<polygon class="st0" points="623.9,462.1 623.9,606.6 505.7,740.5 505.7,462.1 			"/>
			<path class="st0" d="M539.8,112.7c0,42-2.6,86.7-13.1,128.7c-39.4,210.2-168.2,394.1-352,496.5v-155
				c107.7-81.4,183.8-199.6,218-333.6c-73.6,5.3-144.5,18.4-218,34.2L80.1,173.1c110.3-26.3,218-47.3,331-55.1
				C453.1,115.3,495.1,112.7,539.8,112.7z"/>
		</g>
	</g>
</g>
</svg>
