<svg xmlns="http://www.w3.org/2000/svg" xml:space="preserve" id="Layer_1" x="0px" y="0px" style="enable-background:new 0 0 1080 1080" version="1.1" viewBox="0 0 1080 1080"><style>.st1{fill:#febe10}</style><path d="M945.44 469.17c31.04 4.98 51.35-6.07 51.35-6.07s-22.56 3.65-46.88-.14c-14.12-2.2-24.58-5.77-30.89-8.38 7.8 1.54 19.16 2.44 35.2.97 34.75-3.17 44.41-29.04 44.41-29.04s-23.11 5.75-45.08 4.49c-15.92-.92-29.25-4.91-35.39-7.05-.15-.22-.31-.42-.49-.61 6.94 1.13 17.23 2.01 31.45 1.35 28.71-1.34 46.71-17.21 46.71-17.21s-20.82 7.88-43.14 10.29c-14.8 1.6-28.18-.11-35.52-1.45 8.79.86 24.51 1.03 43.62-4.82 29.17-8.93 36.09-37.28 36.09-37.28s-21.91 10.62-48.1 15.77c-19.81 3.89-34.51 4.27-41.75 4.12 8.41-.87 22.23-3.69 39.5-12.33 34.58-17.29 42.37-35.65 42.37-35.65s-17.24 13.89-39.94 26.05c-17.52 9.38-33.9 13.62-39.58 14.91 9.36-3.74 24.01-10.88 39.05-23.33 33.41-27.65 29.27-61.47 29.27-61.47s-12.6 18.56-41.56 38.78c-20.97 14.65-36.86 20.81-44.04 23.09.03-.15.05-.3.08-.45 6.27-2.71 19.3-9.45 38.43-24.78 34.12-27.34 39.35-56.27 39.35-56.27s-18.46 26.57-35.34 43.24c-14.6 14.43-38.46 27.3-44.64 30.51-.02-.01-.04-.03-.06-.04 9.7-5.24 23.82-15.66 40.72-36.42 30.77-37.83 17.2-78.13 17.2-78.13s-.75 23.06-29.51 57.46c-16.96 20.28-33.06 33.91-41.63 40.55-.01-.23-.02-.47-.04-.71 7.89-8.37 20.26-22.78 31.03-40.92 27.98-47.17 23.07-76.44 23.07-76.44s-5.48 30.18-23.68 61.97c-10.44 18.22-24.92 35.84-34.22 46.4-.16-.14-.32-.27-.47-.37 9.1-11.28 21.79-28.85 28.22-46.02 21.16-56.4 5.41-88.35 5.41-88.35s-14.84 40.84-28.5 71.87c-7.14 16.22-16.29 31.6-23.95 43.29l-.01-.01c6.62-12.22 14.84-28.8 21.58-46.76 15.04-40.14 9.47-83.48 9.47-83.48s.53 28.66-9.7 64.44c-7.72 27.01-22.21 53.24-31.47 68.39 0-.07 0-.14-.01-.21 8.22-15.84 18.65-40.06 22.53-66.83 7.98-55.14-20.13-73-20.13-73s3.52 27.84-4.83 70.5c-4.89 25.01-13.62 43.83-20 55.13-4.34-7.51-12.43-9.62-12.43-9.62s3.14 5.19 2.46 17.87c-.57 10.64-8.1 23.85-13.06 46.9-4.97 23.05 4.44 38.43 20.93 40.99 11.22 1.75 17.35-6.1 24.11-4.25 9.62 2.62 16.74 11.01 23.33 29.57 6.59 18.56 1.52 40.81-7.06 56.04-8.58 15.22-29.44 34.02-46.73 39.43-17.29 5.42-27.11 6.05-46.11 1.17-10.21-2.62-27.98-6.55-35.67-3.17-.76.33-1.42.87-2.01 1.53-5.11-3.85-9.56-4.75-11.85-9.1-2.77-5.25 5.01-19.29 7.03-22.36 1.79-2.7.48-4.57-1.39-4.42-.08-.01-.19.01-.32.04-.03.01-.05.01-.08.02-.05.01-.09.03-.15.04-.3.08-.61.21-.92.4-.01 0-.01.01-.02.01.27-.2.43-.3.43-.31-.02-.09-.89.21-2 1.2-1.54.94-3.17 2.1-3.71 2.66-3.45 3.66-6.22 8.83-10.52 16.22-1.24 2.13-2.9 3.84-4.62 5.21-.93.47-1.78.85-2.49 1.13-2.5-4.54-5.16-8.7-9.01-9.11-4.78-1.73-10.5 1.45-18.32 6.45 0 0-43.5 28.01-59.75 38.39-5.45 3.48-9.61 8.35-10.19 9-1.8 2-3.6 6.07-4.15 9.8a12.8 12.8 0 0 0-.42 2.1L540 598.5l-56.3-35.94c-.08-.73-.22-1.43-.42-2.1-.55-3.73-2.35-7.79-4.15-9.8-.58-.65-4.75-5.52-10.19-9-16.25-10.38-59.75-38.39-59.75-38.39-7.82-4.99-13.54-8.18-18.32-6.45-3.85.41-6.5 4.56-9.01 9.11-.71-.28-1.56-.66-2.49-1.13-1.73-1.37-3.38-3.08-4.62-5.21-4.3-7.4-7.07-12.56-10.52-16.22-.53-.57-2.16-1.73-3.71-2.66-1.12-.99-1.99-1.29-2-1.2 0 .01.16.11.43.31-.01 0-.01-.01-.02-.01-.31-.19-.62-.32-.92-.4-.05-.02-.1-.03-.15-.04-.03-.01-.05-.02-.08-.02-.13-.03-.24-.05-.32-.04-1.87-.15-3.18 1.72-1.39 4.42 2.02 3.06 9.8 17.11 7.03 22.36-2.29 4.34-6.74 5.25-11.85 9.1-.59-.66-1.25-1.2-2.01-1.53-7.68-3.38-25.46.55-35.67 3.17-19 4.87-28.81 4.24-46.11-1.17-17.3-5.42-38.15-24.21-46.73-39.43-8.58-15.22-13.65-37.48-7.06-56.04 6.59-18.56 13.71-26.95 23.33-29.57 6.76-1.85 12.89 6 24.11 4.25 16.48-2.56 25.9-17.94 20.93-40.99-4.96-23.05-12.49-36.26-13.06-46.9-.69-12.68 2.46-17.87 2.46-17.87s-8.09 2.12-12.43 9.62c-6.39-11.3-15.11-30.12-20-55.13-8.35-42.67-4.83-70.5-4.83-70.5s-28.11 17.86-20.13 73c3.87 26.77 14.3 50.99 22.53 66.83 0 .07 0 .14-.01.21-9.26-15.15-23.75-41.38-31.47-68.39-10.24-35.78-9.7-64.44-9.7-64.44s-5.57 43.34 9.47 83.48c6.73 17.96 14.95 34.54 21.58 46.76l-.01.01c-7.65-11.7-16.8-27.07-23.94-43.29-13.66-31.03-28.5-71.87-28.5-71.87s-15.74 31.95 5.41 88.35c6.43 17.16 19.12 34.73 28.22 46.02-.15.11-.31.23-.47.37-9.3-10.56-23.78-28.18-34.22-46.4-18.2-31.79-23.68-61.97-23.68-61.97s-4.91 29.27 23.07 76.44c10.76 18.14 23.14 32.55 31.03 40.92-.02.24-.03.48-.04.71-8.57-6.64-24.67-20.27-41.63-40.55-28.76-34.4-29.51-57.46-29.51-57.46s-13.57 40.3 17.2 78.13c16.9 20.76 31.02 31.18 40.72 36.42-.02.01-.04.03-.06.04-6.17-3.21-30.03-16.08-44.64-30.51-16.88-16.67-35.34-43.24-35.34-43.24s5.23 28.93 39.35 56.27c19.13 15.33 32.17 22.07 38.43 24.78.03.15.05.3.08.45-7.17-2.29-23.06-8.44-44.04-23.09-28.96-20.23-41.56-38.78-41.56-38.78s-4.13 33.82 29.27 61.47c15.04 12.45 29.69 19.59 39.05 23.33-5.68-1.29-22.06-5.53-39.58-14.91-22.7-12.16-39.94-26.05-39.94-26.05s7.78 18.35 42.37 35.65c17.26 8.64 31.09 11.46 39.5 12.33-7.24.14-21.94-.23-41.75-4.12-26.2-5.15-48.1-15.77-48.1-15.77s6.92 28.34 36.09 37.28c19.11 5.86 34.82 5.69 43.62 4.82-7.33 1.34-20.71 3.05-35.52 1.45-22.32-2.41-43.14-10.29-43.14-10.29s18 15.87 46.71 17.21c14.22.67 24.51-.22 31.45-1.35-.18.19-.35.39-.49.61-6.15 2.13-19.48 6.13-35.39 7.05-21.98 1.26-45.08-4.49-45.08-4.49s9.66 25.87 44.41 29.04c16.05 1.47 27.4.58 35.2-.97-6.31 2.61-16.77 6.18-30.89 8.38-24.31 3.8-46.88.14-46.88.14s20.3 11.06 51.35 6.07c19.09-3.06 30.37-7.5 36.57-10.78.13.03.25.07.37.09-6.04 3.89-20.51 12.52-38.3 18.2-23.57 7.53-42.51 7.15-42.51 7.15s8.57 18.46 49.11 11.05c14.5-2.65 25.34-6.67 32.59-10.05.11.18.23.36.38.54-7.06 4.23-20.12 11.34-33.67 15.08C119 505.99 99.76 508 99.76 508s11.68 6.73 38.43-.4c18.66-4.97 33.22-12.61 41.43-17.58-5.11 4.61-16.32 13.69-33.09 21.87-23.68 11.55-39.84 14.77-39.84 14.77s15.94 17.77 47.43 5.18c16.21-6.48 26.5-13.7 32.69-19.19.08.05.18.08.26.13-3.22 4.63-10.21 13.04-22.67 20.76-18.41 11.41-34.43 16.66-34.43 16.66s11.25 4.36 34.12-7.81a136.047 136.047 0 0 0 27.92-19.7c.05.14.11.28.18.42-4.09 4.95-10.77 12.1-20.49 19.83-18.42 14.64-34.67 18.64-34.67 18.64s15.99 10.91 44.7-2.03c10.31-4.65 18.78-13.43 24.46-20.66.33.06.67.1 1 .1-1.72 3.51-6.75 11.52-20.44 22.41-11.54 9.18-31.3 20.69-31.3 20.69s15.23-.7 37.31-17.1c10.94-8.13 16.92-15.06 20.16-19.95 0 .02 0 .04.01.06-2.82 4.71-8.75 13.57-18.6 23.52-14.58 14.72-26.25 20.72-26.25 20.72s18.43 7.58 40.65-10.02c9.59-7.6 15.1-15.66 18.14-21.48.09.09.18.18.28.27-1.55 4.12-5.92 14.56-13.78 24.43-10.08 12.66-20.59 20.63-20.59 20.63s12.11-1.5 25.55-18.39c7.9-9.93 11.72-20.88 13.2-26.07.15-.05.3-.11.45-.18-1.02 4.66-3.85 16.4-8.53 27.3-6 13.99-19.32 26.65-19.32 26.65s19.74-1.15 32.06-15.54c7.12-8.33 11.84-19.04 14.56-26.6.03.01.05.02.07.04-.86 5.42-3.75 19.77-11.81 32.98-8.08 13.24-21.41 25.58-21.41 25.58s17.96-6.49 27.91-25.65c7.8-15.03 10.48-27.59 11.39-33.81.24-.17.48-.36.71-.55-.18 4.43-1.08 20.47-4.92 31.72-4.5 13.17-14.21 27.69-14.21 27.69s18.14-3.83 30.45-20.39c6.92-9.31 10.28-19.94 11.91-27.8-.13 5.32-.74 14.83-3.31 23.63-4.27 14.61-10.87 26.91-10.87 26.91s11.35-8.27 16.54-25.39c3.49-11.51 3.51-23 3.15-29.3.03-.04.06-.08.09-.11 1.37 6.56 2.86 17.78 1.04 30.76-2.01 14.29-7.94 24.45-7.94 24.45s18.04-6.64 26.93-24.48c3.3-6.62 5.18-12.75 6.24-17.93.58-.4 1.2-.84 1.84-1.32-.01 3.56-.25 7.76-.95 12.28-2.18 14.07-7.76 27.91-7.76 27.91s11.22-10.75 14.58-27.45c1.47-7.31 1.86-13.49 1.78-18.32.56-.37 1.11-.7 1.67-1.04 1.13 3.27 2.37 8.12 2.49 13.84.26 12.36-3.9 19.71-3.9 19.71s3.34-1.87 7.46-5.41c3.63 6.52 10.95 12.1 20.61 16.5 1.8.82 3.56 1.43 5.28 1.86.38.14.75.29 1.12.42 15.84 5.74 30.67-4.31 39.52-13.96 8.7-9.49 17.79-10.23 22.98-9.16 2.47.9 4.55 1.62 6.13 2.09 5.39 1.85 16.5 3.05 22.43-6.71.21-.35.42-.65.62-.96.18-.26.34-.5.48-.71 3.06-4.26 5.84-4.98 9.21-5.24 2.71.81 5.85.29 8.84-1.3l40.13 25.61c.52.33 1.27.57 2.07.72l-90.92 58.03c-.91-.89-3.15-2.2-8.23-1.72-.96-.07-2.08-.04-3.43.14-8.46 1.16-13.01 5.63-11.78 7.55 2.1 3.29 2.48 5.96 2.64 7.3l-2.73 1.74v.01c-.01.01-.03.01-.04.02-2.43 1.55-1.39 7.53 2.32 13.35.21.33.42.65.64.96 3.63 5.24 10.93 6.75 10.94 6.74l77.3-49.6 34.64-22.11 19.28-12.3 19.28 12.3 34.64 22.11 77.3 49.6c.01.01 7.31-1.51 10.94-6.74.22-.31.43-.63.64-.96 3.71-5.82 4.75-11.8 2.32-13.35-.01-.01-.03-.01-.04-.02v-.01l-2.73-1.74c.16-1.34.54-4.01 2.64-7.3 1.23-1.93-3.32-6.4-11.78-7.55-1.35-.18-2.47-.21-3.43-.14-5.08-.48-7.32.83-8.23 1.72l-90.92-58.03c.79-.15 1.55-.38 2.07-.72l40.13-25.61c2.99 1.59 6.13 2.11 8.84 1.3 3.37.26 6.16.98 9.21 5.24.14.2.3.44.48.71.21.31.41.61.62.96 5.92 9.76 17.04 8.56 22.43 6.71 1.58-.47 3.66-1.19 6.13-2.09 5.19-1.07 14.29-.33 22.98 9.16 8.85 9.65 23.67 19.7 39.52 13.96.38-.14.75-.28 1.12-.42 1.72-.43 3.49-1.04 5.28-1.86 9.66-4.4 16.97-9.99 20.6-16.5 4.12 3.54 7.46 5.41 7.46 5.41s-4.16-7.35-3.9-19.71c.12-5.73 1.36-10.57 2.49-13.84.55.34 1.11.67 1.67 1.04-.07 4.83.31 11.01 1.78 18.32 3.36 16.69 14.58 27.45 14.58 27.45s-5.59-13.84-7.76-27.91c-.7-4.52-.93-8.72-.95-12.28.65.48 1.26.92 1.84 1.32 1.06 5.18 2.95 11.31 6.24 17.93 8.89 17.84 26.93 24.48 26.93 24.48s-5.93-10.16-7.94-24.45c-1.82-12.98-.32-24.2 1.04-30.76.03.04.06.08.09.11-.36 6.29-.34 17.78 3.15 29.3 5.19 17.12 16.54 25.39 16.54 25.39s-6.6-12.3-10.87-26.91c-2.57-8.8-3.18-18.31-3.31-23.63 1.63 7.86 5 18.48 11.91 27.8 12.31 16.56 30.45 20.39 30.45 20.39s-9.71-14.52-14.21-27.69c-3.84-11.26-4.74-27.29-4.92-31.72.23.2.47.38.71.55.91 6.22 3.59 18.78 11.39 33.81 9.95 19.16 27.91 25.65 27.91 25.65S849 616.6 840.92 603.36c-8.06-13.2-10.95-27.56-11.81-32.98.03-.01.05-.02.07-.04 2.72 7.56 7.44 18.28 14.56 26.6 12.32 14.4 32.06 15.54 32.06 15.54s-13.32-12.66-19.32-26.65c-4.68-10.9-7.51-22.64-8.53-27.3.15.06.29.13.45.18 1.48 5.2 5.3 16.14 13.2 26.07 13.44 16.89 25.55 18.39 25.55 18.39s-10.5-7.97-20.59-20.63c-7.86-9.88-12.23-20.31-13.78-24.43.1-.08.19-.17.28-.27 3.04 5.82 8.54 13.88 18.14 21.48 22.22 17.6 40.65 10.02 40.65 10.02s-11.67-6-26.25-20.72c-9.85-9.94-15.78-18.81-18.6-23.52 0-.02 0-.04.01-.06 3.24 4.89 9.22 11.82 20.16 19.95 22.07 16.4 37.31 17.1 37.31 17.1s-19.76-11.51-31.3-20.69c-13.7-10.89-18.73-18.9-20.44-22.41.33 0 .67-.04 1-.1 5.68 7.23 14.15 16.02 24.46 20.66 28.71 12.94 44.7 2.03 44.7 2.03s-16.26-4-34.67-18.64c-9.72-7.73-16.4-14.88-20.49-19.83.07-.14.13-.28.18-.42 6.64 6.09 15.94 13.32 27.92 19.7 22.87 12.17 34.12 7.81 34.12 7.81s-16.01-5.25-34.43-16.66c-12.46-7.72-19.45-16.13-22.67-20.76.09-.05.18-.08.26-.13 6.19 5.49 16.48 12.71 32.69 19.19 31.49 12.59 47.43-5.18 47.43-5.18s-16.16-3.21-39.84-14.77c-16.77-8.18-27.97-17.26-33.09-21.87 8.22 4.98 22.77 12.62 41.43 17.58 26.76 7.13 38.43.4 38.43.4s-19.24-2.01-39.34-7.56c-13.56-3.74-26.61-10.85-33.67-15.08.14-.18.27-.36.38-.54 7.25 3.38 18.09 7.4 32.59 10.05 40.53 7.41 49.11-11.05 49.11-11.05s-18.94.37-42.51-7.15c-17.79-5.68-32.27-14.3-38.3-18.2l.37-.09c6.27 3.29 17.54 7.72 36.64 10.79zm-36.32-47.73c.01 0 .01 0 0 0h-.01.01zm-738.25 0h.02-.02zm19.22-51.57.07-.16c.09.15.16.25.16.25l-.23-.09zm190.67 246.17c-4.5 4.79-10.34 8.01-16.97 8.39-.81-.03-1.86-.1-3.11-.29-1.51-.31-3.13-.8-4.89-1.5-13.61-5.4-19.32-12.21-20.61-18.89.47-.53.94-1.08 1.41-1.65.07 1.31.24 2.36.45 3.02.8 3.97 6.1 3.54 5.39 0-1.88-9.36 11.64-22.52 24.39-19.24 4.27 1.1 7.15 1.22 8.86 1.11 4.26 1.75 8.7 3.58 13.12 5.39.12.13.25.25.36.38l.03.03c.25.3.47.6.67.9.12.18.23.36.33.54l.15.27c3.74 7.01-3.67 15.24-9.58 21.54zm73.61-76.25c-.4.27-.55.5-.92.82-.12.1-.46.28-.58.39-3.88.45-7.12 3.3-8.68 6.83-4.93 4.18-7.96 9.25-11.78 14.77-3.79 5.48-8.64 11.28-11.11 17.74-1.63 1.77-2.48 4.4-2.51 7.02-.86 1.03 1.27 3.95.86 5.2l-46.14-29.45c-5.17-8.25-3.98-21.98 3.79-34.15 9.62-15.07 25.65-22.02 35.8-15.54l41.28 26.35s0 .01-.01.02zm205.97 52.77c-.41-1.24 1.72-4.16.86-5.2-.03-2.62-.88-5.26-2.51-7.02-2.47-6.46-7.33-12.26-11.11-17.74-3.82-5.52-6.85-10.59-11.78-14.77-1.56-3.54-4.79-6.39-8.68-6.83-.12-.11-.46-.29-.58-.39-.36-.32-.52-.55-.92-.82-.01 0-.01-.01-.02-.01l41.28-26.35c10.15-6.48 26.18.47 35.8 15.54 7.77 12.17 8.96 25.9 3.79 34.15l-46.13 29.44zm63.87 30.08c-1.76.7-3.38 1.19-4.89 1.5-1.25.18-2.3.26-3.11.29-6.62-.38-12.47-3.6-16.97-8.39-5.91-6.3-13.33-14.53-9.58-21.53l.15-.27c.1-.18.21-.36.33-.54.21-.3.42-.6.67-.9l.03-.03c.11-.13.24-.25.36-.38 4.42-1.81 8.86-3.64 13.12-5.39 1.7.1 4.59-.02 8.86-1.11 12.75-3.28 26.27 9.88 24.39 19.24-.71 3.54 4.59 3.98 5.39 0 .21-.65.38-1.7.45-3.02.46.57.94 1.12 1.41 1.65-1.29 6.67-7 13.48-20.61 18.88zm165.47-252.68s.06-.09.16-.25l.07.16-.23.09z" class="st1"/><path d="M665.11 377.83c.56 12.1-6.98 43.53-6.86 43.61 1.72-1.95 13.15-19.72 15.7-27.3 3.24-9.64 5.44-19.53 6.87-29.55 1.1-7.69 1.78-15.43 2.6-23.16.24-2.27.33-4.56.48-6.84 0 0 12.5 13.56 1.12 58-.84 3.3-4.06 10.71-4.94 14.01 0 0 20.61-27.11 27.91-42.06 10.62-21.76 16.54-44.64 17.48-68.66.68-17.36-1.27-34.49-5.75-51.32-5.15-19.36-12.99-37.59-24.75-54.16-3.74-5.26-7.82-10.27-13.06-14.24-1.53-1.16-3.32-2.1-5.14-2.78-2.46-.68-4.39-.13-4.39 2.49 0 2.43 3.21 10.55 3.69 28.11.08 3.06-.11 6.12-.58 9.14-1.15 7.37-3.22 17.09-5.8 23.4-5.7 13.88-13.54 22.53-22.09 34.92-.58.84-.9 1.85-.91 2.87-.07 10.36-.04 20.71-.04 31.07v39.13c-.01 0 18.46 10.15 18.46 33.32zM501.74 350.47v49.11L540 497.16l38.26-97.58v-49.11L540 375.05zM372.01 364.54c7.3 14.95 27.91 42.06 27.91 42.06-.88-3.3-4.09-10.7-4.94-14.01-11.38-44.44 1.12-58 1.12-58 .16 2.28.24 4.57.48 6.84.82 7.72 1.51 15.47 2.6 23.16 1.43 10.02 3.63 19.91 6.87 29.55 2.55 7.58 13.98 25.35 15.7 27.3.12-.08-7.41-31.51-6.86-43.61 0-23.17 18.47-33.32 18.47-33.32-.01-12.93 0-26.2 0-39.13 0-10.36.03-20.71-.04-31.07a5.167 5.167 0 0 0-.91-2.87c-8.55-12.4-16.39-21.04-22.09-34.92-2.59-6.3-4.65-16.03-5.8-23.4-.47-3.02-.67-6.08-.58-9.14.48-17.56 3.69-25.68 3.69-28.11 0-2.62-1.93-3.17-4.39-2.49-1.82.68-3.61 1.62-5.14 2.78-5.25 3.97-9.33 8.98-13.06 14.24-11.76 16.56-19.6 34.8-24.75 54.16-4.48 16.84-6.44 33.96-5.75 51.32.93 24.02 6.85 46.9 17.47 68.66z" class="st1"/><path d="m469.54 503.35 19.35 12.43-.01-191.97L540 356.65l51.12-32.84-.01 191.97 19.35-12.43a50.557 50.557 0 0 0 23.23-42.52l.09-214.88L540 306.2l-93.78-60.25.09 214.88a50.58 50.58 0 0 0 23.23 42.52zM707.9 726.9l50.94 32.88v68.39c39.33-15.93 64.54-48.28 64.54-48.28V707.3s-33.33 24.02-115.48 19.6z" class="st1"/><path d="m863.65 688.27 32.47-33.61c-57.44 24.15-110.07 19.75-110.07 19.75l45.5 29.37v24.56c37.45-6.01 73.71-38.18 73.71-38.18-28.79 3.56-41.61-1.89-41.61-1.89zM183.87 654.66l32.47 33.61s-12.82 5.45-41.61 1.89c0 0 36.26 32.17 73.71 38.18v-24.56l45.5-29.37s-52.62 4.4-110.07-19.75zM748.48 761.89l-41.3-26.66v45.41c14.24-5.37 27.52-11.33 39.45-17.75l1.85-1z" class="st1"/><path d="M786.06 683.21v29.55c.78-.19 1.54-.37 2.3-.56 14.13-3.59 22.9-7.72 27.09-10.02l-29.39-18.97zM256.62 707.3v72.59s25.21 32.35 64.54 48.28v-68.39l50.94-32.88c-82.15 4.42-115.48-19.6-115.48-19.6z" class="st1"/><path d="M372.82 780.64v-45.41l-41.3 26.66 1.85 1c11.94 6.42 25.22 12.38 39.45 17.75zM293.94 712.76v-29.55l-29.39 18.97c4.19 2.3 12.96 6.43 27.09 10.02.76.18 1.52.37 2.3.56zM512.46 867.68l23.35.64-11.4-26.56z" class="st1"/><path d="M540.11 817.05H539.89c-73.19.65-129.98-13.49-168.57-27.88-18.03-6.72-32.07-13.47-41.97-18.81v80.11c28.6 20.72 94.98 56.76 210.61 56.42h.08c115.64.34 182.02-35.7 210.61-56.42v-80.11c-9.9 5.33-23.94 12.09-41.97 18.81-38.59 14.39-95.38 28.54-168.57 27.88zm-110.35 47.8c2.65 3.59 6.77 6.02 12.38 7.31 4.23.98 7.85 1.06 10.87.25 3.53-.93 5.67-3.01 6.42-6.25l1.29-5.59-12.08-2.78c-1.02-.24-2.05-.4-3.09-.49a11.72 11.72 0 0 0-2.81.07c-.46.11-.93.21-1.43.3-.5.09-.93.19-1.29.29l4.43-8.21c.34-.68.73-1.24 1.17-1.66.43-.42.97-.73 1.6-.92.46-.11.92-.15 1.41-.11.48.03 1.02.12 1.6.25l28.41 6.55c-.29.21-.59.44-.88.7-.29.26-.56.51-.8.76-.71.79-1.2 1.8-1.48 3.03l-6.37 27.62c-.73-.32-1.46-.65-2.19-.99-.74-.34-1.57-.62-2.5-.83-1.37-.32-3.5-.49-6.38-.52-4.76-.03-7.48-.07-8.18-.11-3.53-.15-6.49-.5-8.89-1.05-10.92-2.52-18.99-7.13-24.22-13.85s-6.81-14.57-4.74-23.55c2.35-10.21 7.81-17.14 16.36-20.78 7.63-3.25 16.83-3.63 27.6-1.15 2.42.56 4.83 1.27 7.21 2.12 2.38.86 4.73 1.71 7.04 2.57 2.31.85 4.07 1.42 5.3 1.7.79.18 1.62.31 2.49.39.87.08 1.61.14 2.22.19l-8 13.69c-2.2-2.21-5.07-4.28-8.62-6.22-3.55-1.93-6.65-3.2-9.31-3.81-7.65-1.76-13.78-1.14-18.41 1.87-4.16 2.72-6.98 7.27-8.45 13.65-1.45 6.32-.67 11.49 2.32 15.56zm111.52 26.81c1.12-1.68 1.71-3.35 1.76-5.03.03-1.11-.19-2.3-.67-3.57-.42-1-.84-2-1.27-3l-33.82-.93c-.57.97-1 2.04-1.3 3.2-.3 1.16-.47 2.2-.49 3.13-.02.87.07 1.65.27 2.34.21.7.74 1.67 1.6 2.92l-21.78-.6c.58-.49 1.11-1.04 1.59-1.64.48-.6.9-1.24 1.24-1.92.09-.15.41-.83.96-2.04l23.02-47.81c.38-.74.65-1.29.81-1.64.32-.65.48-1.16.49-1.52 0-.12-.02-.3-.08-.54-.05-.24-.13-.46-.23-.66s-.24-.43-.41-.71l24.3.67c-.46.5-.75.97-.85 1.42-.1.45-.16.73-.16.85-.01.42.07.86.23 1.31.28.61.5 1.08.64 1.41l17.4 38.86c1.52 3.52 2.62 5.94 3.31 7.26.68 1.32 1.5 2.77 2.44 4.36.54.89 1.03 1.63 1.47 2.24.89 1.25 1.41 2 1.56 2.24l-22.03-.6zm105.7-11.63c.65-.76 1.18-1.49 1.59-2.18.42-.69.79-1.51 1.13-2.46.18-.49.3-1.29.36-2.4.06-1.11 0-2.15-.19-3.12l-7.27-38.04-8.08 45.09c-.15.79-.26 1.36-.31 1.71-.1.6-.06 1.12.12 1.58.17.43.38.8.63 1.14.25.34.53.61.84.82l-17.74 3.39c.19-.43.34-.8.43-1.09.1-.29.11-.6.05-.92-.05-.24-.14-.48-.28-.73l-1.44-2.51-23.97-39.28 7.24 37.91c.25 1.32.58 2.48.98 3.47.4.99.97 1.9 1.71 2.74.27.31.89.77 1.86 1.38.79.49 1.5.89 2.1 1.2l-22.9 4.38c.58-.66 1.1-1.33 1.56-2.01.46-.68.84-1.36 1.14-2.03.24-.51.42-1.41.53-2.71.12-1.3.08-2.46-.11-3.46l-7.53-39.41c-.25-1.32-.52-2.34-.81-3.05-.29-.71-.77-1.42-1.46-2.14-.69-.72-1.55-1.37-2.59-1.95-1.04-.58-1.83-1.01-2.38-1.31l30.8-5.88c-.41.57-.67.95-.79 1.16-.23.41-.34.84-.35 1.3-.02.37.17.91.58 1.62.23.39.45.77.68 1.15l20.74 34.32 6.89-41.02c.04-.28.08-.59.14-.94.06-.35.06-.66 0-.96-.12-.65-.51-1.23-1.16-1.74l29.92-5.72c-.61.82-1.2 1.63-1.77 2.44-.67 1.29-1.09 2.51-1.27 3.65-.18 1.15-.13 2.44.15 3.88l7.12 37.24c.2 1.06.56 2.27 1.08 3.64.52 1.36 1.23 2.56 2.12 3.57.51.6 1.09 1.14 1.73 1.61.64.47 1.72 1.1 3.24 1.87l-25.06 4.8z" class="st1"/></svg>