<svg xmlns="http://www.w3.org/2000/svg" xml:space="preserve" width="1000" height="566" viewBox="0 0 264.58333 149.75417"><path d="m7.32 0 23.199 45.51 33.609-.08.032 47.333-23.705.11 4.06-23.782-14.052-.01L0 111.211l2.025 3.594 63.731-.038 18.036 34.98 4.04-.005-.04-109.893-16.434-16.486-24.739.032L11.684.003ZM98.568 23.804l-.015 21.71 43.681-.005.03 47.583-20.296.045-4.102-23.587-19.317-.047.047 45.79 51.402-.093 15.996-15.996V39.897l-16.09-16.043zM176.846 39.897l-.041 109.857h4.016l18.11-34.903 63.671-.037 1.981-3.52-30.535-42.258-13.998.021 4.038 23.714-23.579.015-.02-47.253 33.666-.065L257.278.002 252.806 0l-34.705 23.353-24.838.033Z" style="display:inline;fill:#c9102e;fill-opacity:1;stroke-width:.962001"/></svg>