<svg xmlns="http://www.w3.org/2000/svg" xmlns:xlink="http://www.w3.org/1999/xlink" width="572.02136mm" height="584.45361mm" viewBox="0 0 572.02137 584.45361"><defs><linearGradient xlink:href="#linearGradient17441" id="b" x1="76.185059" x2="89.664566" y1="260.77216" y2="260.77216" gradientTransform="matrix(0 .2925 -3.905 0 1382.946 519.255)" gradientUnits="userSpaceOnUse"/><linearGradient xlink:href="#linearGradient17441" id="a" x1="76.185059" x2="89.664566" y1="260.77216" y2="260.77216" gradientTransform="matrix(-.3044 .2925 -4.27156 0 1466.505 519.272)" gradientUnits="userSpaceOnUse"/></defs><path d="M125.275 473.328v-34.574l1.834-.697 1.834-.697 6.061-.068c10.061-.889 16.645 3.273 15.648 13.648-.492 3.198-2.515 8.346-6.024 7.926 0 0 5.196 9.527 7.099 13.462l-.572.952-1.572.19c-1.982.018-3.959-.077-5.938-.17-1.97-4.014-4.166-8.39-6.082-12.43-1.425.304-2.796.145-4.225.007v10.76c-1.761 2.65-2.078 1.69-8.063 1.69zm17.47-22.593c.779-7.495-3.444-6.57-9.407-6.57-.062 3.281.064 6.559.17 9.838 5.514.242 6.758-.167 9.238-3.268zm53.196 2.699c-.297-9.498 4.442-16.116 14.156-16.19 11.776-.372 15.3 6.897 15.3 17.76.533 10.31-3.644 18.75-14.758 18.712-12.554.607-15.157-9.797-14.698-20.282zm21.385 1.818c-.065-5.61.009-11.088-6.825-11.088-5.682-.235-6.318 4.392-6.51 9.039-.474 5.755-.532 14.486 7.137 13.622 6.175-.41 6.198-6.382 6.198-11.573zm51.768 14.11-.01-14.902-.01-14.903 2.18-2.182 6.167.024-.015 28.873s11.919.27 15.645-.632c.055 2.069 0 4.152.201 6.21-.748 1.776-2.693 1.597-21.565 1.501-3.617-2.409-2.593-3.988-2.593-3.988zm67.868.673c.104-1.933-.498-4.82.808-5.359 3.313 1.19 15.298 5.012 15.298-1.295.117-3.432-5.035-4.882-7.6-6.09-11.492-4.704-11.268-15.749-.152-19.446 6.022 0 9.073-.335 13.607-.922 0 2.557.125 5.255-.194 6.444-3.103 2.91-10.965-1.366-13.125 4.262 1.626 4.964 14.759 4.624 15.67 13.632.035 8.772-3.785 12.454-13.917 12.429-4.393 0-8.93-.813-10.395-3.655zm77.927 3.268.067-29.2s-6.795.06-9.923.06c0-2.678-.972-5.13 1.093-6.49 7.929 0 18.9-.222 26.905-.229-.232 2.184.767 4.34-.806 5.913-1.828 1.635-4.347 1.074-9.073 1.074l.204 27.719c-1.468 2.101-5.197 1.153-8.467 1.153zm62.492-1.753v-32.059l3.024-1.982c6.578-.066 17.732.44 19.926-.96 1.424-.823 1.24.413 1.24 3.575.272 2.228-.686 2.614-2.112 4.04l-13.92.1-.095 3.98-.095 3.36 14.347.002s1.239 6.968-1.62 7.063l-12.391.038s-.174 5.056-.308 7.632h8.097s5.57.236 8.165-.64l-.068 3.245c0 2.899.768 3.056-2.17 3.944-3.222.974-11.194.619-17.653.777-1.787-.256-4.367-1.319-4.367-2.115zm67.867.77c-.14-11.331.213-22.67-.008-34 3.983-.692 7.659-1.251 12.062-1.436 7.63.555 12.966 2.404 14.123 8.96.304 7.32-.648 10.276-5.38 13.545 1.732 4.482 3.876 8.77 5.976 13.085-.416 1.49-1.922 1.016-4.725 1.321-1.793.03-2.824-.463-3.807-1.339l-5.428-11.582c-1.519.3-2.988.139-4.508-.004l-.1 6-.196 5.57c-3.918 1.61-4.549 1.895-8.009-.12zm17.77-23.414c0-5.629-3.949-4.85-9.37-4.406l-.094 9.602c7.995.554 9.464-1.68 9.464-5.196z" style="fill:#fff;fill-opacity:1;stroke-width:.671958"/><path d="M372.782 566.892v-57.718s-16.343-.113-11.288-.046c-2.899 0-4.751 2.988-4.684 3.527-.135-3.235 0 57.232 0 57.232 0 8.622 5.947 14.566 14.579 14.566h12.282c2.634 0 4.78-2.14 4.78-4.774v-8.497h-11.393c-2.359 0-4.276-1.924-4.276-4.29m-44.661-12.76 13.185-16.305s-8.834-5.234-25.01 7.032l-1.597 1.666v-37.149h-11.191c-2.622 0-4.758 2.137-4.758 4.771v70.306h11.19c2.625 0 4.759-2.14 4.759-4.774v-18.705l9.063 11.128 7.71 9.487c1.555 1.95 3.596 2.857 5.7 2.857h15.61l-10.096-12.386Z" style="display:inline;fill:#fff;fill-opacity:1;fill-rule:nonzero;stroke:none;stroke-width:.411254"/><path d="m336.607 541.556-4.103 3.943H318.11l4.103-3.943z" style="display:inline;fill:url(#a);fill-opacity:1;stroke-width:1.36593"/><path d="m391.113 534.159-.007-10.6-.99 1.045c-.026.03-3.024 3.087-11.632 3.087H337.8c-6.418 0-9.44 2.615-11.754 5.44l-9.75 11.919s4.822-3.507 11.307-3.507h50.88c5.571 0 9.389-1.095 11.355-3.244 1.4-1.537 1.278-4.126 1.275-4.14" style="display:inline;fill:#ff0a07;fill-opacity:1;fill-rule:nonzero;stroke:none;stroke-width:.411254"/><path d="M371.21 541.539v3.943h-13.16v-3.943z" style="display:inline;fill:url(#b);fill-opacity:1;stroke-width:1.306"/><g style="display:inline;opacity:1"><path d="m-198.214 348.965.106-.671-1.457-203.468-99.83 72.208 38.232-117.469-100.826-73.606 124.069.83 23.502-70.588-103.73-140.502 441.695.894C218.38-176.73 293.78-90.31 290.374 4.41c0 64.738-39.765 110.871-56.56 128.287l161.278 216.73-192.544.208L78.16 183.063s-72.628-.37-108.786-.227v166.8H-198.32ZM133.25.202c0-14.155-10.827-27.45-29.63-27.45h-281.368l17.622 53.808 263.52.117c20.257-.27 29.856-12.865 29.856-26.475Z" style="display:inline;opacity:1;fill:#ff0a07;fill-opacity:1;stroke-width:.894366" transform="translate(271.933 138.45) scale(.75122)"/><path d="M78.16 183.063c54.046 0 90.766 3.279 155.966-50.505l12.96 17.625c-57.827 53.514-113.023 52.121-155.213 52.121z" style="display:inline;fill:#cc0507;fill-opacity:1;stroke-width:.894366" transform="translate(271.933 138.45) scale(.75122)"/><path d="m-259.925 162.174 23.242-71.586-60.881-44.932 75.272-.031 23.555-71.623 23.567 71.542 74.991.901-60.409 43.95 22.816 71.913-61.271-44.26z" style="display:inline;opacity:1;fill:#fff;fill-opacity:1;stroke-width:.894366" transform="translate(271.933 138.45) scale(.75122)"/></g></svg>