<svg xmlns="http://www.w3.org/2000/svg" xml:space="preserve" width="852" height="852" viewBox="0 0 225.42499 225.425"><g style="display:inline"><path d="m8.384 52.718 32.92 50.602-10.859-.344 3.072 15.188 84.515 91.706c32.833-59.623 66.594-119.656 99.243-178.532l-55.89 3.096c-2.16-8.287 4.67-24.583-5.986-14.805-9.751 3.84-19.677 3.823-29.515 5.732L78.7 42.32Z" style="display:inline;fill:#fb0254;fill-opacity:1;stroke-width:.962001;stroke-opacity:.493562"/><path d="m30.427 130.704 58.208 2.646 43.128.265 8.797.496 4.432 11.145 8.73-6.085 1.324-6.615 46.037-1.323-.264 3.175-2.646 8.202 1.323 7.673 5.556 1.588-4.498 11.642 6.086 25.4-50.8-7.938 4.233 14.023-85.46-.265 3.174-13.229-50.27 5.821 3.44-10.848z" style="display:inline;fill:#fff;fill-opacity:1;stroke-width:.962001;stroke-opacity:.493562"/><g style="display:inline;fill:#008ffd;fill-opacity:1"><path d="m84.938 108.511-14.172 6.502c-5.641 3.788-10.203 7.624-15.388 11.412l-1.216 6.314 30.59.749 26.566 1.31 19.55-1.778 5.52.374 6.174.094-2.152 11.319 8.419-.562 6.08-5.051 9.074-31.712-9.074-10.29-12.067 3.649-3.648-5.426-1.87 7.577-8.046-8.98-7.67-4.21-11.6 9.73-4.49 8.137-19.387-3.847zM73.9 49.86l-.187-11.787 14.686-3.649 5.52 3.93 8.325-6.83 8.138 4.21c-.968 2.482-1.85 4.98-2.324 7.555 3.586 2.098 8.602-.685 13.269-1.007l19.831-4.584 9.542 1.965.935 7.016 4.771 8.325 15.154.842 5.332 2.713.375 1.59-15.716-2.152-10.383 2.994 3.46 6.36-15.153 5.52c-8.834.562-16.19 2.193-20.3 6.174l-16.931 7.484-7.016-.936-1.31-4.49 6.08-.842 6.923.468 10.477-21.983-15.435-8.232-10.009-1.216zM179.137 99.531l-.701 4.864 9.423-1.834 1.662 12.826c-.68-1.918-.598-3.876-2.058-5.753-.525.502-1.237.892-1.357 1.637.588 3.021 1.694 5.646 2.584 8.452l3.09-.941.988-3.933c.435-4.468.747-8.989 1.771-13.205l-4.43-7.69c-3.956 2.982-7.497 4.567-10.972 5.577z" style="display:inline;fill:#008ffd;fill-opacity:1;stroke-width:.962001;stroke-opacity:.493562"/></g><path d="m68.733 192.642 3.47-5.02 3.468-5.02v-.346c-16.01 1.436-32.589 3.48-46.567 5.61-3.753.206-7.125 1.55-10.423 1.577 6.349-3.982 11.173-7.968 13.717-14.685l.172-37.345c-1.868-2.539-3.683-5.109-5.644-7.578 0 0 16.942.673 24.417.87-.377-.939-.92-1.604-1.645-2.288-2.14-1.946-5.136-2.828-7.806-3.816-4.215-1.322-8.877-3.503-11.388-7.425-2.488-3.885-1.58-8.517-1.123-12.849l.436-5.146c.114-1.632-.588-3.6-1.779-4.659 1.016-.088 2.462 1.063 3.47 1.919 1.021.868 2.488 3.158 2.488 3.158 2.062 2.586 4.085 5.735 7.668 5.063 1.618-.22 2.573-1.434 3.218-2.82.893-1.765.775-4.67.118-6.533-3.96-6.742-13.187-9.576-16.433-14.42-3.829-6.627-3.418-13.302-1.042-19.546 2.625-6 7.24-10.647 11.368-14.973 2.907-3.14 4.958-4.862 7.229-6.422l.135.136.135.135c-4.306 4.613-6.522 11.816-7.755 17.593-.106 2.38.088 5.183.23 7.564.063 3.298 2.902 10.004 7.988 11.735.871-2.007-.869-5.674-2.008-6.545 2.677-.027 5.145.631 7.678 1.386 6.48 3.331 7.807 7.116 8.93 14.17l-.183 7.276c-.157 3.925-.713 7.896 1.092 11.478 2.067 4.008 7.295 5.863 10.717 7.195 3.13-2.306 7.25-3.339 10.223-4.43l-.382-1.084-.383-1.084c-.947-3.107-1.182-6.352-1.584-9.562-.768-1.62-.949-2.997-1.817-4.1 2.817.316 5.459 3.933 6.841 5.556 2.59 2.924 5.16 4.799 8.234 6.246 1.496-.439 3-.947 4.25-1.481-1.519-1.496-5.016-8.632-3.396-11.326 2.425 4.333 6.086 6.97 9.491 8.682 3.14-1.93 7.528-4.52 8.827-7.07.485-.871 1.117-4.026-1.075-5.635l-.65 1.042c-2.36 1.114-3.434.32-4.407 2.768-.745-.475-1.734-.808-1.708-1.46-1.046-.02-1.046 1.8-1.035 2.942-2.211.069-3.975-1.335-4.648-2.461-.42.146-.383.733-.441 1.138-.561.072-.983-.254-1.47-.505-2.054-.82-3.332-2.967-3.583-5.002-.565-2.62-1.03-3.308-1.577-4.493-.594-1.04-1.142-2.099-1.43-3.27-.258-1.685-.545-2.926-.178-4.35.553.321 1.893 1.661 4.663 2.638-.081-.981 1.227-3.628 2.336-4.517 2.294-3.178 3.55-4.73 3.55-8.673-.102-4.554-1.977-6.842-5.905-6.877-.559.415-1.513 2.923-3.402 3.382-.174-1.807-1.09-3.9-2.354-4.457-1.665-.734-5.453-.444-8.315-.052v2.213l.017 2.296c-2.38-.254-4.956-1.494-6.68-2.324-.222-.098.634 1.646 2.126 2.715 2.35 2.143 3.995 4.392 1.429 6.959-2.692 3.066-7.951 3.178-5.942 6.645-2.374-1.05-1.56-2.573-.188-3.73 1.743-1.376 5.388-3.094 5.775-5.212-.217-2.7-5.968-4.95-5.684-8.774-.01-.396-1.39-1.503-1.249-1.462 0 0 1.605-8.677 1.99-13.074.08-.934-.865-2.597-.865-2.597.619-.292 4.053-1.57 7.119-2.76 3.074-1.192 6.347-1.322 9.416 1.02 3.223-2.107 4.83-3.456 7.669-1.887 1.354-1.725 2.753-3.318 4.863-4.26 2.893-1.51 5.39-1.926 8.382-2.517 5.385-.842 10.528-1.042 13.532-3.195-.004.865-.155 1.758-.223 2.62 8.795-4.232 15.02-10.17 17.453-14.32 1.139 5.157 1.713 9.477-1.007 14.32 2.922-.525 5.278-2.013 7.75-3.462l.073.078.073.077c-.226 1.153-.376 2.318-.52 3.484 4.466-2.525 8.145-7.034 10.486-10.493l1.685-2.516 1.046-1.937 1.045-1.937.175.746.175.747.367 4.93c.58 5.283-.784 10.31-2.24 15.336-1.302 3.219-2.74 5.345-4.782 7.976l.078.056.078.056c1.556.174.825.524 6.02.948-.903 2.754-4.105 4.553-6.989 5.246 4.356 1.67 6.334 4.455 8.353 7.849 12.617-.44 18.518 1.88 23.514 9.292-5.265-3.283-15.917-4.479-21.588-4.812l.322 1.613c-1.7-.907-4.563-1.391-6.854-1.073-2.057.286-2.983 1.677-3.418 2.235 6.346 2.015 9.99 5.522 11.852 10.805-2.89-.047-4.583-.523-6.433 2.61 4.912 3.64 7.477 8.095 10.196 14.28 4.66 2.394 11.508 3.445 15.57 1.578l2.895-2.756 2.896-2.755 2.581 4.7 2.581 4.7 1.807 3.282 1.807 3.281v.441l-1.072 2.848-1.073 2.848-.889 3.44-.889 3.44-.42 2.447-.42 2.447v7.375l-2.901 1.803-2.901 1.802.441.096.442.096 7.252-.309 7.252-.308.093.093.093.093-2.372 3.56-2.371 3.558V149.037l3.571-.185 3.572-.185v.317l-3.582 4.817-3.583 4.817.077 8.731.077 8.731.67 1.59c3.3 5.727 7.106 8.968 11.5 12.297-21.546-6.199-53.83-8.083-57.463-8.33 2.521 3.693 5.075 7.365 7.626 11.038l-.947 1.426-.947 1.426-.592-.002-.593-.002c-14.53-1.845-26.224-2.404-40.746-2.964-39.768.73-31.908 1.942-48.545 2.968l-1.917-2.885zm17.257-4.726-1.12.386c-.588.487-3.927.885-3.947.803 0 0 1.207-1.897 1.658-2.612.336-.07.867-.19 1.189-.168.499.035.725.248.725.248l.965-1.579-2.35.284 1.354-1.958s1.146-.15 1.644-.14c.485.04.467.186.827.35.313-.71.815-1.654.815-1.654l-2.857.148c-1.419.082-2.807.302-4.195.58v.821l-4.3 6.848c-.33.206-.755.716-1.085.923 1.973-.231 5.826-1.113 8.957-1.273.688-.593 1.26-1.22 1.72-2.007zm70.379 1.123c-.887-3.03-4.985-3.492-7.127-4.835-1.47-2.197 3.778-.233 3.778-.233s-.362-.973-.476-1.223c-.919-.833-6.696-2.244-6.97.496-.319 3.088 6.574 3.81 6.958 5.272-1.447 1.138-4.33-.29-5.953-.833 0 .4.951 1.304 1.034 1.856l1.93.517c1.426.258 6.826 1.687 6.826-1.017zm-62.113-.383c1.32-.389 3.006-1.504 3.11-2.764.122-1.456-4.33-1.884-4.161-2.86.144-.833 1.304-.992 2.63-.924l1.553.32c.365-.563.5-.85.508-1.453-4.23-.672-7.285.446-8.498 2.945-.466 2.285 4.187 1.588 4.187 2.954-.234 1.772-5.662.931-6.253.678l-.178 1.845c1.76.117 3.342-.048 5.115-.143l1.987-.597zm48.188-.47c-.55-1.889-.71-3.95-1.216-5.663 1.178-.115 1.977.263 2.667.692.016-.617-.027-1.03-.077-1.645-3.19-.286-5.742-.66-8.436-.864l-.087.088-.087.087-.167.835-.19.859c1.038-.548 2.254-.293 3.12-.098.075 1.934.893 5.642.893 5.642l-.48.84c1.848.088 2.28-.099 4.87.317-.235-.352-.375-.635-.81-1.09zm-40.782.298 1.195-.164-.242-.926.814-2.724c.51-1.087.442-2.122 1.036-2.944.39.1.986.157 1.22.999.242.863-1.155 1.693-1.96 2.117 2.384.224 5.21-.81 5.283-2.716-.074-2.508-6.332-1.53-8.202-1.34v1.217l-1.919 5.454-1.083 1.191c1.297.036 2.574.012 3.858-.164zm30.762-3.547c-.045-.132-.222-.198-.267-.33 1.247-.471 1.816-1.141 1.646-2.297-1.396-2.72-6.283-1.97-8.859-2.013 0 0 .103.543.193.782l.269.706c-.155 1.734-.049 3.658-.053 5.396-.224.78-.476.713-.577 1.062 1.638-.005 3.275.045 4.911.093l-.72-.731.024-1.008-.068-1.545c2.814 3.32 2.803 3.391 7.147 3.464-1.421-.805-2.677-2.52-3.646-3.58zm-3.572-3.168c1.245-.073 1.902.767 1.588 1.833-.531.447-.973.548-1.588.548zm-5.556 2.29c.148-3.177-4.299-4.005-6.482-3.97-2.717.114-7.277 1.436-7.277 4.784.12 2.896 4.989 3.47 7.012 3.373 3.214-.103 6.697-1.326 6.747-4.187zm-9.79.415c-.059-1.936 1.34-2.97 3.17-2.97 1.658-.16 2.916.951 2.916 2.59.234 1.863-1.789 2.615-3.043 2.963-1.66.024-3.02-1.14-3.043-2.583zm83.807-7.732-.078-9.488.12-9.751c1.883-1.813 3.233-4.035 5.051-5.897H197.38v-15.553l1.215-1.351 1.216-1.352-3.795.003-3.795.003-8.6.245-8.598.245-8.914.179-8.915.179c-.537 1.55-.945 7.602-.935 7.63-6.728 3.853-11.891 8.336-17.464 13.185-4.314-4.066-8.897-7.154-13.778-9.856l-.097-.072-.096-.072c2.062-4.282 3.875-8.558 7.461-10.414-1.745.006-3.778.11-5.604.176-2.114.438-4.084 1.084-5.501 1.043 0 3.394.05 6.86.05 10.254-3.204-3.48-6.808-7.366-9.707-10.353-1.138-.233-2.391-.612-3.704-1.065-6.836-.11-13.67-.222-20.506-.333v12.215c-9.016-.133-18.012-.074-26.938-.331l-.05-12.332c-2.04-.008-26.336-.562-27.35-.816 0 0 1.884 2.204 2.496 2.899-.05 13.64.14 25.755.091 39.396-.226 5.434-6.543 8.835-6.986 9.528 39.675-6.887 63.174-7.924 83.476-8.013l.265-10.721 10.843 10.854h7.306c6.041-.162 12.068.234 18.099.53 11.827.384 37.61 3.066 55.463 7.533-3.315-1.625-5.562-5.401-6.714-8.327zm-157.36.026c.275-12.963-.151-25.969.147-39.072 5.182.117 10.658.168 15.826.56l-.099 15.043.199 14.86c-1.374.537-3.222 1.414-4.563 2.026 12.697-2.029 15.716-1.88 17.329-2.185v-7.261c.074-7.027.882-8.755-5.524-10.215 6.272.334 16.597.42 21.288.299.086 1.34.084 2.61.028 3.95-.763.52-3.652 1.463-3.652 1.463s2.65 1.188 3.751 1.642c.047 5.411-.056 10.806-.009 16.218a446.345 446.345 0 0 0-18.68 1.587c-10.161 1.793-19.514 2.05-29.74 4.381 1.728-.685 2.96-1.885 3.698-3.296zm152.37 2.474c-12.881-2.288-26.516-3.791-38.422-4.753l-4.982-.393h-.223l-.172-16.137c1.237-.486 2.429-1.066 3.621-1.648-1.284-.565-2.268-.904-3.547-1.438l-.122-6.007c3.087-2.195 6.42-4.595 9.745-6.286l-.14-3.938s10.843-.16 16.147-.258l10.848-.251 3.903-.172 3.902-.173V150.845l-1.124-.167-1.125-.168-6.747-.974-6.863-.95-.04-3.63s-8.403.182-12.512.152v22.984s15.801 1.794 16.28 2.033c-.295-.406-2.812-1.512-3.794-1.756-.049-2.192.001-4.432-.048-6.623 1.227-.36 6.157-1.421 6.386-1.622 0 0-8.388.15-12.505.23 0-2.037-.067-4.205-.067-6.241l5.821.042 5.623-.155 7.93-.156 7.932-.155-5.147 4.092v9.819l.124 9.818c.462 1.45 2.598 2.13 3.671 2.605-1.046.023-3.332-.577-4.352-.781zm-100.513-8.1-.05-13.321-3.72-1.485s2.83-1.082 3.72-1.436l.05-7.964v-8.03h16.598c4.259 4.543 7.673 8.158 11.973 12.697l4.89 5.163.203.088.203.088v-9.551c6.715 2.905 12.967 9.832 12.781 9.877 0 0 2.166-1.807 2.958-2.5 1.139.524 2.53 1.218 3.917 1.623-1.27.428-2.514.93-3.77 1.4l-.011 6.658c-.035 3.523.088 6.885.088 6.885.61.823 2.074 1.943 3.498 2.487-6.606-.306-14.368-.573-20.115-.742-5.614-5.956-11.326-12.034-16.941-17.99l-.397-.043v17.912c-6.219.183-12.436.419-18.653.666 1.13-.687 2.377-1.456 2.778-2.482zm-31.43-6.57s-.083-8.757-.121-12.304c2.67.64 4.282 3.253 4.035 3.52v8.329c-.478.087-3.913.455-3.913.455zm91.692-24.162c.609-5.455 1.556-9.145 3.235-14.228l1.537-4.654 1.993-5.003 1.992-5.003.639-1.437.638-1.436s-1.103-2.624-1.833-3.84c-1.658-2.76-3.678-7.813-3.775-7.905-6.108 4.271-12.893 7.018-19.152 9.19-5.332 1.851-11.38 7.048-14.963 3.782-1.194-1.088 2.611-3.854 2.448-4.18-1.652-1.394-7.972-1.997-10.992-1.913-2.396.066-4.713-.209-7.08-.582-1.428-.225-4.11-1.124-4.11-1.124s3.116 2.584 2.783 4.506c-.22.939-1.415 1.384-2.443 1.549-5.42.871-11.99-1.054-14.75-2.624-.613-.35-1.91-1.338-1.91-1.338s.558 1.401.811 1.922c.96 2.164 2.146 3.441 3.962 4.851 4.463 3.464 10.606 3.656 15.982 5.008 4.486 1.129 7.457 3.462 9.42 6.094-2.469-1.583-5.51-2.725-8.593-3.081-2.496-.289-5.812-.626-8.537-.92-4.184-.6-7.27-1.894-10.573-3.84-1.705-1.004-3.006-2.754-3.874-3.957-7.131 1.919-17.805 6.937-16.532 6.439a20.531 20.531 0 0 1 1.706-2c-8.032-3.14-12.253-6.36-12.558-13.67.034-6.994 1.471-12.808-.339-19.59-1.858-4.276-4.482-6.954-7.959-8.401h-.28c1.703 2.287 1.488 5.45 1.248 7.814l-.255 1.768c-3.182-.809-5.448-2.335-7.89-4.548-3.896-3.41-5.536-8.628-6.09-13.172-.821-4.573.564-8.89 2.03-13.161l.215-.53.215-.528c-.46.445-1.065 1.033-1.899 1.852-2.104 2.445-4.205 5.155-5.584 7.854l-.911 2.153c-1.243 3.275-.991 6.686-1 10.125.744 3.287 1.947 5.925 4.238 8.353 2.129 2.538 5.072 4.06 7.993 5.514 2.777 1.312 5.498 2.815 7.565 5.103 1.79 1.534 1.875 3.8 2.26 6.01-1.358-1.652-2.456-3.735-4.2-4.745 2.856 6.933 1.093 12.671-1.49 14.567-1.84 1.494-4.093 1.636-6.12 1.157-2.339-.552-4.727-2.51-5.776-4.294-.647 3.159-1.222 6.515.152 9.512 2.454 4.644 6.38 6.363 10.995 7.87 3.904 1.093 6.034 2.391 8.531 4.585a116.017 116.017 0 0 1 1.967-3.488c-1.817-3.274-6.35-4.308-9.65-5.507 5.355.43 8.858 1.228 16.433 4.174-2.671 2.808-4.661 5.187-5.593 8.623 6.465 1.57 9.163.96 16.015 1.382l8.599.319v-.47l-1.125-.327c-2.461-.774-4.864-1.891-6.782-3.616-1.704-1.174-2.335-3.17-2.664-4.872h.303l2.297 2.555c3.466 2.294 8.052 2.852 11.807 3.534 2.664.637 5.256 1.97 7.144 3.397l11.237.167c-.375-.057-3.39-3.526-4-5.056 4.026 2.015 8.271 3.252 11.47 2.718.627-.105 1.304-.887 1.316-1.181.023-.58-.591-1.256-1.141-1.783-4.738-4-10.394-4.628-14.813-5.593 4.318-.444 8.018.333 11.806 1.695 3.979 1.169 7.283 3.635 8.658 6.452-1.661 2.25-4.646 2.256-6.965 2.434 1.743.987 4.876 1.154 7.076 1.244 3.576.123 7.18-.47 10.545-1.621 2.813-.963 7.365-3.325 8.21-5.504-2.161-.42-7.419-1.188-9.506-2.664 6.124-.319 12.64-2.778 17.445-5.842 4.088-2.555 5.519-5.05 7.299-7.542 1.358 5.2.339 11.88-.884 16.785.054-.066-1.313-4.86-2.72-6.709-.143 2.593-.412 4.596-.704 7.144-.546 2.969-1.201 5.879-2.164 8.736-.473 1.922-1.394 3.633-2.28 5.38 1.323.758 3.603 3.287 3.487 3.083 2.368-1.63 4.091-3.088 6.757-3.92zm-12.66-5.908c-1.762-.026-2.967.026-4.25.07.98.648 1.944 1.06 3.726 1.424.315-.509.524-.97.524-1.494zm1.166-8.427c-2.463 2.853-4.518 4.197-7.296 5.952 2.273.036 4.544-.033 6.815-.093.08-.012.69-3.826.48-5.86zm30.855 4.985.115-.101s-1.38-1.45-2.05-2.195c-.086-2.824 2.617-4.677 4.466-6.184 1.48-1.068 3.095-1.684 5.026-.794 1.468.612 3.509.095 4.163-1.098.553-1.438.671-4.653.055-6.822-1.012.969-2.45 1.883-3.688 2.51-3.607 1.626-5.794 2.121-9.376 2.496l-1.058 1.78-1.058 1.78c-1.54 2.165-3.127 4.279-4.864 6.288-.8.912-1.587 1.835-2.367 2.764 3.582-.383 8.57-.156 10.636-.424zm20.327-12.327.849-3.473.85-3.474c.981-3.295 1.8-7.06 2.928-9.927-1.042-2.013-3.633-6.444-5.779-10.987-.89 2.033-6.559 6.422-11.387 7.396-.193 1.476-.348 3.182-.844 6.005 3.067-.333 3.686-.729 9.438-1.747 1.588 2.786 2.678 8.54 1.562 13.196.145.075-1.164-6.041-2.001-6.041-.071.461-1.404 1.019-1.204 1.894.8 2.692 1.663 5.364 2.535 8.034 1.018-.29 2.035-.584 3.053-.876zM161.797 89.56c-1.536-3.08-5.22-11.221-12.465-14.921-3.642.812-6.436.775-10.035.669 1.384 1.563 5.45 1.222 5.45 1.222-4.196 1.515-9.022.969-12.987.225l-4.56-1.572.23.204.231.204c3.096 1.909 5.82 4.656 8.064 6.871 2.805-.684 5.323-.854 8.009-.892 3.872-.055 6.651-.227 11.576.959-5.794.817-11.758 1.089-15.712 3.953 3.187 3.455 5.461 7.319 7.418 11.2.666-.17 3.315-1.983 5.287-3.047 3.15-1.7 5.44-3.603 6.437-4.444 1.115 5.742 3.812 10.444 6.396 15.776l.363-.493.363-.492c1.151-5.399-1.972-11.055-4.065-15.422zm-18.02 9.541c-2.245-5.822-6.534-9.845-11.957-12.093 2.305 4.066 4.738 8.169 4.546 12.46-3.228-3.592-7.314-7.635-11.911-10.196-3.259 5.083-8.24 8.803-12.288 11.403 3.955.192 5.855.082 8.717.626 2.466.47 3.113.98 5.827 2.796 7.623-1.143 12.114-3.185 17.066-4.996zm-30.812-22.093c1.282-2.585 3.244-4.8 5.006-7.058-.005 3.52-.393 6.367.335 8.235l.508-1.438c1.13-3.343 3.55-6.187 6.185-8.156 1.898-1.419 4.033-2.39 6.076-3.454-4.971-1.231-8.328-3.81-12.674-6.637-.105 4.689-2.953 8.083-5.677 12.274-.177-.39-.674-1.315-.674-1.315.067.404-2.814 5.901-4.783 7.824-1.895-2.838-2.964-4.38-4.376-5.299.574 2.529.321 3.367.313 4.833-2.27.365-5.448.02-6.534 1.055-.622 1.028-1.155 1.735-1.155 2.883.727-.355 2.026-.94 3.116-1.086 2.514-.335 4.782.124 7.59.53 3.116-1.285 4.711-5.02 6.092-7.264.296.482.384 1.297.491 1.871-.026.036-.572-.19-.572-.19-1.314 3.447-3.683 7.4-7.384 6.704-2.019-.423-4.72-.75-6.374-.423-.497.071-1.058.24-1.904.835-.644.452-.57 2.581-.026 2.585l4.132.164c1.991.022 3.978-.079 5.885-.828 4.37-1.718 4.005-2.95 6.404-6.645zm31.657-7.305c.472-1.646-.526-4.452-1.06-4.876 3.204-.84 6.145.052 9.166 1.284-.212-2.006-.974-3.35-1.978-5.034 0 0-6.83 2.245-9.49 3.16-2.188 2.251-4.351 3.743-6.058 4.967v.128c5.024-.28 8.03.454 9.057 1.027l.193.021.17-.677zm-3.731-6.851c3.288-.915 6.305-2.642 9.583-3.577 3.86-1.101 8.707-1.994 10.715-1.932a98.146 98.146 0 0 1 9.864.305c5.198 1.128 7.324 1.422.984-.512-2.985-.957-5.966-.88-9.054-.892-5.994-.41-10.435 1.035-16.007 2.9-4.045 1.681-8.204 3.066-12.535 2.916-5.873-.203-9.853-3.82-13.394-6.377-5.355-4.038-11.909-7.918-16.97-10.842 3.162 1.097 6.12 2.589 9.032 4.212 2.881 1.747 5.607 3.712 8.335 5.685 3.763 3.162 7.64 5.435 12.17 5.839 1.626.144 3.81.013 5.243-.553 2.193-3.75.423-6.654-2.143-8.723-1.837-.971-3.766-1.77-5.48-1.258.153 1.124 1.28 1.836 2.054 2.61-2.607.043-4.303-2.39-5.945-4.275-3.374-3.851-3.834-4.132-6.496-5.361-.721-.333-5.1.006-4.955.584 1.204 1.107 1.72 2.088 2.119 3.206-1.313-.557-2.59-1.232-4.496-1.815l-3.51-.69c-2.829-.558-5.555-.971-7.444-3.06 3.64-.869 7.311-4.403 10.428-3.996 1.234.099 2.253.455 3.263.897-3.982-4.04-9.75-5.535-13.791-4.874-.972.159-4.05 2.359-5.153 4.18-.381.629-.182 1.55.131 2.209-.963-.054-3.544-.855-5.615-.904.546.91 2.18 2.155 2.083 2.072-2.08.824-6.367 2.836-6.367 2.836l2.196-3.737c-1.174-1.51-2.905-2.853-4.2-3.372-2.514-.923-3.902.04-6.237.845l-4.45 1.364c.568 3.08 1.46 4.698 3.323 6.82-1.377-.362-2.298-.933-3.512-1.597-.304 2.02-.32 3.93.692 5.567 4.985-2.235 7.857-2.8 12.54-1.216l-.308-1.537c1.957.564 3.922 1.1 5.885 1.645l4.964 1.38.15-.15c.282-.209-.025-.478-.159-.729l-.31-.578c2.574.553 4.74.965 7.274 1.836-2.987-1.716-5.729-2.81-8.947-4.178 9.956 2.345 17.113 7.254 22.755 11.504l2.445 1.652c5.976 4.23 11.737 5.762 19.25 3.67zM86.008 38.788l2.167 2.233-1.002 1.176c-2.69-.917-4.74.628-7.666 2.103l-.264.09-.265.09c2.144-2.307 4.811-4.413 7.03-5.692zM151.2 55.843c-1.69-3.798-7.155-4.24-8.587-4.416 2.043 2.554 2.068 4.045 2.015 7.01 1.99-.925 6.807-2.631 6.572-2.594zm-70.72-3.428c1.2-.366 12.056-2.092 12.727 3.743.107.283.059.386.297.167.34-1.198.412-2.25.539-3.455 3.679.329 7.81.548 11.198.696-2.517.217-6.813-1.94-13.928-3.852-.05.56-.305 1.69-.305 1.69-2.763-.684-6.618-2.828-13.573.068.975 1.952 1.718 3.167 2.861 4.98.058-1.73-.306-2.512-.2-4.013zm64.031-4.056c2.691-1.062 4.531-4.059 4.873-6.307l.197-1.438c-.45.236-1.254.59-2.138.314-1.48-.882-2.881-1.188-4.507-1.721-5.608-.475-8.439.393-12.235 3.7l1.19 1.437c2.088-1.433 4.422-2.38 6.807-2.24 1.853.108 4.026.465 5.967 2.224-.164 2.787-3.068 4.059-5.593 5.018 1.775-.006 3.833-.252 5.44-.987zm-29.884-8.301c-1.47-1.507-3.973-.896-5.617-.32.372.53 1.046 1.144 1.057 1.67-.017.636-.674 1.181-1.062 1.674 3.821 1.542 6.885-.552 5.622-3.024zm21.863-3.82c3.619-.694 7.022.302 10.346 1.63 2.387-.983 4.32-2.5 6.276-4.134 2.91-3.679 8.127-13.172 6.812-17.115-2.342 4.793-6.175 9.099-10.08 11.686-1.38 1.141-4.983 2.82-4.979 2.78 0 0-.068-2.119-.135-2.989-2.618 1.278-5.406 2.032-8.19 2.839-6.533 1.227-9.987 1.599-14.7 2.006l2.25 1.095c2.206.881 4.04 2.378 5.953 3.749l.06.025.06.025a25.812 25.812 0 0 1 6.327-1.597zm-19.53-4.542c1.77-.924 3.752-1.297 5.674-1.788-3.244-.015-6.404-.397-11.836 1.552 1.074.393 2.893.686 4.428 1.028.592-.23 1.16-.522 1.735-.792z" style="display:inline;fill:#091b56;fill-opacity:1;stroke-width:.264583"/><path d="M110.86 207.275c-4.001-5.75-7.458-10.622-7.68-10.826-7.843-.121-18.685 1.004-28.29 2.152-5.448.66-5.901.562-7.845-2.268-1.099-1.598-1.58-2.446-1.67-3.382-.11-1.144.128-1.448 1.638-3.668.888-1.305 1.779-2.5 1.779-2.683-9.555 0-30.36 3.299-43.853 5.4-2.66.429-5.887.897-6.43.896-1.435 0-2.911-.978-3.27-2.243-.604-2.131.091-3.078 4.814-6.289 4.638-3.152 7.647-6.472 8.58-9.207.222-.648.573-5.936.471-18.978l-.14-18.055c-1.264-1.685-1.677-2.373-2.012-2.695-3.365-3.232-3.649-5.041-3.02-6.988.575-1.785 1.341-2.237 7.944-1.833 3.366.097 5.695.275 5.695.13 0-.134-1.53-.756-2.97-1.496-5.83-2.995-8.79-7.382-9.144-13.194-.098-1.62.235-4.24.635-7.961.641-5.964.547-5.853-.777-7.662-.933-1.274-1.054-3.054.122-4.23.705-.705 1.312-1.018 2.492-1.04 1.027-.019 1.565.157 1.545-.124-.015-.208-3.224-4.59-6.788-9.679C6.239 57.87.473 49.77.359 49.335c-.082-.315.028-.44.329-.47.765-.075 33.886-3.427 33.886-3.427l1.918-1.659c-.007-.022 7.174-7.133 9.727-7.5 1.452-.21 3.304.673 3.609 2.34.25 1.365.239 2.338-1.129 3.946-.667.784-1.063 1.399-.827 1.444.897.172 22.07-1.904 22.075-2.196.006-.272.078-.715-.175-1.536-1.032-3.35-.249-4.718 2.21-5.38.832-.224 2.28-.52 3.536-1.184 4.01-2.116 8.11-3.142 12.025-1.623l1.304.445 1.571-.815c1.066-.554 2.767-1.029 3.514-1.117 1.107-.131 1.784-.4 3.125-1.41 3.897-2.932 7.312-4.066 15.827-5.183 5.766-.756 6.531-.98 8.243-1.938 1.919-1.074 1.931-1.397 3.917-.312.728.4 1.12.318 2.724-.76 3.697-2.489 7.43-5.991 9.944-9.363 1.33-1.784 3.031-2.34 4.654-1.35.481.293 1.119 1.181 1.33 1.688.65 1.556 1.265 4.554 1.265 6.742 0 1.146.028 2.112.177 2.204.15.092.55-.177 1.204-.427 1.12-.428 1.664-.535 2.613.088 1.18.92 1.586-.266 2.437-1.188 1.914-2.075 4.25-5.843 5.97-9.033 1.8-3.338 3.31-3.914 5.355-3.103 1.437.57 2.065 1.916 2.306 4.804.472 5.658.718 11.432-.551 16.065-.292 1.065-1.154 4.051-1.058 4.206 14.651-1.053 40.179-3.71 60.428-5.997 1.477-.196 1.64-.18.743 1.387-.104.18-6.672 12.048-15.112 27.226-8.44 15.178-15.533 27.611-15.533 27.859 0 .247 1.268 2.32 2.99 5.437 5.246 9.493 6.965 12.367 6.965 13.206 0 .437-.86 2.648-1.585 4.712-2.512 7.141-3.635 12.25-3.498 17.125.049 1.745.115 3.233.23 3.346.113.114 1.739.174 3.612.134 3.822-.08 4.728.11 5.436 1.48.812 1.57.569 2.4-1.987 6.304l-2.388 3.648.146 7.189c2.79-.271 6.644-.754 7.324 2.256.232 1.025.182 1.964-1.42 4.123-1.595 2.149-4.405 5.794-5.89 7.842l-.066 7.607c-.065 7.375.1 8.15.732 9.531 1.445 3.155 5.786 6.734 9.39 9.612 3.414 2.725 3.428 3.927 1.43 6.12-.927 1.02-2.966.665-7.634-.487-10.903-2.69-24.3-4.796-41.022-6.402-2.647-.254-4.173-.301-4.34-.135-.167.167.374.96 1.237 2.211 2.615 3.794 2.767 4.006 2.767 4.914 0 1.61-2.476 5.47-3.93 6.16-.854.405-1.325.368-6.634-.243-6.819-.785-16.503-1.823-21.436-2.07l-3.541-.018c-2.654 3.98-4.373 7.892-6.613 11.712-2.975 5.348-5.497 10.458-5.643 10.452-.145-.006-3.71-5.548-7.712-11.299zm14.72-11.065s-11.129-.248-17.003-.132c2.897 4.792 9.457 13.786 9.457 13.786zm-47.66-1.734c28.78-2.312 53.61-3.3 81.792.678 1.341.26 2.86-1.93 2.634-2.7-1.25-2.94-6.552-8.135-7.036-10.788 0-.544.815-.547 6.88-.023 17.566 2.08 33.455 3.548 50.61 8.292-4.285-3.114-10.108-8.487-11.829-12.98-.549-1.472-.806-1.915-.893-9.688-.085-7.533-.051-8.348.37-8.996.253-.391 1.81-2.53 3.459-4.752 1.648-2.223 3.816-4.799 3.816-4.799.169-.127-4.046.269-7.163.32 0 0-.114-3.226-.114-6.258v-5.512l1.934-3.023c2.13-3.224 3.265-4.391 2.775-4.324-.145.02-4.583.31-8.49.414-3.925.104-7.16.215-7.16.215s.743-.974 2.98-2.355l2.645-1.635.026-3.683c.036-5.312 1.305-11.66 3.56-17.811.593-1.62 1.041-3.212.995-3.538-2.704-5.6-5.065-9.717-8.229-15.512l-2.674 2.51c-1.565 1.47-3.277 2.807-4.129 3.227-1.324.653-1.716.716-4.365.7-3.338-.02-5.614-.513-8.541-1.853-1.661-.76-1.866-1.118-2.215-1.986-2.184-7.438-10.136-14.242-9.75-13.535 1.025-2.029 2.385-2.565 4.106-2.652.797-.066 2.278.091 2.364.018-.712-3.506-5.346-8.303-9.036-9.65-1.243-.59-2.85-1.072-2.85-1.072-.068.162.162-.797 2.349-1.95 1.29-.68 2.926-.54 5.242-.189 1.365.208 2.814.91 2.814.91l-.308-1.594c.052-.002 2.37.117 3.924.244 4.928.4 9.375.924 13.951 2.705 1.434.592 3.787 1.872 3.683 1.854-.036.006-.792-1.696-3.796-3.933-2.915-2.17-7.244-4.89-13.562-5.132l-6.122-.235-.944-1.455c-2.788-4.413-4.76-4.957-7.454-6.384-.184.276 4.495-1.694 5.617-2.982 1.127-1.293 1.403-2.243 1.403-2.243s-6.195-.686-6.323-1.02c-.07-.182.25-.57.832-1.306 4.96-4.602 6.597-16.2 6.3-22.928 0 0-.641-5.392-.648-5.5-.012-.2-1.464 2.722-2.417 4.28-2.175 3.555-3.633 5.336-6.003 7.82-2.235 2.342-4.914 4.824-5.66 4.827-.45.003-.151-.141.002-1.452.094-.8.021-1.919-.04-1.919-.062 0-1.608 1.025-3.112 1.753-1.503.727-2.955 1.297-3.428 1.389-.739.142-.992.223-.992-.23 0-.291.745-1.612 1.026-2.249.862-1.947 1.09-4.985.736-7.79-.168-1.331-.847-4.412-.721-4.287.06.06-1.317 2.431-2.387 3.6-2.253 2.457-5.292 4.95-8.513 7.148-2.817 1.922-6.126 4.167-6.521 3.923-.16-.099.085-1.48.085-1.985 0-.916-.421-.73-1.152-.352-1.371.71-3.725 1.483-9.284 2.284-8.555 1.349-11.134 2.306-14.567 5.319-1.38 1.211-1.645 2.054-1.656 2.062-.07-.066-2.115-1.53-4.325-.226l-3.458 2.04c-1.032-.861-2.93-2.06-5.964-1.903-2.338.18-11.133 3.91-10.458 3.586 0 0 .376.577.69 1.787.298 1.143.396 1.758-.49 7.349-.981 6.19-1.304 6.513-1.304 6.513l1.202 1.356c-.247 1.727 1.25 3.953 3.296 5.228 1.238.771 2.08 2.59 2.27 2.98.669 1.376-1.888 3.337-1.945 3.35-1.507 1.124-3.086 1.93-4.594 3.43-1.007 1.803.17 2.164.912 2.76-1.395-2.727 1.81-3.5 4.166-4.978a9.123 9.123 0 0 0 1.938-1.612c.517-.578 2.954-2.757-.985-6.447-.275.086-2.589-2.343-2.652-3.225 2.429 1.32 5.44 2.03 6.58 2.305.154-1.228.051-4.455.051-4.455s4.222-.459 5.757-.443c5.56.057 4.88 4.507 4.907 4.714 0 0 1.378-1.078 2.185-1.951.807-.873 1.578-1.588 1.715-1.588.726 0 2.851.836 3.625 1.426 1.734 1.323 2.727 4.555 2.27 7.391-.929 4.807-3.97 6.318-5.725 10.673-.549 1.437-1.02 1.47-3.092.22-.797-1.004-2.119-1.855-2.119-1.855-.228.55-.196 2.773.449 4.997.459 1.582 1.734 3.344 2.315 5.072.422 1.256.338 2.074.735 3.094.243 1.47 3.936 5.101 4.734 4.264-.29-.622.396-1.085.407-1.082.368.627 2.717 2.827 4.709 2.523-.148-.037-.058-3.004.676-3.08.675-.069 1.946 2.024 2.097 1.476.129-.465.822-1.648 1.534-1.878 2.038-.66 2.543-.173 3.487-1.9 5.364 5.564-3.556 10.641-7.822 12.84-2.624-.795-5.737-3.462-7.432-5.65-.884-.947-2.118-2.904-1.908-2.904-1.214 1.37.327 7.663 3.375 11.134-.115.3-3.715 1.637-4.326 1.63-7.63-2.795-10.287-11.025-15.034-11.794 1.06.953 1.172 1.379 1.986 5.069.407 1.845.225 3.366.66 5.57.434 2.204 1.512 5.154 1.512 5.154s-1.61.483-3.284 1.107c-1.673.624-3.966 1.556-5.035 2.182l-1.96 1.148c-10.418-3.195-12.833-8.17-11.913-16.919.355-5.552-.025-9.881-.364-11.976-.824-5.08-3.406-11.73-15.693-12.647 2.113 2.85 2.361 5.315 1.767 6.679-.113.502-4.763-2.67-6.3-5.932-3.157-6.694-4.083-18.21 3.96-28.825l1.847-2.439-2.183 1.733c-11.13 8.893-23.085 24.019-16.65 36.642 1.268 2.39 3.698 5.145 8.461 8.4 2.528 1.726 5.475 4.212 6.761 5.476 1.946 1.912 2.208 2.292 2.712 3.93.657 2.136.42 2.896-.1 4.598-1.297 4.231-4.306 4.554-6.712 3.486-3.882-1.724-7.01-9.77-10.65-9.752.615-.05 1.462 1.849 1.632 2.946.24 1.537.237 1.925-.318 7.684-.686 7.115-.261 8.359 1.097 11.117 1.605 3.26 4.384 6.132 11.193 8.098 1.198.346 8.482 2.675 9.81 6.328 0 0-1.526.096-14.89-.455-3.338-.138-9.426-.542-9.469-.5-.043.044 1.62 1.776 2.724 3.279 1.104 1.502 2.233 3.101 2.51 3.553.478.786.5 1.625.501 18.957.001 19.89.014 19.707-1.6 22.722-1.513 2.827-4.674 6.043-8.797 8.948-1.135.8-3.71 2.123-3.664 2.169.046.046 3.968-.897 6.658-1.323 22.419-3.55 50.092-6.652 50.444-5.654-1.009 3.02-5.976 7.576-6.527 10.27.589 1.49 1.482 2.616 2.733 2.437.607-.088 3.246-.394 5.866-.68zm82.805-62.993c-.27.303 7.116-7.996 9.352-12.66 4.291-.44 9.3-1.896 13.087-5.047.637.436.582 5.927.053 6.96-.473.924-2.438 2.221-3.591 1.421-1.372-.952-3.578-.96-5.84.642-2.433 2.12-5.553 5.32-3.395 6.832.546.558 1.524 1.55 1.524 1.55-5.997-.045-11.195.317-11.19.302zM91.512 53.777c.533.313.454.574 0 0zm71.144 128.339zM78.97 105.703c.362 2.173-1.689-10.379-2.266-11.332-1.203-.997-1.506-3.483-.18-4.809.678-.679 1.406-1.15 2.578-1.145 2.61.01 5.707 1.646 8.478 5.478 3.423 4.014 5.186 5.29 5.186 5.29-.134.08-2.485-6.527-1.07-10.153-.144-1.081-.52-2.015-.695-2.75-.263-1.104-.132-2.024-.78-2.953-1.648-2.356-2.711-6.034-2.674-9.084.024-1.932.503-2.858 1.136-3.659.355-.378 1.214-.71 1.766-.874 1.784-.368 2.739.043 3.623 1.11 1.63-2.287 4.444-5.42 4.513-8.124-.054-2.703-1.228-3.226-1.21-3.226-1.32 1.518-3.41 3.053-4.688 3.102-2.434.093-4.039-2.18-3.655-4.577-.868-.502-3.987-.253-3.836-.318-.074 3.884-1.33 3.938-2.067 4.534.938 3.934-.989 6.914-4.633 8.716-1.7.959-2.405 1.248-2.405 1.248.418 1.026-.212 2.743-.62 3.162-.205.21-1.492 1.33-2.717 1.351-.77-.009-2.863-1.014-3.688-1.795-1.626-1.541-1.956-3.075-.975-5.177.708-1.516 1.472-2.54 3.821-3.99.903-.557 2.436-1.362 2.436-1.506 0-.143-.621-.73-1.583-1.75-3.436-2.697-3.151-5.43-3.956-6.506-1.153-.981-.953-2.016-.282-5.662.474-2.575.452-3.656.452-3.656s-24.176 2.39-24.305 2.519c0 0-1.972 5.557-2.358 7.823-.596 4.499-.555 6.66.673 10.751 2.095-1.686 10.625.493 12.493 1.915 3.208 1.71 5.467 4.304 6.908 7.197 2.01 4.032 2.89 8.45 2.514 14.994-.012 4.041-.806 6.82.348 10.679.505 1.689 1.816 2.872 3.565 4.075 1.154.794 3.304 1.696 3.77 1.707.813-.287 6.338-2.878 6.383-2.605zm104.334-17.261c1.88-1.375 3.19-2.884 4.856-4.602l14.414-25.967c9.526-17.16 14.59-26.023 14.418-26.195-.24-.24-25.313 2.587-37.967 3.913-6.076.636-18.224 1.736-18.224 1.94 2.032.664 3.716 1.37 3.917 3.266.188 2.681-2.492 5.099-3.587 6.146 1.39 1.67 2.566 2.514 3.208 4.023 5.488.407 12.994 1.872 18.122 5.29 3.36 1.628 6.519 5.554 6.97 6.722.44 1.135-.353 3.124-1.394 3.71-1.836 1.036-3.132.488-5.124-.56-3.409-1.44-6.525-2.846-15-3.67-.8.766-1.604 1.397-2.81 1.666 2.52 2.337 4.194 5.257 4.68 7.81.305 1.601-.338 2.848-1.49 3.55-.464.284-1.388.516-1.647.517-.952.002-.113.371 1.534 2.555.927 1.229 2.054 3.274 2.95 5.03 1.566 3.073 1.872 3.608 3.09 4.13 1.144.49 3.256.81 5.399 1.084 1.206.155 2.89.049 3.685-.358zM22.21 71.544c-.153-10.64 5.791-18.825 8.355-21.085-10.821 1.069-22.3 2.313-22.19 2.254 0 0 13.518 19.828 13.78 19.783.233-.04.055.245.055-.952z" style="display:inline;fill:#0ff;fill-opacity:1;stroke-width:.264583"/></g><g style="display:inline;fill:#fff;fill-opacity:1"><path d="M100.678 34.197c.41-.345 1.146-.69 1.753-1.036 4.812-.582 10.334 1.218 13.819 4.975-.77-.282-1.984-.788-3.623-.882-3.3.29-8.095 3.889-10.056 3.976-1.456-.96-2.523-1.918-3.204-2.877.927.257 1.902.783 2.877.655 2.673-.35 7.156-3.765 7.156-3.765-2.421-1.326-5.75-1.19-8.722-1.046zM91.793 38.695c.002.242.473.738 1.312 1.465 3.223.037 3.6.38 5.21.695-.281-.384-.529-.735-.913-1.223-2.786-.793-3.671-.835-5.609-.937zM77.548 44.878c-1.232-1.672-2.573-3.567-2.709-6.162 2.854-.873 7.268-2.645 8.513-2.547 2.442-.192 4.743 1.876 5.422 2.769-1.273-.377-2.948-1.461-4.28-1.333-2.708.26-4.961 2.946-7.975 2.713-.112 1.687.643 3.103 1.03 4.513zM77.44 51.412c.72 1.728 1.838 3.407 2.894 5.093-.088-1.35.039-2.787-.264-4.051 3.294-.204 6.727-.239 9.806.033 3.393 1.468 2.79 2.892 3.472 4.117.411-1.088.547-1.592.794-3.753l11.394.892-14.288-4.1c.007.186-.065.014-.248 1.736-1.962-1.065-4.406-1.364-6.896-1.373-3.048-.037-5.202.473-6.664 1.406zM96.725 77.665c-.672 1.048-1.248 2.3-1.234 3.098 2.902-.922 6.282-1.601 10.293-.554 3.47-.14 4.753-4.15 6.563-7.315l.795 2.245c1.517-4.01 4-9.55 4.958-13.727l-5.372 9.345-.725-1.354c-3.527 7.687-4.814 7.538-4.801 7.537-.012-.072-2.764-4.075-4.327-5.051.427 2.63.469 4.042.274 4.931-2.065.124-3.958-.08-6.424.845zM86.353 104.213c1.104.875 5.455 6.87 18.091 5.655 1.955-.188 6.093-1.673 3.374-4.828 3.086.926 10.972-.473 14.982 1.29l-5.127 5.787c2.993-.324 5.78-.558 9.432-1.256 8.516-1.628 18.925-4.846 27.494-10.931 1.359 2.884 3.462 6.298 5.143 9.343l-5.16 17.992 7.541-18.72c-1.852-3.899-3.704-6.392-5.556-12.17-.855.742-3.669 2.577-5.556 3.516-3.984 1.982-13.64 7.774-28.509 9.845.984-1.378 2.549-3.367 2.48-4.101-5.772-3.185-17.229-1.237-22.457-3.658 2.09 2.77 4.412 5.317 1.126 5.659-9.36 1.374-13.242-.93-17.298-3.423z" style="display:inline;fill:#fff;fill-opacity:1;stroke-width:.962001;stroke-opacity:.493562"/><path d="m124.42 89.264-1.124 1.62c4.903 2.555 8.57 6.995 12.468 11.142l2.646-.922.53-4.068 1.993 3.128 3.629-1.375c-1.585-2.37-2.866-4.543-5.656-7.475-2.117-1.699-4.055-3.302-7.21-4.365 5.011 8.16 4.462 11.65 4.531 12.27-3.322-3.778-7.078-7.232-11.807-9.955z" style="display:inline;fill:#fff;fill-opacity:1;stroke-width:.962001;stroke-opacity:.493562"/><path d="M71.725 123.455c2.143 1.284 2.038 2.44 10.875 3.461 6.675 1.232 6.754 2.888 8.84 4.35-2.058-1.013-4.087-2.39-7.624-2.947-8.087-1.08-10.502-2.977-12.09-4.864z" style="fill:#fff;fill-opacity:1;stroke-width:.962001;stroke-opacity:.493562"/><path d="m179.222 98.16-.198 1.423c2.531-.769 4.667-.828 11.112-5.557l4.267 7.574c-.759 4.625-1.59 9.354-1.753 13.13l3.572-12.898-5.55-10.989c-2.72 3.522-6.438 6.089-11.45 7.317zM101.14 121.074c2.845.774 11.247 1.77 15.19 8.144.533.86-4.693 2.528-6.938 2.613 2.768 1.267 6.776 1.926 12.426.943 6.423-1.116 9.07-2.87 11.424-4.455-4.055 1.652-10.512 3.831-16.78 3.391 1.41-.529 2.96-2.191 2.76-2.525-4.232-7.069-12.609-7.52-18.081-8.11z" style="display:inline;fill:#fff;fill-opacity:1;stroke-width:.962001;stroke-opacity:.493562"/></g><g style="display:inline"><path d="M37.652 51.403c-5.91 5.974-9.71 12.376-8.7 20.72.534 4.593 2.84 8.11 6.384 10.881 2.852 2.23 6.666 3.956 9.788 5.533 2.223 1.123 3.896 3.566 4.735 4.165C48.14 89.04 43.008 85.93 38.42 83c-4.697-2.999-7.157-7.387-7.643-10.596-1.24-8.18 1.63-14.637 6.876-21zM50.072 81.69c.499-.322 1.404-1.797 1.687-5.325 5.923 3.823 5.686 9.579 6.335 15.468-.081-1.106 1.144-5.516-1.407-11.763-1.769-3.315-4.285-5.872-7.81-7.168 1.872 2.558 1.542 7.52 1.195 8.788zM44.417 108.115c-2.578 1.436-7.567.995-10.881-3.803-1.048 3.595-1.173 6.606.233 9.752 2.206 4.444 6.717 6.288 11.54 7.677-5.81-3.492-9.944-7.516-10.219-12.766 3.462 1.522 6.57 1.235 9.327-.86zM151.94 84.564c-2.236-.057-6.467.221-9.542 2.058 1.693 1.993 2.58 2.983 4.817 7.53 1.636-.946 4.757-1.462 8.887-1.847a16.89 16.89 0 0 0-3.414-.865c-.861-2.046-1.535-4.121-3.532-5.987.225-.309 1.619-.593 2.783-.889zM133.581 78.18c.94.979 1.927 2.004 2.69 2.806 1.768-.616 5.642-.837 9.471-1.029-3.993-.436-7.926-.796-12.16-1.777zM130.671 31.915c4.61.148 9.25-.892 13.163-2.05l-.397 3.01c9.97-4.296 12.481-8.988 14.883-13.263-3.755 5.113-8.404 9.39-13.46 11.443v-3.141c-3.736 1.925-9.969 3.464-14.189 4.001z" style="display:inline;fill:#ff8ab1;fill-opacity:1;stroke-width:.962001;stroke-opacity:.493562"/></g></svg>